<svg version="1.1" viewBox="0.0 0.0 600.0 371.0" fill="none" stroke="none" stroke-linecap="square" stroke-miterlimit="10" width="600" height="371" xmlns:xlink="http://www.w3.org/1999/xlink" xmlns="http://www.w3.org/2000/svg"><path fill="#ffffff" d="M0 0L600.0 0L600.0 371.0L0 371.0L0 0Z" fill-rule="nonzero"/><path stroke="#333333" stroke-width="1.0" stroke-linecap="butt" d="M84.5 112.5L84.5 300.5" fill-rule="nonzero"/><path stroke="#cccccc" stroke-width="1.0" stroke-linecap="butt" d="M208.5 112.5L208.5 300.5" fill-rule="nonzero"/><path stroke="#cccccc" stroke-width="1.0" stroke-linecap="butt" d="M332.5 112.5L332.5 300.5" fill-rule="nonzero"/><path stroke="#cccccc" stroke-width="1.0" stroke-linecap="butt" d="M456.5 112.5L456.5 300.5" fill-rule="nonzero"/><path stroke="#cccccc" stroke-width="1.0" stroke-linecap="butt" d="M581.5 112.5L581.5 300.5" fill-rule="nonzero"/><path stroke="#333333" stroke-width="1.0" stroke-linecap="butt" d="M77.5 300.5L581.5 300.5" fill-rule="nonzero"/><path stroke="#cccccc" stroke-width="1.0" stroke-linecap="butt" d="M77.5 262.5L581.5 262.5" fill-rule="nonzero"/><path stroke="#cccccc" stroke-width="1.0" stroke-linecap="butt" d="M77.5 225.5L581.5 225.5" fill-rule="nonzero"/><path stroke="#cccccc" stroke-width="1.0" stroke-linecap="butt" d="M77.5 187.5L581.5 187.5" fill-rule="nonzero"/><path stroke="#cccccc" stroke-width="1.0" stroke-linecap="butt" d="M77.5 149.5L581.5 149.5" fill-rule="nonzero"/><path stroke="#cccccc" stroke-width="1.0" stroke-linecap="butt" d="M77.5 112.5L581.5 112.5" fill-rule="nonzero"/><clipPath id="id_0"><path d="M77.55 112.28333L581.45 112.28333L581.45 300.45L77.55 300.45L77.55 112.28333Z" clip-rule="nonzero"/></clipPath><path stroke="#4285f4" stroke-width="2.0" stroke-linecap="butt" stroke-opacity="0.4" clip-path="url(#id_0)" d="M0 258.82562L581.45 140.64313" fill-rule="nonzero"/><path fill="#4285f4" clip-path="url(#id_0)" d="M88.86077 241.64792C88.86077 244.1332 86.846054 246.14792 84.36077 246.14792C81.875496 246.14792 79.86077 244.1332 79.86077 241.64792C79.86077 239.16263 81.875496 237.14792 84.36077 237.14792C86.846054 237.14792 88.86077 239.16263 88.86077 241.64792Z" fill-rule="nonzero"/><path fill="#4285f4" clip-path="url(#id_0)" d="M340.20895 190.65475C340.20895 193.14003 338.19424 195.15475 335.70895 195.15475C333.22366 195.15475 331.20895 193.14003 331.20895 190.65475C331.20895 188.16946 333.22366 186.15475 335.70895 186.15475C338.19424 186.15475 340.20895 188.16946 340.20895 190.65475Z" fill-rule="nonzero"/><path fill="#4285f4" clip-path="url(#id_0)" d="M579.1392 141.99484C579.1392 144.48013 577.1245 146.49484 574.6392 146.49484C572.15393 146.49484 570.1392 144.48013 570.1392 141.99484C570.1392 139.50957 572.15393 137.49484 574.6392 137.49484C577.1245 137.49484 579.1392 139.50957 579.1392 141.99484Z" fill-rule="nonzero"/><path fill="#000000" d="M300.9375 349.45L300.9375 340.85626L304.75 340.85626Q305.90625 340.85626 306.5 341.09064Q307.09375 341.325 307.45312 341.91876Q307.8125 342.4969 307.8125 343.2Q307.8125 344.1219 307.21875 344.7469Q306.625 345.3719 305.39062 345.54376Q305.84375 345.7625 306.07812 345.96564Q306.57812 346.41876 307.01562 347.10626L308.51562 349.45L307.07812 349.45L305.95312 347.66876Q305.45312 346.8875 305.125 346.48126Q304.8125 346.075 304.54688 345.91876Q304.29688 345.7469 304.03125 345.66876Q303.84375 345.6375 303.40625 345.6375L302.07812 345.6375L302.07812 349.45L300.9375 349.45ZM302.07812 344.65314L304.53125 344.65314Q305.29688 344.65314 305.73438 344.4969Q306.1875 344.325 306.40625 343.98126Q306.64062 343.6219 306.64062 343.2Q306.64062 342.59064 306.1875 342.2Q305.75 341.8094 304.79688 341.8094L302.07812 341.8094L302.07812 344.65314ZM315.04688 348.4344L315.04688 349.45L309.35938 349.45Q309.35938 349.075 309.48438 348.71564Q309.70312 348.1375 310.17188 347.575Q310.65625 347.0125 311.5625 346.27814Q312.96875 345.1219 313.45312 344.45Q313.95312 343.77814 313.95312 343.1844Q313.95312 342.5594 313.5 342.1375Q313.04688 341.7 312.32812 341.7Q311.5625 341.7 311.10938 342.15314Q310.65625 342.60626 310.64062 343.41876L309.5625 343.3094Q309.67188 342.09064 310.39062 341.46564Q311.125 340.825 312.35938 340.825Q313.59375 340.825 314.3125 341.5125Q315.03125 342.2 315.03125 343.21564Q315.03125 343.73126 314.8125 344.23126Q314.60938 344.71564 314.10938 345.27814Q313.625 345.825 312.5 346.77814Q311.54688 347.575 311.26562 347.8719Q311.0 348.15314 310.82812 348.4344L315.04688 348.4344ZM321.8125 351.98126Q320.9375 350.8719 320.32812 349.40314Q319.73438 347.91876 319.73438 346.34064Q319.73438 344.95 320.17188 343.66876Q320.70312 342.1844 321.8125 340.71564L322.5625 340.71564Q321.85938 341.9344 321.625 342.45Q321.26562 343.2625 321.0625 344.1375Q320.8125 345.23126 320.8125 346.34064Q320.8125 349.16876 322.5625 351.98126L321.8125 351.98126ZM323.57812 345.2625Q323.57812 343.1219 324.71875 341.91876Q325.875 340.7 327.6875 340.7Q328.89062 340.7 329.84375 341.27814Q330.79688 341.84064 331.29688 342.85626Q331.79688 343.8719 331.79688 345.16876Q331.79688 346.46564 331.26562 347.4969Q330.73438 348.52814 329.76562 349.0594Q328.8125 349.59064 327.6875 349.59064Q326.46875 349.59064 325.51562 349.0125Q324.5625 348.41876 324.0625 347.41876Q323.57812 346.40314 323.57812 345.2625ZM324.75 345.27814Q324.75 346.84064 325.57812 347.73126Q326.42188 348.6219 327.6875 348.6219Q328.96875 348.6219 329.79688 347.73126Q330.625 346.825 330.625 345.15314Q330.625 344.10626 330.26562 343.325Q329.92188 342.54376 329.23438 342.1219Q328.54688 341.6844 327.70312 341.6844Q326.5 341.6844 325.625 342.5125Q324.75 343.34064 324.75 345.27814ZM332.79688 349.45L332.79688 340.85626L333.84375 340.85626L333.84375 343.9344Q334.57812 343.09064 335.70312 343.09064Q336.40625 343.09064 336.90625 343.3719Q337.42188 343.6375 337.64062 344.1219Q337.85938 344.59064 337.85938 345.5125L337.85938 349.45L336.8125 349.45L336.8125 345.5125Q336.8125 344.71564 336.46875 344.35626Q336.125 343.9969 335.5 343.9969Q335.03125 343.9969 334.60938 344.2469Q334.20312 344.48126 334.01562 344.90314Q333.84375 345.3094 333.84375 346.04376L333.84375 349.45L332.79688 349.45ZM339.79688 349.45L339.79688 343.23126L340.73438 343.23126L340.73438 344.10626Q341.03125 343.6375 341.51562 343.3719Q342.0 343.09064 342.625 343.09064Q343.3125 343.09064 343.75 343.3719Q344.20312 343.65314 344.375 344.16876Q345.125 343.09064 346.29688 343.09064Q347.23438 343.09064 347.71875 343.60626Q348.21875 344.10626 348.21875 345.1844L348.21875 349.45L347.17188 349.45L347.17188 345.52814Q347.17188 344.90314 347.0625 344.6219Q346.96875 344.34064 346.70312 344.16876Q346.4375 343.9969 346.0625 343.9969Q345.40625 343.9969 344.96875 344.4344Q344.54688 344.8719 344.54688 345.84064L344.54688 349.45L343.48438 349.45L343.48438 345.40314Q343.48438 344.7 343.21875 344.35626Q342.96875 343.9969 342.39062 343.9969Q341.9375 343.9969 341.5625 344.23126Q341.1875 344.46564 341.01562 344.91876Q340.84375 345.3719 340.84375 346.21564L340.84375 349.45L339.79688 349.45ZM349.375 347.59064L350.40625 347.4344Q350.5 348.0594 350.89062 348.3875Q351.29688 348.71564 352.03125 348.71564Q352.75 348.71564 353.09375 348.4344Q353.45312 348.1375 353.45312 347.73126Q353.45312 347.3719 353.14062 347.16876Q352.92188 347.02814 352.0625 346.8094Q350.90625 346.5125 350.45312 346.3094Q350.01562 346.09064 349.78125 345.71564Q349.54688 345.34064 349.54688 344.8719Q349.54688 344.46564 349.73438 344.10626Q349.92188 343.7469 350.25 343.5125Q350.5 343.34064 350.92188 343.21564Q351.34375 343.09064 351.84375 343.09064Q352.5625 343.09064 353.10938 343.3094Q353.67188 343.5125 353.9375 343.8719Q354.20312 344.23126 354.29688 344.825L353.26562 344.96564Q353.20312 344.4969 352.85938 344.23126Q352.53125 343.95 351.90625 343.95Q351.1875 343.95 350.875 344.2Q350.5625 344.4344 350.5625 344.7625Q350.5625 344.96564 350.6875 345.1219Q350.82812 345.29376 351.09375 345.40314Q351.25 345.46564 352.03125 345.66876Q353.15625 345.98126 353.59375 346.16876Q354.03125 346.35626 354.28125 346.71564Q354.53125 347.075 354.53125 347.6219Q354.53125 348.15314 354.21875 348.6219Q353.92188 349.075 353.34375 349.34064Q352.76562 349.59064 352.03125 349.59064Q350.8125 349.59064 350.17188 349.09064Q349.54688 348.575 349.375 347.59064ZM356.48438 351.98126L355.73438 351.98126Q357.48438 349.16876 357.48438 346.34064Q357.48438 345.2469 357.23438 344.15314Q357.03125 343.27814 356.67188 342.46564Q356.4375 341.95 355.73438 340.71564L356.48438 340.71564Q357.57812 342.1844 358.10938 343.66876Q358.5625 344.95 358.5625 346.34064Q358.5625 347.91876 357.95312 349.40314Q357.34375 350.8719 356.48438 351.98126Z" fill-rule="nonzero"/><path fill="#000000" d="M29.550013 226.49167L20.956263 229.8198L20.956263 228.58542L27.206263 226.35104Q27.956263 226.08542 28.612513 225.89792Q27.909388 225.6948 27.206263 225.42917L20.956263 223.11667L20.956263 221.96042L29.550013 225.3198L29.550013 226.49167ZM26.440638 221.46042Q24.706263 221.46042 23.878138 220.5073Q23.190638 219.71042 23.190638 218.55417Q23.190638 217.27292 24.034388 216.46042Q24.862513 215.6323 26.346888 215.6323Q27.550013 215.6323 28.237513 215.99167Q28.925013 216.35104 29.315638 217.05417Q29.690638 217.74167 29.690638 218.55417Q29.690638 219.85104 28.862513 220.66354Q28.018763 221.46042 26.440638 221.46042ZM26.440638 220.3823Q27.628138 220.3823 28.221888 219.86667Q28.815638 219.33542 28.815638 218.55417Q28.815638 217.7573 28.221888 217.24167Q27.628138 216.72604 26.409388 216.72604Q25.253138 216.72604 24.659388 217.2573Q24.065638 217.77292 24.065638 218.55417Q24.065638 219.33542 24.659388 219.86667Q25.237513 220.3823 26.440638 220.3823ZM32.08126 209.05417Q30.971888 209.92917 29.503138 210.53854Q28.018763 211.1323 26.440638 211.1323Q25.050013 211.1323 23.768763 210.6948Q22.284388 210.16354 20.815638 209.05417L20.815638 208.30417Q22.034388 209.0073 22.550013 209.24167Q23.362513 209.60104 24.237513 209.80417Q25.331263 210.05417 26.440638 210.05417Q29.268763 210.05417 32.08126 208.30417L32.08126 209.05417ZM29.550013 204.49167L20.956263 207.8198L20.956263 206.58542L27.206263 204.35104Q27.956263 204.08542 28.612513 203.89792Q27.909388 203.6948 27.206263 203.42917L20.956263 201.11667L20.956263 199.96042L29.550013 203.3198L29.550013 204.49167ZM32.08126 198.3823L32.08126 199.1323Q29.268763 197.3823 26.440638 197.3823Q25.346888 197.3823 24.253138 197.6323Q23.378138 197.83542 22.565638 198.1948Q22.050013 198.42917 20.815638 199.1323L20.815638 198.3823Q22.284388 197.28854 23.768763 196.7573Q25.050013 196.30417 26.440638 196.30417Q28.018763 196.30417 29.503138 196.91354Q30.971888 197.52292 32.08126 198.3823Z" fill-rule="nonzero"/><path fill="#000000" d="M65.05 300.21564Q65.05 298.6844 65.3625 297.7625Q65.675 296.825 66.28438 296.325Q66.90938 295.825 67.84688 295.825Q68.53438 295.825 69.05 296.10626Q69.58125 296.3875 69.925 296.91876Q70.26875 297.4344 70.45625 298.1844Q70.64375 298.9344 70.64375 300.21564Q70.64375 301.73126 70.33125 302.65314Q70.03438 303.575 69.40938 304.09064Q68.8 304.59064 67.84688 304.59064Q66.6125 304.59064 65.89375 303.7Q65.05 302.6375 65.05 300.21564ZM66.12813 300.21564Q66.12813 302.325 66.62813 303.02814Q67.12813 303.73126 67.84688 303.73126Q68.58125 303.73126 69.06563 303.02814Q69.56563 302.325 69.56563 300.21564Q69.56563 298.09064 69.06563 297.40314Q68.58125 296.7 67.83125 296.7Q67.1125 296.7 66.675 297.3094Q66.12813 298.09064 66.12813 300.21564Z" fill-rule="nonzero"/><path fill="#000000" d="M70.59688 265.80106L70.59688 266.81668L64.90938 266.81668Q64.90938 266.44168 65.03438 266.0823Q65.25313 265.50418 65.72188 264.94168Q66.20625 264.37918 67.1125 263.6448Q68.51875 262.48856 69.00313 261.81668Q69.50313 261.1448 69.50313 260.55106Q69.50313 259.92606 69.05 259.50418Q68.59688 259.06668 67.87813 259.06668Q67.1125 259.06668 66.65938 259.5198Q66.20625 259.97293 66.19063 260.78543L65.1125 260.67606Q65.22188 259.4573 65.94063 258.8323Q66.675 258.19168 67.90938 258.19168Q69.14375 258.19168 69.8625 258.87918Q70.58125 259.56668 70.58125 260.5823Q70.58125 261.09793 70.3625 261.59793Q70.15938 262.0823 69.65938 262.6448Q69.175 263.19168 68.05 264.1448Q67.09688 264.94168 66.81563 265.23856Q66.55 265.5198 66.37813 265.80106L70.59688 265.80106Z" fill-rule="nonzero"/><path fill="#000000" d="M68.425 229.18333L68.425 227.12083L64.70625 227.12083L64.70625 226.15208L68.62813 220.58958L69.4875 220.58958L69.4875 226.15208L70.64375 226.15208L70.64375 227.12083L69.4875 227.12083L69.4875 229.18333L68.425 229.18333ZM68.425 226.15208L68.425 222.29271L65.7375 226.15208L68.425 226.15208Z" fill-rule="nonzero"/><path fill="#000000" d="M70.51875 185.06563L69.47188 185.14375Q69.33125 184.51875 69.08125 184.2375Q68.64375 183.78438 68.01875 183.78438Q67.51875 183.78438 67.12813 184.06563Q66.64375 184.44063 66.34688 185.14375Q66.06563 185.83125 66.05 187.1125Q66.425 186.53438 66.97188 186.25313Q67.53438 185.97188 68.14375 185.97188Q69.19063 185.97188 69.925 186.75313Q70.675 187.53438 70.675 188.75313Q70.675 189.56563 70.31563 190.26875Q69.97188 190.95625 69.3625 191.33125Q68.75313 191.69063 67.9875 191.69063Q66.65938 191.69063 65.83125 190.72188Q65.00313 189.75313 65.00313 187.53438Q65.00313 185.03438 65.925 183.90938Q66.72188 182.925 68.08125 182.925Q69.09688 182.925 69.7375 183.50313Q70.39375 184.06563 70.51875 185.06563ZM66.22188 188.76875Q66.22188 189.31563 66.44063 189.81563Q66.675 190.3 67.08125 190.56563Q67.50313 190.83125 67.97188 190.83125Q68.62813 190.83125 69.1125 190.3Q69.59688 189.75313 69.59688 188.83125Q69.59688 187.94063 69.1125 187.425Q68.64375 186.90938 67.925 186.90938Q67.20625 186.90938 66.70625 187.425Q66.22188 187.94063 66.22188 188.76875Z" fill-rule="nonzero"/><path fill="#000000" d="M66.675 149.26042Q66.01875 149.01042 65.69063 148.57292Q65.37813 148.1198 65.37813 147.51042Q65.37813 146.57292 66.05 145.9323Q66.7375 145.29167 67.84688 145.29167Q68.97188 145.29167 69.65938 145.94792Q70.34688 146.60417 70.34688 147.54167Q70.34688 148.13542 70.03438 148.57292Q69.72188 149.01042 69.08125 149.26042Q69.87813 149.51042 70.28438 150.08855Q70.69063 150.66667 70.69063 151.46355Q70.69063 152.5573 69.90938 153.3073Q69.14375 154.0573 67.8625 154.0573Q66.59688 154.0573 65.81563 153.3073Q65.03438 152.5573 65.03438 151.4323Q65.03438 150.58855 65.45625 150.02605Q65.89375 149.46355 66.675 149.26042ZM66.45625 147.46355Q66.45625 148.07292 66.84688 148.46355Q67.25313 148.85417 67.87813 148.85417Q68.4875 148.85417 68.87813 148.47917Q69.26875 148.08855 69.26875 147.52605Q69.26875 146.94792 68.8625 146.5573Q68.45625 146.15105 67.8625 146.15105Q67.25313 146.15105 66.84688 146.54167Q66.45625 146.9323 66.45625 147.46355ZM66.12813 151.4323Q66.12813 151.88542 66.33125 152.3073Q66.55 152.72917 66.97188 152.96355Q67.39375 153.19792 67.87813 153.19792Q68.62813 153.19792 69.1125 152.71355Q69.6125 152.22917 69.6125 151.47917Q69.6125 150.71355 69.1125 150.21355Q68.6125 149.71355 67.84688 149.71355Q67.09688 149.71355 66.6125 150.21355Q66.12813 150.69792 66.12813 151.4323Z" fill-rule="nonzero"/><path fill="#000000" d="M62.01875 116.28333L60.971874 116.28333L60.971874 109.56458Q60.58125 109.92396 59.95625 110.29896Q59.346874 110.65833 58.8625 110.83021L58.8625 109.81458Q59.7375 109.39271 60.39375 108.81458Q61.065624 108.22083 61.346874 107.65833L62.01875 107.65833L62.01875 116.28333ZM65.05 112.04896Q65.05 110.51771 65.3625 109.59583Q65.675 108.65833 66.28438 108.15833Q66.90938 107.65833 67.84688 107.65833Q68.53438 107.65833 69.05 107.93958Q69.58125 108.22083 69.925 108.75208Q70.26875 109.26771 70.45625 110.01771Q70.64375 110.76771 70.64375 112.04896Q70.64375 113.56458 70.33125 114.48646Q70.03438 115.40833 69.40938 115.92396Q68.8 116.42396 67.84688 116.42396Q66.6125 116.42396 65.89375 115.53333Q65.05 114.47083 65.05 112.04896ZM66.12813 112.04896Q66.12813 114.15833 66.62813 114.86146Q67.12813 115.56458 67.84688 115.56458Q68.58125 115.56458 69.06563 114.86146Q69.56563 114.15833 69.56563 112.04896Q69.56563 109.92396 69.06563 109.23646Q68.58125 108.53333 67.83125 108.53333Q67.1125 108.53333 66.675 109.14271Q66.12813 109.92396 66.12813 112.04896Z" fill-rule="nonzero"/><path fill="#000000" d="M81.360275 313.21564Q81.360275 311.6844 81.672775 310.7625Q81.985275 309.825 82.59465 309.325Q83.21965 308.825 84.15715 308.825Q84.84465 308.825 85.360275 309.10626Q85.891525 309.3875 86.235275 309.91876Q86.579025 310.4344 86.766525 311.1844Q86.954025 311.9344 86.954025 313.21564Q86.954025 314.73126 86.641525 315.65314Q86.34465 316.575 85.71965 317.09064Q85.110275 317.59064 84.15715 317.59064Q82.922775 317.59064 82.204025 316.7Q81.360275 315.6375 81.360275 313.21564ZM82.4384 313.21564Q82.4384 315.325 82.9384 316.02814Q83.4384 316.73126 84.15715 316.73126Q84.891525 316.73126 85.3759 316.02814Q85.8759 315.325 85.8759 313.21564Q85.8759 311.09064 85.3759 310.40314Q84.891525 309.7 84.141525 309.7Q83.422775 309.7 82.985275 310.3094Q82.4384 311.09064 82.4384 313.21564Z" fill-rule="nonzero"/><path fill="#000000" d="M200.59128 316.4344L200.59128 317.45L194.90378 317.45Q194.90378 317.075 195.02878 316.71564Q195.24753 316.1375 195.71628 315.575Q196.20065 315.0125 197.1069 314.27814Q198.51315 313.1219 198.99753 312.45Q199.49753 311.77814 199.49753 311.1844Q199.49753 310.5594 199.0444 310.1375Q198.59128 309.7 197.87253 309.7Q197.1069 309.7 196.65378 310.15314Q196.20065 310.60626 196.18503 311.41876L195.1069 311.3094Q195.21628 310.09064 195.93503 309.46564Q196.6694 308.825 197.90378 308.825Q199.13815 308.825 199.8569 309.5125Q200.57565 310.2 200.57565 311.21564Q200.57565 311.73126 200.3569 312.23126Q200.15378 312.71564 199.65378 313.27814Q199.1694 313.825 198.0444 314.77814Q197.09128 315.575 196.81003 315.8719Q196.5444 316.15314 196.37253 316.4344L200.59128 316.4344ZM202.0444 315.2L203.15378 315.10626Q203.27878 315.91876 203.71628 316.325Q204.1694 316.73126 204.81003 316.73126Q205.56003 316.73126 206.09128 316.15314Q206.62253 315.575 206.62253 314.6375Q206.62253 313.73126 206.1069 313.21564Q205.6069 312.6844 204.77878 312.6844Q204.27878 312.6844 203.8569 312.91876Q203.45065 313.15314 203.21628 313.5125L202.2319 313.3875L203.06003 308.98126L207.34128 308.98126L207.34128 309.98126L203.90378 309.98126L203.45065 312.29376Q204.21628 311.7469 205.06003 311.7469Q206.18503 311.7469 206.95065 312.52814Q207.7319 313.3094 207.7319 314.54376Q207.7319 315.7 207.06003 316.5594Q206.2319 317.59064 204.81003 317.59064Q203.63815 317.59064 202.88815 316.9344Q202.15378 316.27814 202.0444 315.2ZM209.0444 313.21564Q209.0444 311.6844 209.3569 310.7625Q209.6694 309.825 210.27878 309.325Q210.90378 308.825 211.84128 308.825Q212.52878 308.825 213.0444 309.10626Q213.57565 309.3875 213.9194 309.91876Q214.26315 310.4344 214.45065 311.1844Q214.63815 311.9344 214.63815 313.21564Q214.63815 314.73126 214.32565 315.65314Q214.02878 316.575 213.40378 317.09064Q212.7944 317.59064 211.84128 317.59064Q210.6069 317.59064 209.88815 316.7Q209.0444 315.6375 209.0444 313.21564ZM210.12253 313.21564Q210.12253 315.325 210.62253 316.02814Q211.12253 316.73126 211.84128 316.73126Q212.57565 316.73126 213.06003 316.02814Q213.56003 315.325 213.56003 313.21564Q213.56003 311.09064 213.06003 310.40314Q212.57565 309.7 211.82565 309.7Q211.1069 309.7 210.6694 310.3094Q210.12253 311.09064 210.12253 313.21564ZM216.0444 313.21564Q216.0444 311.6844 216.3569 310.7625Q216.6694 309.825 217.27878 309.325Q217.90378 308.825 218.84128 308.825Q219.52878 308.825 220.0444 309.10626Q220.57565 309.3875 220.9194 309.91876Q221.26315 310.4344 221.45065 311.1844Q221.63815 311.9344 221.63815 313.21564Q221.63815 314.73126 221.32565 315.65314Q221.02878 316.575 220.40378 317.09064Q219.7944 317.59064 218.84128 317.59064Q217.6069 317.59064 216.88815 316.7Q216.0444 315.6375 216.0444 313.21564ZM217.12253 313.21564Q217.12253 315.325 217.62253 316.02814Q218.12253 316.73126 218.84128 316.73126Q219.57565 316.73126 220.06003 316.02814Q220.56003 315.325 220.56003 313.21564Q220.56003 311.09064 220.06003 310.40314Q219.57565 309.7 218.82565 309.7Q218.1069 309.7 217.6694 310.3094Q217.12253 311.09064 217.12253 313.21564Z" fill-rule="nonzero"/><path fill="#000000" d="M319.22855 315.2L320.33792 315.10626Q320.46292 315.91876 320.90042 316.325Q321.35355 316.73126 321.99417 316.73126Q322.74417 316.73126 323.27542 316.15314Q323.80667 315.575 323.80667 314.6375Q323.80667 313.73126 323.29105 313.21564Q322.79105 312.6844 321.96292 312.6844Q321.46292 312.6844 321.04105 312.91876Q320.6348 313.15314 320.40042 313.5125L319.41605 313.3875L320.24417 308.98126L324.52542 308.98126L324.52542 309.98126L321.08792 309.98126L320.6348 312.29376Q321.40042 311.7469 322.24417 311.7469Q323.36917 311.7469 324.1348 312.52814Q324.91605 313.3094 324.91605 314.54376Q324.91605 315.7 324.24417 316.5594Q323.41605 317.59064 321.99417 317.59064Q320.8223 317.59064 320.0723 316.9344Q319.33792 316.27814 319.22855 315.2ZM326.22855 313.21564Q326.22855 311.6844 326.54105 310.7625Q326.85355 309.825 327.46292 309.325Q328.08792 308.825 329.02542 308.825Q329.71292 308.825 330.22855 309.10626Q330.7598 309.3875 331.10355 309.91876Q331.4473 310.4344 331.6348 311.1844Q331.8223 311.9344 331.8223 313.21564Q331.8223 314.73126 331.5098 315.65314Q331.21292 316.575 330.58792 317.09064Q329.97855 317.59064 329.02542 317.59064Q327.79105 317.59064 327.0723 316.7Q326.22855 315.6375 326.22855 313.21564ZM327.30667 313.21564Q327.30667 315.325 327.80667 316.02814Q328.30667 316.73126 329.02542 316.73126Q329.7598 316.73126 330.24417 316.02814Q330.74417 315.325 330.74417 313.21564Q330.74417 311.09064 330.24417 310.40314Q329.7598 309.7 329.0098 309.7Q328.29105 309.7 327.85355 310.3094Q327.30667 311.09064 327.30667 313.21564ZM333.22855 313.21564Q333.22855 311.6844 333.54105 310.7625Q333.85355 309.825 334.46292 309.325Q335.08792 308.825 336.02542 308.825Q336.71292 308.825 337.22855 309.10626Q337.7598 309.3875 338.10355 309.91876Q338.4473 310.4344 338.6348 311.1844Q338.8223 311.9344 338.8223 313.21564Q338.8223 314.73126 338.5098 315.65314Q338.21292 316.575 337.58792 317.09064Q336.97855 317.59064 336.02542 317.59064Q334.79105 317.59064 334.0723 316.7Q333.22855 315.6375 333.22855 313.21564ZM334.30667 313.21564Q334.30667 315.325 334.80667 316.02814Q335.30667 316.73126 336.02542 316.73126Q336.7598 316.73126 337.24417 316.02814Q337.74417 315.325 337.74417 313.21564Q337.74417 311.09064 337.24417 310.40314Q336.7598 309.7 336.0098 309.7Q335.29105 309.7 334.85355 310.3094Q334.30667 311.09064 334.30667 313.21564ZM340.22855 313.21564Q340.22855 311.6844 340.54105 310.7625Q340.85355 309.825 341.46292 309.325Q342.08792 308.825 343.02542 308.825Q343.71292 308.825 344.22855 309.10626Q344.7598 309.3875 345.10355 309.91876Q345.4473 310.4344 345.6348 311.1844Q345.8223 311.9344 345.8223 313.21564Q345.8223 314.73126 345.5098 315.65314Q345.21292 316.575 344.58792 317.09064Q343.97855 317.59064 343.02542 317.59064Q341.79105 317.59064 341.0723 316.7Q340.22855 315.6375 340.22855 313.21564ZM341.30667 313.21564Q341.30667 315.325 341.80667 316.02814Q342.30667 316.73126 343.02542 316.73126Q343.7598 316.73126 344.24417 316.02814Q344.74417 315.325 344.74417 313.21564Q344.74417 311.09064 344.24417 310.40314Q343.7598 309.7 343.0098 309.7Q342.29105 309.7 341.85355 310.3094Q341.30667 311.09064 341.30667 313.21564Z" fill-rule="nonzero"/><path fill="#000000" d="M443.47516 309.98126L443.47516 308.96564L449.03766 308.96564L449.03766 309.79376Q448.22516 310.66876 447.41266 312.1219Q446.61578 313.5594 446.17828 315.09064Q445.85016 316.16876 445.77203 317.45L444.67828 317.45Q444.6939 316.4344 445.0689 314.9969Q445.45953 313.5594 446.16266 312.23126Q446.8814 310.90314 447.6939 309.98126L443.47516 309.98126ZM450.41266 315.2L451.52203 315.10626Q451.64703 315.91876 452.08453 316.325Q452.53766 316.73126 453.17828 316.73126Q453.92828 316.73126 454.45953 316.15314Q454.99078 315.575 454.99078 314.6375Q454.99078 313.73126 454.47516 313.21564Q453.97516 312.6844 453.14703 312.6844Q452.64703 312.6844 452.22516 312.91876Q451.8189 313.15314 451.58453 313.5125L450.60016 313.3875L451.42828 308.98126L455.70953 308.98126L455.70953 309.98126L452.27203 309.98126L451.8189 312.29376Q452.58453 311.7469 453.42828 311.7469Q454.55328 311.7469 455.3189 312.52814Q456.10016 313.3094 456.10016 314.54376Q456.10016 315.7 455.42828 316.5594Q454.60016 317.59064 453.17828 317.59064Q452.0064 317.59064 451.2564 316.9344Q450.52203 316.27814 450.41266 315.2ZM457.41266 313.21564Q457.41266 311.6844 457.72516 310.7625Q458.03766 309.825 458.64703 309.325Q459.27203 308.825 460.20953 308.825Q460.89703 308.825 461.41266 309.10626Q461.9439 309.3875 462.28766 309.91876Q462.6314 310.4344 462.8189 311.1844Q463.0064 311.9344 463.0064 313.21564Q463.0064 314.73126 462.6939 315.65314Q462.39703 316.575 461.77203 317.09064Q461.16266 317.59064 460.20953 317.59064Q458.97516 317.59064 458.2564 316.7Q457.41266 315.6375 457.41266 313.21564ZM458.49078 313.21564Q458.49078 315.325 458.99078 316.02814Q459.49078 316.73126 460.20953 316.73126Q460.9439 316.73126 461.42828 316.02814Q461.92828 315.325 461.92828 313.21564Q461.92828 311.09064 461.42828 310.40314Q460.9439 309.7 460.1939 309.7Q459.47516 309.7 459.03766 310.3094Q458.49078 311.09064 458.49078 313.21564ZM464.41266 313.21564Q464.41266 311.6844 464.72516 310.7625Q465.03766 309.825 465.64703 309.325Q466.27203 308.825 467.20953 308.825Q467.89703 308.825 468.41266 309.10626Q468.9439 309.3875 469.28766 309.91876Q469.6314 310.4344 469.8189 311.1844Q470.0064 311.9344 470.0064 313.21564Q470.0064 314.73126 469.6939 315.65314Q469.39703 316.575 468.77203 317.09064Q468.16266 317.59064 467.20953 317.59064Q465.97516 317.59064 465.2564 316.7Q464.41266 315.6375 464.41266 313.21564ZM465.49078 313.21564Q465.49078 315.325 465.99078 316.02814Q466.49078 316.73126 467.20953 316.73126Q467.9439 316.73126 468.42828 316.02814Q468.92828 315.325 468.92828 313.21564Q468.92828 311.09064 468.42828 310.40314Q467.9439 309.7 467.1939 309.7Q466.47516 309.7 466.03766 310.3094Q465.49078 311.09064 465.49078 313.21564Z" fill-rule="nonzero"/><path fill="#000000" d="M568.06555 317.45L567.0187 317.45L567.0187 310.73126Q566.62805 311.09064 566.00305 311.46564Q565.3937 311.825 564.9093 311.9969L564.9093 310.98126Q565.7843 310.5594 566.44055 309.98126Q567.1124 309.3875 567.3937 308.825L568.06555 308.825L568.06555 317.45ZM571.0968 313.21564Q571.0968 311.6844 571.4093 310.7625Q571.7218 309.825 572.3312 309.325Q572.9562 308.825 573.8937 308.825Q574.5812 308.825 575.0968 309.10626Q575.62805 309.3875 575.9718 309.91876Q576.31555 310.4344 576.50305 311.1844Q576.69055 311.9344 576.69055 313.21564Q576.69055 314.73126 576.37805 315.65314Q576.0812 316.575 575.4562 317.09064Q574.8468 317.59064 573.8937 317.59064Q572.6593 317.59064 571.94055 316.7Q571.0968 315.6375 571.0968 313.21564ZM572.1749 313.21564Q572.1749 315.325 572.6749 316.02814Q573.1749 316.73126 573.8937 316.73126Q574.62805 316.73126 575.1124 316.02814Q575.6124 315.325 575.6124 313.21564Q575.6124 311.09064 575.1124 310.40314Q574.62805 309.7 573.87805 309.7Q573.1593 309.7 572.7218 310.3094Q572.1749 311.09064 572.1749 313.21564ZM578.0968 313.21564Q578.0968 311.6844 578.4093 310.7625Q578.7218 309.825 579.3312 309.325Q579.9562 308.825 580.8937 308.825Q581.5812 308.825 582.0968 309.10626Q582.62805 309.3875 582.9718 309.91876Q583.31555 310.4344 583.50305 311.1844Q583.69055 311.9344 583.69055 313.21564Q583.69055 314.73126 583.37805 315.65314Q583.0812 316.575 582.4562 317.09064Q581.8468 317.59064 580.8937 317.59064Q579.6593 317.59064 578.94055 316.7Q578.0968 315.6375 578.0968 313.21564ZM579.1749 313.21564Q579.1749 315.325 579.6749 316.02814Q580.1749 316.73126 580.8937 316.73126Q581.62805 316.73126 582.1124 316.02814Q582.6124 315.325 582.6124 313.21564Q582.6124 311.09064 582.1124 310.40314Q581.62805 309.7 580.87805 309.7Q580.1593 309.7 579.7218 310.3094Q579.1749 311.09064 579.1749 313.21564ZM585.0968 313.21564Q585.0968 311.6844 585.4093 310.7625Q585.7218 309.825 586.3312 309.325Q586.9562 308.825 587.8937 308.825Q588.5812 308.825 589.0968 309.10626Q589.62805 309.3875 589.9718 309.91876Q590.31555 310.4344 590.50305 311.1844Q590.69055 311.9344 590.69055 313.21564Q590.69055 314.73126 590.37805 315.65314Q590.0812 316.575 589.4562 317.09064Q588.8468 317.59064 587.8937 317.59064Q586.6593 317.59064 585.94055 316.7Q585.0968 315.6375 585.0968 313.21564ZM586.1749 313.21564Q586.1749 315.325 586.6749 316.02814Q587.1749 316.73126 587.8937 316.73126Q588.62805 316.73126 589.1124 316.02814Q589.6124 315.325 589.6124 313.21564Q589.6124 311.09064 589.1124 310.40314Q588.62805 309.7 587.87805 309.7Q587.1593 309.7 586.7218 310.3094Q586.1749 311.09064 586.1749 313.21564ZM592.0968 313.21564Q592.0968 311.6844 592.4093 310.7625Q592.7218 309.825 593.3312 309.325Q593.9562 308.825 594.8937 308.825Q595.5812 308.825 596.0968 309.10626Q596.62805 309.3875 596.9718 309.91876Q597.31555 310.4344 597.50305 311.1844Q597.69055 311.9344 597.69055 313.21564Q597.69055 314.73126 597.37805 315.65314Q597.0812 316.575 596.4562 317.09064Q595.8468 317.59064 594.8937 317.59064Q593.6593 317.59064 592.94055 316.7Q592.0968 315.6375 592.0968 313.21564ZM593.1749 313.21564Q593.1749 315.325 593.6749 316.02814Q594.1749 316.73126 594.8937 316.73126Q595.62805 316.73126 596.1124 316.02814Q596.6124 315.325 596.6124 313.21564Q596.6124 311.09064 596.1124 310.40314Q595.62805 309.7 594.87805 309.7Q594.1593 309.7 593.7218 310.3094Q593.1749 311.09064 593.1749 313.21564Z" fill-rule="nonzero"/><path fill="#4285f4" d="M218.0 85.916664C218.0 89.23038 215.3137 91.916664 212.0 91.916664C208.6863 91.916664 206.0 89.23038 206.0 85.916664C206.0 82.60296 208.6863 79.916664 212.0 79.916664C215.3137 79.916664 218.0 82.60296 218.0 85.916664Z" fill-rule="nonzero"/><path fill="#1a1a1a" d="M229.375 89.916664L226.04688 81.322914L227.28125 81.322914L229.51562 87.572914Q229.78125 88.322914 229.96875 88.979164Q230.17188 88.27604 230.4375 87.572914L232.75 81.322914L233.90625 81.322914L230.54688 89.916664L229.375 89.916664ZM234.40625 86.80729Q234.40625 85.072914 235.35938 84.24479Q236.15625 83.55729 237.3125 83.55729Q238.59375 83.55729 239.40625 84.40104Q240.23438 85.229164 240.23438 86.71354Q240.23438 87.916664 239.875 88.604164Q239.51562 89.291664 238.8125 89.68229Q238.125 90.05729 237.3125 90.05729Q236.01562 90.05729 235.20312 89.229164Q234.40625 88.385414 234.40625 86.80729ZM235.48438 86.80729Q235.48438 87.99479 236.0 88.58854Q236.53125 89.18229 237.3125 89.18229Q238.10938 89.18229 238.625 88.58854Q239.14062 87.99479 239.14062 86.77604Q239.14062 85.61979 238.60938 85.02604Q238.09375 84.43229 237.3125 84.43229Q236.53125 84.43229 236.0 85.02604Q235.48438 85.604164 235.48438 86.80729ZM246.8125 92.447914Q245.9375 91.33854 245.32812 89.86979Q244.73438 88.385414 244.73438 86.80729Q244.73438 85.416664 245.17188 84.135414Q245.70312 82.65104 246.8125 81.18229L247.5625 81.18229Q246.85938 82.40104 246.625 82.916664Q246.26562 83.729164 246.0625 84.604164Q245.8125 85.697914 245.8125 86.80729Q245.8125 89.635414 247.5625 92.447914L246.8125 92.447914ZM251.375 89.916664L248.04688 81.322914L249.28125 81.322914L251.51562 87.572914Q251.78125 88.322914 251.96875 88.979164Q252.17188 88.27604 252.4375 87.572914L254.75 81.322914L255.90625 81.322914L252.54688 89.916664L251.375 89.916664ZM257.48438 92.447914L256.73438 92.447914Q258.48438 89.635414 258.48438 86.80729Q258.48438 85.71354 258.23438 84.61979Q258.03125 83.74479 257.67188 82.93229Q257.4375 82.416664 256.73438 81.18229L257.48438 81.18229Q258.57812 82.65104 259.10938 84.135414Q259.5625 85.416664 259.5625 86.80729Q259.5625 88.385414 258.95312 89.86979Q258.34375 91.33854 257.48438 92.447914Z" fill-rule="nonzero"/><path stroke="#4285f4" stroke-width="4.0" stroke-linecap="butt" stroke-opacity="0.4" d="M276.0 85.916664L288.0 85.916664" fill-rule="nonzero"/><path fill="#1a1a1a" d="M296.5 87.666664L297.60938 87.572914Q297.73438 88.385414 298.17188 88.791664Q298.625 89.197914 299.26562 89.197914Q300.01562 89.197914 300.54688 88.61979Q301.07812 88.041664 301.07812 87.104164Q301.07812 86.197914 300.5625 85.68229Q300.0625 85.15104 299.23438 85.15104Q298.73438 85.15104 298.3125 85.385414Q297.90625 85.61979 297.67188 85.979164L296.6875 85.854164L297.51562 81.447914L301.79688 81.447914L301.79688 82.447914L298.35938 82.447914L297.90625 84.760414Q298.67188 84.21354 299.51562 84.21354Q300.64062 84.21354 301.40625 84.99479Q302.1875 85.77604 302.1875 87.010414Q302.1875 88.166664 301.51562 89.02604Q300.6875 90.05729 299.26562 90.05729Q298.09375 90.05729 297.34375 89.40104Q296.60938 88.74479 296.5 87.666664ZM304.09375 89.916664L304.09375 88.71354L305.29688 88.71354L305.29688 89.916664L304.09375 89.916664ZM306.5 87.65104L307.5625 87.510414Q307.73438 88.40104 308.17188 88.80729Q308.60938 89.197914 309.23438 89.197914Q309.98438 89.197914 310.5 88.68229Q311.01562 88.166664 311.01562 87.40104Q311.01562 86.68229 310.53125 86.21354Q310.0625 85.729164 309.32812 85.729164Q309.03125 85.729164 308.57812 85.854164L308.70312 84.916664Q308.8125 84.93229 308.875 84.93229Q309.54688 84.93229 310.07812 84.58854Q310.625 84.229164 310.625 83.49479Q310.625 82.916664 310.23438 82.541664Q309.84375 82.15104 309.21875 82.15104Q308.60938 82.15104 308.1875 82.541664Q307.78125 82.93229 307.67188 83.697914L306.60938 83.510414Q306.79688 82.46354 307.48438 81.885414Q308.17188 81.291664 309.1875 81.291664Q309.89062 81.291664 310.48438 81.604164Q311.07812 81.90104 311.39062 82.416664Q311.70312 82.93229 311.70312 83.52604Q311.70312 84.072914 311.40625 84.541664Q311.10938 84.99479 310.53125 85.260414Q311.28125 85.43229 311.70312 85.99479Q312.125 86.541664 312.125 87.385414Q312.125 88.510414 311.29688 89.291664Q310.48438 90.072914 309.23438 90.072914Q308.10938 90.072914 307.35938 89.40104Q306.60938 88.71354 306.5 87.65104ZM313.5625 82.447914L313.5625 81.43229L319.125 81.43229L319.125 82.260414Q318.3125 83.135414 317.5 84.58854Q316.70312 86.02604 316.26562 87.55729Q315.9375 88.635414 315.85938 89.916664L314.76562 89.916664Q314.78125 88.90104 315.15625 87.46354Q315.54688 86.02604 316.25 84.697914Q316.96875 83.36979 317.78125 82.447914L313.5625 82.447914ZM320.95312 89.916664L320.95312 81.322914L327.15625 81.322914L327.15625 82.33854L322.09375 82.33854L322.09375 84.96354L326.84375 84.96354L326.84375 85.979164L322.09375 85.979164L322.09375 88.90104L327.35938 88.90104L327.35938 89.916664L320.95312 89.916664ZM328.375 87.33854L328.375 86.27604L331.625 86.27604L331.625 87.33854L328.375 87.33854ZM332.5 85.68229Q332.5 84.15104 332.8125 83.229164Q333.125 82.291664 333.73438 81.791664Q334.35938 81.291664 335.29688 81.291664Q335.98438 81.291664 336.5 81.572914Q337.03125 81.854164 337.375 82.385414Q337.71875 82.90104 337.90625 83.65104Q338.09375 84.40104 338.09375 85.68229Q338.09375 87.197914 337.78125 88.11979Q337.48438 89.041664 336.85938 89.55729Q336.25 90.05729 335.29688 90.05729Q334.0625 90.05729 333.34375 89.166664Q332.5 88.104164 332.5 85.68229ZM333.57812 85.68229Q333.57812 87.791664 334.07812 88.49479Q334.57812 89.197914 335.29688 89.197914Q336.03125 89.197914 336.51562 88.49479Q337.01562 87.791664 337.01562 85.68229Q337.01562 83.55729 336.51562 82.86979Q336.03125 82.166664 335.28125 82.166664Q334.5625 82.166664 334.125 82.77604Q333.57812 83.55729 333.57812 85.68229ZM342.875 89.916664L342.875 87.854164L339.15625 87.854164L339.15625 86.885414L343.07812 81.322914L343.9375 81.322914L343.9375 86.885414L345.09375 86.885414L345.09375 87.854164L343.9375 87.854164L343.9375 89.916664L342.875 89.916664ZM342.875 86.885414L342.875 83.02604L340.1875 86.885414L342.875 86.885414ZM346.375 82.90104L346.64062 82.072914Q347.57812 82.40104 348.0 82.635414Q347.89062 81.572914 347.875 81.18229L348.73438 81.18229Q348.71875 81.760414 348.59375 82.635414Q349.20312 82.322914 349.98438 82.072914L350.25 82.90104Q349.5 83.15104 348.79688 83.229164Q349.14062 83.541664 349.79688 84.33854L349.09375 84.83854Q348.75 84.36979 348.29688 83.572914Q347.85938 84.40104 347.53125 84.83854L346.84375 84.33854Q347.51562 83.49479 347.8125 83.229164Q347.0625 83.08854 346.375 82.90104ZM351.09375 89.916664L353.35938 86.68229L351.26562 83.697914L352.57812 83.697914L353.53125 85.15104Q353.79688 85.572914 353.96875 85.854164Q354.21875 85.46354 354.4375 85.166664L355.48438 83.697914L356.75 83.697914L354.59375 86.61979L356.90625 89.916664L355.625 89.916664L354.34375 87.979164L354.0 87.46354L352.35938 89.916664L351.09375 89.916664ZM363.0 88.52604L363.0 86.166664L360.67188 86.166664L360.67188 85.18229L363.0 85.18229L363.0 82.854164L364.0 82.854164L364.0 85.18229L366.34375 85.18229L366.34375 86.166664L364.0 86.166664L364.0 88.52604L363.0 88.52604ZM370.5 87.65104L371.5625 87.510414Q371.73438 88.40104 372.17188 88.80729Q372.60938 89.197914 373.23438 89.197914Q373.98438 89.197914 374.5 88.68229Q375.01562 88.166664 375.01562 87.40104Q375.01562 86.68229 374.53125 86.21354Q374.0625 85.729164 373.32812 85.729164Q373.03125 85.729164 372.57812 85.854164L372.70312 84.916664Q372.8125 84.93229 372.875 84.93229Q373.54688 84.93229 374.07812 84.58854Q374.625 84.229164 374.625 83.49479Q374.625 82.916664 374.23438 82.541664Q373.84375 82.15104 373.21875 82.15104Q372.60938 82.15104 372.1875 82.541664Q371.78125 82.93229 371.67188 83.697914L370.60938 83.510414Q370.79688 82.46354 371.48438 81.885414Q372.17188 81.291664 373.1875 81.291664Q373.89062 81.291664 374.48438 81.604164Q375.07812 81.90104 375.39062 82.416664Q375.70312 82.93229 375.70312 83.52604Q375.70312 84.072914 375.40625 84.541664Q375.10938 84.99479 374.53125 85.260414Q375.28125 85.43229 375.70312 85.99479Q376.125 86.541664 376.125 87.385414Q376.125 88.510414 375.29688 89.291664Q374.48438 90.072914 373.23438 90.072914Q372.10938 90.072914 371.35938 89.40104Q370.60938 88.71354 370.5 87.65104ZM378.09375 89.916664L378.09375 88.71354L379.29688 88.71354L379.29688 89.916664L378.09375 89.916664ZM384.46875 89.916664L383.42188 89.916664L383.42188 83.197914Q383.03125 83.55729 382.40625 83.93229Q381.79688 84.291664 381.3125 84.46354L381.3125 83.447914Q382.1875 83.02604 382.84375 82.447914Q383.51562 81.854164 383.79688 81.291664L384.46875 81.291664L384.46875 89.916664ZM393.04688 88.90104L393.04688 89.916664L387.35938 89.916664Q387.35938 89.541664 387.48438 89.18229Q387.70312 88.604164 388.17188 88.041664Q388.65625 87.479164 389.5625 86.74479Q390.96875 85.58854 391.45312 84.916664Q391.95312 84.24479 391.95312 83.65104Q391.95312 83.02604 391.5 82.604164Q391.04688 82.166664 390.32812 82.166664Q389.5625 82.166664 389.10938 82.61979Q388.65625 83.072914 388.64062 83.885414L387.5625 83.77604Q387.67188 82.55729 388.39062 81.93229Q389.125 81.291664 390.35938 81.291664Q391.59375 81.291664 392.3125 81.979164Q393.03125 82.666664 393.03125 83.68229Q393.03125 84.197914 392.8125 84.697914Q392.60938 85.18229 392.10938 85.74479Q391.625 86.291664 390.5 87.24479Q389.54688 88.041664 389.26562 88.33854Q389.0 88.61979 388.82812 88.90104L393.04688 88.90104Z" fill-rule="nonzero"/><path fill="#757575" d="M24.190624 37.55L18.64375 23.2375L20.690624 23.2375L24.409374 33.628124Q24.8625 34.878124 25.159374 35.971874Q25.4875 34.8 25.940624 33.628124L29.8 23.2375L31.7375 23.2375L26.128124 37.55L24.190624 37.55ZM32.221874 32.3625Q32.221874 29.4875 33.815624 28.096874Q35.159374 26.940624 37.08125 26.940624Q39.221874 26.940624 40.565624 28.346874Q41.925 29.753124 41.925 32.221874Q41.925 34.221874 41.33125 35.378124Q40.7375 36.51875 39.58125 37.159374Q38.440624 37.784374 37.08125 37.784374Q34.89375 37.784374 33.55 36.39375Q32.221874 34.9875 32.221874 32.3625ZM34.01875 32.3625Q34.01875 34.3625 34.878124 35.346874Q35.753124 36.33125 37.08125 36.33125Q38.39375 36.33125 39.253124 35.346874Q40.128124 34.346874 40.128124 32.3Q40.128124 30.378124 39.253124 29.39375Q38.378124 28.39375 37.08125 28.39375Q35.753124 28.39375 34.878124 29.39375Q34.01875 30.378124 34.01875 32.3625ZM53.221874 41.753124Q51.76875 39.925 50.76875 37.471874Q49.76875 35.003124 49.76875 32.3625Q49.76875 30.034374 50.51875 27.909374Q51.39375 25.440624 53.221874 22.9875L54.4875 22.9875Q53.3 25.01875 52.925 25.89375Q52.33125 27.2375 51.9875 28.70625Q51.565624 30.534374 51.565624 32.378124Q51.565624 37.065624 54.4875 41.753124L53.221874 41.753124ZM61.190624 37.55L55.64375 23.2375L57.690624 23.2375L61.409374 33.628124Q61.8625 34.878124 62.159374 35.971874Q62.4875 34.8 62.940624 33.628124L66.8 23.2375L68.7375 23.2375L63.128124 37.55L61.190624 37.55ZM71.01875 41.753124L69.76875 41.753124Q72.675 37.065624 72.675 32.378124Q72.675 30.534374 72.26875 28.7375Q71.925 27.26875 71.33125 25.925Q70.95625 25.034374 69.76875 22.9875L71.01875 22.9875Q72.8625 25.440624 73.7375 27.909374Q74.4875 30.034374 74.4875 32.3625Q74.4875 35.003124 73.47188 37.471874Q72.47188 39.925 71.01875 41.753124ZM85.75313 37.55L81.8 27.175L83.65938 27.175L85.89375 33.39375Q86.25313 34.39375 86.55 35.471874Q86.78438 34.659374 87.20625 33.503124L89.50313 27.175L91.31563 27.175L87.39375 37.55L85.75313 37.55ZM92.15938 34.45625L93.90938 34.175Q94.05 35.221874 94.72188 35.784374Q95.39375 36.33125 96.59688 36.33125Q97.8 36.33125 98.37813 35.846874Q98.97188 35.346874 98.97188 34.690624Q98.97188 34.096874 98.45625 33.753124Q98.09688 33.51875 96.65938 33.159374Q94.72188 32.659374 93.97188 32.315624Q93.2375 31.95625 92.84688 31.33125Q92.45625 30.690624 92.45625 29.925Q92.45625 29.2375 92.76875 28.64375Q93.09688 28.05 93.64375 27.659374Q94.05 27.3625 94.75313 27.159374Q95.47188 26.940624 96.28438 26.940624Q97.50313 26.940624 98.425 27.3Q99.34688 27.64375 99.78438 28.253124Q100.22188 28.846874 100.39375 29.846874L98.675 30.08125Q98.55 29.284374 97.9875 28.846874Q97.425 28.39375 96.40938 28.39375Q95.19063 28.39375 94.675 28.8Q94.15938 29.190624 94.15938 29.721874Q94.15938 30.065624 94.37813 30.346874Q94.58125 30.628124 95.05 30.815624Q95.31563 30.909374 96.59688 31.253124Q98.47188 31.753124 99.20625 32.08125Q99.94063 32.39375 100.3625 33.003124Q100.78438 33.596874 100.78438 34.503124Q100.78438 35.378124 100.26875 36.159374Q99.75313 36.940624 98.78438 37.3625Q97.81563 37.784374 96.59688 37.784374Q94.58125 37.784374 93.51875 36.940624Q92.45625 36.096874 92.15938 34.45625ZM103.3625 37.55L103.3625 35.55L105.3625 35.55L105.3625 37.55L103.3625 37.55ZM115.12813 37.55L115.12813 23.2375L121.47188 23.2375Q123.37813 23.2375 124.37813 23.628124Q125.37813 24.003124 125.97188 24.9875Q126.56563 25.95625 126.56563 27.14375Q126.56563 28.659374 125.58125 29.70625Q124.59688 30.753124 122.53438 31.034374Q123.28438 31.39375 123.675 31.753124Q124.50313 32.503124 125.25313 33.659374L127.7375 37.55L125.3625 37.55L123.45625 34.565624Q122.62813 33.284374 122.09688 32.596874Q121.56563 31.909374 121.12813 31.64375Q120.70625 31.3625 120.26875 31.253124Q119.94063 31.190624 119.22188 31.190624L117.01875 31.190624L117.01875 37.55L115.12813 37.55ZM117.01875 29.55L121.09688 29.55Q122.39375 29.55 123.1125 29.284374Q123.84688 29.01875 124.22188 28.425Q124.6125 27.83125 124.6125 27.14375Q124.6125 26.128124 123.87813 25.471874Q123.14375 24.815624 121.55 24.815624L117.01875 24.815624L117.01875 29.55ZM137.6125 35.8625L137.6125 37.55L128.15938 37.55Q128.14375 36.909374 128.3625 36.33125Q128.72188 35.3625 129.51875 34.425Q130.31563 33.4875 131.81563 32.253124Q134.15938 30.346874 134.97188 29.2375Q135.8 28.1125 135.8 27.1125Q135.8 26.065624 135.05 25.346874Q134.3 24.628124 133.09688 24.628124Q131.83125 24.628124 131.06563 25.39375Q130.3 26.159374 130.3 27.503124L128.4875 27.315624Q128.675 25.3 129.87813 24.2375Q131.09688 23.175 133.14375 23.175Q135.19063 23.175 136.39375 24.315624Q137.59688 25.45625 137.59688 27.14375Q137.59688 28.003124 137.2375 28.846874Q136.89375 29.675 136.08125 30.596874Q135.26875 31.503124 133.37813 33.1125Q131.78438 34.440624 131.33125 34.909374Q130.89375 35.378124 130.59688 35.8625L137.6125 35.8625ZM149.22188 41.753124Q147.76875 39.925 146.76875 37.471874Q145.76875 35.003124 145.76875 32.3625Q145.76875 30.034374 146.51875 27.909374Q147.39375 25.440624 149.22188 22.9875L150.4875 22.9875Q149.3 25.01875 148.925 25.89375Q148.33125 27.2375 147.9875 28.70625Q147.56563 30.534374 147.56563 32.378124Q147.56563 37.065624 150.4875 41.753124L149.22188 41.753124ZM152.51875 30.58125Q152.51875 27.01875 154.425 25.003124Q156.34688 22.971874 159.37813 22.971874Q161.3625 22.971874 162.94063 23.925Q164.53438 24.878124 165.3625 26.58125Q166.20625 28.26875 166.20625 30.409374Q166.20625 32.58125 165.33125 34.3Q164.45625 36.01875 162.83125 36.909374Q161.22188 37.8 159.3625 37.8Q157.34688 37.8 155.75313 36.83125Q154.15938 35.846874 153.33125 34.159374Q152.51875 32.45625 152.51875 30.58125ZM154.47188 30.6125Q154.47188 33.190624 155.8625 34.690624Q157.25313 36.175 159.34688 36.175Q161.4875 36.175 162.8625 34.675Q164.25313 33.159374 164.25313 30.39375Q164.25313 28.659374 163.65938 27.3625Q163.08125 26.05 161.94063 25.33125Q160.8 24.6125 159.37813 24.6125Q157.37813 24.6125 155.925 26.003124Q154.47188 27.378124 154.47188 30.6125ZM168.8625 37.55L168.8625 23.2375L170.62813 23.2375L170.62813 28.3625Q171.8625 26.940624 173.7375 26.940624Q174.87813 26.940624 175.72188 27.39375Q176.58125 27.846874 176.94063 28.659374Q177.31563 29.45625 177.31563 30.971874L177.31563 37.55L175.56563 37.55L175.56563 30.971874Q175.56563 29.659374 174.9875 29.065624Q174.40938 28.45625 173.37813 28.45625Q172.59688 28.45625 171.89375 28.8625Q171.20625 29.26875 170.90938 29.971874Q170.62813 30.659374 170.62813 31.878124L170.62813 37.55L168.8625 37.55ZM179.8625 37.55L179.8625 27.175L181.44063 27.175L181.44063 28.628124Q181.925 27.878124 182.7375 27.409374Q183.55 26.940624 184.58125 26.940624Q185.7375 26.940624 186.47188 27.425Q187.20625 27.89375 187.51875 28.753124Q188.75313 26.940624 190.72188 26.940624Q192.26875 26.940624 193.09688 27.8Q193.925 28.659374 193.925 30.425L193.925 37.55L192.175 37.55L192.175 31.01875Q192.175 29.95625 192.00313 29.503124Q191.83125 29.034374 191.37813 28.753124Q190.94063 28.471874 190.33125 28.471874Q189.2375 28.471874 188.50313 29.20625Q187.78438 29.925 187.78438 31.51875L187.78438 37.55L186.03438 37.55L186.03438 30.815624Q186.03438 29.64375 185.59688 29.065624Q185.175 28.471874 184.19063 28.471874Q183.45625 28.471874 182.81563 28.8625Q182.19063 29.253124 181.90938 30.003124Q181.62813 30.753124 181.62813 32.175L181.62813 37.55L179.8625 37.55ZM196.15938 34.45625L197.90938 34.175Q198.05 35.221874 198.72188 35.784374Q199.39375 36.33125 200.59688 36.33125Q201.8 36.33125 202.37813 35.846874Q202.97188 35.346874 202.97188 34.690624Q202.97188 34.096874 202.45625 33.753124Q202.09688 33.51875 200.65938 33.159374Q198.72188 32.659374 197.97188 32.315624Q197.2375 31.95625 196.84688 31.33125Q196.45625 30.690624 196.45625 29.925Q196.45625 29.2375 196.76875 28.64375Q197.09688 28.05 197.64375 27.659374Q198.05 27.3625 198.75313 27.159374Q199.47188 26.940624 200.28438 26.940624Q201.50313 26.940624 202.425 27.3Q203.34688 27.64375 203.78438 28.253124Q204.22188 28.846874 204.39375 29.846874L202.675 30.08125Q202.55 29.284374 201.9875 28.846874Q201.425 28.39375 200.40938 28.39375Q199.19063 28.39375 198.675 28.8Q198.15938 29.190624 198.15938 29.721874Q198.15938 30.065624 198.37813 30.346874Q198.58125 30.628124 199.05 30.815624Q199.31563 30.909374 200.59688 31.253124Q202.47188 31.753124 203.20625 32.08125Q203.94063 32.39375 204.3625 33.003124Q204.78438 33.596874 204.78438 34.503124Q204.78438 35.378124 204.26875 36.159374Q203.75313 36.940624 202.78438 37.3625Q201.81563 37.784374 200.59688 37.784374Q198.58125 37.784374 197.51875 36.940624Q196.45625 36.096874 196.15938 34.45625ZM208.01875 41.753124L206.76875 41.753124Q209.675 37.065624 209.675 32.378124Q209.675 30.534374 209.26875 28.7375Q208.925 27.26875 208.33125 25.925Q207.95625 25.034374 206.76875 22.9875L208.01875 22.9875Q209.8625 25.440624 210.7375 27.909374Q211.4875 30.034374 211.4875 32.3625Q211.4875 35.003124 210.47188 37.471874Q209.47188 39.925 208.01875 41.753124Z" fill-rule="nonzero"/></svg>