<svg version="1.1" viewBox="0.0 0.0 600.0 371.0" fill="none" stroke="none" stroke-linecap="square" stroke-miterlimit="10" width="600" height="371" xmlns:xlink="http://www.w3.org/1999/xlink" xmlns="http://www.w3.org/2000/svg"><path fill="#ffffff" d="M0 0L600.0 0L600.0 371.0L0 371.0L0 0Z" fill-rule="nonzero"/><path stroke="#cccccc" stroke-width="1.0" stroke-linecap="butt" d="M151.5 88.5L151.5 300.5" fill-rule="nonzero"/><path stroke="#cccccc" stroke-width="1.0" stroke-linecap="butt" d="M251.5 88.5L251.5 300.5" fill-rule="nonzero"/><path stroke="#cccccc" stroke-width="1.0" stroke-linecap="butt" d="M350.5 88.5L350.5 300.5" fill-rule="nonzero"/><path stroke="#cccccc" stroke-width="1.0" stroke-linecap="butt" d="M450.5 88.5L450.5 300.5" fill-rule="nonzero"/><path stroke="#cccccc" stroke-width="1.0" stroke-linecap="butt" d="M549.5 88.5L549.5 300.5" fill-rule="nonzero"/><path stroke="#333333" stroke-width="1.0" stroke-linecap="butt" d="M77.5 300.5L581.5 300.5" fill-rule="nonzero"/><path stroke="#cccccc" stroke-width="1.0" stroke-linecap="butt" d="M77.5 258.5L581.5 258.5" fill-rule="nonzero"/><path stroke="#cccccc" stroke-width="1.0" stroke-linecap="butt" d="M77.5 215.5L581.5 215.5" fill-rule="nonzero"/><path stroke="#cccccc" stroke-width="1.0" stroke-linecap="butt" d="M77.5 173.5L581.5 173.5" fill-rule="nonzero"/><path stroke="#cccccc" stroke-width="1.0" stroke-linecap="butt" d="M77.5 130.5L581.5 130.5" fill-rule="nonzero"/><path stroke="#cccccc" stroke-width="1.0" stroke-linecap="butt" d="M77.5 88.5L581.5 88.5" fill-rule="nonzero"/><clipPath id="id_0"><path d="M77.55 88.28333L581.45 88.28333L581.45 300.45L77.55 300.45L77.55 88.28333Z" clip-rule="nonzero"/></clipPath><path stroke="#4285f4" stroke-width="2.0" stroke-linecap="butt" stroke-opacity="0.4" clip-path="url(#id_0)" d="M0 61.09663C0 61.09663 2.6666667 62.339977 4.0 62.95824C5.3333335 63.576508 6.6666665 64.1925 8.0 64.80622C9.333333 65.419945 10.666667 66.031395 12.0 66.64057C13.333333 67.249756 14.666667 67.85666 16.0 68.461296C17.333334 69.06593 18.666666 69.6683 20.0 70.268394C21.333334 70.868484 22.666666 71.46631 24.0 72.06186C25.333334 72.65741 26.666666 73.25069 28.0 73.8417C29.333334 74.43271 30.666666 75.02144 32.0 75.6079C33.333332 76.194374 34.666668 76.778564 36.0 77.36049C37.333332 77.942406 38.666668 78.52206 40.0 79.09944C41.333332 79.67682 42.666668 80.25192 44.0 80.82476C45.333332 81.3976 46.666668 81.96816 48.0 82.53645C49.333332 83.10475 50.666668 83.67077 52.0 84.23452C53.333332 84.79827 54.666668 85.35975 56.0 85.91896C57.333332 86.478165 58.666668 87.0351 60.0 87.58977C61.333332 88.14443 62.666668 88.69682 64.0 89.24695C65.333336 89.79707 66.666664 90.34492 68.0 90.8905C69.333336 91.43608 70.666664 91.979385 72.0 92.520424C73.333336 93.061455 74.666664 93.60022 76.0 94.13672C77.333336 94.67321 78.666664 95.20743 80.0 95.73938C81.333336 96.27133 82.666664 96.80101 84.0 97.328415C85.333336 97.85583 86.666664 98.38096 88.0 98.903824C89.333336 99.42669 90.666664 99.94728 92.0 100.46561C93.333336 100.983925 94.666664 101.49998 96.0 102.013756C97.333336 102.527534 98.666664 103.03904 100.0 103.54828C101.333336 104.05751 102.666664 104.564476 104.0 105.06917C105.333336 105.57387 106.666664 106.07629 108.0 106.57644C109.333336 107.076584 110.666664 107.57446 112.0 108.070076C113.333336 108.56568 114.666664 109.05901 116.0 109.55008C117.333336 110.041145 118.666664 110.52994 120.0 111.01646C121.333336 111.50298 122.666664 111.98723 124.0 112.46921C125.333336 112.95119 126.666664 113.43089 128.0 113.90833C129.33333 114.385765 130.66667 114.86093 132.0 115.333824C133.33333 115.80672 134.66667 116.277336 136.0 116.74569C137.33333 117.214035 138.66667 117.680115 140.0 118.14392C141.33333 118.60773 142.66667 119.06927 144.0 119.528534C145.33333 119.98779 146.66667 120.444786 148.0 120.899506C149.33333 121.35423 150.66667 121.80668 152.0 122.25686C153.33333 122.70704 154.66667 123.154945 156.0 123.60058C157.33333 124.04622 158.66667 124.48958 160.0 124.93067C161.33333 125.371765 162.66667 125.810585 164.0 126.24714C165.33333 126.683685 166.66667 127.117966 168.0 127.54997C169.33333 127.98198 170.66667 128.41171 172.0 128.83917C173.33333 129.26665 174.66667 129.69183 176.0 130.11476C177.33333 130.53767 178.66667 130.95833 180.0 131.37671C181.33333 131.79509 182.66667 132.21118 184.0 132.62503C185.33333 133.03886 186.66667 133.45042 188.0 133.85971C189.33333 134.26901 190.66667 134.67603 192.0 135.08078C193.33333 135.48553 194.66667 135.888 196.0 136.28821C197.33333 136.68842 198.66667 137.08635 200.0 137.48203C201.33333 137.87769 202.66667 138.27107 204.0 138.6622C205.33333 139.05331 206.66667 139.44217 208.0 139.82875C209.33333 140.21532 210.66667 140.59962 212.0 140.98166C213.33333 141.36371 214.66667 141.74347 216.0 142.12096C217.33333 142.49844 218.66667 142.87367 220.0 143.24661C221.33333 143.61957 222.66667 143.99025 224.0 144.35866C225.33333 144.72707 226.66667 145.0932 228.0 145.45706C229.33333 145.82092 230.66667 146.18251 232.0 146.54184C233.33333 146.90115 234.66667 147.25821 236.0 147.61299C237.33333 147.96776 238.66667 148.32027 240.0 148.6705C241.33333 149.02074 242.66667 149.3687 244.0 149.7144C245.33333 150.06009 246.66667 150.4035 248.0 150.74466C249.33333 151.0858 250.66667 151.42468 252.0 151.76129C253.33333 152.0979 254.66667 152.43224 256.0 152.7643C257.33334 153.09636 258.66666 153.42615 260.0 153.75368C261.33334 154.08119 262.66666 154.40643 264.0 154.72942C265.33334 155.0524 266.66666 155.37311 268.0 155.69154C269.33334 156.00998 270.66666 156.32614 272.0 156.64003C273.33334 156.95392 274.66666 157.26553 276.0 157.57489C277.33334 157.88423 278.66666 158.19131 280.0 158.49612C281.33334 158.80093 282.66666 159.10347 284.0 159.40373C285.33334 159.704 286.66666 160.00198 288.0 160.2977C289.33334 160.59341 290.66666 160.88687 292.0 161.17805C293.33334 161.46922 294.66666 161.75813 296.0 162.04477C297.33334 162.3314 298.66666 162.61577 300.0 162.89786C301.33334 163.17995 302.66666 163.45976 304.0 163.73732C305.33334 164.01486 306.66666 164.29015 308.0 164.56316C309.33334 164.83615 310.66666 165.10689 312.0 165.37535C313.33334 165.64381 314.66666 165.91 316.0 166.17393C317.33334 166.43785 318.66666 166.6995 320.0 166.95888C321.33334 167.21825 322.66666 167.47536 324.0 167.7302C325.33334 167.98503 326.66666 168.2376 328.0 168.48788C329.33334 168.73817 330.66666 168.98619 332.0 169.23195C333.33334 169.47769 334.66666 169.72116 336.0 169.96237C337.33334 170.20358 338.66666 170.44252 340.0 170.67918C341.33334 170.91585 342.66666 171.15024 344.0 171.38235C345.33334 171.61447 346.66666 171.84431 348.0 172.0719C349.33334 172.29947 350.66666 172.52478 352.0 172.74782C353.33334 172.97086 354.66666 173.1916 356.0 173.41011C357.33334 173.6286 358.66666 173.84482 360.0 174.05876C361.33334 174.2727 362.66666 174.48439 364.0 174.6938C365.33334 174.9032 366.66666 175.11034 368.0 175.3152C369.33334 175.52007 370.66666 175.72266 372.0 175.92297C373.33334 176.12329 374.66666 176.32133 376.0 176.51712C377.33334 176.71289 378.66666 176.9064 380.0 177.09764C381.33334 177.28886 382.66666 177.47783 384.0 177.66452C385.33334 177.85121 386.66666 178.03563 388.0 178.21777C389.33334 178.39993 390.66666 178.5798 392.0 178.75742C393.33334 178.93501 394.66666 179.11035 396.0 179.28342C397.33334 179.45648 398.66666 179.62727 400.0 179.79579C401.33334 179.96431 402.66666 180.13055 404.0 180.29453C405.33334 180.45851 406.66666 180.62021 408.0 180.77965C409.33334 180.93909 410.66666 181.09624 412.0 181.25113C413.33334 181.40602 414.66666 181.55864 416.0 181.709C417.33334 181.85934 418.66666 182.00742 420.0 182.15323C421.33334 182.29903 422.66666 182.44257 424.0 182.58383C425.33334 182.72508 426.66666 182.86407 428.0 183.0008C429.33334 183.13751 430.66666 183.27197 432.0 183.40414C433.33334 183.53632 434.66666 183.66623 436.0 183.79385C437.33334 183.9215 438.66666 184.04686 440.0 184.16995C441.33334 184.29303 442.66666 184.41385 444.0 184.53241C445.33334 184.65096 446.66666 184.76723 448.0 184.88124C449.33334 184.99524 450.66666 185.10698 452.0 185.21643C453.33334 185.3259 454.66666 185.43309 456.0 185.53801C457.33334 185.64293 458.66666 185.74557 460.0 185.84595C461.33334 185.94633 462.66666 186.04443 464.0 186.14026C465.33334 186.2361 466.66666 186.32967 468.0 186.42096C469.33334 186.51224 470.66666 186.60126 472.0 186.688C473.33334 186.77477 474.66666 186.85924 476.0 186.94144C477.33334 187.02365 478.66666 187.10358 480.0 187.18124C481.33334 187.2589 482.66666 187.33429 484.0 187.40741C485.33334 187.48053 486.66666 187.55138 488.0 187.61995C489.33334 187.68854 490.66666 187.75484 492.0 187.81886C493.33334 187.8829 494.66666 187.94467 496.0 188.00415C497.33334 188.06364 498.66666 188.12086 500.0 188.17581C501.33334 188.23076 502.66666 188.28343 504.0 188.33385C505.33334 188.38425 506.66666 188.43237 508.0 188.47824C509.33334 188.52411 510.66666 188.56769 512.0 188.60901C513.3333 188.65033 514.6667 188.68938 516.0 188.72615C517.3333 188.76292 518.6667 188.79744 520.0 188.82967C521.3333 188.86191 522.6667 188.89186 524.0 188.91956C525.3333 188.94725 526.6667 188.97267 528.0 188.9958C529.3333 189.01895 530.6667 189.03984 532.0 189.05844C533.3333 189.07704 534.6667 189.09338 536.0 189.10744C537.3333 189.1215 538.6667 189.13329 540.0 189.1428C541.3333 189.15233 542.6667 189.15958 544.0 189.16455C545.3333 189.16953 546.6667 189.17223 548.0 189.17267C549.3333 189.1731 550.6667 189.17126 552.0 189.16714C553.3333 189.16304 554.6667 189.15666 556.0 189.14801C557.3333 189.13936 558.6667 189.12843 560.0 189.11523C561.3333 189.10204 562.6667 189.08658 564.0 189.06883C565.3333 189.05109 566.6667 189.03108 568.0 189.0088C569.3333 188.98653 570.6667 188.96198 572.0 188.93515C573.3333 188.90833 574.6667 188.87923 576.0 188.84785C577.3333 188.81648 580.0 188.74695 580.0 188.74695" fill-rule="nonzero"/><path fill="#4285f4" clip-path="url(#id_0)" d="M88.86077 95.390915C88.86077 97.8762 86.846054 99.890915 84.36077 99.890915C81.875496 99.890915 79.86077 97.8762 79.86077 95.390915C79.86077 92.90563 81.875496 90.890915 84.36077 90.890915C86.846054 90.890915 88.86077 92.90563 88.86077 95.390915Z" fill-rule="nonzero"/><path fill="#4285f4" clip-path="url(#id_0)" d="M216.10631 145.48346C216.10631 147.96875 214.09158 149.98346 211.60631 149.98346C209.12102 149.98346 207.10631 147.96875 207.10631 145.48346C207.10631 142.99818 209.12102 140.98346 211.60631 140.98346C214.09158 140.98346 216.10631 142.99818 216.10631 145.48346Z" fill-rule="nonzero"/><path fill="#4285f4" clip-path="url(#id_0)" d="M337.44882 168.33382C337.44882 170.81909 335.43408 172.83382 332.94882 172.83382C330.46353 172.83382 328.44882 170.81909 328.44882 168.33382C328.44882 165.84854 330.46353 163.83382 332.94882 163.83382C335.43408 163.83382 337.44882 165.84854 337.44882 168.33382Z" fill-rule="nonzero"/><path fill="#4285f4" clip-path="url(#id_0)" d="M464.2617 182.37926C464.2617 184.86453 462.24698 186.87926 459.7617 186.87926C457.2764 186.87926 455.2617 184.86453 455.2617 182.37926C455.2617 179.89397 457.2764 177.87926 459.7617 177.87926C462.24698 177.87926 464.2617 179.89397 464.2617 182.37926Z" fill-rule="nonzero"/><path fill="#4285f4" clip-path="url(#id_0)" d="M579.1392 190.86592C579.1392 193.3512 577.1245 195.36592 574.6392 195.36592C572.15393 195.36592 570.1392 193.3512 570.1392 190.86592C570.1392 188.38063 572.15393 186.36592 574.6392 186.36592C577.1245 186.36592 579.1392 188.38063 579.1392 190.86592Z" fill-rule="nonzero"/><path fill="#000000" d="M318.9375 349.45L318.9375 340.85626L322.75 340.85626Q323.90625 340.85626 324.5 341.09064Q325.09375 341.325 325.45312 341.91876Q325.8125 342.4969 325.8125 343.2Q325.8125 344.1219 325.21875 344.7469Q324.625 345.3719 323.39062 345.54376Q323.84375 345.7625 324.07812 345.96564Q324.57812 346.41876 325.01562 347.10626L326.51562 349.45L325.07812 349.45L323.95312 347.66876Q323.45312 346.8875 323.125 346.48126Q322.8125 346.075 322.54688 345.91876Q322.29688 345.7469 322.03125 345.66876Q321.84375 345.6375 321.40625 345.6375L320.07812 345.6375L320.07812 349.45L318.9375 349.45ZM320.07812 344.65314L322.53125 344.65314Q323.29688 344.65314 323.73438 344.4969Q324.1875 344.325 324.40625 343.98126Q324.64062 343.6219 324.64062 343.2Q324.64062 342.59064 324.1875 342.2Q323.75 341.8094 322.79688 341.8094L320.07812 341.8094L320.07812 344.65314ZM326.8125 351.84064L326.8125 351.075L333.8125 351.075L333.8125 351.84064L326.8125 351.84064ZM338.46875 349.45L337.42188 349.45L337.42188 342.73126Q337.03125 343.09064 336.40625 343.46564Q335.79688 343.825 335.3125 343.9969L335.3125 342.98126Q336.1875 342.5594 336.84375 341.98126Q337.51562 341.3875 337.79688 340.825L338.46875 340.825L338.46875 349.45Z" fill-rule="nonzero"/><path fill="#000000" d="M29.550013 214.49167L20.956263 217.8198L20.956263 216.58542L27.206263 214.35104Q27.956263 214.08542 28.612513 213.89792Q27.909388 213.6948 27.206263 213.42917L20.956263 211.11667L20.956263 209.96042L29.550013 213.3198L29.550013 214.49167ZM26.440638 209.46042Q24.706263 209.46042 23.878138 208.5073Q23.190638 207.71042 23.190638 206.55417Q23.190638 205.27292 24.034388 204.46042Q24.862513 203.6323 26.346888 203.6323Q27.550013 203.6323 28.237513 203.99167Q28.925013 204.35104 29.315638 205.05417Q29.690638 205.74167 29.690638 206.55417Q29.690638 207.85104 28.862513 208.66354Q28.018763 209.46042 26.440638 209.46042ZM26.440638 208.3823Q27.628138 208.3823 28.221888 207.86667Q28.815638 207.33542 28.815638 206.55417Q28.815638 205.7573 28.221888 205.24167Q27.628138 204.72604 26.409388 204.72604Q25.253138 204.72604 24.659388 205.2573Q24.065638 205.77292 24.065638 206.55417Q24.065638 207.33542 24.659388 207.86667Q25.237513 208.3823 26.440638 208.3823ZM32.08126 197.05417Q30.971888 197.92917 29.503138 198.53854Q28.018763 199.1323 26.440638 199.1323Q25.050013 199.1323 23.768763 198.6948Q22.284388 198.16354 20.815638 197.05417L20.815638 196.30417Q22.034388 197.0073 22.550013 197.24167Q23.362513 197.60104 24.237513 197.80417Q25.331263 198.05417 26.440638 198.05417Q29.268763 198.05417 32.08126 196.30417L32.08126 197.05417ZM29.550013 192.49167L20.956263 195.8198L20.956263 194.58542L27.206263 192.35104Q27.956263 192.08542 28.612513 191.89792Q27.909388 191.6948 27.206263 191.42917L20.956263 189.11667L20.956263 187.96042L29.550013 191.3198L29.550013 192.49167ZM32.08126 186.3823L32.08126 187.1323Q29.268763 185.3823 26.440638 185.3823Q25.346888 185.3823 24.253138 185.6323Q23.378138 185.83542 22.565638 186.1948Q22.050013 186.42917 20.815638 187.1323L20.815638 186.3823Q22.284388 185.28854 23.768763 184.7573Q25.050013 184.30417 26.440638 184.30417Q28.018763 184.30417 29.503138 184.91354Q30.971888 185.52292 32.08126 186.3823Z" fill-rule="nonzero"/><path fill="#000000" d="M65.05 300.21564Q65.05 298.6844 65.3625 297.7625Q65.675 296.825 66.28438 296.325Q66.90938 295.825 67.84688 295.825Q68.53438 295.825 69.05 296.10626Q69.58125 296.3875 69.925 296.91876Q70.26875 297.4344 70.45625 298.1844Q70.64375 298.9344 70.64375 300.21564Q70.64375 301.73126 70.33125 302.65314Q70.03438 303.575 69.40938 304.09064Q68.8 304.59064 67.84688 304.59064Q66.6125 304.59064 65.89375 303.7Q65.05 302.6375 65.05 300.21564ZM66.12813 300.21564Q66.12813 302.325 66.62813 303.02814Q67.12813 303.73126 67.84688 303.73126Q68.58125 303.73126 69.06563 303.02814Q69.56563 302.325 69.56563 300.21564Q69.56563 298.09064 69.06563 297.40314Q68.58125 296.7 67.83125 296.7Q67.1125 296.7 66.675 297.3094Q66.12813 298.09064 66.12813 300.21564Z" fill-rule="nonzero"/><path fill="#000000" d="M70.59688 261.00104L70.59688 262.01666L64.90938 262.01666Q64.90938 261.64166 65.03438 261.2823Q65.25313 260.70416 65.72188 260.14166Q66.20625 259.57916 67.1125 258.8448Q68.51875 257.68854 69.00313 257.01666Q69.50313 256.3448 69.50313 255.75104Q69.50313 255.12604 69.05 254.70416Q68.59688 254.26666 67.87813 254.26666Q67.1125 254.26666 66.65938 254.71979Q66.20625 255.17291 66.19063 255.98541L65.1125 255.87604Q65.22188 254.65729 65.94063 254.03229Q66.675 253.39166 67.90938 253.39166Q69.14375 253.39166 69.8625 254.07916Q70.58125 254.76666 70.58125 255.78229Q70.58125 256.2979 70.3625 256.7979Q70.15938 257.2823 69.65938 257.8448Q69.175 258.39166 68.05 259.3448Q67.09688 260.14166 66.81563 260.43854Q66.55 260.7198 66.37813 261.00104L70.59688 261.00104Z" fill-rule="nonzero"/><path fill="#000000" d="M68.425 219.58333L68.425 217.52083L64.70625 217.52083L64.70625 216.55208L68.62813 210.98958L69.4875 210.98958L69.4875 216.55208L70.64375 216.55208L70.64375 217.52083L69.4875 217.52083L69.4875 219.58333L68.425 219.58333ZM68.425 216.55208L68.425 212.6927L65.7375 216.55208L68.425 216.55208Z" fill-rule="nonzero"/><path fill="#000000" d="M70.51875 170.66562L69.47188 170.74374Q69.33125 170.11874 69.08125 169.8375Q68.64375 169.38437 68.01875 169.38437Q67.51875 169.38437 67.12813 169.66562Q66.64375 170.04062 66.34688 170.74374Q66.06563 171.43124 66.05 172.7125Q66.425 172.13437 66.97188 171.85312Q67.53438 171.57187 68.14375 171.57187Q69.19063 171.57187 69.925 172.35312Q70.675 173.13437 70.675 174.35312Q70.675 175.16562 70.31563 175.86874Q69.97188 176.55624 69.3625 176.93124Q68.75313 177.29062 67.9875 177.29062Q66.65938 177.29062 65.83125 176.32187Q65.00313 175.35312 65.00313 173.13437Q65.00313 170.63437 65.925 169.50937Q66.72188 168.525 68.08125 168.525Q69.09688 168.525 69.7375 169.10312Q70.39375 169.66562 70.51875 170.66562ZM66.22188 174.36874Q66.22188 174.91562 66.44063 175.41562Q66.675 175.9 67.08125 176.16562Q67.50313 176.43124 67.97188 176.43124Q68.62813 176.43124 69.1125 175.9Q69.59688 175.35312 69.59688 174.43124Q69.59688 173.54062 69.1125 173.025Q68.64375 172.50937 67.925 172.50937Q67.20625 172.50937 66.70625 173.025Q66.22188 173.54062 66.22188 174.36874Z" fill-rule="nonzero"/><path fill="#000000" d="M66.675 130.06041Q66.01875 129.81041 65.69063 129.37291Q65.37813 128.91978 65.37813 128.31041Q65.37813 127.37291 66.05 126.732285Q66.7375 126.09166 67.84688 126.09166Q68.97188 126.09166 69.65938 126.74791Q70.34688 127.40416 70.34688 128.34166Q70.34688 128.93541 70.03438 129.37291Q69.72188 129.81041 69.08125 130.06041Q69.87813 130.31041 70.28438 130.88853Q70.69063 131.46666 70.69063 132.26353Q70.69063 133.35728 69.90938 134.10728Q69.14375 134.85728 67.8625 134.85728Q66.59688 134.85728 65.81563 134.10728Q65.03438 133.35728 65.03438 132.23228Q65.03438 131.38853 65.45625 130.82603Q65.89375 130.26353 66.675 130.06041ZM66.45625 128.26353Q66.45625 128.87291 66.84688 129.26353Q67.25313 129.65416 67.87813 129.65416Q68.4875 129.65416 68.87813 129.27916Q69.26875 128.88853 69.26875 128.32603Q69.26875 127.74791 68.8625 127.357285Q68.45625 126.951035 67.8625 126.951035Q67.25313 126.951035 66.84688 127.34166Q66.45625 127.732285 66.45625 128.26353ZM66.12813 132.23228Q66.12813 132.68541 66.33125 133.10728Q66.55 133.52916 66.97188 133.76353Q67.39375 133.99791 67.87813 133.99791Q68.62813 133.99791 69.1125 133.51353Q69.6125 133.02916 69.6125 132.27916Q69.6125 131.51353 69.1125 131.01353Q68.6125 130.51353 67.84688 130.51353Q67.09688 130.51353 66.6125 131.01353Q66.12813 131.49791 66.12813 132.23228Z" fill-rule="nonzero"/><path fill="#000000" d="M62.01875 92.28333L60.971874 92.28333L60.971874 85.56458Q60.58125 85.92396 59.95625 86.29896Q59.346874 86.65833 58.8625 86.83021L58.8625 85.81458Q59.7375 85.39271 60.39375 84.81458Q61.065624 84.22083 61.346874 83.65833L62.01875 83.65833L62.01875 92.28333ZM65.05 88.04896Q65.05 86.51771 65.3625 85.59583Q65.675 84.65833 66.28438 84.15833Q66.90938 83.65833 67.84688 83.65833Q68.53438 83.65833 69.05 83.93958Q69.58125 84.22083 69.925 84.75208Q70.26875 85.26771 70.45625 86.01771Q70.64375 86.76771 70.64375 88.04896Q70.64375 89.56458 70.33125 90.48646Q70.03438 91.40833 69.40938 91.92396Q68.8 92.42396 67.84688 92.42396Q66.6125 92.42396 65.89375 91.53333Q65.05 90.47083 65.05 88.04896ZM66.12813 88.04896Q66.12813 90.15833 66.62813 90.86146Q67.12813 91.56458 67.84688 91.56458Q68.58125 91.56458 69.06563 90.86146Q69.56563 90.15833 69.56563 88.04896Q69.56563 85.92396 69.06563 85.23646Q68.58125 84.53333 67.83125 84.53333Q67.1125 84.53333 66.675 85.14271Q66.12813 85.92396 66.12813 88.04896Z" fill-rule="nonzero"/><path fill="#000000" d="M143.8984 310.96564L142.85153 311.04376Q142.7109 310.41876 142.4609 310.1375Q142.0234 309.6844 141.3984 309.6844Q140.8984 309.6844 140.50778 309.96564Q140.0234 310.34064 139.72653 311.04376Q139.44528 311.73126 139.42966 313.0125Q139.80466 312.4344 140.35153 312.15314Q140.91403 311.8719 141.5234 311.8719Q142.57028 311.8719 143.30466 312.65314Q144.05466 313.4344 144.05466 314.65314Q144.05466 315.46564 143.69528 316.16876Q143.35153 316.85626 142.74216 317.23126Q142.13278 317.59064 141.36716 317.59064Q140.03903 317.59064 139.2109 316.6219Q138.38278 315.65314 138.38278 313.4344Q138.38278 310.9344 139.30466 309.8094Q140.10153 308.825 141.4609 308.825Q142.47653 308.825 143.11716 309.40314Q143.7734 309.96564 143.8984 310.96564ZM139.60153 314.66876Q139.60153 315.21564 139.82028 315.71564Q140.05466 316.2 140.4609 316.46564Q140.88278 316.73126 141.35153 316.73126Q142.00778 316.73126 142.49216 316.2Q142.97653 315.65314 142.97653 314.73126Q142.97653 313.84064 142.49216 313.325Q142.0234 312.8094 141.30466 312.8094Q140.5859 312.8094 140.0859 313.325Q139.60153 313.84064 139.60153 314.66876ZM145.42966 313.21564Q145.42966 311.6844 145.74216 310.7625Q146.05466 309.825 146.66403 309.325Q147.28903 308.825 148.22653 308.825Q148.91403 308.825 149.42966 309.10626Q149.9609 309.3875 150.30466 309.91876Q150.6484 310.4344 150.8359 311.1844Q151.0234 311.9344 151.0234 313.21564Q151.0234 314.73126 150.7109 315.65314Q150.41403 316.575 149.78903 317.09064Q149.17966 317.59064 148.22653 317.59064Q146.99216 317.59064 146.2734 316.7Q145.42966 315.6375 145.42966 313.21564ZM146.50778 313.21564Q146.50778 315.325 147.00778 316.02814Q147.50778 316.73126 148.22653 316.73126Q148.9609 316.73126 149.44528 316.02814Q149.94528 315.325 149.94528 313.21564Q149.94528 311.09064 149.44528 310.40314Q148.9609 309.7 148.2109 309.7Q147.49216 309.7 147.05466 310.3094Q146.50778 311.09064 146.50778 313.21564ZM152.42966 313.21564Q152.42966 311.6844 152.74216 310.7625Q153.05466 309.825 153.66403 309.325Q154.28903 308.825 155.22653 308.825Q155.91403 308.825 156.42966 309.10626Q156.9609 309.3875 157.30466 309.91876Q157.6484 310.4344 157.8359 311.1844Q158.0234 311.9344 158.0234 313.21564Q158.0234 314.73126 157.7109 315.65314Q157.41403 316.575 156.78903 317.09064Q156.17966 317.59064 155.22653 317.59064Q153.99216 317.59064 153.2734 316.7Q152.42966 315.6375 152.42966 313.21564ZM153.50778 313.21564Q153.50778 315.325 154.00778 316.02814Q154.50778 316.73126 155.22653 316.73126Q155.9609 316.73126 156.44528 316.02814Q156.94528 315.325 156.94528 313.21564Q156.94528 311.09064 156.44528 310.40314Q155.9609 309.7 155.2109 309.7Q154.49216 309.7 154.05466 310.3094Q153.50778 311.09064 153.50778 313.21564ZM159.42966 313.21564Q159.42966 311.6844 159.74216 310.7625Q160.05466 309.825 160.66403 309.325Q161.28903 308.825 162.22653 308.825Q162.91403 308.825 163.42966 309.10626Q163.9609 309.3875 164.30466 309.91876Q164.6484 310.4344 164.8359 311.1844Q165.0234 311.9344 165.0234 313.21564Q165.0234 314.73126 164.7109 315.65314Q164.41403 316.575 163.78903 317.09064Q163.17966 317.59064 162.22653 317.59064Q160.99216 317.59064 160.2734 316.7Q159.42966 315.6375 159.42966 313.21564ZM160.50778 313.21564Q160.50778 315.325 161.00778 316.02814Q161.50778 316.73126 162.22653 316.73126Q162.9609 316.73126 163.44528 316.02814Q163.94528 315.325 163.94528 313.21564Q163.94528 311.09064 163.44528 310.40314Q162.9609 309.7 162.2109 309.7Q161.49216 309.7 161.05466 310.3094Q160.50778 311.09064 160.50778 313.21564Z" fill-rule="nonzero"/><path fill="#000000" d="M239.51573 312.79376Q238.85948 312.54376 238.53136 312.10626Q238.21886 311.65314 238.21886 311.04376Q238.21886 310.10626 238.89073 309.46564Q239.57823 308.825 240.6876 308.825Q241.8126 308.825 242.5001 309.48126Q243.1876 310.1375 243.1876 311.075Q243.1876 311.66876 242.8751 312.10626Q242.5626 312.54376 241.92198 312.79376Q242.71886 313.04376 243.1251 313.6219Q243.53136 314.2 243.53136 314.9969Q243.53136 316.09064 242.7501 316.84064Q241.98448 317.59064 240.70323 317.59064Q239.4376 317.59064 238.65636 316.84064Q237.8751 316.09064 237.8751 314.96564Q237.8751 314.1219 238.29698 313.5594Q238.73448 312.9969 239.51573 312.79376ZM239.29698 310.9969Q239.29698 311.60626 239.6876 311.9969Q240.09386 312.3875 240.71886 312.3875Q241.32823 312.3875 241.71886 312.0125Q242.10948 311.6219 242.10948 311.0594Q242.10948 310.48126 241.70323 310.09064Q241.29698 309.6844 240.70323 309.6844Q240.09386 309.6844 239.6876 310.075Q239.29698 310.46564 239.29698 310.9969ZM238.96886 314.96564Q238.96886 315.41876 239.17198 315.84064Q239.39073 316.2625 239.8126 316.4969Q240.23448 316.73126 240.71886 316.73126Q241.46886 316.73126 241.95323 316.2469Q242.45323 315.7625 242.45323 315.0125Q242.45323 314.2469 241.95323 313.7469Q241.45323 313.2469 240.6876 313.2469Q239.9376 313.2469 239.45323 313.7469Q238.96886 314.23126 238.96886 314.96564ZM244.89073 313.21564Q244.89073 311.6844 245.20323 310.7625Q245.51573 309.825 246.1251 309.325Q246.7501 308.825 247.6876 308.825Q248.3751 308.825 248.89073 309.10626Q249.42198 309.3875 249.76573 309.91876Q250.10948 310.4344 250.29698 311.1844Q250.48448 311.9344 250.48448 313.21564Q250.48448 314.73126 250.17198 315.65314Q249.8751 316.575 249.2501 317.09064Q248.64073 317.59064 247.6876 317.59064Q246.45323 317.59064 245.73448 316.7Q244.89073 315.6375 244.89073 313.21564ZM245.96886 313.21564Q245.96886 315.325 246.46886 316.02814Q246.96886 316.73126 247.6876 316.73126Q248.42198 316.73126 248.90636 316.02814Q249.40636 315.325 249.40636 313.21564Q249.40636 311.09064 248.90636 310.40314Q248.42198 309.7 247.67198 309.7Q246.95323 309.7 246.51573 310.3094Q245.96886 311.09064 245.96886 313.21564ZM251.89073 313.21564Q251.89073 311.6844 252.20323 310.7625Q252.51573 309.825 253.1251 309.325Q253.7501 308.825 254.6876 308.825Q255.3751 308.825 255.89073 309.10626Q256.422 309.3875 256.76575 309.91876Q257.1095 310.4344 257.297 311.1844Q257.4845 311.9344 257.4845 313.21564Q257.4845 314.73126 257.172 315.65314Q256.87512 316.575 256.25012 317.09064Q255.64073 317.59064 254.6876 317.59064Q253.45323 317.59064 252.73448 316.7Q251.89073 315.6375 251.89073 313.21564ZM252.96886 313.21564Q252.96886 315.325 253.46886 316.02814Q253.96886 316.73126 254.6876 316.73126Q255.42198 316.73126 255.90636 316.02814Q256.40637 315.325 256.40637 313.21564Q256.40637 311.09064 255.90636 310.40314Q255.42198 309.7 254.67198 309.7Q253.95323 309.7 253.51573 310.3094Q252.96886 311.09064 252.96886 313.21564ZM258.89075 313.21564Q258.89075 311.6844 259.20325 310.7625Q259.51575 309.825 260.12512 309.325Q260.75012 308.825 261.68762 308.825Q262.37512 308.825 262.89075 309.10626Q263.422 309.3875 263.76575 309.91876Q264.1095 310.4344 264.297 311.1844Q264.4845 311.9344 264.4845 313.21564Q264.4845 314.73126 264.172 315.65314Q263.87512 316.575 263.25012 317.09064Q262.64075 317.59064 261.68762 317.59064Q260.45325 317.59064 259.7345 316.7Q258.89075 315.6375 258.89075 313.21564ZM259.96887 313.21564Q259.96887 315.325 260.46887 316.02814Q260.96887 316.73126 261.68762 316.73126Q262.422 316.73126 262.90637 316.02814Q263.40637 315.325 263.40637 313.21564Q263.40637 311.09064 262.90637 310.40314Q262.422 309.7 261.672 309.7Q260.95325 309.7 260.51575 310.3094Q259.96887 311.09064 259.96887 313.21564Z" fill-rule="nonzero"/><path fill="#000000" d="M337.82056 317.45L336.77368 317.45L336.77368 310.73126Q336.38306 311.09064 335.75806 311.46564Q335.14868 311.825 334.6643 311.9969L334.6643 310.98126Q335.5393 310.5594 336.19556 309.98126Q336.86743 309.3875 337.14868 308.825L337.82056 308.825L337.82056 317.45ZM340.8518 313.21564Q340.8518 311.6844 341.1643 310.7625Q341.4768 309.825 342.08618 309.325Q342.71118 308.825 343.64868 308.825Q344.33618 308.825 344.8518 309.10626Q345.38306 309.3875 345.7268 309.91876Q346.07056 310.4344 346.25806 311.1844Q346.44556 311.9344 346.44556 313.21564Q346.44556 314.73126 346.13306 315.65314Q345.83618 316.575 345.21118 317.09064Q344.6018 317.59064 343.64868 317.59064Q342.4143 317.59064 341.69556 316.7Q340.8518 315.6375 340.8518 313.21564ZM341.92993 313.21564Q341.92993 315.325 342.42993 316.02814Q342.92993 316.73126 343.64868 316.73126Q344.38306 316.73126 344.86743 316.02814Q345.36743 315.325 345.36743 313.21564Q345.36743 311.09064 344.86743 310.40314Q344.38306 309.7 343.63306 309.7Q342.9143 309.7 342.4768 310.3094Q341.92993 311.09064 341.92993 313.21564ZM347.8518 313.21564Q347.8518 311.6844 348.1643 310.7625Q348.4768 309.825 349.08618 309.325Q349.71118 308.825 350.64868 308.825Q351.33618 308.825 351.8518 309.10626Q352.38306 309.3875 352.7268 309.91876Q353.07056 310.4344 353.25806 311.1844Q353.44556 311.9344 353.44556 313.21564Q353.44556 314.73126 353.13306 315.65314Q352.83618 316.575 352.21118 317.09064Q351.6018 317.59064 350.64868 317.59064Q349.4143 317.59064 348.69556 316.7Q347.8518 315.6375 347.8518 313.21564ZM348.92993 313.21564Q348.92993 315.325 349.42993 316.02814Q349.92993 316.73126 350.64868 316.73126Q351.38306 316.73126 351.86743 316.02814Q352.36743 315.325 352.36743 313.21564Q352.36743 311.09064 351.86743 310.40314Q351.38306 309.7 350.63306 309.7Q349.9143 309.7 349.4768 310.3094Q348.92993 311.09064 348.92993 313.21564ZM354.8518 313.21564Q354.8518 311.6844 355.1643 310.7625Q355.4768 309.825 356.08618 309.325Q356.71118 308.825 357.64868 308.825Q358.33618 308.825 358.8518 309.10626Q359.38306 309.3875 359.7268 309.91876Q360.07056 310.4344 360.25806 311.1844Q360.44556 311.9344 360.44556 313.21564Q360.44556 314.73126 360.13306 315.65314Q359.83618 316.575 359.21118 317.09064Q358.6018 317.59064 357.64868 317.59064Q356.4143 317.59064 355.69556 316.7Q354.8518 315.6375 354.8518 313.21564ZM355.92993 313.21564Q355.92993 315.325 356.42993 316.02814Q356.92993 316.73126 357.64868 316.73126Q358.38306 316.73126 358.86743 316.02814Q359.36743 315.325 359.36743 313.21564Q359.36743 311.09064 358.86743 310.40314Q358.38306 309.7 357.63306 309.7Q356.9143 309.7 356.4768 310.3094Q355.92993 311.09064 355.92993 313.21564ZM361.8518 313.21564Q361.8518 311.6844 362.1643 310.7625Q362.4768 309.825 363.08618 309.325Q363.71118 308.825 364.64868 308.825Q365.33618 308.825 365.8518 309.10626Q366.38306 309.3875 366.7268 309.91876Q367.07056 310.4344 367.25806 311.1844Q367.44556 311.9344 367.44556 313.21564Q367.44556 314.73126 367.13306 315.65314Q366.83618 316.575 366.21118 317.09064Q365.6018 317.59064 364.64868 317.59064Q363.4143 317.59064 362.69556 316.7Q361.8518 315.6375 361.8518 313.21564ZM362.92993 313.21564Q362.92993 315.325 363.42993 316.02814Q363.92993 316.73126 364.64868 316.73126Q365.38306 316.73126 365.86743 316.02814Q366.36743 315.325 366.36743 313.21564Q366.36743 311.09064 365.86743 310.40314Q365.38306 309.7 364.63306 309.7Q363.9143 309.7 363.4768 310.3094Q362.92993 311.09064 362.92993 313.21564Z" fill-rule="nonzero"/><path fill="#000000" d="M437.28165 317.45L436.23477 317.45L436.23477 310.73126Q435.84415 311.09064 435.21915 311.46564Q434.60977 311.825 434.1254 311.9969L434.1254 310.98126Q435.0004 310.5594 435.65665 309.98126Q436.32852 309.3875 436.60977 308.825L437.28165 308.825L437.28165 317.45ZM445.85977 316.4344L445.85977 317.45L440.17227 317.45Q440.17227 317.075 440.29727 316.71564Q440.51602 316.1375 440.98477 315.575Q441.46915 315.0125 442.3754 314.27814Q443.78165 313.1219 444.26602 312.45Q444.76602 311.77814 444.76602 311.1844Q444.76602 310.5594 444.3129 310.1375Q443.85977 309.7 443.14102 309.7Q442.3754 309.7 441.92227 310.15314Q441.46915 310.60626 441.45352 311.41876L440.3754 311.3094Q440.48477 310.09064 441.20352 309.46564Q441.9379 308.825 443.17227 308.825Q444.40665 308.825 445.1254 309.5125Q445.84415 310.2 445.84415 311.21564Q445.84415 311.73126 445.6254 312.23126Q445.42227 312.71564 444.92227 313.27814Q444.4379 313.825 443.3129 314.77814Q442.35977 315.575 442.07852 315.8719Q441.8129 316.15314 441.64102 316.4344L445.85977 316.4344ZM447.3129 313.21564Q447.3129 311.6844 447.6254 310.7625Q447.9379 309.825 448.54727 309.325Q449.17227 308.825 450.10977 308.825Q450.79727 308.825 451.3129 309.10626Q451.84415 309.3875 452.1879 309.91876Q452.53165 310.4344 452.71915 311.1844Q452.90665 311.9344 452.90665 313.21564Q452.90665 314.73126 452.59415 315.65314Q452.29727 316.575 451.67227 317.09064Q451.0629 317.59064 450.10977 317.59064Q448.8754 317.59064 448.15665 316.7Q447.3129 315.6375 447.3129 313.21564ZM448.39102 313.21564Q448.39102 315.325 448.89102 316.02814Q449.39102 316.73126 450.10977 316.73126Q450.84415 316.73126 451.32852 316.02814Q451.82852 315.325 451.82852 313.21564Q451.82852 311.09064 451.32852 310.40314Q450.84415 309.7 450.09415 309.7Q449.3754 309.7 448.9379 310.3094Q448.39102 311.09064 448.39102 313.21564ZM454.3129 313.21564Q454.3129 311.6844 454.6254 310.7625Q454.9379 309.825 455.54727 309.325Q456.17227 308.825 457.10977 308.825Q457.79727 308.825 458.3129 309.10626Q458.84415 309.3875 459.1879 309.91876Q459.53165 310.4344 459.71915 311.1844Q459.90665 311.9344 459.90665 313.21564Q459.90665 314.73126 459.59415 315.65314Q459.29727 316.575 458.67227 317.09064Q458.0629 317.59064 457.10977 317.59064Q455.8754 317.59064 455.15665 316.7Q454.3129 315.6375 454.3129 313.21564ZM455.39102 313.21564Q455.39102 315.325 455.89102 316.02814Q456.39102 316.73126 457.10977 316.73126Q457.84415 316.73126 458.32852 316.02814Q458.82852 315.325 458.82852 313.21564Q458.82852 311.09064 458.32852 310.40314Q457.84415 309.7 457.09415 309.7Q456.3754 309.7 455.9379 310.3094Q455.39102 311.09064 455.39102 313.21564ZM461.3129 313.21564Q461.3129 311.6844 461.6254 310.7625Q461.9379 309.825 462.54727 309.325Q463.17227 308.825 464.10977 308.825Q464.79727 308.825 465.3129 309.10626Q465.84415 309.3875 466.1879 309.91876Q466.53165 310.4344 466.71915 311.1844Q466.90665 311.9344 466.90665 313.21564Q466.90665 314.73126 466.59415 315.65314Q466.29727 316.575 465.67227 317.09064Q465.0629 317.59064 464.10977 317.59064Q462.8754 317.59064 462.15665 316.7Q461.3129 315.6375 461.3129 313.21564ZM462.39102 313.21564Q462.39102 315.325 462.89102 316.02814Q463.39102 316.73126 464.10977 316.73126Q464.84415 316.73126 465.32852 316.02814Q465.82852 315.325 465.82852 313.21564Q465.82852 311.09064 465.32852 310.40314Q464.84415 309.7 464.09415 309.7Q463.3754 309.7 462.9379 310.3094Q462.39102 311.09064 462.39102 313.21564Z" fill-rule="nonzero"/><path fill="#000000" d="M536.74274 317.45L535.69586 317.45L535.69586 310.73126Q535.30524 311.09064 534.68024 311.46564Q534.07086 311.825 533.5865 311.9969L533.5865 310.98126Q534.4615 310.5594 535.11774 309.98126Q535.7896 309.3875 536.07086 308.825L536.74274 308.825L536.74274 317.45ZM543.149 317.45L543.149 315.3875L539.43024 315.3875L539.43024 314.41876L543.3521 308.85626L544.2115 308.85626L544.2115 314.41876L545.36774 314.41876L545.36774 315.3875L544.2115 315.3875L544.2115 317.45L543.149 317.45ZM543.149 314.41876L543.149 310.5594L540.4615 314.41876L543.149 314.41876ZM546.774 313.21564Q546.774 311.6844 547.0865 310.7625Q547.399 309.825 548.00836 309.325Q548.63336 308.825 549.57086 308.825Q550.25836 308.825 550.774 309.10626Q551.30524 309.3875 551.649 309.91876Q551.99274 310.4344 552.18024 311.1844Q552.36774 311.9344 552.36774 313.21564Q552.36774 314.73126 552.05524 315.65314Q551.75836 316.575 551.13336 317.09064Q550.524 317.59064 549.57086 317.59064Q548.3365 317.59064 547.61774 316.7Q546.774 315.6375 546.774 313.21564ZM547.8521 313.21564Q547.8521 315.325 548.3521 316.02814Q548.8521 316.73126 549.57086 316.73126Q550.30524 316.73126 550.7896 316.02814Q551.2896 315.325 551.2896 313.21564Q551.2896 311.09064 550.7896 310.40314Q550.30524 309.7 549.55524 309.7Q548.8365 309.7 548.399 310.3094Q547.8521 311.09064 547.8521 313.21564ZM553.774 313.21564Q553.774 311.6844 554.0865 310.7625Q554.399 309.825 555.00836 309.325Q555.63336 308.825 556.57086 308.825Q557.25836 308.825 557.774 309.10626Q558.30524 309.3875 558.649 309.91876Q558.99274 310.4344 559.18024 311.1844Q559.36774 311.9344 559.36774 313.21564Q559.36774 314.73126 559.05524 315.65314Q558.75836 316.575 558.13336 317.09064Q557.524 317.59064 556.57086 317.59064Q555.3365 317.59064 554.61774 316.7Q553.774 315.6375 553.774 313.21564ZM554.8521 313.21564Q554.8521 315.325 555.3521 316.02814Q555.8521 316.73126 556.57086 316.73126Q557.30524 316.73126 557.7896 316.02814Q558.2896 315.325 558.2896 313.21564Q558.2896 311.09064 557.7896 310.40314Q557.30524 309.7 556.55524 309.7Q555.8365 309.7 555.399 310.3094Q554.8521 311.09064 554.8521 313.21564ZM560.774 313.21564Q560.774 311.6844 561.0865 310.7625Q561.399 309.825 562.00836 309.325Q562.63336 308.825 563.57086 308.825Q564.25836 308.825 564.774 309.10626Q565.30524 309.3875 565.649 309.91876Q565.99274 310.4344 566.18024 311.1844Q566.36774 311.9344 566.36774 313.21564Q566.36774 314.73126 566.05524 315.65314Q565.75836 316.575 565.13336 317.09064Q564.524 317.59064 563.57086 317.59064Q562.3365 317.59064 561.61774 316.7Q560.774 315.6375 560.774 313.21564ZM561.8521 313.21564Q561.8521 315.325 562.3521 316.02814Q562.8521 316.73126 563.57086 316.73126Q564.30524 316.73126 564.7896 316.02814Q565.2896 315.325 565.2896 313.21564Q565.2896 311.09064 564.7896 310.40314Q564.30524 309.7 563.55524 309.7Q562.8365 309.7 562.399 310.3094Q561.8521 311.09064 561.8521 313.21564Z" fill-rule="nonzero"/><path fill="#4285f4" d="M177.5 61.916668C177.5 65.23038 174.8137 67.916664 171.5 67.916664C168.1863 67.916664 165.5 65.23038 165.5 61.916668C165.5 58.60296 168.1863 55.916668 171.5 55.916668C174.8137 55.916668 177.5 58.60296 177.5 61.916668Z" fill-rule="nonzero"/><path fill="#1a1a1a" d="M188.875 65.916664L185.54688 57.322914L186.78125 57.322914L189.01562 63.572914Q189.28125 64.322914 189.46875 64.979164Q189.67188 64.27604 189.9375 63.572914L192.25 57.322914L193.40625 57.322914L190.04688 65.916664L188.875 65.916664ZM193.90625 62.80729Q193.90625 61.072914 194.85938 60.24479Q195.65625 59.55729 196.8125 59.55729Q198.09375 59.55729 198.90625 60.40104Q199.73438 61.229164 199.73438 62.71354Q199.73438 63.916664 199.375 64.604164Q199.01562 65.291664 198.3125 65.68229Q197.625 66.05729 196.8125 66.05729Q195.51562 66.05729 194.70312 65.229164Q193.90625 64.385414 193.90625 62.80729ZM194.98438 62.80729Q194.98438 63.99479 195.5 64.58854Q196.03125 65.18229 196.8125 65.18229Q197.60938 65.18229 198.125 64.58854Q198.64062 63.99479 198.64062 62.77604Q198.64062 61.61979 198.10938 61.02604Q197.59375 60.43229 196.8125 60.43229Q196.03125 60.43229 195.5 61.02604Q194.98438 61.604164 194.98438 62.80729ZM206.3125 68.447914Q205.4375 67.33854 204.82812 65.86979Q204.23438 64.385414 204.23438 62.80729Q204.23438 61.416664 204.67188 60.135414Q205.20312 58.65104 206.3125 57.18229L207.0625 57.18229Q206.35938 58.40104 206.125 58.916664Q205.76562 59.729164 205.5625 60.604164Q205.3125 61.697914 205.3125 62.80729Q205.3125 65.635414 207.0625 68.447914L206.3125 68.447914ZM210.875 65.916664L207.54688 57.322914L208.78125 57.322914L211.01562 63.572914Q211.28125 64.322914 211.46875 64.979164Q211.67188 64.27604 211.9375 63.572914L214.25 57.322914L215.40625 57.322914L212.04688 65.916664L210.875 65.916664ZM216.98438 68.447914L216.23438 68.447914Q217.98438 65.635414 217.98438 62.80729Q217.98438 61.71354 217.73438 60.61979Q217.53125 59.74479 217.17188 58.93229Q216.9375 58.416664 216.23438 57.18229L216.98438 57.18229Q218.07812 58.65104 218.60938 60.135414Q219.0625 61.416664 219.0625 62.80729Q219.0625 64.385414 218.45312 65.86979Q217.84375 67.33854 216.98438 68.447914Z" fill-rule="nonzero"/><path stroke="#4285f4" stroke-width="4.0" stroke-linecap="butt" stroke-opacity="0.4" d="M235.5 61.916668L247.5 61.916668" fill-rule="nonzero"/><path fill="#1a1a1a" d="M259.96875 65.916664L258.92188 65.916664L258.92188 59.197914Q258.53125 59.55729 257.90625 59.93229Q257.29688 60.291664 256.8125 60.46354L256.8125 59.447914Q257.6875 59.02604 258.34375 58.447914Q259.01562 57.854164 259.29688 57.291664L259.96875 57.291664L259.96875 65.916664ZM266.375 65.916664L266.375 63.854164L262.65625 63.854164L262.65625 62.885414L266.57812 57.322914L267.4375 57.322914L267.4375 62.885414L268.59375 62.885414L268.59375 63.854164L267.4375 63.854164L267.4375 65.916664L266.375 65.916664ZM266.375 62.885414L266.375 59.02604L263.6875 62.885414L266.375 62.885414ZM270.59375 65.916664L270.59375 64.71354L271.79688 64.71354L271.79688 65.916664L270.59375 65.916664ZM273.15625 63.93229L274.17188 63.83854Q274.29688 64.55729 274.65625 64.885414Q275.03125 65.197914 275.59375 65.197914Q276.07812 65.197914 276.4375 64.979164Q276.8125 64.74479 277.04688 64.385414Q277.28125 64.010414 277.4375 63.385414Q277.59375 62.74479 277.59375 62.08854Q277.59375 62.010414 277.59375 61.86979Q277.28125 62.36979 276.73438 62.697914Q276.1875 63.010414 275.54688 63.010414Q274.46875 63.010414 273.73438 62.24479Q273.0 61.46354 273.0 60.197914Q273.0 58.885414 273.76562 58.08854Q274.54688 57.291664 275.70312 57.291664Q276.53125 57.291664 277.21875 57.74479Q277.92188 58.197914 278.28125 59.041664Q278.64062 59.86979 278.64062 61.447914Q278.64062 63.08854 278.28125 64.072914Q277.9375 65.041664 277.21875 65.55729Q276.51562 66.05729 275.57812 66.05729Q274.5625 66.05729 273.92188 65.510414Q273.28125 64.947914 273.15625 63.93229ZM277.46875 60.135414Q277.46875 59.229164 276.98438 58.697914Q276.51562 58.166664 275.82812 58.166664Q275.125 58.166664 274.59375 58.74479Q274.07812 59.30729 274.07812 60.229164Q274.07812 61.041664 274.57812 61.55729Q275.07812 62.072914 275.79688 62.072914Q276.53125 62.072914 277.0 61.55729Q277.46875 61.041664 277.46875 60.135414ZM285.5 64.52604L285.5 62.166664L283.17188 62.166664L283.17188 61.18229L285.5 61.18229L285.5 58.854164L286.5 58.854164L286.5 61.18229L288.84375 61.18229L288.84375 62.166664L286.5 62.166664L286.5 64.52604L285.5 64.52604ZM292.875 63.33854L292.875 62.27604L296.125 62.27604L296.125 63.33854L292.875 63.33854ZM300.96875 65.916664L299.92188 65.916664L299.92188 59.197914Q299.53125 59.55729 298.90625 59.93229Q298.29688 60.291664 297.8125 60.46354L297.8125 59.447914Q298.6875 59.02604 299.34375 58.447914Q300.01562 57.854164 300.29688 57.291664L300.96875 57.291664L300.96875 65.916664ZM304.59375 65.916664L304.59375 64.71354L305.79688 64.71354L305.79688 65.916664L304.59375 65.916664ZM307.0 63.65104L308.0625 63.510414Q308.23438 64.40104 308.67188 64.80729Q309.10938 65.197914 309.73438 65.197914Q310.48438 65.197914 311.0 64.68229Q311.51562 64.166664 311.51562 63.40104Q311.51562 62.68229 311.03125 62.21354Q310.5625 61.729164 309.82812 61.729164Q309.53125 61.729164 309.07812 61.854164L309.20312 60.916664Q309.3125 60.93229 309.375 60.93229Q310.04688 60.93229 310.57812 60.58854Q311.125 60.229164 311.125 59.49479Q311.125 58.916664 310.73438 58.541664Q310.34375 58.15104 309.71875 58.15104Q309.10938 58.15104 308.6875 58.541664Q308.28125 58.93229 308.17188 59.697914L307.10938 59.510414Q307.29688 58.46354 307.98438 57.885414Q308.67188 57.291664 309.6875 57.291664Q310.39062 57.291664 310.98438 57.604164Q311.57812 57.90104 311.89062 58.416664Q312.20312 58.93229 312.20312 59.52604Q312.20312 60.072914 311.90625 60.541664Q311.60938 60.99479 311.03125 61.260414Q311.78125 61.43229 312.20312 61.99479Q312.625 62.541664 312.625 63.385414Q312.625 64.510414 311.79688 65.291664Q310.98438 66.072914 309.73438 66.072914Q308.60938 66.072914 307.85938 65.40104Q307.10938 64.71354 307.0 63.65104ZM314.15625 63.93229L315.17188 63.83854Q315.29688 64.55729 315.65625 64.885414Q316.03125 65.197914 316.59375 65.197914Q317.07812 65.197914 317.4375 64.979164Q317.8125 64.74479 318.04688 64.385414Q318.28125 64.010414 318.4375 63.385414Q318.59375 62.74479 318.59375 62.08854Q318.59375 62.010414 318.59375 61.86979Q318.28125 62.36979 317.73438 62.697914Q317.1875 63.010414 316.54688 63.010414Q315.46875 63.010414 314.73438 62.24479Q314.0 61.46354 314.0 60.197914Q314.0 58.885414 314.76562 58.08854Q315.54688 57.291664 316.70312 57.291664Q317.53125 57.291664 318.21875 57.74479Q318.92188 58.197914 319.28125 59.041664Q319.64062 59.86979 319.64062 61.447914Q319.64062 63.08854 319.28125 64.072914Q318.9375 65.041664 318.21875 65.55729Q317.51562 66.05729 316.57812 66.05729Q315.5625 66.05729 314.92188 65.510414Q314.28125 64.947914 314.15625 63.93229ZM318.46875 60.135414Q318.46875 59.229164 317.98438 58.697914Q317.51562 58.166664 316.82812 58.166664Q316.125 58.166664 315.59375 58.74479Q315.07812 59.30729 315.07812 60.229164Q315.07812 61.041664 315.57812 61.55729Q316.07812 62.072914 316.79688 62.072914Q317.53125 62.072914 318.0 61.55729Q318.46875 61.041664 318.46875 60.135414ZM321.45312 65.916664L321.45312 57.322914L327.65625 57.322914L327.65625 58.33854L322.59375 58.33854L322.59375 60.96354L327.34375 60.96354L327.34375 61.979164L322.59375 61.979164L322.59375 64.90104L327.85938 64.90104L327.85938 65.916664L321.45312 65.916664ZM328.875 63.33854L328.875 62.27604L332.125 62.27604L332.125 63.33854L328.875 63.33854ZM333.0 61.68229Q333.0 60.15104 333.3125 59.229164Q333.625 58.291664 334.23438 57.791664Q334.85938 57.291664 335.79688 57.291664Q336.48438 57.291664 337.0 57.572914Q337.53125 57.854164 337.875 58.385414Q338.21875 58.90104 338.40625 59.65104Q338.59375 60.40104 338.59375 61.68229Q338.59375 63.197914 338.28125 64.11979Q337.98438 65.041664 337.35938 65.55729Q336.75 66.05729 335.79688 66.05729Q334.5625 66.05729 333.84375 65.166664Q333.0 64.104164 333.0 61.68229ZM334.07812 61.68229Q334.07812 63.791664 334.57812 64.49479Q335.07812 65.197914 335.79688 65.197914Q336.53125 65.197914 337.01562 64.49479Q337.51562 63.791664 337.51562 61.68229Q337.51562 59.55729 337.01562 58.86979Q336.53125 58.166664 335.78125 58.166664Q335.0625 58.166664 334.625 58.77604Q334.07812 59.55729 334.07812 61.68229ZM340.0 63.65104L341.0625 63.510414Q341.23438 64.40104 341.67188 64.80729Q342.10938 65.197914 342.73438 65.197914Q343.48438 65.197914 344.0 64.68229Q344.51562 64.166664 344.51562 63.40104Q344.51562 62.68229 344.03125 62.21354Q343.5625 61.729164 342.82812 61.729164Q342.53125 61.729164 342.07812 61.854164L342.20312 60.916664Q342.3125 60.93229 342.375 60.93229Q343.04688 60.93229 343.57812 60.58854Q344.125 60.229164 344.125 59.49479Q344.125 58.916664 343.73438 58.541664Q343.34375 58.15104 342.71875 58.15104Q342.10938 58.15104 341.6875 58.541664Q341.28125 58.93229 341.17188 59.697914L340.10938 59.510414Q340.29688 58.46354 340.98438 57.885414Q341.67188 57.291664 342.6875 57.291664Q343.39062 57.291664 343.98438 57.604164Q344.57812 57.90104 344.89062 58.416664Q345.20312 58.93229 345.20312 59.52604Q345.20312 60.072914 344.90625 60.541664Q344.60938 60.99479 344.03125 61.260414Q344.78125 61.43229 345.20312 61.99479Q345.625 62.541664 345.625 63.385414Q345.625 64.510414 344.79688 65.291664Q343.98438 66.072914 342.73438 66.072914Q341.60938 66.072914 340.85938 65.40104Q340.10938 64.71354 340.0 63.65104ZM346.59375 65.916664L348.85938 62.68229L346.76562 59.697914L348.07812 59.697914L349.03125 61.15104Q349.29688 61.572914 349.46875 61.854164Q349.71875 61.46354 349.9375 61.166664L350.98438 59.697914L352.25 59.697914L350.09375 62.61979L352.40625 65.916664L351.125 65.916664L349.84375 63.979164L349.5 63.46354L347.85938 65.916664L346.59375 65.916664ZM358.5 64.52604L358.5 62.166664L356.17188 62.166664L356.17188 61.18229L358.5 61.18229L358.5 58.854164L359.5 58.854164L359.5 61.18229L361.84375 61.18229L361.84375 62.166664L359.5 62.166664L359.5 64.52604L358.5 64.52604ZM369.375 65.916664L369.375 63.854164L365.65625 63.854164L365.65625 62.885414L369.57812 57.322914L370.4375 57.322914L370.4375 62.885414L371.59375 62.885414L371.59375 63.854164L370.4375 63.854164L370.4375 65.916664L369.375 65.916664ZM369.375 62.885414L369.375 59.02604L366.6875 62.885414L369.375 62.885414ZM373.59375 65.916664L373.59375 64.71354L374.79688 64.71354L374.79688 65.916664L373.59375 65.916664ZM376.15625 63.93229L377.17188 63.83854Q377.29688 64.55729 377.65625 64.885414Q378.03125 65.197914 378.59375 65.197914Q379.07812 65.197914 379.4375 64.979164Q379.8125 64.74479 380.04688 64.385414Q380.28125 64.010414 380.4375 63.385414Q380.59375 62.74479 380.59375 62.08854Q380.59375 62.010414 380.59375 61.86979Q380.28125 62.36979 379.73438 62.697914Q379.1875 63.010414 378.54688 63.010414Q377.46875 63.010414 376.73438 62.24479Q376.0 61.46354 376.0 60.197914Q376.0 58.885414 376.76562 58.08854Q377.54688 57.291664 378.70312 57.291664Q379.53125 57.291664 380.21875 57.74479Q380.92188 58.197914 381.28125 59.041664Q381.64062 59.86979 381.64062 61.447914Q381.64062 63.08854 381.28125 64.072914Q380.9375 65.041664 380.21875 65.55729Q379.51562 66.05729 378.57812 66.05729Q377.5625 66.05729 376.92188 65.510414Q376.28125 64.947914 376.15625 63.93229ZM380.46875 60.135414Q380.46875 59.229164 379.98438 58.697914Q379.51562 58.166664 378.82812 58.166664Q378.125 58.166664 377.59375 58.74479Q377.07812 59.30729 377.07812 60.229164Q377.07812 61.041664 377.57812 61.55729Q378.07812 62.072914 378.79688 62.072914Q379.53125 62.072914 380.0 61.55729Q380.46875 61.041664 380.46875 60.135414ZM388.46875 59.43229L387.42188 59.510414Q387.28125 58.885414 387.03125 58.604164Q386.59375 58.15104 385.96875 58.15104Q385.46875 58.15104 385.07812 58.43229Q384.59375 58.80729 384.29688 59.510414Q384.01562 60.197914 384.0 61.479164Q384.375 60.90104 384.92188 60.61979Q385.48438 60.33854 386.09375 60.33854Q387.14062 60.33854 387.875 61.11979Q388.625 61.90104 388.625 63.11979Q388.625 63.93229 388.26562 64.635414Q387.92188 65.322914 387.3125 65.697914Q386.70312 66.05729 385.9375 66.05729Q384.60938 66.05729 383.78125 65.08854Q382.95312 64.11979 382.95312 61.90104Q382.95312 59.40104 383.875 58.27604Q384.67188 57.291664 386.03125 57.291664Q387.04688 57.291664 387.6875 57.86979Q388.34375 58.43229 388.46875 59.43229ZM384.17188 63.135414Q384.17188 63.68229 384.39062 64.18229Q384.625 64.666664 385.03125 64.93229Q385.45312 65.197914 385.92188 65.197914Q386.57812 65.197914 387.0625 64.666664Q387.54688 64.11979 387.54688 63.197914Q387.54688 62.30729 387.0625 61.791664Q386.59375 61.27604 385.875 61.27604Q385.15625 61.27604 384.65625 61.791664Q384.17188 62.30729 384.17188 63.135414ZM390.45312 65.916664L390.45312 57.322914L396.65625 57.322914L396.65625 58.33854L391.59375 58.33854L391.59375 60.96354L396.34375 60.96354L396.34375 61.979164L391.59375 61.979164L391.59375 64.90104L396.85938 64.90104L396.85938 65.916664L390.45312 65.916664ZM397.875 63.33854L397.875 62.27604L401.125 62.27604L401.125 63.33854L397.875 63.33854ZM402.0 61.68229Q402.0 60.15104 402.3125 59.229164Q402.625 58.291664 403.23438 57.791664Q403.85938 57.291664 404.79688 57.291664Q405.48438 57.291664 406.0 57.572914Q406.53125 57.854164 406.875 58.385414Q407.21875 58.90104 407.40625 59.65104Q407.59375 60.40104 407.59375 61.68229Q407.59375 63.197914 407.28125 64.11979Q406.98438 65.041664 406.35938 65.55729Q405.75 66.05729 404.79688 66.05729Q403.5625 66.05729 402.84375 65.166664Q402.0 64.104164 402.0 61.68229ZM403.07812 61.68229Q403.07812 63.791664 403.57812 64.49479Q404.07812 65.197914 404.79688 65.197914Q405.53125 65.197914 406.01562 64.49479Q406.51562 63.791664 406.51562 61.68229Q406.51562 59.55729 406.01562 58.86979Q405.53125 58.166664 404.78125 58.166664Q404.0625 58.166664 403.625 58.77604Q403.07812 59.55729 403.07812 61.68229ZM410.625 61.260414Q409.96875 61.010414 409.64062 60.572914Q409.32812 60.11979 409.32812 59.510414Q409.32812 58.572914 410.0 57.93229Q410.6875 57.291664 411.79688 57.291664Q412.92188 57.291664 413.60938 57.947914Q414.29688 58.604164 414.29688 59.541664Q414.29688 60.135414 413.98438 60.572914Q413.67188 61.010414 413.03125 61.260414Q413.82812 61.510414 414.23438 62.08854Q414.64062 62.666664 414.64062 63.46354Q414.64062 64.55729 413.85938 65.30729Q413.09375 66.05729 411.8125 66.05729Q410.54688 66.05729 409.76562 65.30729Q408.98438 64.55729 408.98438 63.43229Q408.98438 62.58854 409.40625 62.02604Q409.84375 61.46354 410.625 61.260414ZM410.40625 59.46354Q410.40625 60.072914 410.79688 60.46354Q411.20312 60.854164 411.82812 60.854164Q412.4375 60.854164 412.82812 60.479164Q413.21875 60.08854 413.21875 59.52604Q413.21875 58.947914 412.8125 58.55729Q412.40625 58.15104 411.8125 58.15104Q411.20312 58.15104 410.79688 58.541664Q410.40625 58.93229 410.40625 59.46354ZM410.07812 63.43229Q410.07812 63.885414 410.28125 64.30729Q410.5 64.729164 410.92188 64.96354Q411.34375 65.197914 411.82812 65.197914Q412.57812 65.197914 413.0625 64.71354Q413.5625 64.229164 413.5625 63.479164Q413.5625 62.71354 413.0625 62.21354Q412.5625 61.71354 411.79688 61.71354Q411.04688 61.71354 410.5625 62.21354Q410.07812 62.697914 410.07812 63.43229ZM415.59375 65.916664L417.85938 62.68229L415.76562 59.697914L417.07812 59.697914L418.03125 61.15104Q418.29688 61.572914 418.46875 61.854164Q418.71875 61.46354 418.9375 61.166664L419.98438 59.697914L421.25 59.697914L419.09375 62.61979L421.40625 65.916664L420.125 65.916664L418.84375 63.979164L418.5 63.46354L416.85938 65.916664L415.59375 65.916664ZM422.90625 61.86979L421.8125 61.86979L423.89062 57.18229L424.73438 57.18229L426.8125 61.86979L425.75 61.86979L424.3125 58.36979L422.90625 61.86979ZM433.54688 64.90104L433.54688 65.916664L427.85938 65.916664Q427.85938 65.541664 427.98438 65.18229Q428.20312 64.604164 428.67188 64.041664Q429.15625 63.479164 430.0625 62.74479Q431.46875 61.58854 431.95312 60.916664Q432.45312 60.24479 432.45312 59.65104Q432.45312 59.02604 432.0 58.604164Q431.54688 58.166664 430.82812 58.166664Q430.0625 58.166664 429.60938 58.61979Q429.15625 59.072914 429.14062 59.885414L428.0625 59.77604Q428.17188 58.55729 428.89062 57.93229Q429.625 57.291664 430.85938 57.291664Q432.09375 57.291664 432.8125 57.979164Q433.53125 58.666664 433.53125 59.68229Q433.53125 60.197914 433.3125 60.697914Q433.10938 61.18229 432.60938 61.74479Q432.125 62.291664 431.0 63.24479Q430.04688 64.041664 429.76562 64.33854Q429.5 64.61979 429.32812 64.90104L433.54688 64.90104Z" fill-rule="nonzero"/><path fill="#757575" d="M24.190624 37.55L18.64375 23.2375L20.690624 23.2375L24.409374 33.628124Q24.8625 34.878124 25.159374 35.971874Q25.4875 34.8 25.940624 33.628124L29.8 23.2375L31.7375 23.2375L26.128124 37.55L24.190624 37.55ZM32.221874 32.3625Q32.221874 29.4875 33.815624 28.096874Q35.159374 26.940624 37.08125 26.940624Q39.221874 26.940624 40.565624 28.346874Q41.925 29.753124 41.925 32.221874Q41.925 34.221874 41.33125 35.378124Q40.7375 36.51875 39.58125 37.159374Q38.440624 37.784374 37.08125 37.784374Q34.89375 37.784374 33.55 36.39375Q32.221874 34.9875 32.221874 32.3625ZM34.01875 32.3625Q34.01875 34.3625 34.878124 35.346874Q35.753124 36.33125 37.08125 36.33125Q38.39375 36.33125 39.253124 35.346874Q40.128124 34.346874 40.128124 32.3Q40.128124 30.378124 39.253124 29.39375Q38.378124 28.39375 37.08125 28.39375Q35.753124 28.39375 34.878124 29.39375Q34.01875 30.378124 34.01875 32.3625ZM53.221874 41.753124Q51.76875 39.925 50.76875 37.471874Q49.76875 35.003124 49.76875 32.3625Q49.76875 30.034374 50.51875 27.909374Q51.39375 25.440624 53.221874 22.9875L54.4875 22.9875Q53.3 25.01875 52.925 25.89375Q52.33125 27.2375 51.9875 28.70625Q51.565624 30.534374 51.565624 32.378124Q51.565624 37.065624 54.4875 41.753124L53.221874 41.753124ZM61.190624 37.55L55.64375 23.2375L57.690624 23.2375L61.409374 33.628124Q61.8625 34.878124 62.159374 35.971874Q62.4875 34.8 62.940624 33.628124L66.8 23.2375L68.7375 23.2375L63.128124 37.55L61.190624 37.55ZM71.01875 41.753124L69.76875 41.753124Q72.675 37.065624 72.675 32.378124Q72.675 30.534374 72.26875 28.7375Q71.925 27.26875 71.33125 25.925Q70.95625 25.034374 69.76875 22.9875L71.01875 22.9875Q72.8625 25.440624 73.7375 27.909374Q74.4875 30.034374 74.4875 32.3625Q74.4875 35.003124 73.47188 37.471874Q72.47188 39.925 71.01875 41.753124ZM85.75313 37.55L81.8 27.175L83.65938 27.175L85.89375 33.39375Q86.25313 34.39375 86.55 35.471874Q86.78438 34.659374 87.20625 33.503124L89.50313 27.175L91.31563 27.175L87.39375 37.55L85.75313 37.55ZM92.15938 34.45625L93.90938 34.175Q94.05 35.221874 94.72188 35.784374Q95.39375 36.33125 96.59688 36.33125Q97.8 36.33125 98.37813 35.846874Q98.97188 35.346874 98.97188 34.690624Q98.97188 34.096874 98.45625 33.753124Q98.09688 33.51875 96.65938 33.159374Q94.72188 32.659374 93.97188 32.315624Q93.2375 31.95625 92.84688 31.33125Q92.45625 30.690624 92.45625 29.925Q92.45625 29.2375 92.76875 28.64375Q93.09688 28.05 93.64375 27.659374Q94.05 27.3625 94.75313 27.159374Q95.47188 26.940624 96.28438 26.940624Q97.50313 26.940624 98.425 27.3Q99.34688 27.64375 99.78438 28.253124Q100.22188 28.846874 100.39375 29.846874L98.675 30.08125Q98.55 29.284374 97.9875 28.846874Q97.425 28.39375 96.40938 28.39375Q95.19063 28.39375 94.675 28.8Q94.15938 29.190624 94.15938 29.721874Q94.15938 30.065624 94.37813 30.346874Q94.58125 30.628124 95.05 30.815624Q95.31563 30.909374 96.59688 31.253124Q98.47188 31.753124 99.20625 32.08125Q99.94063 32.39375 100.3625 33.003124Q100.78438 33.596874 100.78438 34.503124Q100.78438 35.378124 100.26875 36.159374Q99.75313 36.940624 98.78438 37.3625Q97.81563 37.784374 96.59688 37.784374Q94.58125 37.784374 93.51875 36.940624Q92.45625 36.096874 92.15938 34.45625ZM103.3625 37.55L103.3625 35.55L105.3625 35.55L105.3625 37.55L103.3625 37.55ZM115.12813 37.55L115.12813 23.2375L121.47188 23.2375Q123.37813 23.2375 124.37813 23.628124Q125.37813 24.003124 125.97188 24.9875Q126.56563 25.95625 126.56563 27.14375Q126.56563 28.659374 125.58125 29.70625Q124.59688 30.753124 122.53438 31.034374Q123.28438 31.39375 123.675 31.753124Q124.50313 32.503124 125.25313 33.659374L127.7375 37.55L125.3625 37.55L123.45625 34.565624Q122.62813 33.284374 122.09688 32.596874Q121.56563 31.909374 121.12813 31.64375Q120.70625 31.3625 120.26875 31.253124Q119.94063 31.190624 119.22188 31.190624L117.01875 31.190624L117.01875 37.55L115.12813 37.55ZM117.01875 29.55L121.09688 29.55Q122.39375 29.55 123.1125 29.284374Q123.84688 29.01875 124.22188 28.425Q124.6125 27.83125 124.6125 27.14375Q124.6125 26.128124 123.87813 25.471874Q123.14375 24.815624 121.55 24.815624L117.01875 24.815624L117.01875 29.55ZM127.25313 41.51875L127.25313 40.253124L138.89375 40.253124L138.89375 41.51875L127.25313 41.51875ZM146.00313 37.55L144.2375 37.55L144.2375 26.346874Q143.6125 26.95625 142.58125 27.565624Q141.55 28.159374 140.72188 28.471874L140.72188 26.76875Q142.20625 26.08125 143.3 25.096874Q144.40938 24.096874 144.8625 23.175L146.00313 23.175L146.00313 37.55Z" fill-rule="nonzero"/></svg>