<svg version="1.1" viewBox="0.0 0.0 600.0 371.0" fill="none" stroke="none" stroke-linecap="square" stroke-miterlimit="10" width="600" height="371" xmlns:xlink="http://www.w3.org/1999/xlink" xmlns="http://www.w3.org/2000/svg"><path fill="#ffffff" d="M0 0L600.0 0L600.0 371.0L0 371.0L0 0Z" fill-rule="nonzero"/><path stroke="#cccccc" stroke-width="1.0" stroke-linecap="butt" d="M151.5 88.5L151.5 300.5" fill-rule="nonzero"/><path stroke="#cccccc" stroke-width="1.0" stroke-linecap="butt" d="M251.5 88.5L251.5 300.5" fill-rule="nonzero"/><path stroke="#cccccc" stroke-width="1.0" stroke-linecap="butt" d="M350.5 88.5L350.5 300.5" fill-rule="nonzero"/><path stroke="#cccccc" stroke-width="1.0" stroke-linecap="butt" d="M450.5 88.5L450.5 300.5" fill-rule="nonzero"/><path stroke="#cccccc" stroke-width="1.0" stroke-linecap="butt" d="M549.5 88.5L549.5 300.5" fill-rule="nonzero"/><path stroke="#333333" stroke-width="1.0" stroke-linecap="butt" d="M77.5 300.5L581.5 300.5" fill-rule="nonzero"/><path stroke="#cccccc" stroke-width="1.0" stroke-linecap="butt" d="M77.5 247.5L581.5 247.5" fill-rule="nonzero"/><path stroke="#cccccc" stroke-width="1.0" stroke-linecap="butt" d="M77.5 194.5L581.5 194.5" fill-rule="nonzero"/><path stroke="#cccccc" stroke-width="1.0" stroke-linecap="butt" d="M77.5 141.5L581.5 141.5" fill-rule="nonzero"/><path stroke="#cccccc" stroke-width="1.0" stroke-linecap="butt" d="M77.5 88.5L581.5 88.5" fill-rule="nonzero"/><clipPath id="id_0"><path d="M77.55 88.28333L581.45 88.28333L581.45 300.45L77.55 300.45L77.55 88.28333Z" clip-rule="nonzero"/></clipPath><path stroke="#4285f4" stroke-width="2.0" stroke-linecap="butt" stroke-opacity="0.4" clip-path="url(#id_0)" d="M0 85.7271C0 85.7271 2.6666667 87.253395 4.0 88.01236C5.3333335 88.771324 6.6666665 89.527504 8.0 90.28088C9.333333 91.03427 10.666667 91.78487 12.0 92.53268C13.333333 93.28049 14.666667 94.025505 16.0 94.76773C17.333334 95.50996 18.666666 96.2494 20.0 96.986046C21.333334 97.722694 22.666666 98.45656 24.0 99.18762C25.333334 99.91869 26.666666 100.64698 28.0 101.37247C29.333334 102.09796 30.666666 102.82066 32.0 103.54057C33.333332 104.26048 34.666668 104.97761 36.0 105.69194C37.333332 106.40627 38.666668 107.11782 40.0 107.82657C41.333332 108.535324 42.666668 109.24129 44.0 109.944466C45.333332 110.647644 46.666668 111.34802 48.0 112.04562C49.333332 112.74322 50.666668 113.43803 52.0 114.13004C53.333332 114.82206 54.666668 115.511284 56.0 116.19772C57.333332 116.88416 58.666668 117.56781 60.0 118.24867C61.333332 118.92953 62.666668 119.6076 64.0 120.282875C65.333336 120.95816 66.666664 121.630646 68.0 122.30035C69.333336 122.97005 70.666664 123.63696 72.0 124.30109C73.333336 124.9652 74.666664 125.62654 76.0 126.28508C77.333336 126.94363 78.666664 127.59937 80.0 128.25233C81.333336 128.9053 82.666664 129.55548 84.0 130.20287C85.333336 130.85025 86.666664 131.49484 88.0 132.13664C89.333336 132.77846 90.666664 133.41747 92.0 134.0537C93.333336 134.68993 94.666664 135.32336 96.0 135.95401C97.333336 136.58466 98.666664 137.21251 100.0 137.83759C101.333336 138.46265 102.666664 139.08493 104.0 139.70442C105.333336 140.32391 106.666664 140.94061 108.0 141.55452C109.333336 142.16843 110.666664 142.77956 112.0 143.38788C113.333336 143.99622 114.666664 144.60176 116.0 145.20451C117.333336 145.80727 118.666664 146.40723 120.0 147.0044C121.333336 147.60158 122.666664 148.19595 124.0 148.78755C125.333336 149.37915 126.666664 149.96796 128.0 150.55397C129.33333 151.13998 130.66667 151.7232 132.0 152.30365C133.33333 152.88408 134.66667 153.46173 136.0 154.03659C137.33333 154.61145 138.66667 155.18352 140.0 155.75279C141.33333 156.32207 142.66667 156.88857 144.0 157.45226C145.33333 158.01596 146.66667 158.57686 148.0 159.13498C149.33333 159.6931 150.66667 160.24844 152.0 160.80098C153.33333 161.35352 154.66667 161.90327 156.0 162.45024C157.33333 162.9972 158.66667 163.54137 160.0 164.08275C161.33333 164.62413 162.66667 165.16273 164.0 165.69853C165.33333 166.23434 166.66667 166.76735 168.0 167.29758C169.33333 167.8278 170.66667 168.35524 172.0 168.87988C173.33333 169.40453 174.66667 169.92639 176.0 170.44545C177.33333 170.96452 178.66667 171.4808 180.0 171.9943C181.33333 172.50778 182.66667 173.01848 184.0 173.52638C185.33333 174.03429 186.66667 174.53941 188.0 175.04175C189.33333 175.54407 190.66667 176.04361 192.0 176.54036C193.33333 177.03711 194.66667 177.53108 196.0 178.02225C197.33333 178.51343 198.66667 179.0018 200.0 179.4874C201.33333 179.97299 202.66667 180.4558 204.0 180.9358C205.33333 181.41582 206.66667 181.89305 208.0 182.36748C209.33333 182.84192 210.66667 183.31355 212.0 183.78241C213.33333 184.25127 214.66667 184.71733 216.0 185.18062C217.33333 185.64389 218.66667 186.10439 220.0 186.56207C221.33333 187.01978 222.66667 187.47469 224.0 187.9268C225.33333 188.37892 226.66667 188.82825 228.0 189.2748C229.33333 189.72133 230.66667 190.16508 232.0 190.60603C233.33333 191.047 234.66667 191.48517 236.0 191.92055C237.33333 192.35594 238.66667 192.78853 240.0 193.21834C241.33333 193.64813 242.66667 194.07515 244.0 194.49937C245.33333 194.9236 246.66667 195.34503 248.0 195.76367C249.33333 196.18231 250.66667 196.59818 252.0 197.01125C253.33333 197.4243 254.66667 197.83458 256.0 198.24207C257.33334 198.64955 258.66666 199.05424 260.0 199.45616C261.33334 199.85806 262.66666 200.25719 264.0 200.65352C265.33334 201.04984 266.66666 201.44337 268.0 201.83412C269.33334 202.22488 270.66666 202.61284 272.0 202.99802C273.33334 203.38318 274.66666 203.76556 276.0 204.14516C277.33334 204.52475 278.66666 204.90155 280.0 205.27556C281.33334 205.64957 282.66666 206.0208 284.0 206.38922C285.33334 206.75766 286.66666 207.1233 288.0 207.48616C289.33334 207.84901 290.66666 208.20908 292.0 208.56635C293.33334 208.92363 294.66666 209.2781 296.0 209.6298C297.33334 209.9815 298.66666 210.33041 300.0 210.67653C301.33334 211.02264 302.66666 211.36598 304.0 211.70651C305.33334 212.04706 306.66666 212.3848 308.0 212.71976C309.33334 213.05472 310.66666 213.38689 312.0 213.71626C313.33334 214.04565 314.66666 214.37224 316.0 214.69604C317.33334 215.01984 318.66666 215.34085 320.0 215.65907C321.33334 215.9773 322.66666 216.29272 324.0 216.60538C325.33334 216.91801 326.66666 217.22787 328.0 217.53493C329.33334 217.842 330.66666 218.14627 332.0 218.44775C333.33334 218.74924 334.66666 219.04794 336.0 219.34384C337.33334 219.63976 338.66666 219.93286 340.0 220.22319C341.33334 220.51352 342.66666 220.80106 344.0 221.0858C345.33334 221.37056 346.66666 221.65251 348.0 221.93169C349.33334 222.21085 350.66666 222.48723 352.0 222.76082C353.33334 223.03441 354.66666 223.3052 356.0 223.57323C357.33334 223.84123 358.66666 224.10646 360.0 224.36888C361.33334 224.63132 362.66666 224.89096 364.0 225.14781C365.33334 225.40466 366.66666 225.65872 368.0 225.91C369.33334 226.16127 370.66666 226.40976 372.0 226.65546C373.33334 226.90115 374.66666 227.14406 376.0 227.38417C377.33334 227.62428 378.66666 227.86162 380.0 228.09615C381.33334 228.33069 382.66666 228.56244 384.0 228.7914C385.33334 229.02036 386.66666 229.24652 388.0 229.4699C389.33334 229.69327 390.66666 229.91386 392.0 230.13167C393.33334 230.34946 394.66666 230.56447 396.0 230.77669C397.33334 230.9889 398.66666 231.19835 400.0 231.40498C401.33334 231.61163 402.66666 231.81548 404.0 232.01654C405.33334 232.2176 406.66666 232.41588 408.0 232.61136C409.33334 232.80684 410.66666 232.99954 412.0 233.18944C413.33334 233.37935 414.66666 233.56647 416.0 233.7508C417.33334 233.93512 418.66666 234.11665 420.0 234.2954C421.33334 234.47414 422.66666 234.6501 424.0 234.82327C425.33334 234.99643 426.66666 235.16681 428.0 235.3344C429.33334 235.50198 430.66666 235.6668 432.0 235.8288C433.33334 235.99081 434.66666 236.15002 436.0 236.30646C437.33334 236.46289 438.66666 236.61653 440.0 236.76738C441.33334 236.91823 442.66666 237.0663 444.0 237.21156C445.33334 237.35684 446.66666 237.49931 448.0 237.639C449.33334 237.7787 450.66666 237.9156 452.0 238.04973C453.33334 238.18384 454.66666 238.31517 456.0 238.4437C457.33334 238.57224 458.66666 238.69798 460.0 238.82094C461.33334 238.9439 462.66666 239.06406 464.0 239.18144C465.33334 239.29881 466.66666 239.4134 468.0 239.52519C469.33334 239.637 470.66666 239.746 472.0 239.85222C473.33334 239.95845 474.66666 240.06187 476.0 240.1625C477.33334 240.26315 478.66666 240.36101 480.0 240.45607C481.33334 240.55113 482.66666 240.6434 484.0 240.73288C485.33334 240.82236 486.66666 240.90906 488.0 240.99295C489.33334 241.07686 490.66666 241.15797 492.0 241.2363C493.33334 241.31462 494.66666 241.39015 496.0 241.4629C497.33334 241.53564 498.66666 241.6056 500.0 241.67276C501.33334 241.73993 502.66666 241.8043 504.0 241.86589C505.33334 241.92747 506.66666 241.98628 508.0 242.04228C509.33334 242.0983 510.66666 242.15152 512.0 242.20193C513.3333 242.25237 514.6667 242.3 516.0 242.34486C517.3333 242.38971 518.6667 242.43176 520.0 242.47104C521.3333 242.51031 522.6667 242.5468 524.0 242.58049C525.3333 242.61418 526.6667 242.64508 528.0 242.67319C529.3333 242.70131 530.6667 242.72662 532.0 242.74916C533.3333 242.7717 534.6667 242.79144 536.0 242.8084C537.3333 242.82535 538.6667 242.83951 540.0 242.85089C541.3333 242.86226 542.6667 242.87085 544.0 242.87665C545.3333 242.88245 546.6667 242.88545 548.0 242.88567C549.3333 242.88588 550.6667 242.88332 552.0 242.87794C553.3333 242.87259 554.6667 242.86444 556.0 242.8535C557.3333 242.84256 558.6667 242.82883 560.0 242.8123C561.3333 242.79579 562.6667 242.77647 564.0 242.75438C565.3333 242.73228 566.6667 242.7074 568.0 242.67972C569.3333 242.65204 570.6667 242.62157 572.0 242.58832C573.3333 242.55505 574.6667 242.51901 576.0 242.48018C577.3333 242.44135 580.0 242.3553 580.0 242.3553" fill-rule="nonzero"/><path fill="#4285f4" clip-path="url(#id_0)" d="M88.86077 127.79938C88.86077 130.28465 86.846054 132.29938 84.36077 132.29938C81.875496 132.29938 79.86077 130.28465 79.86077 127.79938C79.86077 125.314095 81.875496 123.29938 84.36077 123.29938C86.846054 123.29938 88.86077 125.314095 88.86077 127.79938Z" fill-rule="nonzero"/><path fill="#4285f4" clip-path="url(#id_0)" d="M216.10631 189.32771C216.10631 191.81299 214.09158 193.82771 211.60631 193.82771C209.12102 193.82771 207.10631 191.81299 207.10631 189.32771C207.10631 186.84242 209.12102 184.82771 211.60631 184.82771C214.09158 184.82771 216.10631 186.84242 216.10631 189.32771Z" fill-rule="nonzero"/><path fill="#4285f4" clip-path="url(#id_0)" d="M337.44882 217.43979C337.44882 219.92508 335.43408 221.93979 332.94882 221.93979C330.46353 221.93979 328.44882 219.92508 328.44882 217.43979C328.44882 214.95451 330.46353 212.93979 332.94882 212.93979C335.43408 212.93979 337.44882 214.95451 337.44882 217.43979Z" fill-rule="nonzero"/><path fill="#4285f4" clip-path="url(#id_0)" d="M464.2617 234.41313C464.2617 236.8984 462.24698 238.91313 459.7617 238.91313C457.2764 238.91313 455.2617 236.8984 455.2617 234.41313C455.2617 231.92784 457.2764 229.91313 459.7617 229.91313C462.24698 229.91313 464.2617 231.92784 464.2617 234.41313Z" fill-rule="nonzero"/><path fill="#4285f4" clip-path="url(#id_0)" d="M579.1392 245.02145C579.1392 247.50674 577.1245 249.52145 574.6392 249.52145C572.15393 249.52145 570.1392 247.50674 570.1392 245.02145C570.1392 242.53618 572.15393 240.52145 574.6392 240.52145C577.1245 240.52145 579.1392 242.53618 579.1392 245.02145Z" fill-rule="nonzero"/><path fill="#000000" d="M318.9375 349.45L318.9375 340.85626L322.75 340.85626Q323.90625 340.85626 324.5 341.09064Q325.09375 341.325 325.45312 341.91876Q325.8125 342.4969 325.8125 343.2Q325.8125 344.1219 325.21875 344.7469Q324.625 345.3719 323.39062 345.54376Q323.84375 345.7625 324.07812 345.96564Q324.57812 346.41876 325.01562 347.10626L326.51562 349.45L325.07812 349.45L323.95312 347.66876Q323.45312 346.8875 323.125 346.48126Q322.8125 346.075 322.54688 345.91876Q322.29688 345.7469 322.03125 345.66876Q321.84375 345.6375 321.40625 345.6375L320.07812 345.6375L320.07812 349.45L318.9375 349.45ZM320.07812 344.65314L322.53125 344.65314Q323.29688 344.65314 323.73438 344.4969Q324.1875 344.325 324.40625 343.98126Q324.64062 343.6219 324.64062 343.2Q324.64062 342.59064 324.1875 342.2Q323.75 341.8094 322.79688 341.8094L320.07812 341.8094L320.07812 344.65314ZM326.8125 351.84064L326.8125 351.075L333.8125 351.075L333.8125 351.84064L326.8125 351.84064ZM338.46875 349.45L337.42188 349.45L337.42188 342.73126Q337.03125 343.09064 336.40625 343.46564Q335.79688 343.825 335.3125 343.9969L335.3125 342.98126Q336.1875 342.5594 336.84375 341.98126Q337.51562 341.3875 337.79688 340.825L338.46875 340.825L338.46875 349.45Z" fill-rule="nonzero"/><path fill="#000000" d="M29.550013 215.74167L20.956263 215.74167L20.956263 214.61667L29.550013 214.61667L29.550013 215.74167ZM32.08126 208.05417Q30.971888 208.92917 29.503138 209.53854Q28.018763 210.1323 26.440638 210.1323Q25.050013 210.1323 23.768763 209.6948Q22.284388 209.16354 20.815638 208.05417L20.815638 207.30417Q22.034388 208.0073 22.550013 208.24167Q23.362513 208.60104 24.237513 208.80417Q25.331263 209.05417 26.440638 209.05417Q29.268763 209.05417 32.08126 207.30417L32.08126 208.05417ZM29.550013 206.0698L23.331263 206.0698L23.331263 205.1323L24.206263 205.1323Q23.737513 204.83542 23.471888 204.35104Q23.190638 203.86667 23.190638 203.24167Q23.190638 202.55417 23.471888 202.11667Q23.753138 201.66354 24.268763 201.49167Q23.190638 200.74167 23.190638 199.5698Q23.190638 198.6323 23.706263 198.14792Q24.206263 197.64792 25.284388 197.64792L29.550013 197.64792L29.550013 198.6948L25.628138 198.6948Q25.003138 198.6948 24.721888 198.80417Q24.440638 198.89792 24.268763 199.16354Q24.096888 199.42917 24.096888 199.80417Q24.096888 200.46042 24.534388 200.89792Q24.971888 201.3198 25.940638 201.3198L29.550013 201.3198L29.550013 202.3823L25.503138 202.3823Q24.800013 202.3823 24.456263 202.64792Q24.096888 202.89792 24.096888 203.47604Q24.096888 203.92917 24.331263 204.30417Q24.565638 204.67917 25.018763 204.85104Q25.471888 205.02292 26.315638 205.02292L29.550013 205.02292L29.550013 206.0698ZM29.550013 196.8823L20.956263 193.58542L20.956263 192.36667L29.550013 188.85104L29.550013 190.1323L26.940638 191.14792L26.940638 194.72604L29.550013 195.67917L29.550013 196.8823ZM26.018763 194.39792L26.018763 191.49167L23.643763 192.3823Q22.565638 192.80417 21.862513 192.99167Q22.690638 193.16354 23.503138 193.46042L26.018763 194.39792ZM32.08126 187.3823L32.08126 188.1323Q29.268763 186.3823 26.440638 186.3823Q25.346888 186.3823 24.253138 186.6323Q23.378138 186.83542 22.565638 187.1948Q22.050013 187.42917 20.815638 188.1323L20.815638 187.3823Q22.284388 186.28854 23.768763 185.7573Q25.050013 185.30417 26.440638 185.30417Q28.018763 185.30417 29.503138 185.91354Q30.971888 186.52292 32.08126 187.3823Z" fill-rule="nonzero"/><path fill="#000000" d="M65.05 300.21564Q65.05 298.6844 65.3625 297.7625Q65.675 296.825 66.28438 296.325Q66.90938 295.825 67.84688 295.825Q68.53438 295.825 69.05 296.10626Q69.58125 296.3875 69.925 296.91876Q70.26875 297.4344 70.45625 298.1844Q70.64375 298.9344 70.64375 300.21564Q70.64375 301.73126 70.33125 302.65314Q70.03438 303.575 69.40938 304.09064Q68.8 304.59064 67.84688 304.59064Q66.6125 304.59064 65.89375 303.7Q65.05 302.6375 65.05 300.21564ZM66.12813 300.21564Q66.12813 302.325 66.62813 303.02814Q67.12813 303.73126 67.84688 303.73126Q68.58125 303.73126 69.06563 303.02814Q69.56563 302.325 69.56563 300.21564Q69.56563 298.09064 69.06563 297.40314Q68.58125 296.7 67.83125 296.7Q67.1125 296.7 66.675 297.3094Q66.12813 298.09064 66.12813 300.21564Z" fill-rule="nonzero"/><path fill="#000000" d="M55.05 247.17397Q55.05 245.64272 55.3625 244.72084Q55.675 243.78334 56.284374 243.28334Q56.909374 242.78334 57.846874 242.78334Q58.534374 242.78334 59.05 243.06459Q59.58125 243.34584 59.925 243.87709Q60.26875 244.39272 60.45625 245.14272Q60.64375 245.89272 60.64375 247.17397Q60.64375 248.68959 60.33125 249.61147Q60.034374 250.53334 59.409374 251.04897Q58.8 251.54897 57.846874 251.54897Q56.6125 251.54897 55.89375 250.65834Q55.05 249.59584 55.05 247.17397ZM56.128124 247.17397Q56.128124 249.28334 56.628124 249.98647Q57.128124 250.68959 57.846874 250.68959Q58.58125 250.68959 59.065624 249.98647Q59.565624 249.28334 59.565624 247.17397Q59.565624 245.04897 59.065624 244.36147Q58.58125 243.65834 57.83125 243.65834Q57.1125 243.65834 56.675 244.26772Q56.128124 245.04897 56.128124 247.17397ZM62.64375 251.40834L62.64375 250.20522L63.846874 250.20522L63.846874 251.40834L62.64375 251.40834ZM70.59688 250.39272L70.59688 251.40834L64.90938 251.40834Q64.90938 251.03334 65.03438 250.67397Q65.25313 250.09584 65.72188 249.53334Q66.20625 248.97084 67.1125 248.23647Q68.51875 247.08022 69.00313 246.40834Q69.50313 245.73647 69.50313 245.14272Q69.50313 244.51772 69.05 244.09584Q68.59688 243.65834 67.87813 243.65834Q67.1125 243.65834 66.65938 244.11147Q66.20625 244.56459 66.19063 245.37709L65.1125 245.26772Q65.22188 244.04897 65.94063 243.42397Q66.675 242.78334 67.90938 242.78334Q69.14375 242.78334 69.8625 243.47084Q70.58125 244.15834 70.58125 245.17397Q70.58125 245.68959 70.3625 246.18959Q70.15938 246.67397 69.65938 247.23647Q69.175 247.78334 68.05 248.73647Q67.09688 249.53334 66.81563 249.83022Q66.55 250.11147 66.37813 250.39272L70.59688 250.39272Z" fill-rule="nonzero"/><path fill="#000000" d="M55.05 194.1323Q55.05 192.60104 55.3625 191.67917Q55.675 190.74167 56.284374 190.24167Q56.909374 189.74167 57.846874 189.74167Q58.534374 189.74167 59.05 190.02292Q59.58125 190.30417 59.925 190.83542Q60.26875 191.35104 60.45625 192.10104Q60.64375 192.85104 60.64375 194.1323Q60.64375 195.64792 60.33125 196.5698Q60.034374 197.49167 59.409374 198.0073Q58.8 198.5073 57.846874 198.5073Q56.6125 198.5073 55.89375 197.61667Q55.05 196.55417 55.05 194.1323ZM56.128124 194.1323Q56.128124 196.24167 56.628124 196.9448Q57.128124 197.64792 57.846874 197.64792Q58.58125 197.64792 59.065624 196.9448Q59.565624 196.24167 59.565624 194.1323Q59.565624 192.0073 59.065624 191.3198Q58.58125 190.61667 57.83125 190.61667Q57.1125 190.61667 56.675 191.22604Q56.128124 192.0073 56.128124 194.1323ZM62.64375 198.36667L62.64375 197.16354L63.846874 197.16354L63.846874 198.36667L62.64375 198.36667ZM68.425 198.36667L68.425 196.30417L64.70625 196.30417L64.70625 195.33542L68.62813 189.77292L69.4875 189.77292L69.4875 195.33542L70.64375 195.33542L70.64375 196.30417L69.4875 196.30417L69.4875 198.36667L68.425 198.36667ZM68.425 195.33542L68.425 191.47604L65.7375 195.33542L68.425 195.33542Z" fill-rule="nonzero"/><path fill="#000000" d="M55.05 141.09062Q55.05 139.55937 55.3625 138.6375Q55.675 137.7 56.284374 137.2Q56.909374 136.7 57.846874 136.7Q58.534374 136.7 59.05 136.98125Q59.58125 137.2625 59.925 137.79375Q60.26875 138.30937 60.45625 139.05937Q60.64375 139.80937 60.64375 141.09062Q60.64375 142.60625 60.33125 143.52812Q60.034374 144.45 59.409374 144.96562Q58.8 145.46562 57.846874 145.46562Q56.6125 145.46562 55.89375 144.575Q55.05 143.5125 55.05 141.09062ZM56.128124 141.09062Q56.128124 143.2 56.628124 143.90312Q57.128124 144.60625 57.846874 144.60625Q58.58125 144.60625 59.065624 143.90312Q59.565624 143.2 59.565624 141.09062Q59.565624 138.96562 59.065624 138.27812Q58.58125 137.575 57.83125 137.575Q57.1125 137.575 56.675 138.18437Q56.128124 138.96562 56.128124 141.09062ZM62.64375 145.325L62.64375 144.12187L63.846874 144.12187L63.846874 145.325L62.64375 145.325ZM70.51875 138.84062L69.47188 138.91875Q69.33125 138.29375 69.08125 138.0125Q68.64375 137.55937 68.01875 137.55937Q67.51875 137.55937 67.12813 137.84062Q66.64375 138.21562 66.34688 138.91875Q66.06563 139.60625 66.05 140.8875Q66.425 140.30937 66.97188 140.02812Q67.53438 139.74687 68.14375 139.74687Q69.19063 139.74687 69.925 140.52812Q70.675 141.30937 70.675 142.52812Q70.675 143.34062 70.31563 144.04375Q69.97188 144.73125 69.3625 145.10625Q68.75313 145.46562 67.9875 145.46562Q66.65938 145.46562 65.83125 144.49687Q65.00313 143.52812 65.00313 141.30937Q65.00313 138.80937 65.925 137.68437Q66.72188 136.7 68.08125 136.7Q69.09688 136.7 69.7375 137.27812Q70.39375 137.84062 70.51875 138.84062ZM66.22188 142.54375Q66.22188 143.09062 66.44063 143.59062Q66.675 144.075 67.08125 144.34062Q67.50313 144.60625 67.97188 144.60625Q68.62813 144.60625 69.1125 144.075Q69.59688 143.52812 69.59688 142.60625Q69.59688 141.71562 69.1125 141.2Q68.64375 140.68437 67.925 140.68437Q67.20625 140.68437 66.70625 141.2Q66.22188 141.71562 66.22188 142.54375Z" fill-rule="nonzero"/><path fill="#000000" d="M55.05 88.04896Q55.05 86.51771 55.3625 85.59583Q55.675 84.65833 56.284374 84.15833Q56.909374 83.65833 57.846874 83.65833Q58.534374 83.65833 59.05 83.93958Q59.58125 84.22083 59.925 84.75208Q60.26875 85.26771 60.45625 86.01771Q60.64375 86.76771 60.64375 88.04896Q60.64375 89.56458 60.33125 90.48646Q60.034374 91.40833 59.409374 91.92396Q58.8 92.42396 57.846874 92.42396Q56.6125 92.42396 55.89375 91.53333Q55.05 90.47083 55.05 88.04896ZM56.128124 88.04896Q56.128124 90.15833 56.628124 90.86146Q57.128124 91.56458 57.846874 91.56458Q58.58125 91.56458 59.065624 90.86146Q59.565624 90.15833 59.565624 88.04896Q59.565624 85.92396 59.065624 85.23646Q58.58125 84.53333 57.83125 84.53333Q57.1125 84.53333 56.675 85.14271Q56.128124 85.92396 56.128124 88.04896ZM62.64375 92.28333L62.64375 91.08021L63.846874 91.08021L63.846874 92.28333L62.64375 92.28333ZM66.675 87.62708Q66.01875 87.37708 65.69063 86.93958Q65.37813 86.48646 65.37813 85.87708Q65.37813 84.93958 66.05 84.29896Q66.7375 83.65833 67.84688 83.65833Q68.97188 83.65833 69.65938 84.31458Q70.34688 84.97083 70.34688 85.90833Q70.34688 86.50208 70.03438 86.93958Q69.72188 87.37708 69.08125 87.62708Q69.87813 87.87708 70.28438 88.45521Q70.69063 89.03333 70.69063 89.83021Q70.69063 90.92396 69.90938 91.67396Q69.14375 92.42396 67.8625 92.42396Q66.59688 92.42396 65.81563 91.67396Q65.03438 90.92396 65.03438 89.79896Q65.03438 88.95521 65.45625 88.39271Q65.89375 87.83021 66.675 87.62708ZM66.45625 85.83021Q66.45625 86.43958 66.84688 86.83021Q67.25313 87.22083 67.87813 87.22083Q68.4875 87.22083 68.87813 86.84583Q69.26875 86.45521 69.26875 85.89271Q69.26875 85.31458 68.8625 84.92396Q68.45625 84.51771 67.8625 84.51771Q67.25313 84.51771 66.84688 84.90833Q66.45625 85.29896 66.45625 85.83021ZM66.12813 89.79896Q66.12813 90.25208 66.33125 90.67396Q66.55 91.09583 66.97188 91.33021Q67.39375 91.56458 67.87813 91.56458Q68.62813 91.56458 69.1125 91.08021Q69.6125 90.59583 69.6125 89.84583Q69.6125 89.08021 69.1125 88.58021Q68.6125 88.08021 67.84688 88.08021Q67.09688 88.08021 66.6125 88.58021Q66.12813 89.06458 66.12813 89.79896Z" fill-rule="nonzero"/><path fill="#000000" d="M143.8984 310.96564L142.85153 311.04376Q142.7109 310.41876 142.4609 310.1375Q142.0234 309.6844 141.3984 309.6844Q140.8984 309.6844 140.50778 309.96564Q140.0234 310.34064 139.72653 311.04376Q139.44528 311.73126 139.42966 313.0125Q139.80466 312.4344 140.35153 312.15314Q140.91403 311.8719 141.5234 311.8719Q142.57028 311.8719 143.30466 312.65314Q144.05466 313.4344 144.05466 314.65314Q144.05466 315.46564 143.69528 316.16876Q143.35153 316.85626 142.74216 317.23126Q142.13278 317.59064 141.36716 317.59064Q140.03903 317.59064 139.2109 316.6219Q138.38278 315.65314 138.38278 313.4344Q138.38278 310.9344 139.30466 309.8094Q140.10153 308.825 141.4609 308.825Q142.47653 308.825 143.11716 309.40314Q143.7734 309.96564 143.8984 310.96564ZM139.60153 314.66876Q139.60153 315.21564 139.82028 315.71564Q140.05466 316.2 140.4609 316.46564Q140.88278 316.73126 141.35153 316.73126Q142.00778 316.73126 142.49216 316.2Q142.97653 315.65314 142.97653 314.73126Q142.97653 313.84064 142.49216 313.325Q142.0234 312.8094 141.30466 312.8094Q140.5859 312.8094 140.0859 313.325Q139.60153 313.84064 139.60153 314.66876ZM145.42966 313.21564Q145.42966 311.6844 145.74216 310.7625Q146.05466 309.825 146.66403 309.325Q147.28903 308.825 148.22653 308.825Q148.91403 308.825 149.42966 309.10626Q149.9609 309.3875 150.30466 309.91876Q150.6484 310.4344 150.8359 311.1844Q151.0234 311.9344 151.0234 313.21564Q151.0234 314.73126 150.7109 315.65314Q150.41403 316.575 149.78903 317.09064Q149.17966 317.59064 148.22653 317.59064Q146.99216 317.59064 146.2734 316.7Q145.42966 315.6375 145.42966 313.21564ZM146.50778 313.21564Q146.50778 315.325 147.00778 316.02814Q147.50778 316.73126 148.22653 316.73126Q148.9609 316.73126 149.44528 316.02814Q149.94528 315.325 149.94528 313.21564Q149.94528 311.09064 149.44528 310.40314Q148.9609 309.7 148.2109 309.7Q147.49216 309.7 147.05466 310.3094Q146.50778 311.09064 146.50778 313.21564ZM152.42966 313.21564Q152.42966 311.6844 152.74216 310.7625Q153.05466 309.825 153.66403 309.325Q154.28903 308.825 155.22653 308.825Q155.91403 308.825 156.42966 309.10626Q156.9609 309.3875 157.30466 309.91876Q157.6484 310.4344 157.8359 311.1844Q158.0234 311.9344 158.0234 313.21564Q158.0234 314.73126 157.7109 315.65314Q157.41403 316.575 156.78903 317.09064Q156.17966 317.59064 155.22653 317.59064Q153.99216 317.59064 153.2734 316.7Q152.42966 315.6375 152.42966 313.21564ZM153.50778 313.21564Q153.50778 315.325 154.00778 316.02814Q154.50778 316.73126 155.22653 316.73126Q155.9609 316.73126 156.44528 316.02814Q156.94528 315.325 156.94528 313.21564Q156.94528 311.09064 156.44528 310.40314Q155.9609 309.7 155.2109 309.7Q154.49216 309.7 154.05466 310.3094Q153.50778 311.09064 153.50778 313.21564ZM159.42966 313.21564Q159.42966 311.6844 159.74216 310.7625Q160.05466 309.825 160.66403 309.325Q161.28903 308.825 162.22653 308.825Q162.91403 308.825 163.42966 309.10626Q163.9609 309.3875 164.30466 309.91876Q164.6484 310.4344 164.8359 311.1844Q165.0234 311.9344 165.0234 313.21564Q165.0234 314.73126 164.7109 315.65314Q164.41403 316.575 163.78903 317.09064Q163.17966 317.59064 162.22653 317.59064Q160.99216 317.59064 160.2734 316.7Q159.42966 315.6375 159.42966 313.21564ZM160.50778 313.21564Q160.50778 315.325 161.00778 316.02814Q161.50778 316.73126 162.22653 316.73126Q162.9609 316.73126 163.44528 316.02814Q163.94528 315.325 163.94528 313.21564Q163.94528 311.09064 163.44528 310.40314Q162.9609 309.7 162.2109 309.7Q161.49216 309.7 161.05466 310.3094Q160.50778 311.09064 160.50778 313.21564Z" fill-rule="nonzero"/><path fill="#000000" d="M239.51573 312.79376Q238.85948 312.54376 238.53136 312.10626Q238.21886 311.65314 238.21886 311.04376Q238.21886 310.10626 238.89073 309.46564Q239.57823 308.825 240.6876 308.825Q241.8126 308.825 242.5001 309.48126Q243.1876 310.1375 243.1876 311.075Q243.1876 311.66876 242.8751 312.10626Q242.5626 312.54376 241.92198 312.79376Q242.71886 313.04376 243.1251 313.6219Q243.53136 314.2 243.53136 314.9969Q243.53136 316.09064 242.7501 316.84064Q241.98448 317.59064 240.70323 317.59064Q239.4376 317.59064 238.65636 316.84064Q237.8751 316.09064 237.8751 314.96564Q237.8751 314.1219 238.29698 313.5594Q238.73448 312.9969 239.51573 312.79376ZM239.29698 310.9969Q239.29698 311.60626 239.6876 311.9969Q240.09386 312.3875 240.71886 312.3875Q241.32823 312.3875 241.71886 312.0125Q242.10948 311.6219 242.10948 311.0594Q242.10948 310.48126 241.70323 310.09064Q241.29698 309.6844 240.70323 309.6844Q240.09386 309.6844 239.6876 310.075Q239.29698 310.46564 239.29698 310.9969ZM238.96886 314.96564Q238.96886 315.41876 239.17198 315.84064Q239.39073 316.2625 239.8126 316.4969Q240.23448 316.73126 240.71886 316.73126Q241.46886 316.73126 241.95323 316.2469Q242.45323 315.7625 242.45323 315.0125Q242.45323 314.2469 241.95323 313.7469Q241.45323 313.2469 240.6876 313.2469Q239.9376 313.2469 239.45323 313.7469Q238.96886 314.23126 238.96886 314.96564ZM244.89073 313.21564Q244.89073 311.6844 245.20323 310.7625Q245.51573 309.825 246.1251 309.325Q246.7501 308.825 247.6876 308.825Q248.3751 308.825 248.89073 309.10626Q249.42198 309.3875 249.76573 309.91876Q250.10948 310.4344 250.29698 311.1844Q250.48448 311.9344 250.48448 313.21564Q250.48448 314.73126 250.17198 315.65314Q249.8751 316.575 249.2501 317.09064Q248.64073 317.59064 247.6876 317.59064Q246.45323 317.59064 245.73448 316.7Q244.89073 315.6375 244.89073 313.21564ZM245.96886 313.21564Q245.96886 315.325 246.46886 316.02814Q246.96886 316.73126 247.6876 316.73126Q248.42198 316.73126 248.90636 316.02814Q249.40636 315.325 249.40636 313.21564Q249.40636 311.09064 248.90636 310.40314Q248.42198 309.7 247.67198 309.7Q246.95323 309.7 246.51573 310.3094Q245.96886 311.09064 245.96886 313.21564ZM251.89073 313.21564Q251.89073 311.6844 252.20323 310.7625Q252.51573 309.825 253.1251 309.325Q253.7501 308.825 254.6876 308.825Q255.3751 308.825 255.89073 309.10626Q256.422 309.3875 256.76575 309.91876Q257.1095 310.4344 257.297 311.1844Q257.4845 311.9344 257.4845 313.21564Q257.4845 314.73126 257.172 315.65314Q256.87512 316.575 256.25012 317.09064Q255.64073 317.59064 254.6876 317.59064Q253.45323 317.59064 252.73448 316.7Q251.89073 315.6375 251.89073 313.21564ZM252.96886 313.21564Q252.96886 315.325 253.46886 316.02814Q253.96886 316.73126 254.6876 316.73126Q255.42198 316.73126 255.90636 316.02814Q256.40637 315.325 256.40637 313.21564Q256.40637 311.09064 255.90636 310.40314Q255.42198 309.7 254.67198 309.7Q253.95323 309.7 253.51573 310.3094Q252.96886 311.09064 252.96886 313.21564ZM258.89075 313.21564Q258.89075 311.6844 259.20325 310.7625Q259.51575 309.825 260.12512 309.325Q260.75012 308.825 261.68762 308.825Q262.37512 308.825 262.89075 309.10626Q263.422 309.3875 263.76575 309.91876Q264.1095 310.4344 264.297 311.1844Q264.4845 311.9344 264.4845 313.21564Q264.4845 314.73126 264.172 315.65314Q263.87512 316.575 263.25012 317.09064Q262.64075 317.59064 261.68762 317.59064Q260.45325 317.59064 259.7345 316.7Q258.89075 315.6375 258.89075 313.21564ZM259.96887 313.21564Q259.96887 315.325 260.46887 316.02814Q260.96887 316.73126 261.68762 316.73126Q262.422 316.73126 262.90637 316.02814Q263.40637 315.325 263.40637 313.21564Q263.40637 311.09064 262.90637 310.40314Q262.422 309.7 261.672 309.7Q260.95325 309.7 260.51575 310.3094Q259.96887 311.09064 259.96887 313.21564Z" fill-rule="nonzero"/><path fill="#000000" d="M337.82056 317.45L336.77368 317.45L336.77368 310.73126Q336.38306 311.09064 335.75806 311.46564Q335.14868 311.825 334.6643 311.9969L334.6643 310.98126Q335.5393 310.5594 336.19556 309.98126Q336.86743 309.3875 337.14868 308.825L337.82056 308.825L337.82056 317.45ZM340.8518 313.21564Q340.8518 311.6844 341.1643 310.7625Q341.4768 309.825 342.08618 309.325Q342.71118 308.825 343.64868 308.825Q344.33618 308.825 344.8518 309.10626Q345.38306 309.3875 345.7268 309.91876Q346.07056 310.4344 346.25806 311.1844Q346.44556 311.9344 346.44556 313.21564Q346.44556 314.73126 346.13306 315.65314Q345.83618 316.575 345.21118 317.09064Q344.6018 317.59064 343.64868 317.59064Q342.4143 317.59064 341.69556 316.7Q340.8518 315.6375 340.8518 313.21564ZM341.92993 313.21564Q341.92993 315.325 342.42993 316.02814Q342.92993 316.73126 343.64868 316.73126Q344.38306 316.73126 344.86743 316.02814Q345.36743 315.325 345.36743 313.21564Q345.36743 311.09064 344.86743 310.40314Q344.38306 309.7 343.63306 309.7Q342.9143 309.7 342.4768 310.3094Q341.92993 311.09064 341.92993 313.21564ZM347.8518 313.21564Q347.8518 311.6844 348.1643 310.7625Q348.4768 309.825 349.08618 309.325Q349.71118 308.825 350.64868 308.825Q351.33618 308.825 351.8518 309.10626Q352.38306 309.3875 352.7268 309.91876Q353.07056 310.4344 353.25806 311.1844Q353.44556 311.9344 353.44556 313.21564Q353.44556 314.73126 353.13306 315.65314Q352.83618 316.575 352.21118 317.09064Q351.6018 317.59064 350.64868 317.59064Q349.4143 317.59064 348.69556 316.7Q347.8518 315.6375 347.8518 313.21564ZM348.92993 313.21564Q348.92993 315.325 349.42993 316.02814Q349.92993 316.73126 350.64868 316.73126Q351.38306 316.73126 351.86743 316.02814Q352.36743 315.325 352.36743 313.21564Q352.36743 311.09064 351.86743 310.40314Q351.38306 309.7 350.63306 309.7Q349.9143 309.7 349.4768 310.3094Q348.92993 311.09064 348.92993 313.21564ZM354.8518 313.21564Q354.8518 311.6844 355.1643 310.7625Q355.4768 309.825 356.08618 309.325Q356.71118 308.825 357.64868 308.825Q358.33618 308.825 358.8518 309.10626Q359.38306 309.3875 359.7268 309.91876Q360.07056 310.4344 360.25806 311.1844Q360.44556 311.9344 360.44556 313.21564Q360.44556 314.73126 360.13306 315.65314Q359.83618 316.575 359.21118 317.09064Q358.6018 317.59064 357.64868 317.59064Q356.4143 317.59064 355.69556 316.7Q354.8518 315.6375 354.8518 313.21564ZM355.92993 313.21564Q355.92993 315.325 356.42993 316.02814Q356.92993 316.73126 357.64868 316.73126Q358.38306 316.73126 358.86743 316.02814Q359.36743 315.325 359.36743 313.21564Q359.36743 311.09064 358.86743 310.40314Q358.38306 309.7 357.63306 309.7Q356.9143 309.7 356.4768 310.3094Q355.92993 311.09064 355.92993 313.21564ZM361.8518 313.21564Q361.8518 311.6844 362.1643 310.7625Q362.4768 309.825 363.08618 309.325Q363.71118 308.825 364.64868 308.825Q365.33618 308.825 365.8518 309.10626Q366.38306 309.3875 366.7268 309.91876Q367.07056 310.4344 367.25806 311.1844Q367.44556 311.9344 367.44556 313.21564Q367.44556 314.73126 367.13306 315.65314Q366.83618 316.575 366.21118 317.09064Q365.6018 317.59064 364.64868 317.59064Q363.4143 317.59064 362.69556 316.7Q361.8518 315.6375 361.8518 313.21564ZM362.92993 313.21564Q362.92993 315.325 363.42993 316.02814Q363.92993 316.73126 364.64868 316.73126Q365.38306 316.73126 365.86743 316.02814Q366.36743 315.325 366.36743 313.21564Q366.36743 311.09064 365.86743 310.40314Q365.38306 309.7 364.63306 309.7Q363.9143 309.7 363.4768 310.3094Q362.92993 311.09064 362.92993 313.21564Z" fill-rule="nonzero"/><path fill="#000000" d="M437.28165 317.45L436.23477 317.45L436.23477 310.73126Q435.84415 311.09064 435.21915 311.46564Q434.60977 311.825 434.1254 311.9969L434.1254 310.98126Q435.0004 310.5594 435.65665 309.98126Q436.32852 309.3875 436.60977 308.825L437.28165 308.825L437.28165 317.45ZM445.85977 316.4344L445.85977 317.45L440.17227 317.45Q440.17227 317.075 440.29727 316.71564Q440.51602 316.1375 440.98477 315.575Q441.46915 315.0125 442.3754 314.27814Q443.78165 313.1219 444.26602 312.45Q444.76602 311.77814 444.76602 311.1844Q444.76602 310.5594 444.3129 310.1375Q443.85977 309.7 443.14102 309.7Q442.3754 309.7 441.92227 310.15314Q441.46915 310.60626 441.45352 311.41876L440.3754 311.3094Q440.48477 310.09064 441.20352 309.46564Q441.9379 308.825 443.17227 308.825Q444.40665 308.825 445.1254 309.5125Q445.84415 310.2 445.84415 311.21564Q445.84415 311.73126 445.6254 312.23126Q445.42227 312.71564 444.92227 313.27814Q444.4379 313.825 443.3129 314.77814Q442.35977 315.575 442.07852 315.8719Q441.8129 316.15314 441.64102 316.4344L445.85977 316.4344ZM447.3129 313.21564Q447.3129 311.6844 447.6254 310.7625Q447.9379 309.825 448.54727 309.325Q449.17227 308.825 450.10977 308.825Q450.79727 308.825 451.3129 309.10626Q451.84415 309.3875 452.1879 309.91876Q452.53165 310.4344 452.71915 311.1844Q452.90665 311.9344 452.90665 313.21564Q452.90665 314.73126 452.59415 315.65314Q452.29727 316.575 451.67227 317.09064Q451.0629 317.59064 450.10977 317.59064Q448.8754 317.59064 448.15665 316.7Q447.3129 315.6375 447.3129 313.21564ZM448.39102 313.21564Q448.39102 315.325 448.89102 316.02814Q449.39102 316.73126 450.10977 316.73126Q450.84415 316.73126 451.32852 316.02814Q451.82852 315.325 451.82852 313.21564Q451.82852 311.09064 451.32852 310.40314Q450.84415 309.7 450.09415 309.7Q449.3754 309.7 448.9379 310.3094Q448.39102 311.09064 448.39102 313.21564ZM454.3129 313.21564Q454.3129 311.6844 454.6254 310.7625Q454.9379 309.825 455.54727 309.325Q456.17227 308.825 457.10977 308.825Q457.79727 308.825 458.3129 309.10626Q458.84415 309.3875 459.1879 309.91876Q459.53165 310.4344 459.71915 311.1844Q459.90665 311.9344 459.90665 313.21564Q459.90665 314.73126 459.59415 315.65314Q459.29727 316.575 458.67227 317.09064Q458.0629 317.59064 457.10977 317.59064Q455.8754 317.59064 455.15665 316.7Q454.3129 315.6375 454.3129 313.21564ZM455.39102 313.21564Q455.39102 315.325 455.89102 316.02814Q456.39102 316.73126 457.10977 316.73126Q457.84415 316.73126 458.32852 316.02814Q458.82852 315.325 458.82852 313.21564Q458.82852 311.09064 458.32852 310.40314Q457.84415 309.7 457.09415 309.7Q456.3754 309.7 455.9379 310.3094Q455.39102 311.09064 455.39102 313.21564ZM461.3129 313.21564Q461.3129 311.6844 461.6254 310.7625Q461.9379 309.825 462.54727 309.325Q463.17227 308.825 464.10977 308.825Q464.79727 308.825 465.3129 309.10626Q465.84415 309.3875 466.1879 309.91876Q466.53165 310.4344 466.71915 311.1844Q466.90665 311.9344 466.90665 313.21564Q466.90665 314.73126 466.59415 315.65314Q466.29727 316.575 465.67227 317.09064Q465.0629 317.59064 464.10977 317.59064Q462.8754 317.59064 462.15665 316.7Q461.3129 315.6375 461.3129 313.21564ZM462.39102 313.21564Q462.39102 315.325 462.89102 316.02814Q463.39102 316.73126 464.10977 316.73126Q464.84415 316.73126 465.32852 316.02814Q465.82852 315.325 465.82852 313.21564Q465.82852 311.09064 465.32852 310.40314Q464.84415 309.7 464.09415 309.7Q463.3754 309.7 462.9379 310.3094Q462.39102 311.09064 462.39102 313.21564Z" fill-rule="nonzero"/><path fill="#000000" d="M536.74274 317.45L535.69586 317.45L535.69586 310.73126Q535.30524 311.09064 534.68024 311.46564Q534.07086 311.825 533.5865 311.9969L533.5865 310.98126Q534.4615 310.5594 535.11774 309.98126Q535.7896 309.3875 536.07086 308.825L536.74274 308.825L536.74274 317.45ZM543.149 317.45L543.149 315.3875L539.43024 315.3875L539.43024 314.41876L543.3521 308.85626L544.2115 308.85626L544.2115 314.41876L545.36774 314.41876L545.36774 315.3875L544.2115 315.3875L544.2115 317.45L543.149 317.45ZM543.149 314.41876L543.149 310.5594L540.4615 314.41876L543.149 314.41876ZM546.774 313.21564Q546.774 311.6844 547.0865 310.7625Q547.399 309.825 548.00836 309.325Q548.63336 308.825 549.57086 308.825Q550.25836 308.825 550.774 309.10626Q551.30524 309.3875 551.649 309.91876Q551.99274 310.4344 552.18024 311.1844Q552.36774 311.9344 552.36774 313.21564Q552.36774 314.73126 552.05524 315.65314Q551.75836 316.575 551.13336 317.09064Q550.524 317.59064 549.57086 317.59064Q548.3365 317.59064 547.61774 316.7Q546.774 315.6375 546.774 313.21564ZM547.8521 313.21564Q547.8521 315.325 548.3521 316.02814Q548.8521 316.73126 549.57086 316.73126Q550.30524 316.73126 550.7896 316.02814Q551.2896 315.325 551.2896 313.21564Q551.2896 311.09064 550.7896 310.40314Q550.30524 309.7 549.55524 309.7Q548.8365 309.7 548.399 310.3094Q547.8521 311.09064 547.8521 313.21564ZM553.774 313.21564Q553.774 311.6844 554.0865 310.7625Q554.399 309.825 555.00836 309.325Q555.63336 308.825 556.57086 308.825Q557.25836 308.825 557.774 309.10626Q558.30524 309.3875 558.649 309.91876Q558.99274 310.4344 559.18024 311.1844Q559.36774 311.9344 559.36774 313.21564Q559.36774 314.73126 559.05524 315.65314Q558.75836 316.575 558.13336 317.09064Q557.524 317.59064 556.57086 317.59064Q555.3365 317.59064 554.61774 316.7Q553.774 315.6375 553.774 313.21564ZM554.8521 313.21564Q554.8521 315.325 555.3521 316.02814Q555.8521 316.73126 556.57086 316.73126Q557.30524 316.73126 557.7896 316.02814Q558.2896 315.325 558.2896 313.21564Q558.2896 311.09064 557.7896 310.40314Q557.30524 309.7 556.55524 309.7Q555.8365 309.7 555.399 310.3094Q554.8521 311.09064 554.8521 313.21564ZM560.774 313.21564Q560.774 311.6844 561.0865 310.7625Q561.399 309.825 562.00836 309.325Q562.63336 308.825 563.57086 308.825Q564.25836 308.825 564.774 309.10626Q565.30524 309.3875 565.649 309.91876Q565.99274 310.4344 566.18024 311.1844Q566.36774 311.9344 566.36774 313.21564Q566.36774 314.73126 566.05524 315.65314Q565.75836 316.575 565.13336 317.09064Q564.524 317.59064 563.57086 317.59064Q562.3365 317.59064 561.61774 316.7Q560.774 315.6375 560.774 313.21564ZM561.8521 313.21564Q561.8521 315.325 562.3521 316.02814Q562.8521 316.73126 563.57086 316.73126Q564.30524 316.73126 564.7896 316.02814Q565.2896 315.325 565.2896 313.21564Q565.2896 311.09064 564.7896 310.40314Q564.30524 309.7 563.55524 309.7Q562.8365 309.7 562.399 310.3094Q561.8521 311.09064 561.8521 313.21564Z" fill-rule="nonzero"/><path fill="#4285f4" d="M178.5 61.916668C178.5 65.23038 175.8137 67.916664 172.5 67.916664C169.1863 67.916664 166.5 65.23038 166.5 61.916668C166.5 58.60296 169.1863 55.916668 172.5 55.916668C175.8137 55.916668 178.5 58.60296 178.5 61.916668Z" fill-rule="nonzero"/><path fill="#1a1a1a" d="M187.625 65.916664L187.625 57.322914L188.75 57.322914L188.75 65.916664L187.625 65.916664ZM195.3125 68.447914Q194.4375 67.33854 193.82812 65.86979Q193.23438 64.385414 193.23438 62.80729Q193.23438 61.416664 193.67188 60.135414Q194.20312 58.65104 195.3125 57.18229L196.0625 57.18229Q195.35938 58.40104 195.125 58.916664Q194.76562 59.729164 194.5625 60.604164Q194.3125 61.697914 194.3125 62.80729Q194.3125 65.635414 196.0625 68.447914L195.3125 68.447914ZM197.29688 65.916664L197.29688 59.697914L198.23438 59.697914L198.23438 60.572914Q198.53125 60.104164 199.01562 59.83854Q199.5 59.55729 200.125 59.55729Q200.8125 59.55729 201.25 59.83854Q201.70312 60.11979 201.875 60.635414Q202.625 59.55729 203.79688 59.55729Q204.73438 59.55729 205.21875 60.072914Q205.71875 60.572914 205.71875 61.65104L205.71875 65.916664L204.67188 65.916664L204.67188 61.99479Q204.67188 61.36979 204.5625 61.08854Q204.46875 60.80729 204.20312 60.635414Q203.9375 60.46354 203.5625 60.46354Q202.90625 60.46354 202.46875 60.90104Q202.04688 61.33854 202.04688 62.30729L202.04688 65.916664L200.98438 65.916664L200.98438 61.86979Q200.98438 61.166664 200.71875 60.822914Q200.46875 60.46354 199.89062 60.46354Q199.4375 60.46354 199.0625 60.697914Q198.6875 60.93229 198.51562 61.385414Q198.34375 61.83854 198.34375 62.68229L198.34375 65.916664L197.29688 65.916664ZM206.48438 65.916664L209.78125 57.322914L211.0 57.322914L214.51562 65.916664L213.23438 65.916664L212.21875 63.30729L208.64062 63.30729L207.6875 65.916664L206.48438 65.916664ZM208.96875 62.385414L211.875 62.385414L210.98438 60.010414Q210.5625 58.93229 210.375 58.229164Q210.20312 59.05729 209.90625 59.86979L208.96875 62.385414ZM215.98438 68.447914L215.23438 68.447914Q216.98438 65.635414 216.98438 62.80729Q216.98438 61.71354 216.73438 60.61979Q216.53125 59.74479 216.17188 58.93229Q215.9375 58.416664 215.23438 57.18229L215.98438 57.18229Q217.07812 58.65104 217.60938 60.135414Q218.0625 61.416664 218.0625 62.80729Q218.0625 64.385414 217.45312 65.86979Q216.84375 67.33854 215.98438 68.447914Z" fill-rule="nonzero"/><path stroke="#4285f4" stroke-width="4.0" stroke-linecap="butt" stroke-opacity="0.4" d="M234.5 61.916668L246.5 61.916668" fill-rule="nonzero"/><path fill="#1a1a1a" d="M258.96875 65.916664L257.92188 65.916664L257.92188 59.197914Q257.53125 59.55729 256.90625 59.93229Q256.29688 60.291664 255.8125 60.46354L255.8125 59.447914Q256.6875 59.02604 257.34375 58.447914Q258.01562 57.854164 258.29688 57.291664L258.96875 57.291664L258.96875 65.916664ZM262.59375 65.916664L262.59375 64.71354L263.79688 64.71354L263.79688 65.916664L262.59375 65.916664ZM268.96875 65.916664L267.92188 65.916664L267.92188 59.197914Q267.53125 59.55729 266.90625 59.93229Q266.29688 60.291664 265.8125 60.46354L265.8125 59.447914Q266.6875 59.02604 267.34375 58.447914Q268.01562 57.854164 268.29688 57.291664L268.96875 57.291664L268.96875 65.916664ZM272.0625 58.447914L272.0625 57.43229L277.625 57.43229L277.625 58.260414Q276.8125 59.135414 276.0 60.58854Q275.20312 62.02604 274.76562 63.55729Q274.4375 64.635414 274.35938 65.916664L273.26562 65.916664Q273.28125 64.90104 273.65625 63.46354Q274.04688 62.02604 274.75 60.697914Q275.46875 59.36979 276.28125 58.447914L272.0625 58.447914ZM284.5 64.52604L284.5 62.166664L282.17188 62.166664L282.17188 61.18229L284.5 61.18229L284.5 58.854164L285.5 58.854164L285.5 61.18229L287.84375 61.18229L287.84375 62.166664L285.5 62.166664L285.5 64.52604L284.5 64.52604ZM291.875 63.33854L291.875 62.27604L295.125 62.27604L295.125 63.33854L291.875 63.33854ZM299.96875 65.916664L298.92188 65.916664L298.92188 59.197914Q298.53125 59.55729 297.90625 59.93229Q297.29688 60.291664 296.8125 60.46354L296.8125 59.447914Q297.6875 59.02604 298.34375 58.447914Q299.01562 57.854164 299.29688 57.291664L299.96875 57.291664L299.96875 65.916664ZM303.59375 65.916664L303.59375 64.71354L304.79688 64.71354L304.79688 65.916664L303.59375 65.916664ZM306.0 63.65104L307.0625 63.510414Q307.23438 64.40104 307.67188 64.80729Q308.10938 65.197914 308.73438 65.197914Q309.48438 65.197914 310.0 64.68229Q310.51562 64.166664 310.51562 63.40104Q310.51562 62.68229 310.03125 62.21354Q309.5625 61.729164 308.82812 61.729164Q308.53125 61.729164 308.07812 61.854164L308.20312 60.916664Q308.3125 60.93229 308.375 60.93229Q309.04688 60.93229 309.57812 60.58854Q310.125 60.229164 310.125 59.49479Q310.125 58.916664 309.73438 58.541664Q309.34375 58.15104 308.71875 58.15104Q308.10938 58.15104 307.6875 58.541664Q307.28125 58.93229 307.17188 59.697914L306.10938 59.510414Q306.29688 58.46354 306.98438 57.885414Q307.67188 57.291664 308.6875 57.291664Q309.39062 57.291664 309.98438 57.604164Q310.57812 57.90104 310.89062 58.416664Q311.20312 58.93229 311.20312 59.52604Q311.20312 60.072914 310.90625 60.541664Q310.60938 60.99479 310.03125 61.260414Q310.78125 61.43229 311.20312 61.99479Q311.625 62.541664 311.625 63.385414Q311.625 64.510414 310.79688 65.291664Q309.98438 66.072914 308.73438 66.072914Q307.60938 66.072914 306.85938 65.40104Q306.10938 64.71354 306.0 63.65104ZM318.46875 59.43229L317.42188 59.510414Q317.28125 58.885414 317.03125 58.604164Q316.59375 58.15104 315.96875 58.15104Q315.46875 58.15104 315.07812 58.43229Q314.59375 58.80729 314.29688 59.510414Q314.01562 60.197914 314.0 61.479164Q314.375 60.90104 314.92188 60.61979Q315.48438 60.33854 316.09375 60.33854Q317.14062 60.33854 317.875 61.11979Q318.625 61.90104 318.625 63.11979Q318.625 63.93229 318.26562 64.635414Q317.92188 65.322914 317.3125 65.697914Q316.70312 66.05729 315.9375 66.05729Q314.60938 66.05729 313.78125 65.08854Q312.95312 64.11979 312.95312 61.90104Q312.95312 59.40104 313.875 58.27604Q314.67188 57.291664 316.03125 57.291664Q317.04688 57.291664 317.6875 57.86979Q318.34375 58.43229 318.46875 59.43229ZM314.17188 63.135414Q314.17188 63.68229 314.39062 64.18229Q314.625 64.666664 315.03125 64.93229Q315.45312 65.197914 315.92188 65.197914Q316.57812 65.197914 317.0625 64.666664Q317.54688 64.11979 317.54688 63.197914Q317.54688 62.30729 317.0625 61.791664Q316.59375 61.27604 315.875 61.27604Q315.15625 61.27604 314.65625 61.791664Q314.17188 62.30729 314.17188 63.135414ZM320.45312 65.916664L320.45312 57.322914L326.65625 57.322914L326.65625 58.33854L321.59375 58.33854L321.59375 60.96354L326.34375 60.96354L326.34375 61.979164L321.59375 61.979164L321.59375 64.90104L326.85938 64.90104L326.85938 65.916664L320.45312 65.916664ZM327.875 63.33854L327.875 62.27604L331.125 62.27604L331.125 63.33854L327.875 63.33854ZM332.0 61.68229Q332.0 60.15104 332.3125 59.229164Q332.625 58.291664 333.23438 57.791664Q333.85938 57.291664 334.79688 57.291664Q335.48438 57.291664 336.0 57.572914Q336.53125 57.854164 336.875 58.385414Q337.21875 58.90104 337.40625 59.65104Q337.59375 60.40104 337.59375 61.68229Q337.59375 63.197914 337.28125 64.11979Q336.98438 65.041664 336.35938 65.55729Q335.75 66.05729 334.79688 66.05729Q333.5625 66.05729 332.84375 65.166664Q332.0 64.104164 332.0 61.68229ZM333.07812 61.68229Q333.07812 63.791664 333.57812 64.49479Q334.07812 65.197914 334.79688 65.197914Q335.53125 65.197914 336.01562 64.49479Q336.51562 63.791664 336.51562 61.68229Q336.51562 59.55729 336.01562 58.86979Q335.53125 58.166664 334.78125 58.166664Q334.0625 58.166664 333.625 58.77604Q333.07812 59.55729 333.07812 61.68229ZM342.375 65.916664L342.375 63.854164L338.65625 63.854164L338.65625 62.885414L342.57812 57.322914L343.4375 57.322914L343.4375 62.885414L344.59375 62.885414L344.59375 63.854164L343.4375 63.854164L343.4375 65.916664L342.375 65.916664ZM342.375 62.885414L342.375 59.02604L339.6875 62.885414L342.375 62.885414ZM345.59375 65.916664L347.85938 62.68229L345.76562 59.697914L347.07812 59.697914L348.03125 61.15104Q348.29688 61.572914 348.46875 61.854164Q348.71875 61.46354 348.9375 61.166664L349.98438 59.697914L351.25 59.697914L349.09375 62.61979L351.40625 65.916664L350.125 65.916664L348.84375 63.979164L348.5 63.46354L346.85938 65.916664L345.59375 65.916664ZM357.5 64.52604L357.5 62.166664L355.17188 62.166664L355.17188 61.18229L357.5 61.18229L357.5 58.854164L358.5 58.854164L358.5 61.18229L360.84375 61.18229L360.84375 62.166664L358.5 62.166664L358.5 64.52604L357.5 64.52604ZM368.375 65.916664L368.375 63.854164L364.65625 63.854164L364.65625 62.885414L368.57812 57.322914L369.4375 57.322914L369.4375 62.885414L370.59375 62.885414L370.59375 63.854164L369.4375 63.854164L369.4375 65.916664L368.375 65.916664ZM368.375 62.885414L368.375 59.02604L365.6875 62.885414L368.375 62.885414ZM372.59375 65.916664L372.59375 64.71354L373.79688 64.71354L373.79688 65.916664L372.59375 65.916664ZM376.625 61.260414Q375.96875 61.010414 375.64062 60.572914Q375.32812 60.11979 375.32812 59.510414Q375.32812 58.572914 376.0 57.93229Q376.6875 57.291664 377.79688 57.291664Q378.92188 57.291664 379.60938 57.947914Q380.29688 58.604164 380.29688 59.541664Q380.29688 60.135414 379.98438 60.572914Q379.67188 61.010414 379.03125 61.260414Q379.82812 61.510414 380.23438 62.08854Q380.64062 62.666664 380.64062 63.46354Q380.64062 64.55729 379.85938 65.30729Q379.09375 66.05729 377.8125 66.05729Q376.54688 66.05729 375.76562 65.30729Q374.98438 64.55729 374.98438 63.43229Q374.98438 62.58854 375.40625 62.02604Q375.84375 61.46354 376.625 61.260414ZM376.40625 59.46354Q376.40625 60.072914 376.79688 60.46354Q377.20312 60.854164 377.82812 60.854164Q378.4375 60.854164 378.82812 60.479164Q379.21875 60.08854 379.21875 59.52604Q379.21875 58.947914 378.8125 58.55729Q378.40625 58.15104 377.8125 58.15104Q377.20312 58.15104 376.79688 58.541664Q376.40625 58.93229 376.40625 59.46354ZM376.07812 63.43229Q376.07812 63.885414 376.28125 64.30729Q376.5 64.729164 376.92188 64.96354Q377.34375 65.197914 377.82812 65.197914Q378.57812 65.197914 379.0625 64.71354Q379.5625 64.229164 379.5625 63.479164Q379.5625 62.71354 379.0625 62.21354Q378.5625 61.71354 377.79688 61.71354Q377.04688 61.71354 376.5625 62.21354Q376.07812 62.697914 376.07812 63.43229ZM383.625 61.260414Q382.96875 61.010414 382.64062 60.572914Q382.32812 60.11979 382.32812 59.510414Q382.32812 58.572914 383.0 57.93229Q383.6875 57.291664 384.79688 57.291664Q385.92188 57.291664 386.60938 57.947914Q387.29688 58.604164 387.29688 59.541664Q387.29688 60.135414 386.98438 60.572914Q386.67188 61.010414 386.03125 61.260414Q386.82812 61.510414 387.23438 62.08854Q387.64062 62.666664 387.64062 63.46354Q387.64062 64.55729 386.85938 65.30729Q386.09375 66.05729 384.8125 66.05729Q383.54688 66.05729 382.76562 65.30729Q381.98438 64.55729 381.98438 63.43229Q381.98438 62.58854 382.40625 62.02604Q382.84375 61.46354 383.625 61.260414ZM383.40625 59.46354Q383.40625 60.072914 383.79688 60.46354Q384.20312 60.854164 384.82812 60.854164Q385.4375 60.854164 385.82812 60.479164Q386.21875 60.08854 386.21875 59.52604Q386.21875 58.947914 385.8125 58.55729Q385.40625 58.15104 384.8125 58.15104Q384.20312 58.15104 383.79688 58.541664Q383.40625 58.93229 383.40625 59.46354ZM383.07812 63.43229Q383.07812 63.885414 383.28125 64.30729Q383.5 64.729164 383.92188 64.96354Q384.34375 65.197914 384.82812 65.197914Q385.57812 65.197914 386.0625 64.71354Q386.5625 64.229164 386.5625 63.479164Q386.5625 62.71354 386.0625 62.21354Q385.5625 61.71354 384.79688 61.71354Q384.04688 61.71354 383.5625 62.21354Q383.07812 62.697914 383.07812 63.43229ZM389.45312 65.916664L389.45312 57.322914L395.65625 57.322914L395.65625 58.33854L390.59375 58.33854L390.59375 60.96354L395.34375 60.96354L395.34375 61.979164L390.59375 61.979164L390.59375 64.90104L395.85938 64.90104L395.85938 65.916664L389.45312 65.916664ZM396.875 63.33854L396.875 62.27604L400.125 62.27604L400.125 63.33854L396.875 63.33854ZM401.0 61.68229Q401.0 60.15104 401.3125 59.229164Q401.625 58.291664 402.23438 57.791664Q402.85938 57.291664 403.79688 57.291664Q404.48438 57.291664 405.0 57.572914Q405.53125 57.854164 405.875 58.385414Q406.21875 58.90104 406.40625 59.65104Q406.59375 60.40104 406.59375 61.68229Q406.59375 63.197914 406.28125 64.11979Q405.98438 65.041664 405.35938 65.55729Q404.75 66.05729 403.79688 66.05729Q402.5625 66.05729 401.84375 65.166664Q401.0 64.104164 401.0 61.68229ZM402.07812 61.68229Q402.07812 63.791664 402.57812 64.49479Q403.07812 65.197914 403.79688 65.197914Q404.53125 65.197914 405.01562 64.49479Q405.51562 63.791664 405.51562 61.68229Q405.51562 59.55729 405.01562 58.86979Q404.53125 58.166664 403.78125 58.166664Q403.0625 58.166664 402.625 58.77604Q402.07812 59.55729 402.07812 61.68229ZM408.15625 63.93229L409.17188 63.83854Q409.29688 64.55729 409.65625 64.885414Q410.03125 65.197914 410.59375 65.197914Q411.07812 65.197914 411.4375 64.979164Q411.8125 64.74479 412.04688 64.385414Q412.28125 64.010414 412.4375 63.385414Q412.59375 62.74479 412.59375 62.08854Q412.59375 62.010414 412.59375 61.86979Q412.28125 62.36979 411.73438 62.697914Q411.1875 63.010414 410.54688 63.010414Q409.46875 63.010414 408.73438 62.24479Q408.0 61.46354 408.0 60.197914Q408.0 58.885414 408.76562 58.08854Q409.54688 57.291664 410.70312 57.291664Q411.53125 57.291664 412.21875 57.74479Q412.92188 58.197914 413.28125 59.041664Q413.64062 59.86979 413.64062 61.447914Q413.64062 63.08854 413.28125 64.072914Q412.9375 65.041664 412.21875 65.55729Q411.51562 66.05729 410.57812 66.05729Q409.5625 66.05729 408.92188 65.510414Q408.28125 64.947914 408.15625 63.93229ZM412.46875 60.135414Q412.46875 59.229164 411.98438 58.697914Q411.51562 58.166664 410.82812 58.166664Q410.125 58.166664 409.59375 58.74479Q409.07812 59.30729 409.07812 60.229164Q409.07812 61.041664 409.57812 61.55729Q410.07812 62.072914 410.79688 62.072914Q411.53125 62.072914 412.0 61.55729Q412.46875 61.041664 412.46875 60.135414ZM414.59375 65.916664L416.85938 62.68229L414.76562 59.697914L416.07812 59.697914L417.03125 61.15104Q417.29688 61.572914 417.46875 61.854164Q417.71875 61.46354 417.9375 61.166664L418.98438 59.697914L420.25 59.697914L418.09375 62.61979L420.40625 65.916664L419.125 65.916664L417.84375 63.979164L417.5 63.46354L415.85938 65.916664L414.59375 65.916664ZM421.90625 61.86979L420.8125 61.86979L422.89062 57.18229L423.73438 57.18229L425.8125 61.86979L424.75 61.86979L423.3125 58.36979L421.90625 61.86979ZM432.54688 64.90104L432.54688 65.916664L426.85938 65.916664Q426.85938 65.541664 426.98438 65.18229Q427.20312 64.604164 427.67188 64.041664Q428.15625 63.479164 429.0625 62.74479Q430.46875 61.58854 430.95312 60.916664Q431.45312 60.24479 431.45312 59.65104Q431.45312 59.02604 431.0 58.604164Q430.54688 58.166664 429.82812 58.166664Q429.0625 58.166664 428.60938 58.61979Q428.15625 59.072914 428.14062 59.885414L427.0625 59.77604Q427.17188 58.55729 427.89062 57.93229Q428.625 57.291664 429.85938 57.291664Q431.09375 57.291664 431.8125 57.979164Q432.53125 58.666664 432.53125 59.68229Q432.53125 60.197914 432.3125 60.697914Q432.10938 61.18229 431.60938 61.74479Q431.125 62.291664 430.0 63.24479Q429.04688 64.041664 428.76562 64.33854Q428.5 64.61979 428.32812 64.90104L432.54688 64.90104Z" fill-rule="nonzero"/><path fill="#757575" d="M20.409374 37.55L20.409374 23.2375L22.315624 23.2375L22.315624 37.55L20.409374 37.55ZM35.221874 41.753124Q33.76875 39.925 32.76875 37.471874Q31.76875 35.003124 31.76875 32.3625Q31.76875 30.034374 32.51875 27.909374Q33.39375 25.440624 35.221874 22.9875L36.4875 22.9875Q35.3 25.01875 34.925 25.89375Q34.33125 27.2375 33.9875 28.70625Q33.565624 30.534374 33.565624 32.378124Q33.565624 37.065624 36.4875 41.753124L35.221874 41.753124ZM38.8625 37.55L38.8625 27.175L40.440624 27.175L40.440624 28.628124Q40.925 27.878124 41.7375 27.409374Q42.55 26.940624 43.58125 26.940624Q44.7375 26.940624 45.471874 27.425Q46.20625 27.89375 46.51875 28.753124Q47.753124 26.940624 49.721874 26.940624Q51.26875 26.940624 52.096874 27.8Q52.925 28.659374 52.925 30.425L52.925 37.55L51.175 37.55L51.175 31.01875Q51.175 29.95625 51.003124 29.503124Q50.83125 29.034374 50.378124 28.753124Q49.940624 28.471874 49.33125 28.471874Q48.2375 28.471874 47.503124 29.20625Q46.784374 29.925 46.784374 31.51875L46.784374 37.55L45.034374 37.55L45.034374 30.815624Q45.034374 29.64375 44.596874 29.065624Q44.175 28.471874 43.190624 28.471874Q42.45625 28.471874 41.815624 28.8625Q41.190624 29.253124 40.909374 30.003124Q40.628124 30.753124 40.628124 32.175L40.628124 37.55L38.8625 37.55ZM54.51875 37.55L60.01875 23.2375L62.065624 23.2375L67.925 37.55L65.76875 37.55L64.09688 33.20625L58.1125 33.20625L56.534374 37.55L54.51875 37.55ZM58.659374 31.675L63.503124 31.675L62.01875 27.70625Q61.33125 25.89375 61.003124 24.7375Q60.721874 26.1125 60.221874 27.471874L58.659374 31.675ZM70.01875 41.753124L68.76875 41.753124Q71.675 37.065624 71.675 32.378124Q71.675 30.534374 71.26875 28.7375Q70.925 27.26875 70.33125 25.925Q69.95625 25.034374 68.76875 22.9875L70.01875 22.9875Q71.8625 25.440624 72.7375 27.909374Q73.4875 30.034374 73.4875 32.3625Q73.4875 35.003124 72.47188 37.471874Q71.47188 39.925 70.01875 41.753124ZM84.75313 37.55L80.8 27.175L82.65938 27.175L84.89375 33.39375Q85.25313 34.39375 85.55 35.471874Q85.78438 34.659374 86.20625 33.503124L88.50313 27.175L90.31563 27.175L86.39375 37.55L84.75313 37.55ZM91.15938 34.45625L92.90938 34.175Q93.05 35.221874 93.72188 35.784374Q94.39375 36.33125 95.59688 36.33125Q96.8 36.33125 97.37813 35.846874Q97.97188 35.346874 97.97188 34.690624Q97.97188 34.096874 97.45625 33.753124Q97.09688 33.51875 95.65938 33.159374Q93.72188 32.659374 92.97188 32.315624Q92.2375 31.95625 91.84688 31.33125Q91.45625 30.690624 91.45625 29.925Q91.45625 29.2375 91.76875 28.64375Q92.09688 28.05 92.64375 27.659374Q93.05 27.3625 93.75313 27.159374Q94.47188 26.940624 95.28438 26.940624Q96.50313 26.940624 97.425 27.3Q98.34688 27.64375 98.78438 28.253124Q99.22188 28.846874 99.39375 29.846874L97.675 30.08125Q97.55 29.284374 96.9875 28.846874Q96.425 28.39375 95.40938 28.39375Q94.19063 28.39375 93.675 28.8Q93.15938 29.190624 93.15938 29.721874Q93.15938 30.065624 93.37813 30.346874Q93.58125 30.628124 94.05 30.815624Q94.31563 30.909374 95.59688 31.253124Q97.47188 31.753124 98.20625 32.08125Q98.94063 32.39375 99.3625 33.003124Q99.78438 33.596874 99.78438 34.503124Q99.78438 35.378124 99.26875 36.159374Q98.75313 36.940624 97.78438 37.3625Q96.81563 37.784374 95.59688 37.784374Q93.58125 37.784374 92.51875 36.940624Q91.45625 36.096874 91.15938 34.45625ZM102.3625 37.55L102.3625 35.55L104.3625 35.55L104.3625 37.55L102.3625 37.55ZM114.12813 37.55L114.12813 23.2375L120.47188 23.2375Q122.37813 23.2375 123.37813 23.628124Q124.37813 24.003124 124.97188 24.9875Q125.56563 25.95625 125.56563 27.14375Q125.56563 28.659374 124.58125 29.70625Q123.59688 30.753124 121.53438 31.034374Q122.28438 31.39375 122.675 31.753124Q123.50313 32.503124 124.25313 33.659374L126.7375 37.55L124.3625 37.55L122.45625 34.565624Q121.62813 33.284374 121.09688 32.596874Q120.56563 31.909374 120.12813 31.64375Q119.70625 31.3625 119.26875 31.253124Q118.94063 31.190624 118.22188 31.190624L116.01875 31.190624L116.01875 37.55L114.12813 37.55ZM116.01875 29.55L120.09688 29.55Q121.39375 29.55 122.1125 29.284374Q122.84688 29.01875 123.22188 28.425Q123.6125 27.83125 123.6125 27.14375Q123.6125 26.128124 122.87813 25.471874Q122.14375 24.815624 120.55 24.815624L116.01875 24.815624L116.01875 29.55ZM126.25313 41.51875L126.25313 40.253124L137.89375 40.253124L137.89375 41.51875L126.25313 41.51875ZM145.00313 37.55L143.2375 37.55L143.2375 26.346874Q142.6125 26.95625 141.58125 27.565624Q140.55 28.159374 139.72188 28.471874L139.72188 26.76875Q141.20625 26.08125 142.3 25.096874Q143.40938 24.096874 143.8625 23.175L145.00313 23.175L145.00313 37.55Z" fill-rule="nonzero"/></svg>