<svg version="1.1" viewBox="0.0 0.0 600.0 371.0" fill="none" stroke="none" stroke-linecap="square" stroke-miterlimit="10" width="600" height="371" xmlns:xlink="http://www.w3.org/1999/xlink" xmlns="http://www.w3.org/2000/svg"><path fill="#ffffff" d="M0 0L600.0 0L600.0 371.0L0 371.0L0 0Z" fill-rule="nonzero"/><path stroke="#cccccc" stroke-width="1.0" stroke-linecap="butt" d="M156.5 88.5L156.5 300.5" fill-rule="nonzero"/><path stroke="#cccccc" stroke-width="1.0" stroke-linecap="butt" d="M249.5 88.5L249.5 300.5" fill-rule="nonzero"/><path stroke="#333333" stroke-width="1.0" stroke-linecap="butt" d="M342.5 88.5L342.5 300.5" fill-rule="nonzero"/><path stroke="#cccccc" stroke-width="1.0" stroke-linecap="butt" d="M436.5 88.5L436.5 300.5" fill-rule="nonzero"/><path stroke="#cccccc" stroke-width="1.0" stroke-linecap="butt" d="M529.5 88.5L529.5 300.5" fill-rule="nonzero"/><path stroke="#cccccc" stroke-width="1.0" stroke-linecap="butt" d="M103.5 300.5L581.5 300.5" fill-rule="nonzero"/><path stroke="#cccccc" stroke-width="1.0" stroke-linecap="butt" d="M103.5 247.5L581.5 247.5" fill-rule="nonzero"/><path stroke="#333333" stroke-width="1.0" stroke-linecap="butt" d="M103.5 194.5L581.5 194.5" fill-rule="nonzero"/><path stroke="#cccccc" stroke-width="1.0" stroke-linecap="butt" d="M103.5 141.5L581.5 141.5" fill-rule="nonzero"/><path stroke="#cccccc" stroke-width="1.0" stroke-linecap="butt" d="M103.5 88.5L581.5 88.5" fill-rule="nonzero"/><clipPath id="id_0"><path d="M103.55 88.28333L581.45 88.28333L581.45 300.45L103.55 300.45L103.55 88.28333Z" clip-rule="nonzero"/></clipPath><path stroke="#4285f4" stroke-width="2.0" stroke-linecap="butt" stroke-opacity="0.4" clip-path="url(#id_0)" d="M0 40.311367L581.45 301.4924" fill-rule="nonzero"/><path fill="#4285f4" clip-path="url(#id_0)" d="M114.85077 89.7685C114.85077 92.253784 112.83605 94.2685 110.35077 94.2685C107.86549 94.2685 105.85077 92.253784 105.85077 89.7685C105.85077 87.28322 107.86549 85.2685 110.35077 85.2685C112.83605 85.2685 114.85077 87.28322 114.85077 89.7685Z" fill-rule="nonzero"/><path fill="#4285f4" clip-path="url(#id_0)" d="M163.42928 111.621666C163.42928 114.10695 161.41457 116.121666 158.92928 116.121666C156.444 116.121666 154.42928 114.10695 154.42928 111.621666C154.42928 109.13638 156.444 107.121666 158.92928 107.121666C161.41457 107.121666 163.42928 109.13638 163.42928 111.621666Z" fill-rule="nonzero"/><path fill="#4285f4" clip-path="url(#id_0)" d="M183.98174 120.957C183.98174 123.44228 181.96701 125.457 179.48174 125.457C176.99644 125.457 174.98174 123.44228 174.98174 120.957C174.98174 118.47172 176.99644 116.457 179.48174 116.457C181.96701 116.457 183.98174 118.47172 183.98174 120.957Z" fill-rule="nonzero"/><path fill="#4285f4" clip-path="url(#id_0)" d="M210.60649 132.83833C210.60649 135.32361 208.59177 137.33833 206.10649 137.33833C203.62122 137.33833 201.60649 135.32361 201.60649 132.83833C201.60649 130.35306 203.62122 128.33833 206.10649 128.33833C208.59177 128.33833 210.60649 130.35306 210.60649 132.83833Z" fill-rule="nonzero"/><path fill="#4285f4" clip-path="url(#id_0)" d="M254.04689 152.56984C254.04689 155.05511 252.03217 157.06984 249.54689 157.06984C247.06161 157.06984 245.04689 155.05511 245.04689 152.56984C245.04689 150.08455 247.06161 148.06984 249.54689 148.06984C252.03217 148.06984 254.04689 150.08455 254.04689 152.56984Z" fill-rule="nonzero"/><path fill="#4285f4" clip-path="url(#id_0)" d="M303.5596 174.84734C303.5596 177.33261 301.5449 179.34734 299.0596 179.34734C296.5743 179.34734 294.5596 177.33261 294.5596 174.84734C294.5596 172.36205 296.5743 170.34734 299.0596 170.34734C301.5449 170.34734 303.5596 172.36205 303.5596 174.84734Z" fill-rule="nonzero"/><path fill="#4285f4" clip-path="url(#id_0)" d="M347.4671 194.36667C347.4671 196.85194 345.4524 198.86667 342.9671 198.86667C340.4818 198.86667 338.4671 196.85194 338.4671 194.36667C338.4671 191.88138 340.4818 189.86667 342.9671 189.86667C345.4524 189.86667 347.4671 191.88138 347.4671 194.36667Z" fill-rule="nonzero"/><path fill="#4285f4" clip-path="url(#id_0)" d="M392.3088 214.5225C392.3088 217.00778 390.2941 219.0225 387.8088 219.0225C385.32352 219.0225 383.3088 217.00778 383.3088 214.5225C383.3088 212.03722 385.32352 210.0225 387.8088 210.0225C390.2941 210.0225 392.3088 212.03722 392.3088 214.5225Z" fill-rule="nonzero"/><path fill="#4285f4" clip-path="url(#id_0)" d="M439.48602 235.527C439.48602 238.01228 437.47128 240.027 434.98602 240.027C432.50073 240.027 430.48602 238.01228 430.48602 235.527C430.48602 233.04172 432.50073 231.027 434.98602 231.027C437.47128 231.027 439.48602 233.04172 439.48602 235.527Z" fill-rule="nonzero"/><path fill="#4285f4" clip-path="url(#id_0)" d="M488.0645 257.59235C488.0645 260.0776 486.0498 262.09235 483.5645 262.09235C481.07925 262.09235 479.0645 260.0776 479.0645 257.59235C479.0645 255.10706 481.07925 253.09233 483.5645 253.09233C486.0498 253.09233 488.0645 255.10706 488.0645 257.59235Z" fill-rule="nonzero"/><path fill="#4285f4" clip-path="url(#id_0)" d="M510.95248 267.77634C510.95248 270.26163 508.93774 272.27634 506.45248 272.27634C503.9672 272.27634 501.95248 270.26163 501.95248 267.77634C501.95248 265.29105 503.9672 263.27634 506.45248 263.27634C508.93774 263.27634 510.95248 265.29105 510.95248 267.77634Z" fill-rule="nonzero"/><path fill="#4285f4" clip-path="url(#id_0)" d="M533.84045 278.1725C533.84045 280.65778 531.8257 282.6725 529.34045 282.6725C526.85516 282.6725 524.84045 280.65778 524.84045 278.1725C524.84045 275.68723 526.85516 273.6725 529.34045 273.6725C531.8257 273.6725 533.84045 275.68723 533.84045 278.1725Z" fill-rule="nonzero"/><path fill="#4285f4" clip-path="url(#id_0)" d="M579.14923 298.32834C579.14923 300.81363 577.1345 302.82834 574.64923 302.82834C572.16394 302.82834 570.14923 300.81363 570.14923 298.32834C570.14923 295.84305 572.16394 293.82834 574.64923 293.82834C577.1345 293.82834 579.14923 295.84305 579.14923 298.32834Z" fill-rule="nonzero"/><path fill="#000000" d="M325.875 349.45L322.54688 340.85626L323.78125 340.85626L326.01562 347.10626Q326.28125 347.85626 326.46875 348.5125Q326.67188 347.8094 326.9375 347.10626L329.25 340.85626L330.40625 340.85626L327.04688 349.45L325.875 349.45ZM330.3125 351.84064L330.3125 351.075L337.3125 351.075L337.3125 351.84064L330.3125 351.84064ZM337.875 347.59064L338.90625 347.4344Q339.0 348.0594 339.39062 348.3875Q339.79688 348.71564 340.53125 348.71564Q341.25 348.71564 341.59375 348.4344Q341.95312 348.1375 341.95312 347.73126Q341.95312 347.3719 341.64062 347.16876Q341.42188 347.02814 340.5625 346.8094Q339.40625 346.5125 338.95312 346.3094Q338.51562 346.09064 338.28125 345.71564Q338.04688 345.34064 338.04688 344.8719Q338.04688 344.46564 338.23438 344.10626Q338.42188 343.7469 338.75 343.5125Q339.0 343.34064 339.42188 343.21564Q339.84375 343.09064 340.34375 343.09064Q341.0625 343.09064 341.60938 343.3094Q342.17188 343.5125 342.4375 343.8719Q342.70312 344.23126 342.79688 344.825L341.76562 344.96564Q341.70312 344.4969 341.35938 344.23126Q341.03125 343.95 340.40625 343.95Q339.6875 343.95 339.375 344.2Q339.0625 344.4344 339.0625 344.7625Q339.0625 344.96564 339.1875 345.1219Q339.32812 345.29376 339.59375 345.40314Q339.75 345.46564 340.53125 345.66876Q341.65625 345.98126 342.09375 346.16876Q342.53125 346.35626 342.78125 346.71564Q343.03125 347.075 343.03125 347.6219Q343.03125 348.15314 342.71875 348.6219Q342.42188 349.075 341.84375 349.34064Q341.26562 349.59064 340.53125 349.59064Q339.3125 349.59064 338.67188 349.09064Q338.04688 348.575 337.875 347.59064ZM349.3125 351.98126Q348.4375 350.8719 347.82812 349.40314Q347.23438 347.91876 347.23438 346.34064Q347.23438 344.95 347.67188 343.66876Q348.20312 342.1844 349.3125 340.71564L350.0625 340.71564Q349.35938 341.9344 349.125 342.45Q348.76562 343.2625 348.5625 344.1375Q348.3125 345.23126 348.3125 346.34064Q348.3125 349.16876 350.0625 351.98126L349.3125 351.98126ZM353.875 349.45L350.54688 340.85626L351.78125 340.85626L354.01562 347.10626Q354.28125 347.85626 354.46875 348.5125Q354.67188 347.8094 354.9375 347.10626L357.25 340.85626L358.40625 340.85626L355.04688 349.45L353.875 349.45ZM359.98438 351.98126L359.23438 351.98126Q360.98438 349.16876 360.98438 346.34064Q360.98438 345.2469 360.73438 344.15314Q360.53125 343.27814 360.17188 342.46564Q359.9375 341.95 359.23438 340.71564L359.98438 340.71564Q361.07812 342.1844 361.60938 343.66876Q362.0625 344.95 362.0625 346.34064Q362.0625 347.91876 361.45312 349.40314Q360.84375 350.8719 359.98438 351.98126Z" fill-rule="nonzero"/><path fill="#000000" d="M29.550013 219.74167L20.956263 219.74167L20.956263 218.61667L29.550013 218.61667L29.550013 219.74167ZM31.940638 218.05417L31.175013 218.05417L31.175013 211.05417L31.940638 211.05417L31.940638 218.05417ZM28.534388 204.8198L29.550013 204.8198L29.550013 210.5073Q29.175013 210.5073 28.815638 210.3823Q28.237513 210.16354 27.675013 209.6948Q27.112513 209.21042 26.378138 208.30417Q25.221888 206.89792 24.550013 206.41354Q23.878138 205.91354 23.284388 205.91354Q22.659388 205.91354 22.237513 206.36667Q21.800013 206.8198 21.800013 207.53854Q21.800013 208.30417 22.253138 208.7573Q22.706263 209.21042 23.518763 209.22604L23.409388 210.30417Q22.190638 210.1948 21.565638 209.47604Q20.925013 208.74167 20.925013 207.5073Q20.925013 206.27292 21.612513 205.55417Q22.300013 204.83542 23.315638 204.83542Q23.831263 204.83542 24.331263 205.05417Q24.815638 205.2573 25.378138 205.7573Q25.925013 206.24167 26.878138 207.36667Q27.675013 208.3198 27.971888 208.60104Q28.253138 208.86667 28.534388 209.03854L28.534388 204.8198ZM32.08126 198.05417Q30.971888 198.92917 29.503138 199.53854Q28.018763 200.1323 26.440638 200.1323Q25.050013 200.1323 23.768763 199.6948Q22.284388 199.16354 20.815638 198.05417L20.815638 197.30417Q22.034388 198.0073 22.550013 198.24167Q23.362513 198.60104 24.237513 198.80417Q25.331263 199.05417 26.440638 199.05417Q29.268763 199.05417 32.08126 197.30417L32.08126 198.05417ZM29.550013 196.8823L20.956263 193.58542L20.956263 192.36667L29.550013 188.85104L29.550013 190.1323L26.940638 191.14792L26.940638 194.72604L29.550013 195.67917L29.550013 196.8823ZM26.018763 194.39792L26.018763 191.49167L23.643763 192.3823Q22.565638 192.80417 21.862513 192.99167Q22.690638 193.16354 23.503138 193.46042L26.018763 194.39792ZM32.08126 187.3823L32.08126 188.1323Q29.268763 186.3823 26.440638 186.3823Q25.346888 186.3823 24.253138 186.6323Q23.378138 186.83542 22.565638 187.1948Q22.050013 187.42917 20.815638 188.1323L20.815638 187.3823Q22.284388 186.28854 23.768763 185.7573Q25.050013 185.30417 26.440638 185.30417Q28.018763 185.30417 29.503138 185.91354Q30.971888 186.52292 32.08126 187.3823Z" fill-rule="nonzero"/><path fill="#000000" d="M55.925 301.8719L55.925 300.8094L59.175 300.8094L59.175 301.8719L55.925 301.8719ZM60.05 300.21564Q60.05 298.6844 60.3625 297.7625Q60.675 296.825 61.284374 296.325Q61.909374 295.825 62.846874 295.825Q63.534374 295.825 64.05 296.10626Q64.58125 296.3875 64.925 296.91876Q65.26875 297.4344 65.45625 298.1844Q65.64375 298.9344 65.64375 300.21564Q65.64375 301.73126 65.33125 302.65314Q65.03438 303.575 64.40938 304.09064Q63.8 304.59064 62.846874 304.59064Q61.6125 304.59064 60.89375 303.7Q60.05 302.6375 60.05 300.21564ZM61.128124 300.21564Q61.128124 302.325 61.628124 303.02814Q62.128124 303.73126 62.846874 303.73126Q63.58125 303.73126 64.06563 303.02814Q64.56563 302.325 64.56563 300.21564Q64.56563 298.09064 64.06563 297.40314Q63.58125 296.7 62.83125 296.7Q62.1125 296.7 61.675 297.3094Q61.128124 298.09064 61.128124 300.21564ZM67.64375 304.45L67.64375 303.2469L68.84688 303.2469L68.84688 304.45L67.64375 304.45ZM70.05 300.21564Q70.05 298.6844 70.3625 297.7625Q70.675 296.825 71.28438 296.325Q71.90938 295.825 72.84688 295.825Q73.53438 295.825 74.05 296.10626Q74.58125 296.3875 74.925 296.91876Q75.26875 297.4344 75.45625 298.1844Q75.64375 298.9344 75.64375 300.21564Q75.64375 301.73126 75.33125 302.65314Q75.03438 303.575 74.40938 304.09064Q73.8 304.59064 72.84688 304.59064Q71.6125 304.59064 70.89375 303.7Q70.05 302.6375 70.05 300.21564ZM71.12813 300.21564Q71.12813 302.325 71.62813 303.02814Q72.12813 303.73126 72.84688 303.73126Q73.58125 303.73126 74.06563 303.02814Q74.56563 302.325 74.56563 300.21564Q74.56563 298.09064 74.06563 297.40314Q73.58125 296.7 72.83125 296.7Q72.1125 296.7 71.675 297.3094Q71.12813 298.09064 71.12813 300.21564ZM77.05 300.21564Q77.05 298.6844 77.3625 297.7625Q77.675 296.825 78.28438 296.325Q78.90938 295.825 79.84688 295.825Q80.53438 295.825 81.05 296.10626Q81.58125 296.3875 81.925 296.91876Q82.26875 297.4344 82.45625 298.1844Q82.64375 298.9344 82.64375 300.21564Q82.64375 301.73126 82.33125 302.65314Q82.03438 303.575 81.40938 304.09064Q80.8 304.59064 79.84688 304.59064Q78.6125 304.59064 77.89375 303.7Q77.05 302.6375 77.05 300.21564ZM78.12813 300.21564Q78.12813 302.325 78.62813 303.02814Q79.12813 303.73126 79.84688 303.73126Q80.58125 303.73126 81.06563 303.02814Q81.56563 302.325 81.56563 300.21564Q81.56563 298.09064 81.06563 297.40314Q80.58125 296.7 79.83125 296.7Q79.1125 296.7 78.675 297.3094Q78.12813 298.09064 78.12813 300.21564ZM84.05 300.21564Q84.05 298.6844 84.3625 297.7625Q84.675 296.825 85.28438 296.325Q85.90938 295.825 86.84688 295.825Q87.53438 295.825 88.05 296.10626Q88.58125 296.3875 88.925 296.91876Q89.26875 297.4344 89.45625 298.1844Q89.64375 298.9344 89.64375 300.21564Q89.64375 301.73126 89.33125 302.65314Q89.03438 303.575 88.40938 304.09064Q87.8 304.59064 86.84688 304.59064Q85.6125 304.59064 84.89375 303.7Q84.05 302.6375 84.05 300.21564ZM85.12813 300.21564Q85.12813 302.325 85.62813 303.02814Q86.12813 303.73126 86.84688 303.73126Q87.58125 303.73126 88.06563 303.02814Q88.56563 302.325 88.56563 300.21564Q88.56563 298.09064 88.06563 297.40314Q87.58125 296.7 86.83125 296.7Q86.1125 296.7 85.675 297.3094Q85.12813 298.09064 85.12813 300.21564ZM91.05 302.2L92.15938 302.10626Q92.28438 302.91876 92.72188 303.325Q93.175 303.73126 93.81563 303.73126Q94.56563 303.73126 95.09688 303.15314Q95.62813 302.575 95.62813 301.6375Q95.62813 300.73126 95.1125 300.21564Q94.6125 299.6844 93.78438 299.6844Q93.28438 299.6844 92.8625 299.91876Q92.45625 300.15314 92.22188 300.5125L91.2375 300.3875L92.06563 295.98126L96.34688 295.98126L96.34688 296.98126L92.90938 296.98126L92.45625 299.29376Q93.22188 298.7469 94.06563 298.7469Q95.19063 298.7469 95.95625 299.52814Q96.7375 300.3094 96.7375 301.54376Q96.7375 302.7 96.06563 303.5594Q95.2375 304.59064 93.81563 304.59064Q92.64375 304.59064 91.89375 303.9344Q91.15938 303.27814 91.05 302.2Z" fill-rule="nonzero"/><path fill="#000000" d="M48.925 248.83022L48.925 247.76772L52.175 247.76772L52.175 248.83022L48.925 248.83022ZM53.05 247.17397Q53.05 245.64272 53.3625 244.72084Q53.675 243.78334 54.284374 243.28334Q54.909374 242.78334 55.846874 242.78334Q56.534374 242.78334 57.05 243.06459Q57.58125 243.34584 57.925 243.87709Q58.26875 244.39272 58.45625 245.14272Q58.64375 245.89272 58.64375 247.17397Q58.64375 248.68959 58.33125 249.61147Q58.034374 250.53334 57.409374 251.04897Q56.8 251.54897 55.846874 251.54897Q54.6125 251.54897 53.89375 250.65834Q53.05 249.59584 53.05 247.17397ZM54.128124 247.17397Q54.128124 249.28334 54.628124 249.98647Q55.128124 250.68959 55.846874 250.68959Q56.58125 250.68959 57.065624 249.98647Q57.565624 249.28334 57.565624 247.17397Q57.565624 245.04897 57.065624 244.36147Q56.58125 243.65834 55.83125 243.65834Q55.1125 243.65834 54.675 244.26772Q54.128124 245.04897 54.128124 247.17397ZM60.64375 251.40834L60.64375 250.20522L61.846874 250.20522L61.846874 251.40834L60.64375 251.40834ZM63.05 247.17397Q63.05 245.64272 63.3625 244.72084Q63.675 243.78334 64.28438 243.28334Q64.90938 242.78334 65.84688 242.78334Q66.53438 242.78334 67.05 243.06459Q67.58125 243.34584 67.925 243.87709Q68.26875 244.39272 68.45625 245.14272Q68.64375 245.89272 68.64375 247.17397Q68.64375 248.68959 68.33125 249.61147Q68.03438 250.53334 67.40938 251.04897Q66.8 251.54897 65.84688 251.54897Q64.6125 251.54897 63.89375 250.65834Q63.05 249.59584 63.05 247.17397ZM64.12813 247.17397Q64.12813 249.28334 64.62813 249.98647Q65.12813 250.68959 65.84688 250.68959Q66.58125 250.68959 67.06563 249.98647Q67.56563 249.28334 67.56563 247.17397Q67.56563 245.04897 67.06563 244.36147Q66.58125 243.65834 65.83125 243.65834Q65.1125 243.65834 64.675 244.26772Q64.12813 245.04897 64.12813 247.17397ZM70.05 247.17397Q70.05 245.64272 70.3625 244.72084Q70.675 243.78334 71.28438 243.28334Q71.90938 242.78334 72.84688 242.78334Q73.53438 242.78334 74.05 243.06459Q74.58125 243.34584 74.925 243.87709Q75.26875 244.39272 75.45625 245.14272Q75.64375 245.89272 75.64375 247.17397Q75.64375 248.68959 75.33125 249.61147Q75.03438 250.53334 74.40938 251.04897Q73.8 251.54897 72.84688 251.54897Q71.6125 251.54897 70.89375 250.65834Q70.05 249.59584 70.05 247.17397ZM71.12813 247.17397Q71.12813 249.28334 71.62813 249.98647Q72.12813 250.68959 72.84688 250.68959Q73.58125 250.68959 74.06563 249.98647Q74.56563 249.28334 74.56563 247.17397Q74.56563 245.04897 74.06563 244.36147Q73.58125 243.65834 72.83125 243.65834Q72.1125 243.65834 71.675 244.26772Q71.12813 245.04897 71.12813 247.17397ZM77.05 247.17397Q77.05 245.64272 77.3625 244.72084Q77.675 243.78334 78.28438 243.28334Q78.90938 242.78334 79.84688 242.78334Q80.53438 242.78334 81.05 243.06459Q81.58125 243.34584 81.925 243.87709Q82.26875 244.39272 82.45625 245.14272Q82.64375 245.89272 82.64375 247.17397Q82.64375 248.68959 82.33125 249.61147Q82.03438 250.53334 81.40938 251.04897Q80.8 251.54897 79.84688 251.54897Q78.6125 251.54897 77.89375 250.65834Q77.05 249.59584 77.05 247.17397ZM78.12813 247.17397Q78.12813 249.28334 78.62813 249.98647Q79.12813 250.68959 79.84688 250.68959Q80.58125 250.68959 81.06563 249.98647Q81.56563 249.28334 81.56563 247.17397Q81.56563 245.04897 81.06563 244.36147Q80.58125 243.65834 79.83125 243.65834Q79.1125 243.65834 78.675 244.26772Q78.12813 245.04897 78.12813 247.17397ZM89.59688 250.39272L89.59688 251.40834L83.90938 251.40834Q83.90938 251.03334 84.03438 250.67397Q84.25313 250.09584 84.72188 249.53334Q85.20625 248.97084 86.1125 248.23647Q87.51875 247.08022 88.00313 246.40834Q88.50313 245.73647 88.50313 245.14272Q88.50313 244.51772 88.05 244.09584Q87.59688 243.65834 86.87813 243.65834Q86.1125 243.65834 85.65938 244.11147Q85.20625 244.56459 85.19063 245.37709L84.1125 245.26772Q84.22188 244.04897 84.94063 243.42397Q85.675 242.78334 86.90938 242.78334Q88.14375 242.78334 88.8625 243.47084Q89.58125 244.15834 89.58125 245.17397Q89.58125 245.68959 89.3625 246.18959Q89.15938 246.67397 88.65938 247.23647Q88.175 247.78334 87.05 248.73647Q86.09688 249.53334 85.81563 249.83022Q85.55 250.11147 85.37813 250.39272L89.59688 250.39272ZM91.05 249.15834L92.15938 249.06459Q92.28438 249.87709 92.72188 250.28334Q93.175 250.68959 93.81563 250.68959Q94.56563 250.68959 95.09688 250.11147Q95.62813 249.53334 95.62813 248.59584Q95.62813 247.68959 95.1125 247.17397Q94.6125 246.64272 93.78438 246.64272Q93.28438 246.64272 92.8625 246.87709Q92.45625 247.11147 92.22188 247.47084L91.2375 247.34584L92.06563 242.93959L96.34688 242.93959L96.34688 243.93959L92.90938 243.93959L92.45625 246.25209Q93.22188 245.70522 94.06563 245.70522Q95.19063 245.70522 95.95625 246.48647Q96.7375 247.26772 96.7375 248.50209Q96.7375 249.65834 96.06563 250.51772Q95.2375 251.54897 93.81563 251.54897Q92.64375 251.54897 91.89375 250.89272Q91.15938 250.23647 91.05 249.15834Z" fill-rule="nonzero"/><path fill="#000000" d="M91.05 194.1323Q91.05 192.60104 91.3625 191.67917Q91.675 190.74167 92.28438 190.24167Q92.90938 189.74167 93.84688 189.74167Q94.53438 189.74167 95.05 190.02292Q95.58125 190.30417 95.925 190.83542Q96.26875 191.35104 96.45625 192.10104Q96.64375 192.85104 96.64375 194.1323Q96.64375 195.64792 96.33125 196.5698Q96.03438 197.49167 95.40938 198.0073Q94.8 198.5073 93.84688 198.5073Q92.6125 198.5073 91.89375 197.61667Q91.05 196.55417 91.05 194.1323ZM92.12813 194.1323Q92.12813 196.24167 92.62813 196.9448Q93.12813 197.64792 93.84688 197.64792Q94.58125 197.64792 95.06563 196.9448Q95.56563 196.24167 95.56563 194.1323Q95.56563 192.0073 95.06563 191.3198Q94.58125 190.61667 93.83125 190.61667Q93.1125 190.61667 92.675 191.22604Q92.12813 192.0073 92.12813 194.1323Z" fill-rule="nonzero"/><path fill="#000000" d="M53.05 141.09062Q53.05 139.55937 53.3625 138.6375Q53.675 137.7 54.284374 137.2Q54.909374 136.7 55.846874 136.7Q56.534374 136.7 57.05 136.98125Q57.58125 137.2625 57.925 137.79375Q58.26875 138.30937 58.45625 139.05937Q58.64375 139.80937 58.64375 141.09062Q58.64375 142.60625 58.33125 143.52812Q58.034374 144.45 57.409374 144.96562Q56.8 145.46562 55.846874 145.46562Q54.6125 145.46562 53.89375 144.575Q53.05 143.5125 53.05 141.09062ZM54.128124 141.09062Q54.128124 143.2 54.628124 143.90312Q55.128124 144.60625 55.846874 144.60625Q56.58125 144.60625 57.065624 143.90312Q57.565624 143.2 57.565624 141.09062Q57.565624 138.96562 57.065624 138.27812Q56.58125 137.575 55.83125 137.575Q55.1125 137.575 54.675 138.18437Q54.128124 138.96562 54.128124 141.09062ZM60.64375 145.325L60.64375 144.12187L61.846874 144.12187L61.846874 145.325L60.64375 145.325ZM63.05 141.09062Q63.05 139.55937 63.3625 138.6375Q63.675 137.7 64.28438 137.2Q64.90938 136.7 65.84688 136.7Q66.53438 136.7 67.05 136.98125Q67.58125 137.2625 67.925 137.79375Q68.26875 138.30937 68.45625 139.05937Q68.64375 139.80937 68.64375 141.09062Q68.64375 142.60625 68.33125 143.52812Q68.03438 144.45 67.40938 144.96562Q66.8 145.46562 65.84688 145.46562Q64.6125 145.46562 63.89375 144.575Q63.05 143.5125 63.05 141.09062ZM64.12813 141.09062Q64.12813 143.2 64.62813 143.90312Q65.12813 144.60625 65.84688 144.60625Q66.58125 144.60625 67.06563 143.90312Q67.56563 143.2 67.56563 141.09062Q67.56563 138.96562 67.06563 138.27812Q66.58125 137.575 65.83125 137.575Q65.1125 137.575 64.675 138.18437Q64.12813 138.96562 64.12813 141.09062ZM70.05 141.09062Q70.05 139.55937 70.3625 138.6375Q70.675 137.7 71.28438 137.2Q71.90938 136.7 72.84688 136.7Q73.53438 136.7 74.05 136.98125Q74.58125 137.2625 74.925 137.79375Q75.26875 138.30937 75.45625 139.05937Q75.64375 139.80937 75.64375 141.09062Q75.64375 142.60625 75.33125 143.52812Q75.03438 144.45 74.40938 144.96562Q73.8 145.46562 72.84688 145.46562Q71.6125 145.46562 70.89375 144.575Q70.05 143.5125 70.05 141.09062ZM71.12813 141.09062Q71.12813 143.2 71.62813 143.90312Q72.12813 144.60625 72.84688 144.60625Q73.58125 144.60625 74.06563 143.90312Q74.56563 143.2 74.56563 141.09062Q74.56563 138.96562 74.06563 138.27812Q73.58125 137.575 72.83125 137.575Q72.1125 137.575 71.675 138.18437Q71.12813 138.96562 71.12813 141.09062ZM77.05 141.09062Q77.05 139.55937 77.3625 138.6375Q77.675 137.7 78.28438 137.2Q78.90938 136.7 79.84688 136.7Q80.53438 136.7 81.05 136.98125Q81.58125 137.2625 81.925 137.79375Q82.26875 138.30937 82.45625 139.05937Q82.64375 139.80937 82.64375 141.09062Q82.64375 142.60625 82.33125 143.52812Q82.03438 144.45 81.40938 144.96562Q80.8 145.46562 79.84688 145.46562Q78.6125 145.46562 77.89375 144.575Q77.05 143.5125 77.05 141.09062ZM78.12813 141.09062Q78.12813 143.2 78.62813 143.90312Q79.12813 144.60625 79.84688 144.60625Q80.58125 144.60625 81.06563 143.90312Q81.56563 143.2 81.56563 141.09062Q81.56563 138.96562 81.06563 138.27812Q80.58125 137.575 79.83125 137.575Q79.1125 137.575 78.675 138.18437Q78.12813 138.96562 78.12813 141.09062ZM89.59688 144.30937L89.59688 145.325L83.90938 145.325Q83.90938 144.95 84.03438 144.59062Q84.25313 144.0125 84.72188 143.45Q85.20625 142.8875 86.1125 142.15312Q87.51875 140.99687 88.00313 140.325Q88.50313 139.65312 88.50313 139.05937Q88.50313 138.43437 88.05 138.0125Q87.59688 137.575 86.87813 137.575Q86.1125 137.575 85.65938 138.02812Q85.20625 138.48125 85.19063 139.29375L84.1125 139.18437Q84.22188 137.96562 84.94063 137.34062Q85.675 136.7 86.90938 136.7Q88.14375 136.7 88.8625 137.3875Q89.58125 138.075 89.58125 139.09062Q89.58125 139.60625 89.3625 140.10625Q89.15938 140.59062 88.65938 141.15312Q88.175 141.7 87.05 142.65312Q86.09688 143.45 85.81563 143.74687Q85.55 144.02812 85.37813 144.30937L89.59688 144.30937ZM91.05 143.075L92.15938 142.98125Q92.28438 143.79375 92.72188 144.2Q93.175 144.60625 93.81563 144.60625Q94.56563 144.60625 95.09688 144.02812Q95.62813 143.45 95.62813 142.5125Q95.62813 141.60625 95.1125 141.09062Q94.6125 140.55937 93.78438 140.55937Q93.28438 140.55937 92.8625 140.79375Q92.45625 141.02812 92.22188 141.3875L91.2375 141.2625L92.06563 136.85625L96.34688 136.85625L96.34688 137.85625L92.90938 137.85625L92.45625 140.16875Q93.22188 139.62187 94.06563 139.62187Q95.19063 139.62187 95.95625 140.40312Q96.7375 141.18437 96.7375 142.41875Q96.7375 143.575 96.06563 144.43437Q95.2375 145.46562 93.81563 145.46562Q92.64375 145.46562 91.89375 144.80937Q91.15938 144.15312 91.05 143.075Z" fill-rule="nonzero"/><path fill="#000000" d="M60.05 88.04896Q60.05 86.51771 60.3625 85.59583Q60.675 84.65833 61.284374 84.15833Q61.909374 83.65833 62.846874 83.65833Q63.534374 83.65833 64.05 83.93958Q64.58125 84.22083 64.925 84.75208Q65.26875 85.26771 65.45625 86.01771Q65.64375 86.76771 65.64375 88.04896Q65.64375 89.56458 65.33125 90.48646Q65.03438 91.40833 64.40938 91.92396Q63.8 92.42396 62.846874 92.42396Q61.6125 92.42396 60.89375 91.53333Q60.05 90.47083 60.05 88.04896ZM61.128124 88.04896Q61.128124 90.15833 61.628124 90.86146Q62.128124 91.56458 62.846874 91.56458Q63.58125 91.56458 64.06563 90.86146Q64.56563 90.15833 64.56563 88.04896Q64.56563 85.92396 64.06563 85.23646Q63.58125 84.53333 62.83125 84.53333Q62.1125 84.53333 61.675 85.14271Q61.128124 85.92396 61.128124 88.04896ZM67.64375 92.28333L67.64375 91.08021L68.84688 91.08021L68.84688 92.28333L67.64375 92.28333ZM70.05 88.04896Q70.05 86.51771 70.3625 85.59583Q70.675 84.65833 71.28438 84.15833Q71.90938 83.65833 72.84688 83.65833Q73.53438 83.65833 74.05 83.93958Q74.58125 84.22083 74.925 84.75208Q75.26875 85.26771 75.45625 86.01771Q75.64375 86.76771 75.64375 88.04896Q75.64375 89.56458 75.33125 90.48646Q75.03438 91.40833 74.40938 91.92396Q73.8 92.42396 72.84688 92.42396Q71.6125 92.42396 70.89375 91.53333Q70.05 90.47083 70.05 88.04896ZM71.12813 88.04896Q71.12813 90.15833 71.62813 90.86146Q72.12813 91.56458 72.84688 91.56458Q73.58125 91.56458 74.06563 90.86146Q74.56563 90.15833 74.56563 88.04896Q74.56563 85.92396 74.06563 85.23646Q73.58125 84.53333 72.83125 84.53333Q72.1125 84.53333 71.675 85.14271Q71.12813 85.92396 71.12813 88.04896ZM77.05 88.04896Q77.05 86.51771 77.3625 85.59583Q77.675 84.65833 78.28438 84.15833Q78.90938 83.65833 79.84688 83.65833Q80.53438 83.65833 81.05 83.93958Q81.58125 84.22083 81.925 84.75208Q82.26875 85.26771 82.45625 86.01771Q82.64375 86.76771 82.64375 88.04896Q82.64375 89.56458 82.33125 90.48646Q82.03438 91.40833 81.40938 91.92396Q80.8 92.42396 79.84688 92.42396Q78.6125 92.42396 77.89375 91.53333Q77.05 90.47083 77.05 88.04896ZM78.12813 88.04896Q78.12813 90.15833 78.62813 90.86146Q79.12813 91.56458 79.84688 91.56458Q80.58125 91.56458 81.06563 90.86146Q81.56563 90.15833 81.56563 88.04896Q81.56563 85.92396 81.06563 85.23646Q80.58125 84.53333 79.83125 84.53333Q79.1125 84.53333 78.675 85.14271Q78.12813 85.92396 78.12813 88.04896ZM84.05 88.04896Q84.05 86.51771 84.3625 85.59583Q84.675 84.65833 85.28438 84.15833Q85.90938 83.65833 86.84688 83.65833Q87.53438 83.65833 88.05 83.93958Q88.58125 84.22083 88.925 84.75208Q89.26875 85.26771 89.45625 86.01771Q89.64375 86.76771 89.64375 88.04896Q89.64375 89.56458 89.33125 90.48646Q89.03438 91.40833 88.40938 91.92396Q87.8 92.42396 86.84688 92.42396Q85.6125 92.42396 84.89375 91.53333Q84.05 90.47083 84.05 88.04896ZM85.12813 88.04896Q85.12813 90.15833 85.62813 90.86146Q86.12813 91.56458 86.84688 91.56458Q87.58125 91.56458 88.06563 90.86146Q88.56563 90.15833 88.56563 88.04896Q88.56563 85.92396 88.06563 85.23646Q87.58125 84.53333 86.83125 84.53333Q86.1125 84.53333 85.675 85.14271Q85.12813 85.92396 85.12813 88.04896ZM91.05 90.03333L92.15938 89.93958Q92.28438 90.75208 92.72188 91.15833Q93.175 91.56458 93.81563 91.56458Q94.56563 91.56458 95.09688 90.98646Q95.62813 90.40833 95.62813 89.47083Q95.62813 88.56458 95.1125 88.04896Q94.6125 87.51771 93.78438 87.51771Q93.28438 87.51771 92.8625 87.75208Q92.45625 87.98646 92.22188 88.34583L91.2375 88.22083L92.06563 83.81458L96.34688 83.81458L96.34688 84.81458L92.90938 84.81458L92.45625 87.12708Q93.22188 86.58021 94.06563 86.58021Q95.19063 86.58021 95.95625 87.36146Q96.7375 88.14271 96.7375 89.37708Q96.7375 90.53333 96.06563 91.39271Q95.2375 92.42396 93.81563 92.42396Q92.64375 92.42396 91.89375 91.76771Q91.15938 91.11146 91.05 90.03333Z" fill-rule="nonzero"/><path fill="#000000" d="M151.00168 314.8719L151.00168 313.8094L154.25168 313.8094L154.25168 314.8719L151.00168 314.8719ZM158.50168 317.45L158.50168 315.3875L154.78293 315.3875L154.78293 314.41876L158.7048 308.85626L159.56418 308.85626L159.56418 314.41876L160.72043 314.41876L160.72043 315.3875L159.56418 315.3875L159.56418 317.45L158.50168 317.45ZM158.50168 314.41876L158.50168 310.5594L155.81418 314.41876L158.50168 314.41876Z" fill-rule="nonzero"/><path fill="#000000" d="M244.42189 314.8719L244.42189 313.8094L247.67189 313.8094L247.67189 314.8719L244.42189 314.8719ZM254.09377 316.4344L254.09377 317.45L248.40627 317.45Q248.40627 317.075 248.53127 316.71564Q248.75002 316.1375 249.21877 315.575Q249.70314 315.0125 250.60939 314.27814Q252.01564 313.1219 252.50002 312.45Q253.00002 311.77814 253.00002 311.1844Q253.00002 310.5594 252.54689 310.1375Q252.09377 309.7 251.37502 309.7Q250.60939 309.7 250.15627 310.15314Q249.70314 310.60626 249.68752 311.41876L248.60939 311.3094Q248.71877 310.09064 249.43752 309.46564Q250.17189 308.825 251.40627 308.825Q252.64064 308.825 253.35939 309.5125Q254.07814 310.2 254.07814 311.21564Q254.07814 311.73126 253.85939 312.23126Q253.65627 312.71564 253.15627 313.27814Q252.67189 313.825 251.54689 314.77814Q250.59377 315.575 250.31252 315.8719Q250.04689 316.15314 249.87502 316.4344L254.09377 316.4344Z" fill-rule="nonzero"/><path fill="#000000" d="M339.9671 313.21564Q339.9671 311.6844 340.2796 310.7625Q340.5921 309.825 341.20148 309.325Q341.82648 308.825 342.76398 308.825Q343.45148 308.825 343.9671 309.10626Q344.49835 309.3875 344.8421 309.91876Q345.18585 310.4344 345.37335 311.1844Q345.56085 311.9344 345.56085 313.21564Q345.56085 314.73126 345.24835 315.65314Q344.95148 316.575 344.32648 317.09064Q343.7171 317.59064 342.76398 317.59064Q341.5296 317.59064 340.81085 316.7Q339.9671 315.6375 339.9671 313.21564ZM341.04523 313.21564Q341.04523 315.325 341.54523 316.02814Q342.04523 316.73126 342.76398 316.73126Q343.49835 316.73126 343.98273 316.02814Q344.48273 315.325 344.48273 313.21564Q344.48273 311.09064 343.98273 310.40314Q343.49835 309.7 342.74835 309.7Q342.0296 309.7 341.5921 310.3094Q341.04523 311.09064 341.04523 313.21564Z" fill-rule="nonzero"/><path fill="#000000" d="M438.93417 316.4344L438.93417 317.45L433.24667 317.45Q433.24667 317.075 433.37167 316.71564Q433.59042 316.1375 434.05917 315.575Q434.54355 315.0125 435.4498 314.27814Q436.85605 313.1219 437.34042 312.45Q437.84042 311.77814 437.84042 311.1844Q437.84042 310.5594 437.3873 310.1375Q436.93417 309.7 436.21542 309.7Q435.4498 309.7 434.99667 310.15314Q434.54355 310.60626 434.52792 311.41876L433.4498 311.3094Q433.55917 310.09064 434.27792 309.46564Q435.0123 308.825 436.24667 308.825Q437.48105 308.825 438.1998 309.5125Q438.91855 310.2 438.91855 311.21564Q438.91855 311.73126 438.6998 312.23126Q438.49667 312.71564 437.99667 313.27814Q437.5123 313.825 436.3873 314.77814Q435.43417 315.575 435.15292 315.8719Q434.8873 316.15314 434.71542 316.4344L438.93417 316.4344Z" fill-rule="nonzero"/><path fill="#000000" d="M530.1825 317.45L530.1825 315.3875L526.46375 315.3875L526.46375 314.41876L530.3856 308.85626L531.245 308.85626L531.245 314.41876L532.40125 314.41876L532.40125 315.3875L531.245 315.3875L531.245 317.45L530.1825 317.45ZM530.1825 314.41876L530.1825 310.5594L527.495 314.41876L530.1825 314.41876Z" fill-rule="nonzero"/><path fill="#4285f4" d="M200.0 61.916668C200.0 65.23038 197.3137 67.916664 194.0 67.916664C190.6863 67.916664 188.0 65.23038 188.0 61.916668C188.0 58.60296 190.6863 55.916668 194.0 55.916668C197.3137 55.916668 200.0 58.60296 200.0 61.916668Z" fill-rule="nonzero"/><path fill="#1a1a1a" d="M209.125 65.916664L209.125 57.322914L210.25 57.322914L210.25 65.916664L209.125 65.916664ZM210.8125 68.30729L210.8125 67.541664L217.8125 67.541664L217.8125 68.30729L210.8125 68.30729ZM224.04688 64.90104L224.04688 65.916664L218.35938 65.916664Q218.35938 65.541664 218.48438 65.18229Q218.70312 64.604164 219.17188 64.041664Q219.65625 63.479164 220.5625 62.74479Q221.96875 61.58854 222.45312 60.916664Q222.95312 60.24479 222.95312 59.65104Q222.95312 59.02604 222.5 58.604164Q222.04688 58.166664 221.32812 58.166664Q220.5625 58.166664 220.10938 58.61979Q219.65625 59.072914 219.64062 59.885414L218.5625 59.77604Q218.67188 58.55729 219.39062 57.93229Q220.125 57.291664 221.35938 57.291664Q222.59375 57.291664 223.3125 57.979164Q224.03125 58.666664 224.03125 59.68229Q224.03125 60.197914 223.8125 60.697914Q223.60938 61.18229 223.10938 61.74479Q222.625 62.291664 221.5 63.24479Q220.54688 64.041664 220.26562 64.33854Q220.0 64.61979 219.82812 64.90104L224.04688 64.90104ZM230.8125 68.447914Q229.9375 67.33854 229.32812 65.86979Q228.73438 64.385414 228.73438 62.80729Q228.73438 61.416664 229.17188 60.135414Q229.70312 58.65104 230.8125 57.18229L231.5625 57.18229Q230.85938 58.40104 230.625 58.916664Q230.26562 59.729164 230.0625 60.604164Q229.8125 61.697914 229.8125 62.80729Q229.8125 65.635414 231.5625 68.447914L230.8125 68.447914ZM231.98438 65.916664L235.28125 57.322914L236.5 57.322914L240.01562 65.916664L238.73438 65.916664L237.71875 63.30729L234.14062 63.30729L233.1875 65.916664L231.98438 65.916664ZM234.46875 62.385414L237.375 62.385414L236.48438 60.010414Q236.0625 58.93229 235.875 58.229164Q235.70312 59.05729 235.40625 59.86979L234.46875 62.385414ZM241.48438 68.447914L240.73438 68.447914Q242.48438 65.635414 242.48438 62.80729Q242.48438 61.71354 242.23438 60.61979Q242.03125 59.74479 241.67188 58.93229Q241.4375 58.416664 240.73438 57.18229L241.48438 57.18229Q242.57812 58.65104 243.10938 60.135414Q243.5625 61.416664 243.5625 62.80729Q243.5625 64.385414 242.95312 65.86979Q242.34375 67.33854 241.48438 68.447914Z" fill-rule="nonzero"/><path stroke="#4285f4" stroke-width="4.0" stroke-linecap="butt" stroke-opacity="0.4" d="M260.0 61.916668L272.0 61.916668" fill-rule="nonzero"/><path fill="#1a1a1a" d="M280.375 63.33854L280.375 62.27604L283.625 62.27604L283.625 63.33854L280.375 63.33854ZM284.65625 63.93229L285.67188 63.83854Q285.79688 64.55729 286.15625 64.885414Q286.53125 65.197914 287.09375 65.197914Q287.57812 65.197914 287.9375 64.979164Q288.3125 64.74479 288.54688 64.385414Q288.78125 64.010414 288.9375 63.385414Q289.09375 62.74479 289.09375 62.08854Q289.09375 62.010414 289.09375 61.86979Q288.78125 62.36979 288.23438 62.697914Q287.6875 63.010414 287.04688 63.010414Q285.96875 63.010414 285.23438 62.24479Q284.5 61.46354 284.5 60.197914Q284.5 58.885414 285.26562 58.08854Q286.04688 57.291664 287.20312 57.291664Q288.03125 57.291664 288.71875 57.74479Q289.42188 58.197914 289.78125 59.041664Q290.14062 59.86979 290.14062 61.447914Q290.14062 63.08854 289.78125 64.072914Q289.4375 65.041664 288.71875 65.55729Q288.01562 66.05729 287.07812 66.05729Q286.0625 66.05729 285.42188 65.510414Q284.78125 64.947914 284.65625 63.93229ZM288.96875 60.135414Q288.96875 59.229164 288.48438 58.697914Q288.01562 58.166664 287.32812 58.166664Q286.625 58.166664 286.09375 58.74479Q285.57812 59.30729 285.57812 60.229164Q285.57812 61.041664 286.07812 61.55729Q286.57812 62.072914 287.29688 62.072914Q288.03125 62.072914 288.5 61.55729Q288.96875 61.041664 288.96875 60.135414ZM292.09375 65.916664L292.09375 64.71354L293.29688 64.71354L293.29688 65.916664L292.09375 65.916664ZM296.125 61.260414Q295.46875 61.010414 295.14062 60.572914Q294.82812 60.11979 294.82812 59.510414Q294.82812 58.572914 295.5 57.93229Q296.1875 57.291664 297.29688 57.291664Q298.42188 57.291664 299.10938 57.947914Q299.79688 58.604164 299.79688 59.541664Q299.79688 60.135414 299.48438 60.572914Q299.17188 61.010414 298.53125 61.260414Q299.32812 61.510414 299.73438 62.08854Q300.14062 62.666664 300.14062 63.46354Q300.14062 64.55729 299.35938 65.30729Q298.59375 66.05729 297.3125 66.05729Q296.04688 66.05729 295.26562 65.30729Q294.48438 64.55729 294.48438 63.43229Q294.48438 62.58854 294.90625 62.02604Q295.34375 61.46354 296.125 61.260414ZM295.90625 59.46354Q295.90625 60.072914 296.29688 60.46354Q296.70312 60.854164 297.32812 60.854164Q297.9375 60.854164 298.32812 60.479164Q298.71875 60.08854 298.71875 59.52604Q298.71875 58.947914 298.3125 58.55729Q297.90625 58.15104 297.3125 58.15104Q296.70312 58.15104 296.29688 58.541664Q295.90625 58.93229 295.90625 59.46354ZM295.57812 63.43229Q295.57812 63.885414 295.78125 64.30729Q296.0 64.729164 296.42188 64.96354Q296.84375 65.197914 297.32812 65.197914Q298.07812 65.197914 298.5625 64.71354Q299.0625 64.229164 299.0625 63.479164Q299.0625 62.71354 298.5625 62.21354Q298.0625 61.71354 297.29688 61.71354Q296.54688 61.71354 296.0625 62.21354Q295.57812 62.697914 295.57812 63.43229ZM301.65625 63.93229L302.67188 63.83854Q302.79688 64.55729 303.15625 64.885414Q303.53125 65.197914 304.09375 65.197914Q304.57812 65.197914 304.9375 64.979164Q305.3125 64.74479 305.54688 64.385414Q305.78125 64.010414 305.9375 63.385414Q306.09375 62.74479 306.09375 62.08854Q306.09375 62.010414 306.09375 61.86979Q305.78125 62.36979 305.23438 62.697914Q304.6875 63.010414 304.04688 63.010414Q302.96875 63.010414 302.23438 62.24479Q301.5 61.46354 301.5 60.197914Q301.5 58.885414 302.26562 58.08854Q303.04688 57.291664 304.20312 57.291664Q305.03125 57.291664 305.71875 57.74479Q306.42188 58.197914 306.78125 59.041664Q307.14062 59.86979 307.14062 61.447914Q307.14062 63.08854 306.78125 64.072914Q306.4375 65.041664 305.71875 65.55729Q305.01562 66.05729 304.07812 66.05729Q303.0625 66.05729 302.42188 65.510414Q301.78125 64.947914 301.65625 63.93229ZM305.96875 60.135414Q305.96875 59.229164 305.48438 58.697914Q305.01562 58.166664 304.32812 58.166664Q303.625 58.166664 303.09375 58.74479Q302.57812 59.30729 302.57812 60.229164Q302.57812 61.041664 303.07812 61.55729Q303.57812 62.072914 304.29688 62.072914Q305.03125 62.072914 305.5 61.55729Q305.96875 61.041664 305.96875 60.135414ZM308.95312 65.916664L308.95312 57.322914L315.15625 57.322914L315.15625 58.33854L310.09375 58.33854L310.09375 60.96354L314.84375 60.96354L314.84375 61.979164L310.09375 61.979164L310.09375 64.90104L315.35938 64.90104L315.35938 65.916664L308.95312 65.916664ZM316.375 63.33854L316.375 62.27604L319.625 62.27604L319.625 63.33854L316.375 63.33854ZM320.5 61.68229Q320.5 60.15104 320.8125 59.229164Q321.125 58.291664 321.73438 57.791664Q322.35938 57.291664 323.29688 57.291664Q323.98438 57.291664 324.5 57.572914Q325.03125 57.854164 325.375 58.385414Q325.71875 58.90104 325.90625 59.65104Q326.09375 60.40104 326.09375 61.68229Q326.09375 63.197914 325.78125 64.11979Q325.48438 65.041664 324.85938 65.55729Q324.25 66.05729 323.29688 66.05729Q322.0625 66.05729 321.34375 65.166664Q320.5 64.104164 320.5 61.68229ZM321.57812 61.68229Q321.57812 63.791664 322.07812 64.49479Q322.57812 65.197914 323.29688 65.197914Q324.03125 65.197914 324.51562 64.49479Q325.01562 63.791664 325.01562 61.68229Q325.01562 59.55729 324.51562 58.86979Q324.03125 58.166664 323.28125 58.166664Q322.5625 58.166664 322.125 58.77604Q321.57812 59.55729 321.57812 61.68229ZM327.5 63.666664L328.60938 63.572914Q328.73438 64.385414 329.17188 64.791664Q329.625 65.197914 330.26562 65.197914Q331.01562 65.197914 331.54688 64.61979Q332.07812 64.041664 332.07812 63.104164Q332.07812 62.197914 331.5625 61.68229Q331.0625 61.15104 330.23438 61.15104Q329.73438 61.15104 329.3125 61.385414Q328.90625 61.61979 328.67188 61.979164L327.6875 61.854164L328.51562 57.447914L332.79688 57.447914L332.79688 58.447914L329.35938 58.447914L328.90625 60.760414Q329.67188 60.21354 330.51562 60.21354Q331.64062 60.21354 332.40625 60.99479Q333.1875 61.77604 333.1875 63.010414Q333.1875 64.166664 332.51562 65.02604Q331.6875 66.05729 330.26562 66.05729Q329.09375 66.05729 328.34375 65.40104Q327.60938 64.74479 327.5 63.666664ZM334.375 58.90104L334.64062 58.072914Q335.57812 58.40104 336.0 58.635414Q335.89062 57.572914 335.875 57.18229L336.73438 57.18229Q336.71875 57.760414 336.59375 58.635414Q337.20312 58.322914 337.98438 58.072914L338.25 58.90104Q337.5 59.15104 336.79688 59.229164Q337.14062 59.541664 337.79688 60.33854L337.09375 60.83854Q336.75 60.36979 336.29688 59.572914Q335.85938 60.40104 335.53125 60.83854L334.84375 60.33854Q335.51562 59.49479 335.8125 59.229164Q335.0625 59.08854 334.375 58.90104ZM339.09375 65.916664L341.35938 62.68229L339.26562 59.697914L340.57812 59.697914L341.53125 61.15104Q341.79688 61.572914 341.96875 61.854164Q342.21875 61.46354 342.4375 61.166664L343.48438 59.697914L344.75 59.697914L342.59375 62.61979L344.90625 65.916664L343.625 65.916664L342.34375 63.979164L342.0 63.46354L340.35938 65.916664L339.09375 65.916664ZM351.0 64.52604L351.0 62.166664L348.67188 62.166664L348.67188 61.18229L351.0 61.18229L351.0 58.854164L352.0 58.854164L352.0 61.18229L354.34375 61.18229L354.34375 62.166664L352.0 62.166664L352.0 64.52604L351.0 64.52604ZM358.375 63.33854L358.375 62.27604L361.625 62.27604L361.625 63.33854L358.375 63.33854ZM364.125 61.260414Q363.46875 61.010414 363.14062 60.572914Q362.82812 60.11979 362.82812 59.510414Q362.82812 58.572914 363.5 57.93229Q364.1875 57.291664 365.29688 57.291664Q366.42188 57.291664 367.10938 57.947914Q367.79688 58.604164 367.79688 59.541664Q367.79688 60.135414 367.48438 60.572914Q367.17188 61.010414 366.53125 61.260414Q367.32812 61.510414 367.73438 62.08854Q368.14062 62.666664 368.14062 63.46354Q368.14062 64.55729 367.35938 65.30729Q366.59375 66.05729 365.3125 66.05729Q364.04688 66.05729 363.26562 65.30729Q362.48438 64.55729 362.48438 63.43229Q362.48438 62.58854 362.90625 62.02604Q363.34375 61.46354 364.125 61.260414ZM363.90625 59.46354Q363.90625 60.072914 364.29688 60.46354Q364.70312 60.854164 365.32812 60.854164Q365.9375 60.854164 366.32812 60.479164Q366.71875 60.08854 366.71875 59.52604Q366.71875 58.947914 366.3125 58.55729Q365.90625 58.15104 365.3125 58.15104Q364.70312 58.15104 364.29688 58.541664Q363.90625 58.93229 363.90625 59.46354ZM363.57812 63.43229Q363.57812 63.885414 363.78125 64.30729Q364.0 64.729164 364.42188 64.96354Q364.84375 65.197914 365.32812 65.197914Q366.07812 65.197914 366.5625 64.71354Q367.0625 64.229164 367.0625 63.479164Q367.0625 62.71354 366.5625 62.21354Q366.0625 61.71354 365.29688 61.71354Q364.54688 61.71354 364.0625 62.21354Q363.57812 62.697914 363.57812 63.43229ZM370.09375 65.916664L370.09375 64.71354L371.29688 64.71354L371.29688 65.916664L370.09375 65.916664ZM372.5 63.666664L373.60938 63.572914Q373.73438 64.385414 374.17188 64.791664Q374.625 65.197914 375.26562 65.197914Q376.01562 65.197914 376.54688 64.61979Q377.07812 64.041664 377.07812 63.104164Q377.07812 62.197914 376.5625 61.68229Q376.0625 61.15104 375.23438 61.15104Q374.73438 61.15104 374.3125 61.385414Q373.90625 61.61979 373.67188 61.979164L372.6875 61.854164L373.51562 57.447914L377.79688 57.447914L377.79688 58.447914L374.35938 58.447914L373.90625 60.760414Q374.67188 60.21354 375.51562 60.21354Q376.64062 60.21354 377.40625 60.99479Q378.1875 61.77604 378.1875 63.010414Q378.1875 64.166664 377.51562 65.02604Q376.6875 66.05729 375.26562 66.05729Q374.09375 66.05729 373.34375 65.40104Q372.60938 64.74479 372.5 63.666664ZM385.04688 64.90104L385.04688 65.916664L379.35938 65.916664Q379.35938 65.541664 379.48438 65.18229Q379.70312 64.604164 380.17188 64.041664Q380.65625 63.479164 381.5625 62.74479Q382.96875 61.58854 383.45312 60.916664Q383.95312 60.24479 383.95312 59.65104Q383.95312 59.02604 383.5 58.604164Q383.04688 58.166664 382.32812 58.166664Q381.5625 58.166664 381.10938 58.61979Q380.65625 59.072914 380.64062 59.885414L379.5625 59.77604Q379.67188 58.55729 380.39062 57.93229Q381.125 57.291664 382.35938 57.291664Q383.59375 57.291664 384.3125 57.979164Q385.03125 58.666664 385.03125 59.68229Q385.03125 60.197914 384.8125 60.697914Q384.60938 61.18229 384.10938 61.74479Q383.625 62.291664 382.5 63.24479Q381.54688 64.041664 381.26562 64.33854Q381.0 64.61979 380.82812 64.90104L385.04688 64.90104ZM386.95312 65.916664L386.95312 57.322914L393.15625 57.322914L393.15625 58.33854L388.09375 58.33854L388.09375 60.96354L392.84375 60.96354L392.84375 61.979164L388.09375 61.979164L388.09375 64.90104L393.35938 64.90104L393.35938 65.916664L386.95312 65.916664ZM394.375 63.33854L394.375 62.27604L397.625 62.27604L397.625 63.33854L394.375 63.33854ZM398.5 61.68229Q398.5 60.15104 398.8125 59.229164Q399.125 58.291664 399.73438 57.791664Q400.35938 57.291664 401.29688 57.291664Q401.98438 57.291664 402.5 57.572914Q403.03125 57.854164 403.375 58.385414Q403.71875 58.90104 403.90625 59.65104Q404.09375 60.40104 404.09375 61.68229Q404.09375 63.197914 403.78125 64.11979Q403.48438 65.041664 402.85938 65.55729Q402.25 66.05729 401.29688 66.05729Q400.0625 66.05729 399.34375 65.166664Q398.5 64.104164 398.5 61.68229ZM399.57812 61.68229Q399.57812 63.791664 400.07812 64.49479Q400.57812 65.197914 401.29688 65.197914Q402.03125 65.197914 402.51562 64.49479Q403.01562 63.791664 403.01562 61.68229Q403.01562 59.55729 402.51562 58.86979Q402.03125 58.166664 401.28125 58.166664Q400.5625 58.166664 400.125 58.77604Q399.57812 59.55729 399.57812 61.68229ZM405.65625 63.93229L406.67188 63.83854Q406.79688 64.55729 407.15625 64.885414Q407.53125 65.197914 408.09375 65.197914Q408.57812 65.197914 408.9375 64.979164Q409.3125 64.74479 409.54688 64.385414Q409.78125 64.010414 409.9375 63.385414Q410.09375 62.74479 410.09375 62.08854Q410.09375 62.010414 410.09375 61.86979Q409.78125 62.36979 409.23438 62.697914Q408.6875 63.010414 408.04688 63.010414Q406.96875 63.010414 406.23438 62.24479Q405.5 61.46354 405.5 60.197914Q405.5 58.885414 406.26562 58.08854Q407.04688 57.291664 408.20312 57.291664Q409.03125 57.291664 409.71875 57.74479Q410.42188 58.197914 410.78125 59.041664Q411.14062 59.86979 411.14062 61.447914Q411.14062 63.08854 410.78125 64.072914Q410.4375 65.041664 409.71875 65.55729Q409.01562 66.05729 408.07812 66.05729Q407.0625 66.05729 406.42188 65.510414Q405.78125 64.947914 405.65625 63.93229ZM409.96875 60.135414Q409.96875 59.229164 409.48438 58.697914Q409.01562 58.166664 408.32812 58.166664Q407.625 58.166664 407.09375 58.74479Q406.57812 59.30729 406.57812 60.229164Q406.57812 61.041664 407.07812 61.55729Q407.57812 62.072914 408.29688 62.072914Q409.03125 62.072914 409.5 61.55729Q409.96875 61.041664 409.96875 60.135414Z" fill-rule="nonzero"/><path fill="#757575" d="M27.190624 38.55L21.64375 24.2375L23.690624 24.2375L27.409374 34.628124Q27.8625 35.878124 28.159374 36.971874Q28.4875 35.8 28.940624 34.628124L32.8 24.2375L34.7375 24.2375L29.128124 38.55L27.190624 38.55ZM34.253124 42.51875L34.253124 41.253124L45.89375 41.253124L45.89375 42.51875L34.253124 42.51875ZM55.6125 36.8625L55.6125 38.55L46.159374 38.55Q46.14375 37.909374 46.3625 37.33125Q46.721874 36.3625 47.51875 35.425Q48.315624 34.4875 49.815624 33.253124Q52.159374 31.346874 52.971874 30.2375Q53.8 29.1125 53.8 28.1125Q53.8 27.065624 53.05 26.346874Q52.3 25.628124 51.096874 25.628124Q49.83125 25.628124 49.065624 26.39375Q48.3 27.159374 48.3 28.503124L46.4875 28.315624Q46.675 26.3 47.878124 25.2375Q49.096874 24.175 51.14375 24.175Q53.190624 24.175 54.39375 25.315624Q55.596874 26.45625 55.596874 28.14375Q55.596874 29.003124 55.2375 29.846874Q54.89375 30.675 54.08125 31.596874Q53.26875 32.503124 51.378124 34.1125Q49.784374 35.440624 49.33125 35.909374Q48.89375 36.378124 48.596874 36.8625L55.6125 36.8625ZM66.75313 38.55L62.8 28.175L64.65938 28.175L66.89375 34.39375Q67.25313 35.39375 67.55 36.471874Q67.78438 35.659374 68.20625 34.503124L70.50313 28.175L72.31563 28.175L68.39375 38.55L66.75313 38.55ZM73.15938 35.45625L74.90938 35.175Q75.05 36.221874 75.72188 36.784374Q76.39375 37.33125 77.59688 37.33125Q78.8 37.33125 79.37813 36.846874Q79.97188 36.346874 79.97188 35.690624Q79.97188 35.096874 79.45625 34.753124Q79.09688 34.51875 77.65938 34.159374Q75.72188 33.659374 74.97188 33.315624Q74.2375 32.95625 73.84688 32.33125Q73.45625 31.690624 73.45625 30.925Q73.45625 30.2375 73.76875 29.64375Q74.09688 29.05 74.64375 28.659374Q75.05 28.3625 75.75313 28.159374Q76.47188 27.940624 77.28438 27.940624Q78.50313 27.940624 79.425 28.3Q80.34688 28.64375 80.78438 29.253124Q81.22188 29.846874 81.39375 30.846874L79.675 31.08125Q79.55 30.284374 78.9875 29.846874Q78.425 29.39375 77.40938 29.39375Q76.19063 29.39375 75.675 29.8Q75.15938 30.190624 75.15938 30.721874Q75.15938 31.065624 75.37813 31.346874Q75.58125 31.628124 76.05 31.815624Q76.31563 31.909374 77.59688 32.253124Q79.47188 32.753124 80.20625 33.08125Q80.94063 33.39375 81.3625 34.003124Q81.78438 34.596874 81.78438 35.503124Q81.78438 36.378124 81.26875 37.159374Q80.75313 37.940624 79.78438 38.3625Q78.81563 38.784374 77.59688 38.784374Q75.58125 38.784374 74.51875 37.940624Q73.45625 37.096874 73.15938 35.45625ZM84.3625 38.55L84.3625 36.55L86.3625 36.55L86.3625 38.55L84.3625 38.55ZM100.19063 38.55L94.64375 24.2375L96.69063 24.2375L100.40938 34.628124Q100.8625 35.878124 101.15938 36.971874Q101.4875 35.8 101.94063 34.628124L105.8 24.2375L107.7375 24.2375L102.12813 38.55L100.19063 38.55ZM107.25313 42.51875L107.25313 41.253124L118.89375 41.253124L118.89375 42.51875L107.25313 42.51875ZM119.15938 35.45625L120.90938 35.175Q121.05 36.221874 121.72188 36.784374Q122.39375 37.33125 123.59688 37.33125Q124.8 37.33125 125.37813 36.846874Q125.97188 36.346874 125.97188 35.690624Q125.97188 35.096874 125.45625 34.753124Q125.09688 34.51875 123.65938 34.159374Q121.72188 33.659374 120.97188 33.315624Q120.2375 32.95625 119.84688 32.33125Q119.45625 31.690624 119.45625 30.925Q119.45625 30.2375 119.76875 29.64375Q120.09688 29.05 120.64375 28.659374Q121.05 28.3625 121.75313 28.159374Q122.47188 27.940624 123.28438 27.940624Q124.50313 27.940624 125.425 28.3Q126.34688 28.64375 126.78438 29.253124Q127.22188 29.846874 127.39375 30.846874L125.675 31.08125Q125.55 30.284374 124.9875 29.846874Q124.425 29.39375 123.40938 29.39375Q122.19063 29.39375 121.675 29.8Q121.15938 30.190624 121.15938 30.721874Q121.15938 31.065624 121.37813 31.346874Q121.58125 31.628124 122.05 31.815624Q122.31563 31.909374 123.59688 32.253124Q125.47188 32.753124 126.20625 33.08125Q126.94063 33.39375 127.3625 34.003124Q127.78438 34.596874 127.78438 35.503124Q127.78438 36.378124 127.26875 37.159374Q126.75313 37.940624 125.78438 38.3625Q124.81563 38.784374 123.59688 38.784374Q121.58125 38.784374 120.51875 37.940624Q119.45625 37.096874 119.15938 35.45625Z" fill-rule="nonzero"/></svg>