<svg version="1.1" viewBox="0.0 0.0 600.0 371.0" fill="none" stroke="none" stroke-linecap="square" stroke-miterlimit="10" width="600" height="371" xmlns:xlink="http://www.w3.org/1999/xlink" xmlns="http://www.w3.org/2000/svg"><path fill="#ffffff" d="M0 0L600.0 0L600.0 371.0L0 371.0L0 0Z" fill-rule="nonzero"/><path stroke="#cccccc" stroke-width="1.0" stroke-linecap="butt" d="M130.5 88.5L130.5 300.5" fill-rule="nonzero"/><path stroke="#cccccc" stroke-width="1.0" stroke-linecap="butt" d="M230.5 88.5L230.5 300.5" fill-rule="nonzero"/><path stroke="#333333" stroke-width="1.0" stroke-linecap="butt" d="M329.5 88.5L329.5 300.5" fill-rule="nonzero"/><path stroke="#cccccc" stroke-width="1.0" stroke-linecap="butt" d="M428.5 88.5L428.5 300.5" fill-rule="nonzero"/><path stroke="#cccccc" stroke-width="1.0" stroke-linecap="butt" d="M528.5 88.5L528.5 300.5" fill-rule="nonzero"/><path stroke="#cccccc" stroke-width="1.0" stroke-linecap="butt" d="M75.5 300.5L581.5 300.5" fill-rule="nonzero"/><path stroke="#cccccc" stroke-width="1.0" stroke-linecap="butt" d="M75.5 247.5L581.5 247.5" fill-rule="nonzero"/><path stroke="#333333" stroke-width="1.0" stroke-linecap="butt" d="M75.5 194.5L581.5 194.5" fill-rule="nonzero"/><path stroke="#cccccc" stroke-width="1.0" stroke-linecap="butt" d="M75.5 141.5L581.5 141.5" fill-rule="nonzero"/><path stroke="#cccccc" stroke-width="1.0" stroke-linecap="butt" d="M75.5 88.5L581.5 88.5" fill-rule="nonzero"/><clipPath id="id_0"><path d="M75.55 88.28333L581.45 88.28333L581.45 300.45L75.55 300.45L75.55 88.28333Z" clip-rule="nonzero"/></clipPath><path stroke="#4285f4" stroke-width="2.0" stroke-linecap="butt" stroke-opacity="0.4" clip-path="url(#id_0)" d="M0 320.7554L581.45 97.700806" fill-rule="nonzero"/><path fill="#4285f4" clip-path="url(#id_0)" d="M86.8615 289.0991C86.8615 291.58435 84.84679 293.5991 82.3615 293.5991C79.87622 293.5991 77.8615 291.58435 77.8615 289.0991C77.8615 286.6138 79.87622 284.5991 82.3615 284.5991C84.84679 284.5991 86.8615 286.6138 86.8615 289.0991Z" fill-rule="nonzero"/><path fill="#4285f4" clip-path="url(#id_0)" d="M137.0837 269.95105C137.0837 272.4363 135.06898 274.45105 132.5837 274.45105C130.09842 274.45105 128.0837 272.4363 128.0837 269.95105C128.0837 267.46576 130.09842 265.45105 132.5837 265.45105C135.06898 265.45105 137.0837 267.46576 137.0837 269.95105Z" fill-rule="nonzero"/><path fill="#4285f4" clip-path="url(#id_0)" d="M159.95718 261.09308C159.95718 263.57837 157.94246 265.59308 155.45718 265.59308C152.9719 265.59308 150.95718 263.57837 150.95718 261.09308C150.95718 258.6078 152.9719 256.59308 155.45718 256.59308C157.94246 256.59308 159.95718 258.6078 159.95718 261.09308Z" fill-rule="nonzero"/><path fill="#4285f4" clip-path="url(#id_0)" d="M185.81415 251.28038C185.81415 253.76566 183.79944 255.78038 181.31415 255.78038C178.82887 255.78038 176.81415 253.76566 176.81415 251.28038C176.81415 248.79509 178.82887 246.78038 181.31415 246.78038C183.79944 246.78038 185.81415 248.79509 185.81415 251.28038Z" fill-rule="nonzero"/><path fill="#4285f4" clip-path="url(#id_0)" d="M233.05286 232.981C233.05286 235.46628 231.03813 237.481 228.55286 237.481C226.06757 237.481 224.05286 235.46628 224.05286 232.981C224.05286 230.49571 226.06757 228.481 228.55286 228.481C231.03813 228.481 233.05286 230.49571 233.05286 232.981Z" fill-rule="nonzero"/><path fill="#4285f4" clip-path="url(#id_0)" d="M286.4077 212.613C286.4077 215.09828 284.393 217.113 281.9077 217.113C279.42245 217.113 277.4077 215.09828 277.4077 212.613C277.4077 210.12772 279.42245 208.113 281.9077 208.113C284.393 208.113 286.4077 210.12772 286.4077 212.613Z" fill-rule="nonzero"/><path fill="#4285f4" clip-path="url(#id_0)" d="M333.9945 194.36667C333.9945 196.85194 331.97977 198.86667 329.4945 198.86667C327.00922 198.86667 324.9945 196.85194 324.9945 194.36667C324.9945 191.88138 327.00922 189.86667 329.4945 189.86667C331.97977 189.86667 333.9945 191.88138 333.9945 194.36667Z" fill-rule="nonzero"/><path fill="#4285f4" clip-path="url(#id_0)" d="M381.23322 176.22641C381.23322 178.7117 379.21848 180.72641 376.73322 180.72641C374.24792 180.72641 372.23322 178.7117 372.23322 176.22641C372.23322 173.74113 374.24792 171.72641 376.73322 171.72641C379.21848 171.72641 381.23322 173.74113 381.23322 176.22641Z" fill-rule="nonzero"/><path fill="#4285f4" clip-path="url(#id_0)" d="M430.01337 157.6088C430.01337 160.09407 427.99866 162.1088 425.51337 162.1088C423.0281 162.1088 421.01337 160.09407 421.01337 157.6088C421.01337 155.1235 423.0281 153.1088 425.51337 153.1088C427.99866 153.1088 430.01337 155.1235 430.01337 157.6088Z" fill-rule="nonzero"/><path fill="#4285f4" clip-path="url(#id_0)" d="M486.15283 136.02083C486.15283 138.50612 484.13812 140.52083 481.65283 140.52083C479.16757 140.52083 477.15283 138.50612 477.15283 136.02083C477.15283 133.53555 479.16757 131.52083 481.65283 131.52083C484.13812 131.52083 486.15283 133.53555 486.15283 136.02083Z" fill-rule="nonzero"/><path fill="#4285f4" clip-path="url(#id_0)" d="M508.03183 127.64025C508.03183 130.12553 506.0171 132.14024 503.53183 132.14024C501.04654 132.14024 499.03183 130.12553 499.03183 127.64025C499.03183 125.15497 501.04654 123.14025 503.53183 123.14025C506.0171 123.14025 508.03183 125.15497 508.03183 127.64025Z" fill-rule="nonzero"/><path fill="#4285f4" clip-path="url(#id_0)" d="M533.39154 117.7745C533.39154 120.25978 531.37683 122.2745 528.89154 122.2745C526.40625 122.2745 524.39154 120.25978 524.39154 117.7745C524.39154 115.289215 526.40625 113.2745 528.89154 113.2745C531.37683 113.2745 533.39154 115.289215 533.39154 117.7745Z" fill-rule="nonzero"/><path fill="#4285f4" clip-path="url(#id_0)" d="M579.1385 100.27075C579.1385 102.756035 577.1238 104.77075 574.6385 104.77075C572.1532 104.77075 570.1385 102.756035 570.1385 100.27075C570.1385 97.78547 572.1532 95.77075 574.6385 95.77075C577.1238 95.77075 579.1385 97.78547 579.1385 100.27075Z" fill-rule="nonzero"/><path fill="#000000" d="M311.875 349.45L308.54688 340.85626L309.78125 340.85626L312.01562 347.10626Q312.28125 347.85626 312.46875 348.5125Q312.67188 347.8094 312.9375 347.10626L315.25 340.85626L316.40625 340.85626L313.04688 349.45L311.875 349.45ZM316.3125 351.84064L316.3125 351.075L323.3125 351.075L323.3125 351.84064L316.3125 351.84064ZM323.875 347.59064L324.90625 347.4344Q325.0 348.0594 325.39062 348.3875Q325.79688 348.71564 326.53125 348.71564Q327.25 348.71564 327.59375 348.4344Q327.95312 348.1375 327.95312 347.73126Q327.95312 347.3719 327.64062 347.16876Q327.42188 347.02814 326.5625 346.8094Q325.40625 346.5125 324.95312 346.3094Q324.51562 346.09064 324.28125 345.71564Q324.04688 345.34064 324.04688 344.8719Q324.04688 344.46564 324.23438 344.10626Q324.42188 343.7469 324.75 343.5125Q325.0 343.34064 325.42188 343.21564Q325.84375 343.09064 326.34375 343.09064Q327.0625 343.09064 327.60938 343.3094Q328.17188 343.5125 328.4375 343.8719Q328.70312 344.23126 328.79688 344.825L327.76562 344.96564Q327.70312 344.4969 327.35938 344.23126Q327.03125 343.95 326.40625 343.95Q325.6875 343.95 325.375 344.2Q325.0625 344.4344 325.0625 344.7625Q325.0625 344.96564 325.1875 345.1219Q325.32812 345.29376 325.59375 345.40314Q325.75 345.46564 326.53125 345.66876Q327.65625 345.98126 328.09375 346.16876Q328.53125 346.35626 328.78125 346.71564Q329.03125 347.075 329.03125 347.6219Q329.03125 348.15314 328.71875 348.6219Q328.42188 349.075 327.84375 349.34064Q327.26562 349.59064 326.53125 349.59064Q325.3125 349.59064 324.67188 349.09064Q324.04688 348.575 323.875 347.59064ZM335.3125 351.98126Q334.4375 350.8719 333.82812 349.40314Q333.23438 347.91876 333.23438 346.34064Q333.23438 344.95 333.67188 343.66876Q334.20312 342.1844 335.3125 340.71564L336.0625 340.71564Q335.35938 341.9344 335.125 342.45Q334.76562 343.2625 334.5625 344.1375Q334.3125 345.23126 334.3125 346.34064Q334.3125 349.16876 336.0625 351.98126L335.3125 351.98126ZM339.875 349.45L336.54688 340.85626L337.78125 340.85626L340.01562 347.10626Q340.28125 347.85626 340.46875 348.5125Q340.67188 347.8094 340.9375 347.10626L343.25 340.85626L344.40625 340.85626L341.04688 349.45L339.875 349.45ZM345.98438 351.98126L345.23438 351.98126Q346.98438 349.16876 346.98438 346.34064Q346.98438 345.2469 346.73438 344.15314Q346.53125 343.27814 346.17188 342.46564Q345.9375 341.95 345.23438 340.71564L345.98438 340.71564Q347.07812 342.1844 347.60938 343.66876Q348.0625 344.95 348.0625 346.34064Q348.0625 347.91876 347.45312 349.40314Q346.84375 350.8719 345.98438 351.98126Z" fill-rule="nonzero"/><path fill="#000000" d="M29.550013 219.99167L20.956263 223.3198L20.956263 222.08542L27.206263 219.85104Q27.956263 219.58542 28.612513 219.39792Q27.909388 219.1948 27.206263 218.92917L20.956263 216.61667L20.956263 215.46042L29.550013 218.8198L29.550013 219.99167ZM31.940638 215.55417L31.175013 215.55417L31.175013 208.55417L31.940638 208.55417L31.940638 215.55417ZM28.534388 202.3198L29.550013 202.3198L29.550013 208.0073Q29.175013 208.0073 28.815638 207.8823Q28.237513 207.66354 27.675013 207.1948Q27.112513 206.71042 26.378138 205.80417Q25.221888 204.39792 24.550013 203.91354Q23.878138 203.41354 23.284388 203.41354Q22.659388 203.41354 22.237513 203.86667Q21.800013 204.3198 21.800013 205.03854Q21.800013 205.80417 22.253138 206.2573Q22.706263 206.71042 23.518763 206.72604L23.409388 207.80417Q22.190638 207.6948 21.565638 206.97604Q20.925013 206.24167 20.925013 205.0073Q20.925013 203.77292 21.612513 203.05417Q22.300013 202.33542 23.315638 202.33542Q23.831263 202.33542 24.331263 202.55417Q24.815638 202.7573 25.378138 203.2573Q25.925013 203.74167 26.878138 204.86667Q27.675013 205.8198 27.971888 206.10104Q28.253138 206.36667 28.534388 206.53854L28.534388 202.3198ZM32.08126 195.55417Q30.971888 196.42917 29.503138 197.03854Q28.018763 197.6323 26.440638 197.6323Q25.050013 197.6323 23.768763 197.1948Q22.284388 196.66354 20.815638 195.55417L20.815638 194.80417Q22.034388 195.5073 22.550013 195.74167Q23.362513 196.10104 24.237513 196.30417Q25.331263 196.55417 26.440638 196.55417Q29.268763 196.55417 32.08126 194.80417L32.08126 195.55417ZM29.550013 190.99167L20.956263 194.3198L20.956263 193.08542L27.206263 190.85104Q27.956263 190.58542 28.612513 190.39792Q27.909388 190.1948 27.206263 189.92917L20.956263 187.61667L20.956263 186.46042L29.550013 189.8198L29.550013 190.99167ZM32.08126 184.8823L32.08126 185.6323Q29.268763 183.8823 26.440638 183.8823Q25.346888 183.8823 24.253138 184.1323Q23.378138 184.33542 22.565638 184.6948Q22.050013 184.92917 20.815638 185.6323L20.815638 184.8823Q22.284388 183.78854 23.768763 183.2573Q25.050013 182.80417 26.440638 182.80417Q28.018763 182.80417 29.503138 183.41354Q30.971888 184.02292 32.08126 184.8823Z" fill-rule="nonzero"/><path fill="#000000" d="M58.925 301.8719L58.925 300.8094L62.175 300.8094L62.175 301.8719L58.925 301.8719ZM68.59688 303.4344L68.59688 304.45L62.909374 304.45Q62.909374 304.075 63.034374 303.71564Q63.253124 303.1375 63.721874 302.575Q64.20625 302.0125 65.1125 301.27814Q66.51875 300.1219 67.00313 299.45Q67.50313 298.77814 67.50313 298.1844Q67.50313 297.5594 67.05 297.1375Q66.59688 296.7 65.87813 296.7Q65.1125 296.7 64.65938 297.15314Q64.20625 297.60626 64.19063 298.41876L63.1125 298.3094Q63.221874 297.09064 63.940624 296.46564Q64.675 295.825 65.90938 295.825Q67.14375 295.825 67.8625 296.5125Q68.58125 297.2 68.58125 298.21564Q68.58125 298.73126 68.3625 299.23126Q68.15938 299.71564 67.65938 300.27814Q67.175 300.825 66.05 301.77814Q65.09688 302.575 64.81563 302.8719Q64.55 303.15314 64.37813 303.4344L68.59688 303.4344Z" fill-rule="nonzero"/><path fill="#000000" d="M58.925 248.83022L58.925 247.76772L62.175 247.76772L62.175 248.83022L58.925 248.83022ZM67.01875 251.40834L65.97188 251.40834L65.97188 244.68959Q65.58125 245.04897 64.95625 245.42397Q64.34688 245.78334 63.8625 245.95522L63.8625 244.93959Q64.7375 244.51772 65.39375 243.93959Q66.06563 243.34584 66.34688 242.78334L67.01875 242.78334L67.01875 251.40834Z" fill-rule="nonzero"/><path fill="#000000" d="M63.05 194.1323Q63.05 192.60104 63.3625 191.67917Q63.675 190.74167 64.28438 190.24167Q64.90938 189.74167 65.84688 189.74167Q66.53438 189.74167 67.05 190.02292Q67.58125 190.30417 67.925 190.83542Q68.26875 191.35104 68.45625 192.10104Q68.64375 192.85104 68.64375 194.1323Q68.64375 195.64792 68.33125 196.5698Q68.03438 197.49167 67.40938 198.0073Q66.8 198.5073 65.84688 198.5073Q64.6125 198.5073 63.89375 197.61667Q63.05 196.55417 63.05 194.1323ZM64.12813 194.1323Q64.12813 196.24167 64.62813 196.9448Q65.12813 197.64792 65.84688 197.64792Q66.58125 197.64792 67.06563 196.9448Q67.56563 196.24167 67.56563 194.1323Q67.56563 192.0073 67.06563 191.3198Q66.58125 190.61667 65.83125 190.61667Q65.1125 190.61667 64.675 191.22604Q64.12813 192.0073 64.12813 194.1323Z" fill-rule="nonzero"/><path fill="#000000" d="M67.01875 145.325L65.97188 145.325L65.97188 138.60625Q65.58125 138.96562 64.95625 139.34062Q64.34688 139.7 63.8625 139.87187L63.8625 138.85625Q64.7375 138.43437 65.39375 137.85625Q66.06563 137.2625 66.34688 136.7L67.01875 136.7L67.01875 145.325Z" fill-rule="nonzero"/><path fill="#000000" d="M68.59688 91.26771L68.59688 92.28333L62.909374 92.28333Q62.909374 91.90833 63.034374 91.54896Q63.253124 90.97083 63.721874 90.40833Q64.20625 89.84583 65.1125 89.11146Q66.51875 87.95521 67.00313 87.28333Q67.50313 86.61146 67.50313 86.01771Q67.50313 85.39271 67.05 84.97083Q66.59688 84.53333 65.87813 84.53333Q65.1125 84.53333 64.65938 84.98646Q64.20625 85.43958 64.19063 86.25208L63.1125 86.14271Q63.221874 84.92396 63.940624 84.29896Q64.675 83.65833 65.90938 83.65833Q67.14375 83.65833 67.8625 84.34583Q68.58125 85.03333 68.58125 86.04896Q68.58125 86.56458 68.3625 87.06458Q68.15938 87.54896 67.65938 88.11146Q67.175 88.65833 66.05 89.61146Q65.09688 90.40833 64.81563 90.70521Q64.55 90.98646 64.37813 91.26771L68.59688 91.26771Z" fill-rule="nonzero"/><path fill="#000000" d="M125.4697 314.8719L125.4697 313.8094L128.7197 313.8094L128.7197 314.8719L125.4697 314.8719ZM132.9697 317.45L132.9697 315.3875L129.25095 315.3875L129.25095 314.41876L133.17282 308.85626L134.0322 308.85626L134.0322 314.41876L135.18845 314.41876L135.18845 315.3875L134.0322 315.3875L134.0322 317.45L132.9697 317.45ZM132.9697 314.41876L132.9697 310.5594L130.2822 314.41876L132.9697 314.41876Z" fill-rule="nonzero"/><path fill="#000000" d="M224.9196 314.8719L224.9196 313.8094L228.1696 313.8094L228.1696 314.8719L224.9196 314.8719ZM234.59148 316.4344L234.59148 317.45L228.90398 317.45Q228.90398 317.075 229.02898 316.71564Q229.24773 316.1375 229.71648 315.575Q230.20085 315.0125 231.1071 314.27814Q232.51335 313.1219 232.99773 312.45Q233.49773 311.77814 233.49773 311.1844Q233.49773 310.5594 233.0446 310.1375Q232.59148 309.7 231.87273 309.7Q231.1071 309.7 230.65398 310.15314Q230.20085 310.60626 230.18523 311.41876L229.1071 311.3094Q229.21648 310.09064 229.93523 309.46564Q230.6696 308.825 231.90398 308.825Q233.13835 308.825 233.8571 309.5125Q234.57585 310.2 234.57585 311.21564Q234.57585 311.73126 234.3571 312.23126Q234.15398 312.71564 233.65398 313.27814Q233.1696 313.825 232.0446 314.77814Q231.09148 315.575 230.81023 315.8719Q230.5446 316.15314 230.37273 316.4344L234.59148 316.4344Z" fill-rule="nonzero"/><path fill="#000000" d="M326.4945 313.21564Q326.4945 311.6844 326.807 310.7625Q327.1195 309.825 327.72888 309.325Q328.35388 308.825 329.29138 308.825Q329.97888 308.825 330.4945 309.10626Q331.02576 309.3875 331.3695 309.91876Q331.71326 310.4344 331.90076 311.1844Q332.08826 311.9344 332.08826 313.21564Q332.08826 314.73126 331.77576 315.65314Q331.47888 316.575 330.85388 317.09064Q330.2445 317.59064 329.29138 317.59064Q328.057 317.59064 327.33826 316.7Q326.4945 315.6375 326.4945 313.21564ZM327.57263 313.21564Q327.57263 315.325 328.07263 316.02814Q328.57263 316.73126 329.29138 316.73126Q330.02576 316.73126 330.51013 316.02814Q331.01013 315.325 331.01013 313.21564Q331.01013 311.09064 330.51013 310.40314Q330.02576 309.7 329.27576 309.7Q328.557 309.7 328.1195 310.3094Q327.57263 311.09064 327.57263 313.21564Z" fill-rule="nonzero"/><path fill="#000000" d="M431.49127 316.4344L431.49127 317.45L425.80377 317.45Q425.80377 317.075 425.92877 316.71564Q426.14752 316.1375 426.61627 315.575Q427.10065 315.0125 428.0069 314.27814Q429.41315 313.1219 429.89752 312.45Q430.39752 311.77814 430.39752 311.1844Q430.39752 310.5594 429.9444 310.1375Q429.49127 309.7 428.77252 309.7Q428.0069 309.7 427.55377 310.15314Q427.10065 310.60626 427.08502 311.41876L426.0069 311.3094Q426.11627 310.09064 426.83502 309.46564Q427.5694 308.825 428.80377 308.825Q430.03815 308.825 430.7569 309.5125Q431.47565 310.2 431.47565 311.21564Q431.47565 311.73126 431.2569 312.23126Q431.05377 312.71564 430.55377 313.27814Q430.0694 313.825 428.9444 314.77814Q427.99127 315.575 427.71002 315.8719Q427.4444 316.15314 427.27252 316.4344L431.49127 316.4344Z" fill-rule="nonzero"/><path fill="#000000" d="M528.7693 317.45L528.7693 315.3875L525.05054 315.3875L525.05054 314.41876L528.9724 308.85626L529.8318 308.85626L529.8318 314.41876L530.98804 314.41876L530.98804 315.3875L529.8318 315.3875L529.8318 317.45L528.7693 317.45ZM528.7693 314.41876L528.7693 310.5594L526.0818 314.41876L528.7693 314.41876Z" fill-rule="nonzero"/><path fill="#4285f4" d="M214.5 61.916668C214.5 65.23038 211.8137 67.916664 208.5 67.916664C205.1863 67.916664 202.5 65.23038 202.5 61.916668C202.5 58.60296 205.1863 55.916668 208.5 55.916668C211.8137 55.916668 214.5 58.60296 214.5 61.916668Z" fill-rule="nonzero"/><path fill="#1a1a1a" d="M225.875 65.916664L222.54688 57.322914L223.78125 57.322914L226.01562 63.572914Q226.28125 64.322914 226.46875 64.979164Q226.67188 64.27604 226.9375 63.572914L229.25 57.322914L230.40625 57.322914L227.04688 65.916664L225.875 65.916664ZM230.3125 68.30729L230.3125 67.541664L237.3125 67.541664L237.3125 68.30729L230.3125 68.30729ZM243.54688 64.90104L243.54688 65.916664L237.85938 65.916664Q237.85938 65.541664 237.98438 65.18229Q238.20312 64.604164 238.67188 64.041664Q239.15625 63.479164 240.0625 62.74479Q241.46875 61.58854 241.95312 60.916664Q242.45312 60.24479 242.45312 59.65104Q242.45312 59.02604 242.0 58.604164Q241.54688 58.166664 240.82812 58.166664Q240.0625 58.166664 239.60938 58.61979Q239.15625 59.072914 239.14062 59.885414L238.0625 59.77604Q238.17188 58.55729 238.89062 57.93229Q239.625 57.291664 240.85938 57.291664Q242.09375 57.291664 242.8125 57.979164Q243.53125 58.666664 243.53125 59.68229Q243.53125 60.197914 243.3125 60.697914Q243.10938 61.18229 242.60938 61.74479Q242.125 62.291664 241.0 63.24479Q240.04688 64.041664 239.76562 64.33854Q239.5 64.61979 239.32812 64.90104L243.54688 64.90104ZM250.3125 68.447914Q249.4375 67.33854 248.82812 65.86979Q248.23438 64.385414 248.23438 62.80729Q248.23438 61.416664 248.67188 60.135414Q249.20312 58.65104 250.3125 57.18229L251.0625 57.18229Q250.35938 58.40104 250.125 58.916664Q249.76562 59.729164 249.5625 60.604164Q249.3125 61.697914 249.3125 62.80729Q249.3125 65.635414 251.0625 68.447914L250.3125 68.447914ZM254.875 65.916664L251.54688 57.322914L252.78125 57.322914L255.01562 63.572914Q255.28125 64.322914 255.46875 64.979164Q255.67188 64.27604 255.9375 63.572914L258.25 57.322914L259.40625 57.322914L256.04688 65.916664L254.875 65.916664ZM260.98438 68.447914L260.23438 68.447914Q261.98438 65.635414 261.98438 62.80729Q261.98438 61.71354 261.73438 60.61979Q261.53125 59.74479 261.17188 58.93229Q260.9375 58.416664 260.23438 57.18229L260.98438 57.18229Q262.07812 58.65104 262.60938 60.135414Q263.0625 61.416664 263.0625 62.80729Q263.0625 64.385414 262.45312 65.86979Q261.84375 67.33854 260.98438 68.447914Z" fill-rule="nonzero"/><path stroke="#4285f4" stroke-width="4.0" stroke-linecap="butt" stroke-opacity="0.4" d="M279.5 61.916668L291.5 61.916668" fill-rule="nonzero"/><path fill="#1a1a1a" d="M300.0 61.68229Q300.0 60.15104 300.3125 59.229164Q300.625 58.291664 301.23438 57.791664Q301.85938 57.291664 302.79688 57.291664Q303.48438 57.291664 304.0 57.572914Q304.53125 57.854164 304.875 58.385414Q305.21875 58.90104 305.40625 59.65104Q305.59375 60.40104 305.59375 61.68229Q305.59375 63.197914 305.28125 64.11979Q304.98438 65.041664 304.35938 65.55729Q303.75 66.05729 302.79688 66.05729Q301.5625 66.05729 300.84375 65.166664Q300.0 64.104164 300.0 61.68229ZM301.07812 61.68229Q301.07812 63.791664 301.57812 64.49479Q302.07812 65.197914 302.79688 65.197914Q303.53125 65.197914 304.01562 64.49479Q304.51562 63.791664 304.51562 61.68229Q304.51562 59.55729 304.01562 58.86979Q303.53125 58.166664 302.78125 58.166664Q302.0625 58.166664 301.625 58.77604Q301.07812 59.55729 301.07812 61.68229ZM307.59375 65.916664L307.59375 64.71354L308.79688 64.71354L308.79688 65.916664L307.59375 65.916664ZM310.0 63.65104L311.0625 63.510414Q311.23438 64.40104 311.67188 64.80729Q312.10938 65.197914 312.73438 65.197914Q313.48438 65.197914 314.0 64.68229Q314.51562 64.166664 314.51562 63.40104Q314.51562 62.68229 314.03125 62.21354Q313.5625 61.729164 312.82812 61.729164Q312.53125 61.729164 312.07812 61.854164L312.20312 60.916664Q312.3125 60.93229 312.375 60.93229Q313.04688 60.93229 313.57812 60.58854Q314.125 60.229164 314.125 59.49479Q314.125 58.916664 313.73438 58.541664Q313.34375 58.15104 312.71875 58.15104Q312.10938 58.15104 311.6875 58.541664Q311.28125 58.93229 311.17188 59.697914L310.10938 59.510414Q310.29688 58.46354 310.98438 57.885414Q311.67188 57.291664 312.6875 57.291664Q313.39062 57.291664 313.98438 57.604164Q314.57812 57.90104 314.89062 58.416664Q315.20312 58.93229 315.20312 59.52604Q315.20312 60.072914 314.90625 60.541664Q314.60938 60.99479 314.03125 61.260414Q314.78125 61.43229 315.20312 61.99479Q315.625 62.541664 315.625 63.385414Q315.625 64.510414 314.79688 65.291664Q313.98438 66.072914 312.73438 66.072914Q311.60938 66.072914 310.85938 65.40104Q310.10938 64.71354 310.0 63.65104ZM322.46875 59.43229L321.42188 59.510414Q321.28125 58.885414 321.03125 58.604164Q320.59375 58.15104 319.96875 58.15104Q319.46875 58.15104 319.07812 58.43229Q318.59375 58.80729 318.29688 59.510414Q318.01562 60.197914 318.0 61.479164Q318.375 60.90104 318.92188 60.61979Q319.48438 60.33854 320.09375 60.33854Q321.14062 60.33854 321.875 61.11979Q322.625 61.90104 322.625 63.11979Q322.625 63.93229 322.26562 64.635414Q321.92188 65.322914 321.3125 65.697914Q320.70312 66.05729 319.9375 66.05729Q318.60938 66.05729 317.78125 65.08854Q316.95312 64.11979 316.95312 61.90104Q316.95312 59.40104 317.875 58.27604Q318.67188 57.291664 320.03125 57.291664Q321.04688 57.291664 321.6875 57.86979Q322.34375 58.43229 322.46875 59.43229ZM318.17188 63.135414Q318.17188 63.68229 318.39062 64.18229Q318.625 64.666664 319.03125 64.93229Q319.45312 65.197914 319.92188 65.197914Q320.57812 65.197914 321.0625 64.666664Q321.54688 64.11979 321.54688 63.197914Q321.54688 62.30729 321.0625 61.791664Q320.59375 61.27604 319.875 61.27604Q319.15625 61.27604 318.65625 61.791664Q318.17188 62.30729 318.17188 63.135414ZM323.875 58.90104L324.14062 58.072914Q325.07812 58.40104 325.5 58.635414Q325.39062 57.572914 325.375 57.18229L326.23438 57.18229Q326.21875 57.760414 326.09375 58.635414Q326.70312 58.322914 327.48438 58.072914L327.75 58.90104Q327.0 59.15104 326.29688 59.229164Q326.64062 59.541664 327.29688 60.33854L326.59375 60.83854Q326.25 60.36979 325.79688 59.572914Q325.35938 60.40104 325.03125 60.83854L324.34375 60.33854Q325.01562 59.49479 325.3125 59.229164Q324.5625 59.08854 323.875 58.90104ZM328.59375 65.916664L330.85938 62.68229L328.76562 59.697914L330.07812 59.697914L331.03125 61.15104Q331.29688 61.572914 331.46875 61.854164Q331.71875 61.46354 331.9375 61.166664L332.98438 59.697914L334.25 59.697914L332.09375 62.61979L334.40625 65.916664L333.125 65.916664L331.84375 63.979164L331.5 63.46354L329.85938 65.916664L328.59375 65.916664ZM340.5 64.52604L340.5 62.166664L338.17188 62.166664L338.17188 61.18229L340.5 61.18229L340.5 58.854164L341.5 58.854164L341.5 61.18229L343.84375 61.18229L343.84375 62.166664L341.5 62.166664L341.5 64.52604L340.5 64.52604ZM353.54688 64.90104L353.54688 65.916664L347.85938 65.916664Q347.85938 65.541664 347.98438 65.18229Q348.20312 64.604164 348.67188 64.041664Q349.15625 63.479164 350.0625 62.74479Q351.46875 61.58854 351.95312 60.916664Q352.45312 60.24479 352.45312 59.65104Q352.45312 59.02604 352.0 58.604164Q351.54688 58.166664 350.82812 58.166664Q350.0625 58.166664 349.60938 58.61979Q349.15625 59.072914 349.14062 59.885414L348.0625 59.77604Q348.17188 58.55729 348.89062 57.93229Q349.625 57.291664 350.85938 57.291664Q352.09375 57.291664 352.8125 57.979164Q353.53125 58.666664 353.53125 59.68229Q353.53125 60.197914 353.3125 60.697914Q353.10938 61.18229 352.60938 61.74479Q352.125 62.291664 351.0 63.24479Q350.04688 64.041664 349.76562 64.33854Q349.5 64.61979 349.32812 64.90104L353.54688 64.90104ZM355.59375 65.916664L355.59375 64.71354L356.79688 64.71354L356.79688 65.916664L355.59375 65.916664ZM361.96875 65.916664L360.92188 65.916664L360.92188 59.197914Q360.53125 59.55729 359.90625 59.93229Q359.29688 60.291664 358.8125 60.46354L358.8125 59.447914Q359.6875 59.02604 360.34375 58.447914Q361.01562 57.854164 361.29688 57.291664L361.96875 57.291664L361.96875 65.916664ZM370.54688 64.90104L370.54688 65.916664L364.85938 65.916664Q364.85938 65.541664 364.98438 65.18229Q365.20312 64.604164 365.67188 64.041664Q366.15625 63.479164 367.0625 62.74479Q368.46875 61.58854 368.95312 60.916664Q369.45312 60.24479 369.45312 59.65104Q369.45312 59.02604 369.0 58.604164Q368.54688 58.166664 367.82812 58.166664Q367.0625 58.166664 366.60938 58.61979Q366.15625 59.072914 366.14062 59.885414L365.0625 59.77604Q365.17188 58.55729 365.89062 57.93229Q366.625 57.291664 367.85938 57.291664Q369.09375 57.291664 369.8125 57.979164Q370.53125 58.666664 370.53125 59.68229Q370.53125 60.197914 370.3125 60.697914Q370.10938 61.18229 369.60938 61.74479Q369.125 62.291664 368.0 63.24479Q367.04688 64.041664 366.76562 64.33854Q366.5 64.61979 366.32812 64.90104L370.54688 64.90104ZM372.45312 65.916664L372.45312 57.322914L378.65625 57.322914L378.65625 58.33854L373.59375 58.33854L373.59375 60.96354L378.34375 60.96354L378.34375 61.979164L373.59375 61.979164L373.59375 64.90104L378.85938 64.90104L378.85938 65.916664L372.45312 65.916664ZM379.875 63.33854L379.875 62.27604L383.125 62.27604L383.125 63.33854L379.875 63.33854ZM384.0 61.68229Q384.0 60.15104 384.3125 59.229164Q384.625 58.291664 385.23438 57.791664Q385.85938 57.291664 386.79688 57.291664Q387.48438 57.291664 388.0 57.572914Q388.53125 57.854164 388.875 58.385414Q389.21875 58.90104 389.40625 59.65104Q389.59375 60.40104 389.59375 61.68229Q389.59375 63.197914 389.28125 64.11979Q388.98438 65.041664 388.35938 65.55729Q387.75 66.05729 386.79688 66.05729Q385.5625 66.05729 384.84375 65.166664Q384.0 64.104164 384.0 61.68229ZM385.07812 61.68229Q385.07812 63.791664 385.57812 64.49479Q386.07812 65.197914 386.79688 65.197914Q387.53125 65.197914 388.01562 64.49479Q388.51562 63.791664 388.51562 61.68229Q388.51562 59.55729 388.01562 58.86979Q387.53125 58.166664 386.78125 58.166664Q386.0625 58.166664 385.625 58.77604Q385.07812 59.55729 385.07812 61.68229ZM394.375 65.916664L394.375 63.854164L390.65625 63.854164L390.65625 62.885414L394.57812 57.322914L395.4375 57.322914L395.4375 62.885414L396.59375 62.885414L396.59375 63.854164L395.4375 63.854164L395.4375 65.916664L394.375 65.916664ZM394.375 62.885414L394.375 59.02604L391.6875 62.885414L394.375 62.885414Z" fill-rule="nonzero"/><path fill="#757575" d="M27.190624 38.55L21.64375 24.2375L23.690624 24.2375L27.409374 34.628124Q27.8625 35.878124 28.159374 36.971874Q28.4875 35.8 28.940624 34.628124L32.8 24.2375L34.7375 24.2375L29.128124 38.55L27.190624 38.55ZM34.253124 42.51875L34.253124 41.253124L45.89375 41.253124L45.89375 42.51875L34.253124 42.51875ZM55.6125 36.8625L55.6125 38.55L46.159374 38.55Q46.14375 37.909374 46.3625 37.33125Q46.721874 36.3625 47.51875 35.425Q48.315624 34.4875 49.815624 33.253124Q52.159374 31.346874 52.971874 30.2375Q53.8 29.1125 53.8 28.1125Q53.8 27.065624 53.05 26.346874Q52.3 25.628124 51.096874 25.628124Q49.83125 25.628124 49.065624 26.39375Q48.3 27.159374 48.3 28.503124L46.4875 28.315624Q46.675 26.3 47.878124 25.2375Q49.096874 24.175 51.14375 24.175Q53.190624 24.175 54.39375 25.315624Q55.596874 26.45625 55.596874 28.14375Q55.596874 29.003124 55.2375 29.846874Q54.89375 30.675 54.08125 31.596874Q53.26875 32.503124 51.378124 34.1125Q49.784374 35.440624 49.33125 35.909374Q48.89375 36.378124 48.596874 36.8625L55.6125 36.8625ZM66.75313 38.55L62.8 28.175L64.65938 28.175L66.89375 34.39375Q67.25313 35.39375 67.55 36.471874Q67.78438 35.659374 68.20625 34.503124L70.50313 28.175L72.31563 28.175L68.39375 38.55L66.75313 38.55ZM73.15938 35.45625L74.90938 35.175Q75.05 36.221874 75.72188 36.784374Q76.39375 37.33125 77.59688 37.33125Q78.8 37.33125 79.37813 36.846874Q79.97188 36.346874 79.97188 35.690624Q79.97188 35.096874 79.45625 34.753124Q79.09688 34.51875 77.65938 34.159374Q75.72188 33.659374 74.97188 33.315624Q74.2375 32.95625 73.84688 32.33125Q73.45625 31.690624 73.45625 30.925Q73.45625 30.2375 73.76875 29.64375Q74.09688 29.05 74.64375 28.659374Q75.05 28.3625 75.75313 28.159374Q76.47188 27.940624 77.28438 27.940624Q78.50313 27.940624 79.425 28.3Q80.34688 28.64375 80.78438 29.253124Q81.22188 29.846874 81.39375 30.846874L79.675 31.08125Q79.55 30.284374 78.9875 29.846874Q78.425 29.39375 77.40938 29.39375Q76.19063 29.39375 75.675 29.8Q75.15938 30.190624 75.15938 30.721874Q75.15938 31.065624 75.37813 31.346874Q75.58125 31.628124 76.05 31.815624Q76.31563 31.909374 77.59688 32.253124Q79.47188 32.753124 80.20625 33.08125Q80.94063 33.39375 81.3625 34.003124Q81.78438 34.596874 81.78438 35.503124Q81.78438 36.378124 81.26875 37.159374Q80.75313 37.940624 79.78438 38.3625Q78.81563 38.784374 77.59688 38.784374Q75.58125 38.784374 74.51875 37.940624Q73.45625 37.096874 73.15938 35.45625ZM84.3625 38.55L84.3625 36.55L86.3625 36.55L86.3625 38.55L84.3625 38.55ZM100.19063 38.55L94.64375 24.2375L96.69063 24.2375L100.40938 34.628124Q100.8625 35.878124 101.15938 36.971874Q101.4875 35.8 101.94063 34.628124L105.8 24.2375L107.7375 24.2375L102.12813 38.55L100.19063 38.55ZM107.25313 42.51875L107.25313 41.253124L118.89375 41.253124L118.89375 42.51875L107.25313 42.51875ZM119.15938 35.45625L120.90938 35.175Q121.05 36.221874 121.72188 36.784374Q122.39375 37.33125 123.59688 37.33125Q124.8 37.33125 125.37813 36.846874Q125.97188 36.346874 125.97188 35.690624Q125.97188 35.096874 125.45625 34.753124Q125.09688 34.51875 123.65938 34.159374Q121.72188 33.659374 120.97188 33.315624Q120.2375 32.95625 119.84688 32.33125Q119.45625 31.690624 119.45625 30.925Q119.45625 30.2375 119.76875 29.64375Q120.09688 29.05 120.64375 28.659374Q121.05 28.3625 121.75313 28.159374Q122.47188 27.940624 123.28438 27.940624Q124.50313 27.940624 125.425 28.3Q126.34688 28.64375 126.78438 29.253124Q127.22188 29.846874 127.39375 30.846874L125.675 31.08125Q125.55 30.284374 124.9875 29.846874Q124.425 29.39375 123.40938 29.39375Q122.19063 29.39375 121.675 29.8Q121.15938 30.190624 121.15938 30.721874Q121.15938 31.065624 121.37813 31.346874Q121.58125 31.628124 122.05 31.815624Q122.31563 31.909374 123.59688 32.253124Q125.47188 32.753124 126.20625 33.08125Q126.94063 33.39375 127.3625 34.003124Q127.78438 34.596874 127.78438 35.503124Q127.78438 36.378124 127.26875 37.159374Q126.75313 37.940624 125.78438 38.3625Q124.81563 38.784374 123.59688 38.784374Q121.58125 38.784374 120.51875 37.940624Q119.45625 37.096874 119.15938 35.45625Z" fill-rule="nonzero"/></svg>