<svg version="1.1" viewBox="0.0 0.0 600.0 371.0" fill="none" stroke="none" stroke-linecap="square" stroke-miterlimit="10" width="600" height="371" xmlns:xlink="http://www.w3.org/1999/xlink" xmlns="http://www.w3.org/2000/svg"><path fill="#ffffff" d="M0 0L600.0 0L600.0 371.0L0 371.0L0 0Z" fill-rule="nonzero"/><path stroke="#cccccc" stroke-width="1.0" stroke-linecap="butt" d="M135.5 88.5L135.5 300.5" fill-rule="nonzero"/><path stroke="#cccccc" stroke-width="1.0" stroke-linecap="butt" d="M200.5 88.5L200.5 300.5" fill-rule="nonzero"/><path stroke="#cccccc" stroke-width="1.0" stroke-linecap="butt" d="M264.5 88.5L264.5 300.5" fill-rule="nonzero"/><path stroke="#333333" stroke-width="1.0" stroke-linecap="butt" d="M329.5 88.5L329.5 300.5" fill-rule="nonzero"/><path stroke="#cccccc" stroke-width="1.0" stroke-linecap="butt" d="M394.5 88.5L394.5 300.5" fill-rule="nonzero"/><path stroke="#cccccc" stroke-width="1.0" stroke-linecap="butt" d="M458.5 88.5L458.5 300.5" fill-rule="nonzero"/><path stroke="#cccccc" stroke-width="1.0" stroke-linecap="butt" d="M523.5 88.5L523.5 300.5" fill-rule="nonzero"/><path stroke="#cccccc" stroke-width="1.0" stroke-linecap="butt" d="M77.5 300.5L581.5 300.5" fill-rule="nonzero"/><path stroke="#cccccc" stroke-width="1.0" stroke-linecap="butt" d="M77.5 265.5L581.5 265.5" fill-rule="nonzero"/><path stroke="#cccccc" stroke-width="1.0" stroke-linecap="butt" d="M77.5 229.5L581.5 229.5" fill-rule="nonzero"/><path stroke="#333333" stroke-width="1.0" stroke-linecap="butt" d="M77.5 194.5L581.5 194.5" fill-rule="nonzero"/><path stroke="#cccccc" stroke-width="1.0" stroke-linecap="butt" d="M77.5 159.5L581.5 159.5" fill-rule="nonzero"/><path stroke="#cccccc" stroke-width="1.0" stroke-linecap="butt" d="M77.5 123.5L581.5 123.5" fill-rule="nonzero"/><path stroke="#cccccc" stroke-width="1.0" stroke-linecap="butt" d="M77.5 88.5L581.5 88.5" fill-rule="nonzero"/><clipPath id="id_0"><path d="M77.55 88.28333L581.45 88.28333L581.45 300.45L77.55 300.45L77.55 88.28333Z" clip-rule="nonzero"/></clipPath><path stroke="#4285f4" stroke-width="2.0" stroke-linecap="butt" stroke-opacity="0.4" clip-path="url(#id_0)" d="M0 313.06305L581.45 103.57068" fill-rule="nonzero"/><path fill="#4285f4" clip-path="url(#id_0)" d="M88.86077 282.59265C88.86077 285.0779 86.846054 287.09265 84.36077 287.09265C81.875496 287.09265 79.86077 285.0779 79.86077 282.59265C79.86077 280.10736 81.875496 278.09265 84.36077 278.09265C86.846054 278.09265 88.86077 280.10736 88.86077 282.59265Z" fill-rule="nonzero"/><path fill="#4285f4" clip-path="url(#id_0)" d="M142.01727 263.67444C142.01727 266.15973 140.00256 268.17444 137.51727 268.17444C135.032 268.17444 133.01727 266.15973 133.01727 263.67444C133.01727 261.18915 135.032 259.17444 137.51727 259.17444C140.00256 259.17444 142.01727 261.18915 142.01727 263.67444Z" fill-rule="nonzero"/><path fill="#4285f4" clip-path="url(#id_0)" d="M184.33604 248.29236C184.33604 250.77765 182.32133 252.79236 179.83604 252.79236C177.35077 252.79236 175.33604 250.77765 175.33604 248.29236C175.33604 245.80708 177.35077 243.79236 179.83604 243.79236C182.32133 243.79236 184.33604 245.80708 184.33604 248.29236Z" fill-rule="nonzero"/><path fill="#4285f4" clip-path="url(#id_0)" d="M211.68843 238.39125C211.68843 240.87653 209.6737 242.89125 207.18843 242.89125C204.70314 242.89125 202.68843 240.87653 202.68843 238.39125C202.68843 235.90598 204.70314 233.89125 207.18843 233.89125C209.6737 233.89125 211.68843 235.90598 211.68843 238.39125Z" fill-rule="nonzero"/><path fill="#4285f4" clip-path="url(#id_0)" d="M236.46039 229.37416C236.46039 231.85945 234.44568 233.87416 231.96039 233.87416C229.47511 233.87416 227.46039 231.85945 227.46039 229.37416C227.46039 226.88889 229.47511 224.87416 231.96039 224.87416C234.44568 224.87416 236.46039 226.88889 236.46039 229.37416Z" fill-rule="nonzero"/><path fill="#4285f4" clip-path="url(#id_0)" d="M285.74628 211.81737C285.74628 214.30266 283.73157 216.31737 281.24628 216.31737C278.761 216.31737 276.74628 214.30266 276.74628 211.81737C276.74628 209.33209 278.761 207.31737 281.24628 207.31737C283.73157 207.31737 285.74628 209.33209 285.74628 211.81737Z" fill-rule="nonzero"/><path fill="#4285f4" clip-path="url(#id_0)" d="M333.84518 194.41971C333.84518 196.90498 331.83044 198.91971 329.34518 198.91971C326.8599 198.91971 324.84518 196.90498 324.84518 194.41971C324.84518 191.93443 326.8599 189.91971 329.34518 189.91971C331.83044 189.91971 333.84518 191.93443 333.84518 194.41971Z" fill-rule="nonzero"/><path fill="#4285f4" clip-path="url(#id_0)" d="M382.51175 176.82756C382.51175 179.31284 380.49704 181.32756 378.01175 181.32756C375.5265 181.32756 373.51175 179.31284 373.51175 176.82756C373.51175 174.34227 375.5265 172.32756 378.01175 172.32756C380.49704 172.32756 382.51175 174.34227 382.51175 176.82756Z" fill-rule="nonzero"/><path fill="#4285f4" clip-path="url(#id_0)" d="M429.99136 159.58902C429.99136 162.0743 427.97665 164.08902 425.49136 164.08902C423.00607 164.08902 420.99136 162.0743 420.99136 159.58902C420.99136 157.10373 423.00607 155.08902 425.49136 155.08902C427.97665 155.08902 429.99136 157.10373 429.99136 159.58902Z" fill-rule="nonzero"/><path fill="#4285f4" clip-path="url(#id_0)" d="M456.5696 150.16528C456.5696 152.65056 454.5549 154.66528 452.0696 154.66528C449.58432 154.66528 447.5696 152.65056 447.5696 150.16528C447.5696 147.68 449.58432 145.66528 452.0696 145.66528C454.5549 145.66528 456.5696 147.68 456.5696 150.16528Z" fill-rule="nonzero"/><path fill="#4285f4" clip-path="url(#id_0)" d="M481.34158 141.325C481.34158 143.81029 479.32684 145.825 476.84158 145.825C474.3563 145.825 472.34158 143.81029 472.34158 141.325C472.34158 138.83972 474.3563 136.825 476.84158 136.825C479.32684 136.825 481.34158 138.83972 481.34158 141.325Z" fill-rule="nonzero"/><path fill="#4285f4" clip-path="url(#id_0)" d="M531.6596 123.29083C531.6596 125.776115 529.6449 127.79083 527.1596 127.79083C524.6744 127.79083 522.6596 125.776115 522.6596 123.29083C522.6596 120.80555 524.6744 118.79083 527.1596 118.79083C529.6449 118.79083 531.6596 120.80555 531.6596 123.29083Z" fill-rule="nonzero"/><path fill="#4285f4" clip-path="url(#id_0)" d="M579.1392 105.96389C579.1392 108.44917 577.1245 110.46389 574.6392 110.46389C572.15393 110.46389 570.1392 108.44917 570.1392 105.96389C570.1392 103.47861 572.15393 101.46389 574.6392 101.46389C577.1245 101.46389 579.1392 103.47861 579.1392 105.96389Z" fill-rule="nonzero"/><path fill="#000000" d="M306.5625 346.4344L307.6875 346.73126Q307.32812 348.1219 306.40625 348.85626Q305.48438 349.59064 304.14062 349.59064Q302.75 349.59064 301.875 349.02814Q301.0 348.46564 300.54688 347.40314Q300.09375 346.325 300.09375 345.09064Q300.09375 343.7469 300.60938 342.7469Q301.125 341.7469 302.0625 341.23126Q303.01562 340.71564 304.15625 340.71564Q305.4375 340.71564 306.3125 341.3719Q307.20312 342.02814 307.54688 343.21564L306.42188 343.48126Q306.125 342.54376 305.54688 342.1219Q304.98438 341.6844 304.125 341.6844Q303.14062 341.6844 302.46875 342.16876Q301.8125 342.6375 301.53125 343.4344Q301.26562 344.23126 301.26562 345.09064Q301.26562 346.1844 301.57812 346.9969Q301.90625 347.8094 302.57812 348.21564Q303.25 348.6219 304.04688 348.6219Q305.0 348.6219 305.65625 348.075Q306.32812 347.52814 306.5625 346.4344ZM313.375 349.45L313.375 348.52814Q312.64062 349.59064 311.39062 349.59064Q310.84375 349.59064 310.35938 349.3875Q309.89062 349.16876 309.65625 348.85626Q309.42188 348.52814 309.32812 348.0594Q309.26562 347.7625 309.26562 347.075L309.26562 343.23126L310.32812 343.23126L310.32812 346.6844Q310.32812 347.4969 310.39062 347.79376Q310.48438 348.2 310.79688 348.45Q311.125 348.6844 311.60938 348.6844Q312.07812 348.6844 312.48438 348.45Q312.90625 348.2 313.07812 347.77814Q313.26562 347.35626 313.26562 346.5594L313.26562 343.23126L314.3125 343.23126L314.3125 349.45L313.375 349.45ZM316.28125 349.45L316.28125 343.23126L317.23438 343.23126L317.23438 344.16876Q317.59375 343.5125 317.89062 343.3094Q318.20312 343.09064 318.57812 343.09064Q319.10938 343.09064 319.65625 343.41876L319.29688 344.40314Q318.90625 344.16876 318.53125 344.16876Q318.17188 344.16876 317.89062 344.3875Q317.625 344.59064 317.51562 344.96564Q317.32812 345.52814 317.32812 346.1844L317.32812 349.45L316.28125 349.45ZM320.28125 349.45L320.28125 343.23126L321.23438 343.23126L321.23438 344.16876Q321.59375 343.5125 321.89062 343.3094Q322.20312 343.09064 322.57812 343.09064Q323.10938 343.09064 323.65625 343.41876L323.29688 344.40314Q322.90625 344.16876 322.53125 344.16876Q322.17188 344.16876 321.89062 344.3875Q321.625 344.59064 321.51562 344.96564Q321.32812 345.52814 321.32812 346.1844L321.32812 349.45L320.28125 349.45ZM328.54688 347.45L329.64062 347.575Q329.39062 348.52814 328.6875 349.0594Q327.98438 349.59064 326.90625 349.59064Q325.54688 349.59064 324.73438 348.7469Q323.9375 347.90314 323.9375 346.3875Q323.9375 344.825 324.75 343.96564Q325.5625 343.09064 326.84375 343.09064Q328.09375 343.09064 328.875 343.9344Q329.67188 344.77814 329.67188 346.325Q329.67188 346.41876 329.67188 346.60626L325.03125 346.60626Q325.09375 347.6375 325.60938 348.1844Q326.125 348.71564 326.90625 348.71564Q327.48438 348.71564 327.89062 348.41876Q328.3125 348.10626 328.54688 347.45ZM325.09375 345.7469L328.5625 345.7469Q328.5 344.95 328.17188 344.5594Q327.65625 343.95 326.85938 343.95Q326.125 343.95 325.625 344.4344Q325.14062 344.91876 325.09375 345.7469ZM331.29688 349.45L331.29688 343.23126L332.23438 343.23126L332.23438 344.10626Q332.92188 343.09064 334.21875 343.09064Q334.78125 343.09064 335.25 343.29376Q335.73438 343.4969 335.96875 343.825Q336.20312 344.15314 336.29688 344.59064Q336.34375 344.8875 336.34375 345.6219L336.34375 349.45L335.29688 349.45L335.29688 345.66876Q335.29688 345.0125 335.17188 344.7Q335.04688 344.3875 334.73438 344.2Q334.42188 343.9969 334.0 343.9969Q333.32812 343.9969 332.82812 344.4344Q332.34375 344.85626 332.34375 346.04376L332.34375 349.45L331.29688 349.45ZM340.59375 348.5125L340.75 349.4344Q340.29688 349.52814 339.95312 349.52814Q339.375 349.52814 339.0625 349.35626Q338.75 349.16876 338.60938 348.8719Q338.48438 348.575 338.48438 347.6219L338.48438 344.04376L337.71875 344.04376L337.71875 343.23126L338.48438 343.23126L338.48438 341.6844L339.53125 341.0594L339.53125 343.23126L340.59375 343.23126L340.59375 344.04376L339.53125 344.04376L339.53125 347.6844Q339.53125 348.1375 339.57812 348.2625Q339.64062 348.3875 339.76562 348.46564Q339.89062 348.54376 340.125 348.54376Q340.3125 348.54376 340.59375 348.5125ZM346.3125 351.98126Q345.4375 350.8719 344.82812 349.40314Q344.23438 347.91876 344.23438 346.34064Q344.23438 344.95 344.67188 343.66876Q345.20312 342.1844 346.3125 340.71564L347.0625 340.71564Q346.35938 341.9344 346.125 342.45Q345.76562 343.2625 345.5625 344.1375Q345.3125 345.23126 345.3125 346.34064Q345.3125 349.16876 347.0625 351.98126L346.3125 351.98126ZM347.48438 349.45L350.78125 340.85626L352.0 340.85626L355.51562 349.45L354.23438 349.45L353.21875 346.84064L349.64062 346.84064L348.6875 349.45L347.48438 349.45ZM349.96875 345.91876L352.875 345.91876L351.98438 343.54376Q351.5625 342.46564 351.375 341.7625Q351.20312 342.59064 350.90625 343.40314L349.96875 345.91876ZM356.98438 351.98126L356.23438 351.98126Q357.98438 349.16876 357.98438 346.34064Q357.98438 345.2469 357.73438 344.15314Q357.53125 343.27814 357.17188 342.46564Q356.9375 341.95 356.23438 340.71564L356.98438 340.71564Q358.07812 342.1844 358.60938 343.66876Q359.0625 344.95 359.0625 346.34064Q359.0625 347.91876 358.45312 349.40314Q357.84375 350.8719 356.98438 351.98126Z" fill-rule="nonzero"/><path fill="#000000" d="M29.550013 227.99167L20.956263 231.3198L20.956263 230.08542L27.206263 227.85104Q27.956263 227.58542 28.612513 227.39792Q27.909388 227.1948 27.206263 226.92917L20.956263 224.61667L20.956263 223.46042L29.550013 226.8198L29.550013 227.99167ZM26.440638 222.96042Q24.706263 222.96042 23.878138 222.0073Q23.190638 221.21042 23.190638 220.05417Q23.190638 218.77292 24.034388 217.96042Q24.862513 217.1323 26.346888 217.1323Q27.550013 217.1323 28.237513 217.49167Q28.925013 217.85104 29.315638 218.55417Q29.690638 219.24167 29.690638 220.05417Q29.690638 221.35104 28.862513 222.16354Q28.018763 222.96042 26.440638 222.96042ZM26.440638 221.8823Q27.628138 221.8823 28.221888 221.36667Q28.815638 220.83542 28.815638 220.05417Q28.815638 219.2573 28.221888 218.74167Q27.628138 218.22604 26.409388 218.22604Q25.253138 218.22604 24.659388 218.7573Q24.065638 219.27292 24.065638 220.05417Q24.065638 220.83542 24.659388 221.36667Q25.237513 221.8823 26.440638 221.8823ZM29.550013 215.60104L20.956263 215.60104L20.956263 214.53854L29.550013 214.53854L29.550013 215.60104ZM28.612513 210.27292L29.534388 210.11667Q29.628138 210.5698 29.628138 210.91354Q29.628138 211.49167 29.456263 211.80417Q29.268763 212.11667 28.971888 212.2573Q28.675013 212.3823 27.721888 212.3823L24.143763 212.3823L24.143763 213.14792L23.331263 213.14792L23.331263 212.3823L21.784388 212.3823L21.159388 211.33542L23.331263 211.33542L23.331263 210.27292L24.143763 210.27292L24.143763 211.33542L27.784388 211.33542Q28.237513 211.33542 28.362513 211.28854Q28.487513 211.22604 28.565638 211.10104Q28.643763 210.97604 28.643763 210.74167Q28.643763 210.55417 28.612513 210.27292ZM28.784388 205.5073Q29.284388 206.10104 29.487513 206.64792Q29.690638 207.17917 29.690638 207.80417Q29.690638 208.83542 29.190638 209.3823Q28.690638 209.92917 27.909388 209.92917Q27.456263 209.92917 27.081263 209.72604Q26.690638 209.52292 26.471888 209.17917Q26.237513 208.83542 26.128138 208.41354Q26.034388 208.11667 25.956263 207.47604Q25.815638 206.21042 25.596888 205.60104Q25.378138 205.60104 25.331263 205.60104Q24.675013 205.60104 24.409388 205.89792Q24.065638 206.30417 24.065638 207.10104Q24.065638 207.83542 24.331263 208.1948Q24.581263 208.55417 25.237513 208.72604L25.096888 209.7573Q24.440638 209.61667 24.034388 209.28854Q23.628138 208.96042 23.409388 208.35104Q23.190638 207.74167 23.190638 206.9448Q23.190638 206.14792 23.378138 205.64792Q23.565638 205.14792 23.846888 204.91354Q24.128138 204.67917 24.565638 204.58542Q24.831263 204.53854 25.534388 204.53854L26.940638 204.53854Q28.409388 204.53854 28.800013 204.47604Q29.190638 204.39792 29.550013 204.1948L29.550013 205.30417Q29.221888 205.46042 28.784388 205.5073ZM26.425013 205.60104Q26.659388 206.17917 26.831263 207.3198Q26.925013 207.97604 27.050013 208.24167Q27.159388 208.5073 27.378138 208.66354Q27.596888 208.80417 27.878138 208.80417Q28.300013 208.80417 28.581263 208.49167Q28.862513 208.16354 28.862513 207.55417Q28.862513 206.9448 28.596888 206.47604Q28.331263 205.99167 27.862513 205.77292Q27.503138 205.60104 26.815638 205.60104L26.425013 205.60104ZM30.065638 202.77292L30.221888 201.74167Q30.690638 201.67917 30.909388 201.3823Q31.206263 200.99167 31.206263 200.3198Q31.206263 199.58542 30.909388 199.1948Q30.612513 198.78854 30.096888 198.64792Q29.768763 198.55417 28.737513 198.5698Q29.550013 199.2573 29.550013 200.28854Q29.550013 201.5698 28.628138 202.27292Q27.690638 202.97604 26.409388 202.97604Q25.518763 202.97604 24.768763 202.66354Q24.003138 202.33542 23.596888 201.72604Q23.190638 201.11667 23.190638 200.28854Q23.190638 199.17917 24.081263 198.46042L23.331263 198.46042L23.331263 197.49167L28.706263 197.49167Q30.159388 197.49167 30.768763 197.78854Q31.378138 198.08542 31.721888 198.72604Q32.08126 199.36667 32.08126 200.30417Q32.08126 201.41354 31.581263 202.10104Q31.081263 202.78854 30.065638 202.77292ZM26.331263 201.89792Q27.550013 201.89792 28.112513 201.41354Q28.675013 200.92917 28.675013 200.1948Q28.675013 199.46042 28.112513 198.97604Q27.550013 198.47604 26.362513 198.47604Q25.221888 198.47604 24.643763 198.99167Q24.065638 199.49167 24.065638 200.21042Q24.065638 200.91354 24.643763 201.41354Q25.206263 201.89792 26.331263 201.89792ZM27.550013 191.3198L27.675013 190.22604Q28.628138 190.47604 29.159388 191.17917Q29.690638 191.8823 29.690638 192.96042Q29.690638 194.3198 28.846888 195.1323Q28.003138 195.92917 26.487513 195.92917Q24.925013 195.92917 24.065638 195.11667Q23.190638 194.30417 23.190638 193.02292Q23.190638 191.77292 24.034388 190.99167Q24.878138 190.1948 26.425013 190.1948Q26.518763 190.1948 26.706263 190.1948L26.706263 194.83542Q27.737513 194.77292 28.284388 194.2573Q28.815638 193.74167 28.815638 192.96042Q28.815638 192.3823 28.518763 191.97604Q28.206263 191.55417 27.550013 191.3198ZM25.846888 194.77292L25.846888 191.30417Q25.050013 191.36667 24.659388 191.6948Q24.050013 192.21042 24.050013 193.0073Q24.050013 193.74167 24.534388 194.24167Q25.018763 194.72604 25.846888 194.77292ZM32.08126 183.55417Q30.971888 184.42917 29.503138 185.03854Q28.018763 185.6323 26.440638 185.6323Q25.050013 185.6323 23.768763 185.1948Q22.284388 184.66354 20.815638 183.55417L20.815638 182.80417Q22.034388 183.5073 22.550013 183.74167Q23.362513 184.10104 24.237513 184.30417Q25.331263 184.55417 26.440638 184.55417Q29.268763 184.55417 32.08126 182.80417L32.08126 183.55417ZM29.550013 178.99167L20.956263 182.3198L20.956263 181.08542L27.206263 178.85104Q27.956263 178.58542 28.612513 178.39792Q27.909388 178.1948 27.206263 177.92917L20.956263 175.61667L20.956263 174.46042L29.550013 177.8198L29.550013 178.99167ZM32.08126 172.8823L32.08126 173.6323Q29.268763 171.8823 26.440638 171.8823Q25.346888 171.8823 24.253138 172.1323Q23.378138 172.33542 22.565638 172.6948Q22.050013 172.92917 20.815638 173.6323L20.815638 172.8823Q22.284388 171.78854 23.768763 171.2573Q25.050013 170.80417 26.440638 170.80417Q28.018763 170.80417 29.503138 171.41354Q30.971888 172.02292 32.08126 172.8823Z" fill-rule="nonzero"/><path fill="#000000" d="M60.925 301.8719L60.925 300.8094L64.175 300.8094L64.175 301.8719L60.925 301.8719ZM70.51875 297.96564L69.47188 298.04376Q69.33125 297.41876 69.08125 297.1375Q68.64375 296.6844 68.01875 296.6844Q67.51875 296.6844 67.12813 296.96564Q66.64375 297.34064 66.34688 298.04376Q66.06563 298.73126 66.05 300.0125Q66.425 299.4344 66.97188 299.15314Q67.53438 298.8719 68.14375 298.8719Q69.19063 298.8719 69.925 299.65314Q70.675 300.4344 70.675 301.65314Q70.675 302.46564 70.31563 303.16876Q69.97188 303.85626 69.3625 304.23126Q68.75313 304.59064 67.9875 304.59064Q66.65938 304.59064 65.83125 303.6219Q65.00313 302.65314 65.00313 300.4344Q65.00313 297.9344 65.925 296.8094Q66.72188 295.825 68.08125 295.825Q69.09688 295.825 69.7375 296.40314Q70.39375 296.96564 70.51875 297.96564ZM66.22188 301.66876Q66.22188 302.21564 66.44063 302.71564Q66.675 303.2 67.08125 303.46564Q67.50313 303.73126 67.97188 303.73126Q68.62813 303.73126 69.1125 303.2Q69.59688 302.65314 69.59688 301.73126Q69.59688 300.84064 69.1125 300.325Q68.64375 299.8094 67.925 299.8094Q67.20625 299.8094 66.70625 300.325Q66.22188 300.84064 66.22188 301.66876Z" fill-rule="nonzero"/><path fill="#000000" d="M60.925 266.51077L60.925 265.44827L64.175 265.44827L64.175 266.51077L60.925 266.51077ZM68.425 269.0889L68.425 267.0264L64.70625 267.0264L64.70625 266.05765L68.62813 260.49515L69.4875 260.49515L69.4875 266.05765L70.64375 266.05765L70.64375 267.0264L69.4875 267.0264L69.4875 269.0889L68.425 269.0889ZM68.425 266.05765L68.425 262.19827L65.7375 266.05765L68.425 266.05765Z" fill-rule="nonzero"/><path fill="#000000" d="M60.925 231.14966L60.925 230.08716L64.175 230.08716L64.175 231.14966L60.925 231.14966ZM70.59688 232.71216L70.59688 233.72778L64.90938 233.72778Q64.90938 233.35278 65.03438 232.99341Q65.25313 232.41528 65.72188 231.85278Q66.20625 231.29028 67.1125 230.55591Q68.51875 229.39966 69.00313 228.72778Q69.50313 228.05591 69.50313 227.46216Q69.50313 226.83716 69.05 226.41528Q68.59688 225.97778 67.87813 225.97778Q67.1125 225.97778 66.65938 226.43091Q66.20625 226.88403 66.19063 227.69653L65.1125 227.58716Q65.22188 226.36841 65.94063 225.74341Q66.675 225.10278 67.90938 225.10278Q69.14375 225.10278 69.8625 225.79028Q70.58125 226.47778 70.58125 227.49341Q70.58125 228.00903 70.3625 228.50903Q70.15938 228.99341 69.65938 229.55591Q69.175 230.10278 68.05 231.05591Q67.09688 231.85278 66.81563 232.14966Q66.55 232.43091 66.37813 232.71216L70.59688 232.71216Z" fill-rule="nonzero"/><path fill="#000000" d="M65.05 194.1323Q65.05 192.60104 65.3625 191.67917Q65.675 190.74167 66.28438 190.24167Q66.90938 189.74167 67.84688 189.74167Q68.53438 189.74167 69.05 190.02292Q69.58125 190.30417 69.925 190.83542Q70.26875 191.35104 70.45625 192.10104Q70.64375 192.85104 70.64375 194.1323Q70.64375 195.64792 70.33125 196.5698Q70.03438 197.49167 69.40938 198.0073Q68.8 198.5073 67.84688 198.5073Q66.6125 198.5073 65.89375 197.61667Q65.05 196.55417 65.05 194.1323ZM66.12813 194.1323Q66.12813 196.24167 66.62813 196.9448Q67.12813 197.64792 67.84688 197.64792Q68.58125 197.64792 69.06563 196.9448Q69.56563 196.24167 69.56563 194.1323Q69.56563 192.0073 69.06563 191.3198Q68.58125 190.61667 67.83125 190.61667Q67.1125 190.61667 66.675 191.22604Q66.12813 192.0073 66.12813 194.1323Z" fill-rule="nonzero"/><path fill="#000000" d="M70.59688 161.98993L70.59688 163.00555L64.90938 163.00555Q64.90938 162.63055 65.03438 162.27118Q65.25313 161.69305 65.72188 161.13055Q66.20625 160.56805 67.1125 159.83368Q68.51875 158.67743 69.00313 158.00555Q69.50313 157.33368 69.50313 156.73993Q69.50313 156.11493 69.05 155.69305Q68.59688 155.25555 67.87813 155.25555Q67.1125 155.25555 66.65938 155.70868Q66.20625 156.1618 66.19063 156.9743L65.1125 156.86493Q65.22188 155.64618 65.94063 155.02118Q66.675 154.38055 67.90938 154.38055Q69.14375 154.38055 69.8625 155.06805Q70.58125 155.75555 70.58125 156.77118Q70.58125 157.2868 70.3625 157.7868Q70.15938 158.27118 69.65938 158.83368Q69.175 159.38055 68.05 160.33368Q67.09688 161.13055 66.81563 161.42743Q66.55 161.70868 66.37813 161.98993L70.59688 161.98993Z" fill-rule="nonzero"/><path fill="#000000" d="M68.425 127.64445L68.425 125.58195L64.70625 125.58195L64.70625 124.6132L68.62813 119.0507L69.4875 119.0507L69.4875 124.6132L70.64375 124.6132L70.64375 125.58195L69.4875 125.58195L69.4875 127.64445L68.425 127.64445ZM68.425 124.6132L68.425 120.75382L65.7375 124.6132L68.425 124.6132Z" fill-rule="nonzero"/><path fill="#000000" d="M70.51875 85.79896L69.47188 85.87708Q69.33125 85.25208 69.08125 84.97083Q68.64375 84.51771 68.01875 84.51771Q67.51875 84.51771 67.12813 84.79896Q66.64375 85.17396 66.34688 85.87708Q66.06563 86.56458 66.05 87.84583Q66.425 87.26771 66.97188 86.98646Q67.53438 86.70521 68.14375 86.70521Q69.19063 86.70521 69.925 87.48646Q70.675 88.26771 70.675 89.48646Q70.675 90.29896 70.31563 91.00208Q69.97188 91.68958 69.3625 92.06458Q68.75313 92.42396 67.9875 92.42396Q66.65938 92.42396 65.83125 91.45521Q65.00313 90.48646 65.00313 88.26771Q65.00313 85.76771 65.925 84.64271Q66.72188 83.65833 68.08125 83.65833Q69.09688 83.65833 69.7375 84.23646Q70.39375 84.79896 70.51875 85.79896ZM66.22188 89.50208Q66.22188 90.04896 66.44063 90.54896Q66.675 91.03333 67.08125 91.29896Q67.50313 91.56458 67.97188 91.56458Q68.62813 91.56458 69.1125 91.03333Q69.59688 90.48646 69.59688 89.56458Q69.59688 88.67396 69.1125 88.15833Q68.64375 87.64271 67.925 87.64271Q67.20625 87.64271 66.70625 88.15833Q66.22188 88.67396 66.22188 89.50208Z" fill-rule="nonzero"/><path fill="#000000" d="M111.84403 314.8719L111.84403 313.8094L115.09403 313.8094L115.09403 314.8719L111.84403 314.8719ZM115.96903 313.21564Q115.96903 311.6844 116.28153 310.7625Q116.59403 309.825 117.20341 309.325Q117.82841 308.825 118.76591 308.825Q119.45341 308.825 119.96903 309.10626Q120.50028 309.3875 120.84403 309.91876Q121.18778 310.4344 121.37528 311.1844Q121.56278 311.9344 121.56278 313.21564Q121.56278 314.73126 121.25028 315.65314Q120.95341 316.575 120.32841 317.09064Q119.71903 317.59064 118.76591 317.59064Q117.53153 317.59064 116.81278 316.7Q115.96903 315.6375 115.96903 313.21564ZM117.04716 313.21564Q117.04716 315.325 117.54716 316.02814Q118.04716 316.73126 118.76591 316.73126Q119.50028 316.73126 119.98466 316.02814Q120.48466 315.325 120.48466 313.21564Q120.48466 311.09064 119.98466 310.40314Q119.50028 309.7 118.75028 309.7Q118.03153 309.7 117.59403 310.3094Q117.04716 311.09064 117.04716 313.21564ZM123.56278 317.45L123.56278 316.2469L124.76591 316.2469L124.76591 317.45L123.56278 317.45ZM125.96903 313.21564Q125.96903 311.6844 126.28153 310.7625Q126.59403 309.825 127.20341 309.325Q127.82841 308.825 128.7659 308.825Q129.4534 308.825 129.96902 309.10626Q130.50027 309.3875 130.84402 309.91876Q131.18777 310.4344 131.37527 311.1844Q131.56277 311.9344 131.56277 313.21564Q131.56277 314.73126 131.25027 315.65314Q130.9534 316.575 130.3284 317.09064Q129.71902 317.59064 128.7659 317.59064Q127.53153 317.59064 126.81278 316.7Q125.96903 315.6375 125.96903 313.21564ZM127.04716 313.21564Q127.04716 315.325 127.54716 316.02814Q128.04715 316.73126 128.7659 316.73126Q129.50027 316.73126 129.98465 316.02814Q130.48465 315.325 130.48465 313.21564Q130.48465 311.09064 129.98465 310.40314Q129.50027 309.7 128.75027 309.7Q128.03152 309.7 127.59403 310.3094Q127.04716 311.09064 127.04716 313.21564ZM132.96902 313.21564Q132.96902 311.6844 133.28152 310.7625Q133.59402 309.825 134.2034 309.325Q134.8284 308.825 135.7659 308.825Q136.4534 308.825 136.96902 309.10626Q137.50027 309.3875 137.84402 309.91876Q138.18777 310.4344 138.37527 311.1844Q138.56277 311.9344 138.56277 313.21564Q138.56277 314.73126 138.25027 315.65314Q137.9534 316.575 137.3284 317.09064Q136.71902 317.59064 135.7659 317.59064Q134.53152 317.59064 133.81277 316.7Q132.96902 315.6375 132.96902 313.21564ZM134.04715 313.21564Q134.04715 315.325 134.54715 316.02814Q135.04715 316.73126 135.7659 316.73126Q136.50027 316.73126 136.98465 316.02814Q137.48465 315.325 137.48465 313.21564Q137.48465 311.09064 136.98465 310.40314Q136.50027 309.7 135.75027 309.7Q135.03152 309.7 134.59402 310.3094Q134.04715 311.09064 134.04715 313.21564ZM139.96902 313.21564Q139.96902 311.6844 140.28152 310.7625Q140.59402 309.825 141.2034 309.325Q141.8284 308.825 142.7659 308.825Q143.4534 308.825 143.96902 309.10626Q144.50027 309.3875 144.84402 309.91876Q145.18777 310.4344 145.37527 311.1844Q145.56277 311.9344 145.56277 313.21564Q145.56277 314.73126 145.25027 315.65314Q144.9534 316.575 144.3284 317.09064Q143.71902 317.59064 142.7659 317.59064Q141.53152 317.59064 140.81277 316.7Q139.96902 315.6375 139.96902 313.21564ZM141.04715 313.21564Q141.04715 315.325 141.54715 316.02814Q142.04715 316.73126 142.7659 316.73126Q143.50027 316.73126 143.98465 316.02814Q144.48465 315.325 144.48465 313.21564Q144.48465 311.09064 143.98465 310.40314Q143.50027 309.7 142.75027 309.7Q142.03152 309.7 141.59402 310.3094Q141.04715 311.09064 141.04715 313.21564ZM147.03152 309.98126L147.03152 308.96564L152.59402 308.96564L152.59402 309.79376Q151.78152 310.66876 150.96902 312.1219Q150.17215 313.5594 149.73465 315.09064Q149.40652 316.16876 149.3284 317.45L148.23465 317.45Q148.25027 316.4344 148.62527 314.9969Q149.0159 313.5594 149.71902 312.23126Q150.43777 310.90314 151.25027 309.98126L147.03152 309.98126ZM153.96902 315.2L155.0784 315.10626Q155.2034 315.91876 155.6409 316.325Q156.09402 316.73126 156.73465 316.73126Q157.48465 316.73126 158.0159 316.15314Q158.54715 315.575 158.54715 314.6375Q158.54715 313.73126 158.03152 313.21564Q157.53152 312.6844 156.7034 312.6844Q156.2034 312.6844 155.78152 312.91876Q155.37527 313.15314 155.1409 313.5125L154.15652 313.3875L154.98465 308.98126L159.2659 308.98126L159.2659 309.98126L155.8284 309.98126L155.37527 312.29376Q156.1409 311.7469 156.98465 311.7469Q158.10965 311.7469 158.87527 312.52814Q159.65652 313.3094 159.65652 314.54376Q159.65652 315.7 158.98465 316.5594Q158.15652 317.59064 156.73465 317.59064Q155.56277 317.59064 154.81277 316.9344Q154.0784 316.27814 153.96902 315.2Z" fill-rule="nonzero"/><path fill="#000000" d="M179.85435 314.8719L179.85435 313.8094L183.10435 313.8094L183.10435 314.8719L179.85435 314.8719ZM183.97935 313.21564Q183.97935 311.6844 184.29185 310.7625Q184.60435 309.825 185.21373 309.325Q185.83873 308.825 186.77623 308.825Q187.46373 308.825 187.97935 309.10626Q188.5106 309.3875 188.85435 309.91876Q189.1981 310.4344 189.3856 311.1844Q189.5731 311.9344 189.5731 313.21564Q189.5731 314.73126 189.2606 315.65314Q188.96373 316.575 188.33873 317.09064Q187.72935 317.59064 186.77623 317.59064Q185.54185 317.59064 184.8231 316.7Q183.97935 315.6375 183.97935 313.21564ZM185.05748 313.21564Q185.05748 315.325 185.55748 316.02814Q186.05748 316.73126 186.77623 316.73126Q187.5106 316.73126 187.99498 316.02814Q188.49498 315.325 188.49498 313.21564Q188.49498 311.09064 187.99498 310.40314Q187.5106 309.7 186.7606 309.7Q186.04185 309.7 185.60435 310.3094Q185.05748 311.09064 185.05748 313.21564ZM191.5731 317.45L191.5731 316.2469L192.77623 316.2469L192.77623 317.45L191.5731 317.45ZM193.97935 313.21564Q193.97935 311.6844 194.29185 310.7625Q194.60435 309.825 195.21373 309.325Q195.83873 308.825 196.77623 308.825Q197.46373 308.825 197.97935 309.10626Q198.5106 309.3875 198.85435 309.91876Q199.1981 310.4344 199.3856 311.1844Q199.5731 311.9344 199.5731 313.21564Q199.5731 314.73126 199.2606 315.65314Q198.96373 316.575 198.33873 317.09064Q197.72935 317.59064 196.77623 317.59064Q195.54185 317.59064 194.8231 316.7Q193.97935 315.6375 193.97935 313.21564ZM195.05748 313.21564Q195.05748 315.325 195.55748 316.02814Q196.05748 316.73126 196.77623 316.73126Q197.5106 316.73126 197.99498 316.02814Q198.49498 315.325 198.49498 313.21564Q198.49498 311.09064 197.99498 310.40314Q197.5106 309.7 196.7606 309.7Q196.04185 309.7 195.60435 310.3094Q195.05748 311.09064 195.05748 313.21564ZM200.97935 313.21564Q200.97935 311.6844 201.29185 310.7625Q201.60435 309.825 202.21373 309.325Q202.83873 308.825 203.77623 308.825Q204.46373 308.825 204.97935 309.10626Q205.5106 309.3875 205.85435 309.91876Q206.1981 310.4344 206.3856 311.1844Q206.5731 311.9344 206.5731 313.21564Q206.5731 314.73126 206.2606 315.65314Q205.96373 316.575 205.33873 317.09064Q204.72935 317.59064 203.77623 317.59064Q202.54185 317.59064 201.8231 316.7Q200.97935 315.6375 200.97935 313.21564ZM202.05748 313.21564Q202.05748 315.325 202.55748 316.02814Q203.05748 316.73126 203.77623 316.73126Q204.5106 316.73126 204.99498 316.02814Q205.49498 315.325 205.49498 313.21564Q205.49498 311.09064 204.99498 310.40314Q204.5106 309.7 203.7606 309.7Q203.04185 309.7 202.60435 310.3094Q202.05748 311.09064 202.05748 313.21564ZM207.97935 313.21564Q207.97935 311.6844 208.29185 310.7625Q208.60435 309.825 209.21373 309.325Q209.83873 308.825 210.77623 308.825Q211.46373 308.825 211.97935 309.10626Q212.5106 309.3875 212.85435 309.91876Q213.1981 310.4344 213.3856 311.1844Q213.5731 311.9344 213.5731 313.21564Q213.5731 314.73126 213.2606 315.65314Q212.96373 316.575 212.33873 317.09064Q211.72935 317.59064 210.77623 317.59064Q209.54185 317.59064 208.8231 316.7Q207.97935 315.6375 207.97935 313.21564ZM209.05748 313.21564Q209.05748 315.325 209.55748 316.02814Q210.05748 316.73126 210.77623 316.73126Q211.5106 316.73126 211.99498 316.02814Q212.49498 315.325 212.49498 313.21564Q212.49498 311.09064 211.99498 310.40314Q211.5106 309.7 210.7606 309.7Q210.04185 309.7 209.60435 310.3094Q209.05748 311.09064 209.05748 313.21564ZM214.97935 315.2L216.08873 315.10626Q216.21373 315.91876 216.65123 316.325Q217.10435 316.73126 217.74498 316.73126Q218.49498 316.73126 219.02623 316.15314Q219.55748 315.575 219.55748 314.6375Q219.55748 313.73126 219.04185 313.21564Q218.54185 312.6844 217.71373 312.6844Q217.21373 312.6844 216.79185 312.91876Q216.3856 313.15314 216.15123 313.5125L215.16685 313.3875L215.99498 308.98126L220.27623 308.98126L220.27623 309.98126L216.83873 309.98126L216.3856 312.29376Q217.15123 311.7469 217.99498 311.7469Q219.11998 311.7469 219.8856 312.52814Q220.66685 313.3094 220.66685 314.54376Q220.66685 315.7 219.99498 316.5594Q219.16685 317.59064 217.74498 317.59064Q216.5731 317.59064 215.8231 316.9344Q215.08873 316.27814 214.97935 315.2Z" fill-rule="nonzero"/><path fill="#000000" d="M240.86469 314.8719L240.86469 313.8094L244.11469 313.8094L244.11469 314.8719L240.86469 314.8719ZM244.98969 313.21564Q244.98969 311.6844 245.30219 310.7625Q245.61469 309.825 246.22406 309.325Q246.84906 308.825 247.78656 308.825Q248.47406 308.825 248.98969 309.10626Q249.52094 309.3875 249.86469 309.91876Q250.20844 310.4344 250.39594 311.1844Q250.58344 311.9344 250.58344 313.21564Q250.58344 314.73126 250.27094 315.65314Q249.97406 316.575 249.34906 317.09064Q248.73969 317.59064 247.78656 317.59064Q246.55219 317.59064 245.83344 316.7Q244.98969 315.6375 244.98969 313.21564ZM246.06781 313.21564Q246.06781 315.325 246.56781 316.02814Q247.06781 316.73126 247.78656 316.73126Q248.52094 316.73126 249.00531 316.02814Q249.50531 315.325 249.50531 313.21564Q249.50531 311.09064 249.00531 310.40314Q248.52094 309.7 247.77094 309.7Q247.05219 309.7 246.61469 310.3094Q246.06781 311.09064 246.06781 313.21564ZM252.58344 317.45L252.58344 316.2469L253.78656 316.2469L253.78656 317.45L252.58344 317.45ZM254.98969 313.21564Q254.98969 311.6844 255.30219 310.7625Q255.61469 309.825 256.22406 309.325Q256.84906 308.825 257.78656 308.825Q258.47406 308.825 258.9897 309.10626Q259.52094 309.3875 259.8647 309.91876Q260.20844 310.4344 260.39594 311.1844Q260.58344 311.9344 260.58344 313.21564Q260.58344 314.73126 260.27094 315.65314Q259.97406 316.575 259.34906 317.09064Q258.7397 317.59064 257.78656 317.59064Q256.5522 317.59064 255.83344 316.7Q254.98969 315.6375 254.98969 313.21564ZM256.0678 313.21564Q256.0678 315.325 256.5678 316.02814Q257.0678 316.73126 257.78656 316.73126Q258.52094 316.73126 259.0053 316.02814Q259.5053 315.325 259.5053 313.21564Q259.5053 311.09064 259.0053 310.40314Q258.52094 309.7 257.77094 309.7Q257.0522 309.7 256.6147 310.3094Q256.0678 311.09064 256.0678 313.21564ZM261.9897 313.21564Q261.9897 311.6844 262.3022 310.7625Q262.6147 309.825 263.22406 309.325Q263.84906 308.825 264.78656 308.825Q265.47406 308.825 265.9897 309.10626Q266.52094 309.3875 266.8647 309.91876Q267.20844 310.4344 267.39594 311.1844Q267.58344 311.9344 267.58344 313.21564Q267.58344 314.73126 267.27094 315.65314Q266.97406 316.575 266.34906 317.09064Q265.7397 317.59064 264.78656 317.59064Q263.5522 317.59064 262.83344 316.7Q261.9897 315.6375 261.9897 313.21564ZM263.0678 313.21564Q263.0678 315.325 263.5678 316.02814Q264.0678 316.73126 264.78656 316.73126Q265.52094 316.73126 266.0053 316.02814Q266.5053 315.325 266.5053 313.21564Q266.5053 311.09064 266.0053 310.40314Q265.52094 309.7 264.77094 309.7Q264.0522 309.7 263.6147 310.3094Q263.0678 311.09064 263.0678 313.21564ZM268.9897 313.21564Q268.9897 311.6844 269.3022 310.7625Q269.6147 309.825 270.22406 309.325Q270.84906 308.825 271.78656 308.825Q272.47406 308.825 272.9897 309.10626Q273.52094 309.3875 273.8647 309.91876Q274.20844 310.4344 274.39594 311.1844Q274.58344 311.9344 274.58344 313.21564Q274.58344 314.73126 274.27094 315.65314Q273.97406 316.575 273.34906 317.09064Q272.7397 317.59064 271.78656 317.59064Q270.5522 317.59064 269.83344 316.7Q268.9897 315.6375 268.9897 313.21564ZM270.0678 313.21564Q270.0678 315.325 270.5678 316.02814Q271.0678 316.73126 271.78656 316.73126Q272.52094 316.73126 273.0053 316.02814Q273.5053 315.325 273.5053 313.21564Q273.5053 311.09064 273.0053 310.40314Q272.52094 309.7 271.77094 309.7Q271.0522 309.7 270.6147 310.3094Q270.0678 311.09064 270.0678 313.21564ZM281.53656 316.4344L281.53656 317.45L275.84906 317.45Q275.84906 317.075 275.97406 316.71564Q276.1928 316.1375 276.66156 315.575Q277.14594 315.0125 278.0522 314.27814Q279.45844 313.1219 279.9428 312.45Q280.4428 311.77814 280.4428 311.1844Q280.4428 310.5594 279.9897 310.1375Q279.53656 309.7 278.8178 309.7Q278.0522 309.7 277.59906 310.15314Q277.14594 310.60626 277.1303 311.41876L276.0522 311.3094Q276.16156 310.09064 276.8803 309.46564Q277.6147 308.825 278.84906 308.825Q280.08344 308.825 280.8022 309.5125Q281.52094 310.2 281.52094 311.21564Q281.52094 311.73126 281.3022 312.23126Q281.09906 312.71564 280.59906 313.27814Q280.1147 313.825 278.9897 314.77814Q278.03656 315.575 277.7553 315.8719Q277.4897 316.15314 277.3178 316.4344L281.53656 316.4344ZM282.9897 315.2L284.09906 315.10626Q284.22406 315.91876 284.66156 316.325Q285.1147 316.73126 285.7553 316.73126Q286.5053 316.73126 287.03656 316.15314Q287.5678 315.575 287.5678 314.6375Q287.5678 313.73126 287.0522 313.21564Q286.5522 312.6844 285.72406 312.6844Q285.22406 312.6844 284.8022 312.91876Q284.39594 313.15314 284.16156 313.5125L283.1772 313.3875L284.0053 308.98126L288.28656 308.98126L288.28656 309.98126L284.84906 309.98126L284.39594 312.29376Q285.16156 311.7469 286.0053 311.7469Q287.1303 311.7469 287.89594 312.52814Q288.6772 313.3094 288.6772 314.54376Q288.6772 315.7 288.0053 316.5594Q287.1772 317.59064 285.7553 317.59064Q284.58344 317.59064 283.83344 316.9344Q283.09906 316.27814 282.9897 315.2Z" fill-rule="nonzero"/><path fill="#000000" d="M326.5 313.21564Q326.5 311.6844 326.8125 310.7625Q327.125 309.825 327.73438 309.325Q328.35938 308.825 329.29688 308.825Q329.98438 308.825 330.5 309.10626Q331.03125 309.3875 331.375 309.91876Q331.71875 310.4344 331.90625 311.1844Q332.09375 311.9344 332.09375 313.21564Q332.09375 314.73126 331.78125 315.65314Q331.48438 316.575 330.85938 317.09064Q330.25 317.59064 329.29688 317.59064Q328.0625 317.59064 327.34375 316.7Q326.5 315.6375 326.5 313.21564ZM327.57812 313.21564Q327.57812 315.325 328.07812 316.02814Q328.57812 316.73126 329.29688 316.73126Q330.03125 316.73126 330.51562 316.02814Q331.01562 315.325 331.01562 313.21564Q331.01562 311.09064 330.51562 310.40314Q330.03125 309.7 329.28125 309.7Q328.5625 309.7 328.125 310.3094Q327.57812 311.09064 327.57812 313.21564Z" fill-rule="nonzero"/><path fill="#000000" d="M372.0103 313.21564Q372.0103 311.6844 372.3228 310.7625Q372.6353 309.825 373.2447 309.325Q373.8697 308.825 374.8072 308.825Q375.4947 308.825 376.0103 309.10626Q376.54156 309.3875 376.8853 309.91876Q377.22906 310.4344 377.41656 311.1844Q377.60406 311.9344 377.60406 313.21564Q377.60406 314.73126 377.29156 315.65314Q376.9947 316.575 376.3697 317.09064Q375.7603 317.59064 374.8072 317.59064Q373.5728 317.59064 372.85406 316.7Q372.0103 315.6375 372.0103 313.21564ZM373.08844 313.21564Q373.08844 315.325 373.58844 316.02814Q374.08844 316.73126 374.8072 316.73126Q375.54156 316.73126 376.02594 316.02814Q376.52594 315.325 376.52594 313.21564Q376.52594 311.09064 376.02594 310.40314Q375.54156 309.7 374.79156 309.7Q374.0728 309.7 373.6353 310.3094Q373.08844 311.09064 373.08844 313.21564ZM379.60406 317.45L379.60406 316.2469L380.8072 316.2469L380.8072 317.45L379.60406 317.45ZM382.0103 313.21564Q382.0103 311.6844 382.3228 310.7625Q382.6353 309.825 383.2447 309.325Q383.8697 308.825 384.8072 308.825Q385.4947 308.825 386.0103 309.10626Q386.54156 309.3875 386.8853 309.91876Q387.22906 310.4344 387.41656 311.1844Q387.60406 311.9344 387.60406 313.21564Q387.60406 314.73126 387.29156 315.65314Q386.9947 316.575 386.3697 317.09064Q385.7603 317.59064 384.8072 317.59064Q383.5728 317.59064 382.85406 316.7Q382.0103 315.6375 382.0103 313.21564ZM383.08844 313.21564Q383.08844 315.325 383.58844 316.02814Q384.08844 316.73126 384.8072 316.73126Q385.54156 316.73126 386.02594 316.02814Q386.52594 315.325 386.52594 313.21564Q386.52594 311.09064 386.02594 310.40314Q385.54156 309.7 384.79156 309.7Q384.0728 309.7 383.6353 310.3094Q383.08844 311.09064 383.08844 313.21564ZM389.0103 313.21564Q389.0103 311.6844 389.3228 310.7625Q389.6353 309.825 390.2447 309.325Q390.8697 308.825 391.8072 308.825Q392.4947 308.825 393.0103 309.10626Q393.54156 309.3875 393.8853 309.91876Q394.22906 310.4344 394.41656 311.1844Q394.60406 311.9344 394.60406 313.21564Q394.60406 314.73126 394.29156 315.65314Q393.9947 316.575 393.3697 317.09064Q392.7603 317.59064 391.8072 317.59064Q390.5728 317.59064 389.85406 316.7Q389.0103 315.6375 389.0103 313.21564ZM390.08844 313.21564Q390.08844 315.325 390.58844 316.02814Q391.08844 316.73126 391.8072 316.73126Q392.54156 316.73126 393.02594 316.02814Q393.52594 315.325 393.52594 313.21564Q393.52594 311.09064 393.02594 310.40314Q392.54156 309.7 391.79156 309.7Q391.0728 309.7 390.6353 310.3094Q390.08844 311.09064 390.08844 313.21564ZM396.0103 313.21564Q396.0103 311.6844 396.3228 310.7625Q396.6353 309.825 397.2447 309.325Q397.8697 308.825 398.8072 308.825Q399.4947 308.825 400.0103 309.10626Q400.54156 309.3875 400.8853 309.91876Q401.22906 310.4344 401.41656 311.1844Q401.60406 311.9344 401.60406 313.21564Q401.60406 314.73126 401.29156 315.65314Q400.9947 316.575 400.3697 317.09064Q399.7603 317.59064 398.8072 317.59064Q397.5728 317.59064 396.85406 316.7Q396.0103 315.6375 396.0103 313.21564ZM397.08844 313.21564Q397.08844 315.325 397.58844 316.02814Q398.08844 316.73126 398.8072 316.73126Q399.54156 316.73126 400.02594 316.02814Q400.52594 315.325 400.52594 313.21564Q400.52594 311.09064 400.02594 310.40314Q399.54156 309.7 398.79156 309.7Q398.0728 309.7 397.6353 310.3094Q397.08844 311.09064 397.08844 313.21564ZM408.5572 316.4344L408.5572 317.45L402.8697 317.45Q402.8697 317.075 402.9947 316.71564Q403.21344 316.1375 403.6822 315.575Q404.16656 315.0125 405.0728 314.27814Q406.47906 313.1219 406.96344 312.45Q407.46344 311.77814 407.46344 311.1844Q407.46344 310.5594 407.0103 310.1375Q406.5572 309.7 405.83844 309.7Q405.0728 309.7 404.6197 310.15314Q404.16656 310.60626 404.15094 311.41876L403.0728 311.3094Q403.1822 310.09064 403.90094 309.46564Q404.6353 308.825 405.8697 308.825Q407.10406 308.825 407.8228 309.5125Q408.54156 310.2 408.54156 311.21564Q408.54156 311.73126 408.3228 312.23126Q408.1197 312.71564 407.6197 313.27814Q407.1353 313.825 406.0103 314.77814Q405.0572 315.575 404.77594 315.8719Q404.5103 316.15314 404.33844 316.4344L408.5572 316.4344ZM410.0103 315.2L411.1197 315.10626Q411.2447 315.91876 411.6822 316.325Q412.1353 316.73126 412.77594 316.73126Q413.52594 316.73126 414.0572 316.15314Q414.58844 315.575 414.58844 314.6375Q414.58844 313.73126 414.0728 313.21564Q413.5728 312.6844 412.7447 312.6844Q412.2447 312.6844 411.8228 312.91876Q411.41656 313.15314 411.1822 313.5125L410.1978 313.3875L411.02594 308.98126L415.3072 308.98126L415.3072 309.98126L411.8697 309.98126L411.41656 312.29376Q412.1822 311.7469 413.02594 311.7469Q414.15094 311.7469 414.91656 312.52814Q415.6978 313.3094 415.6978 314.54376Q415.6978 315.7 415.02594 316.5594Q414.1978 317.59064 412.77594 317.59064Q411.60406 317.59064 410.85406 316.9344Q410.1197 316.27814 410.0103 315.2Z" fill-rule="nonzero"/><path fill="#000000" d="M440.02063 313.21564Q440.02063 311.6844 440.33313 310.7625Q440.64563 309.825 441.255 309.325Q441.88 308.825 442.8175 308.825Q443.505 308.825 444.02063 309.10626Q444.55188 309.3875 444.89563 309.91876Q445.23938 310.4344 445.42688 311.1844Q445.61438 311.9344 445.61438 313.21564Q445.61438 314.73126 445.30188 315.65314Q445.005 316.575 444.38 317.09064Q443.77063 317.59064 442.8175 317.59064Q441.58313 317.59064 440.86438 316.7Q440.02063 315.6375 440.02063 313.21564ZM441.09875 313.21564Q441.09875 315.325 441.59875 316.02814Q442.09875 316.73126 442.8175 316.73126Q443.55188 316.73126 444.03625 316.02814Q444.53625 315.325 444.53625 313.21564Q444.53625 311.09064 444.03625 310.40314Q443.55188 309.7 442.80188 309.7Q442.08313 309.7 441.64563 310.3094Q441.09875 311.09064 441.09875 313.21564ZM447.61438 317.45L447.61438 316.2469L448.8175 316.2469L448.8175 317.45L447.61438 317.45ZM450.02063 313.21564Q450.02063 311.6844 450.33313 310.7625Q450.64563 309.825 451.255 309.325Q451.88 308.825 452.8175 308.825Q453.505 308.825 454.02063 309.10626Q454.55188 309.3875 454.89563 309.91876Q455.23938 310.4344 455.42688 311.1844Q455.61438 311.9344 455.61438 313.21564Q455.61438 314.73126 455.30188 315.65314Q455.005 316.575 454.38 317.09064Q453.77063 317.59064 452.8175 317.59064Q451.58313 317.59064 450.86438 316.7Q450.02063 315.6375 450.02063 313.21564ZM451.09875 313.21564Q451.09875 315.325 451.59875 316.02814Q452.09875 316.73126 452.8175 316.73126Q453.55188 316.73126 454.03625 316.02814Q454.53625 315.325 454.53625 313.21564Q454.53625 311.09064 454.03625 310.40314Q453.55188 309.7 452.80188 309.7Q452.08313 309.7 451.64563 310.3094Q451.09875 311.09064 451.09875 313.21564ZM457.02063 313.21564Q457.02063 311.6844 457.33313 310.7625Q457.64563 309.825 458.255 309.325Q458.88 308.825 459.8175 308.825Q460.505 308.825 461.02063 309.10626Q461.55188 309.3875 461.89563 309.91876Q462.23938 310.4344 462.42688 311.1844Q462.61438 311.9344 462.61438 313.21564Q462.61438 314.73126 462.30188 315.65314Q462.005 316.575 461.38 317.09064Q460.77063 317.59064 459.8175 317.59064Q458.58313 317.59064 457.86438 316.7Q457.02063 315.6375 457.02063 313.21564ZM458.09875 313.21564Q458.09875 315.325 458.59875 316.02814Q459.09875 316.73126 459.8175 316.73126Q460.55188 316.73126 461.03625 316.02814Q461.53625 315.325 461.53625 313.21564Q461.53625 311.09064 461.03625 310.40314Q460.55188 309.7 459.80188 309.7Q459.08313 309.7 458.64563 310.3094Q458.09875 311.09064 458.09875 313.21564ZM464.02063 313.21564Q464.02063 311.6844 464.33313 310.7625Q464.64563 309.825 465.255 309.325Q465.88 308.825 466.8175 308.825Q467.505 308.825 468.02063 309.10626Q468.55188 309.3875 468.89563 309.91876Q469.23938 310.4344 469.42688 311.1844Q469.61438 311.9344 469.61438 313.21564Q469.61438 314.73126 469.30188 315.65314Q469.005 316.575 468.38 317.09064Q467.77063 317.59064 466.8175 317.59064Q465.58313 317.59064 464.86438 316.7Q464.02063 315.6375 464.02063 313.21564ZM465.09875 313.21564Q465.09875 315.325 465.59875 316.02814Q466.09875 316.73126 466.8175 316.73126Q467.55188 316.73126 468.03625 316.02814Q468.53625 315.325 468.53625 313.21564Q468.53625 311.09064 468.03625 310.40314Q467.55188 309.7 466.80188 309.7Q466.08313 309.7 465.64563 310.3094Q465.09875 311.09064 465.09875 313.21564ZM471.02063 315.2L472.13 315.10626Q472.255 315.91876 472.6925 316.325Q473.14563 316.73126 473.78625 316.73126Q474.53625 316.73126 475.0675 316.15314Q475.59875 315.575 475.59875 314.6375Q475.59875 313.73126 475.08313 313.21564Q474.58313 312.6844 473.755 312.6844Q473.255 312.6844 472.83313 312.91876Q472.42688 313.15314 472.1925 313.5125L471.20813 313.3875L472.03625 308.98126L476.3175 308.98126L476.3175 309.98126L472.88 309.98126L472.42688 312.29376Q473.1925 311.7469 474.03625 311.7469Q475.16125 311.7469 475.92688 312.52814Q476.70813 313.3094 476.70813 314.54376Q476.70813 315.7 476.03625 316.5594Q475.20813 317.59064 473.78625 317.59064Q472.61438 317.59064 471.86438 316.9344Q471.13 316.27814 471.02063 315.2Z" fill-rule="nonzero"/><path fill="#000000" d="M501.03098 313.21564Q501.03098 311.6844 501.34348 310.7625Q501.65598 309.825 502.26535 309.325Q502.89035 308.825 503.82785 308.825Q504.51535 308.825 505.03098 309.10626Q505.56223 309.3875 505.90598 309.91876Q506.24973 310.4344 506.43723 311.1844Q506.62473 311.9344 506.62473 313.21564Q506.62473 314.73126 506.31223 315.65314Q506.01535 316.575 505.39035 317.09064Q504.78098 317.59064 503.82785 317.59064Q502.59348 317.59064 501.87473 316.7Q501.03098 315.6375 501.03098 313.21564ZM502.1091 313.21564Q502.1091 315.325 502.6091 316.02814Q503.1091 316.73126 503.82785 316.73126Q504.56223 316.73126 505.0466 316.02814Q505.5466 315.325 505.5466 313.21564Q505.5466 311.09064 505.0466 310.40314Q504.56223 309.7 503.81223 309.7Q503.09348 309.7 502.65598 310.3094Q502.1091 311.09064 502.1091 313.21564ZM508.62473 317.45L508.62473 316.2469L509.82785 316.2469L509.82785 317.45L508.62473 317.45ZM511.03098 313.21564Q511.03098 311.6844 511.34348 310.7625Q511.65598 309.825 512.2654 309.325Q512.8904 308.825 513.8279 308.825Q514.5154 308.825 515.031 309.10626Q515.56226 309.3875 515.906 309.91876Q516.24976 310.4344 516.43726 311.1844Q516.62476 311.9344 516.62476 313.21564Q516.62476 314.73126 516.31226 315.65314Q516.0154 316.575 515.3904 317.09064Q514.781 317.59064 513.8279 317.59064Q512.5935 317.59064 511.87473 316.7Q511.03098 315.6375 511.03098 313.21564ZM512.10913 313.21564Q512.10913 315.325 512.60913 316.02814Q513.10913 316.73126 513.8279 316.73126Q514.56226 316.73126 515.04663 316.02814Q515.54663 315.325 515.54663 313.21564Q515.54663 311.09064 515.04663 310.40314Q514.56226 309.7 513.81226 309.7Q513.0935 309.7 512.656 310.3094Q512.10913 311.09064 512.10913 313.21564ZM518.031 313.21564Q518.031 311.6844 518.3435 310.7625Q518.656 309.825 519.2654 309.325Q519.8904 308.825 520.8279 308.825Q521.5154 308.825 522.031 309.10626Q522.56226 309.3875 522.906 309.91876Q523.24976 310.4344 523.43726 311.1844Q523.62476 311.9344 523.62476 313.21564Q523.62476 314.73126 523.31226 315.65314Q523.0154 316.575 522.3904 317.09064Q521.781 317.59064 520.8279 317.59064Q519.5935 317.59064 518.87476 316.7Q518.031 315.6375 518.031 313.21564ZM519.10913 313.21564Q519.10913 315.325 519.60913 316.02814Q520.10913 316.73126 520.8279 316.73126Q521.56226 316.73126 522.04663 316.02814Q522.54663 315.325 522.54663 313.21564Q522.54663 311.09064 522.04663 310.40314Q521.56226 309.7 520.81226 309.7Q520.0935 309.7 519.656 310.3094Q519.10913 311.09064 519.10913 313.21564ZM525.031 313.21564Q525.031 311.6844 525.3435 310.7625Q525.656 309.825 526.2654 309.325Q526.8904 308.825 527.8279 308.825Q528.5154 308.825 529.031 309.10626Q529.56226 309.3875 529.906 309.91876Q530.24976 310.4344 530.43726 311.1844Q530.62476 311.9344 530.62476 313.21564Q530.62476 314.73126 530.31226 315.65314Q530.0154 316.575 529.3904 317.09064Q528.781 317.59064 527.8279 317.59064Q526.5935 317.59064 525.87476 316.7Q525.031 315.6375 525.031 313.21564ZM526.10913 313.21564Q526.10913 315.325 526.60913 316.02814Q527.10913 316.73126 527.8279 316.73126Q528.56226 316.73126 529.04663 316.02814Q529.54663 315.325 529.54663 313.21564Q529.54663 311.09064 529.04663 310.40314Q528.56226 309.7 527.81226 309.7Q527.0935 309.7 526.656 310.3094Q526.10913 311.09064 526.10913 313.21564ZM532.0935 309.98126L532.0935 308.96564L537.656 308.96564L537.656 309.79376Q536.8435 310.66876 536.031 312.1219Q535.23413 313.5594 534.79663 315.09064Q534.4685 316.16876 534.3904 317.45L533.29663 317.45Q533.31226 316.4344 533.68726 314.9969Q534.0779 313.5594 534.781 312.23126Q535.49976 310.90314 536.31226 309.98126L532.0935 309.98126ZM539.031 315.2L540.1404 315.10626Q540.2654 315.91876 540.7029 316.325Q541.156 316.73126 541.79663 316.73126Q542.54663 316.73126 543.0779 316.15314Q543.60913 315.575 543.60913 314.6375Q543.60913 313.73126 543.0935 313.21564Q542.5935 312.6844 541.7654 312.6844Q541.2654 312.6844 540.8435 312.91876Q540.43726 313.15314 540.2029 313.5125L539.2185 313.3875L540.04663 308.98126L544.3279 308.98126L544.3279 309.98126L540.8904 309.98126L540.43726 312.29376Q541.2029 311.7469 542.04663 311.7469Q543.17163 311.7469 543.93726 312.52814Q544.7185 313.3094 544.7185 314.54376Q544.7185 315.7 544.04663 316.5594Q543.2185 317.59064 541.79663 317.59064Q540.62476 317.59064 539.87476 316.9344Q539.1404 316.27814 539.031 315.2Z" fill-rule="nonzero"/><path fill="#4285f4" d="M202.5 61.916668C202.5 65.23038 199.8137 67.916664 196.5 67.916664C193.1863 67.916664 190.5 65.23038 190.5 61.916668C190.5 58.60296 193.1863 55.916668 196.5 55.916668C199.8137 55.916668 202.5 58.60296 202.5 61.916668Z" fill-rule="nonzero"/><path fill="#1a1a1a" d="M213.875 65.916664L210.54688 57.322914L211.78125 57.322914L214.01562 63.572914Q214.28125 64.322914 214.46875 64.979164Q214.67188 64.27604 214.9375 63.572914L217.25 57.322914L218.40625 57.322914L215.04688 65.916664L213.875 65.916664ZM218.90625 62.80729Q218.90625 61.072914 219.85938 60.24479Q220.65625 59.55729 221.8125 59.55729Q223.09375 59.55729 223.90625 60.40104Q224.73438 61.229164 224.73438 62.71354Q224.73438 63.916664 224.375 64.604164Q224.01562 65.291664 223.3125 65.68229Q222.625 66.05729 221.8125 66.05729Q220.51562 66.05729 219.70312 65.229164Q218.90625 64.385414 218.90625 62.80729ZM219.98438 62.80729Q219.98438 63.99479 220.5 64.58854Q221.03125 65.18229 221.8125 65.18229Q222.60938 65.18229 223.125 64.58854Q223.64062 63.99479 223.64062 62.77604Q223.64062 61.61979 223.10938 61.02604Q222.59375 60.43229 221.8125 60.43229Q221.03125 60.43229 220.5 61.02604Q219.98438 61.604164 219.98438 62.80729ZM226.26562 65.916664L226.26562 57.322914L227.32812 57.322914L227.32812 65.916664L226.26562 65.916664ZM231.59375 64.979164L231.75 65.90104Q231.29688 65.99479 230.95312 65.99479Q230.375 65.99479 230.0625 65.822914Q229.75 65.635414 229.60938 65.33854Q229.48438 65.041664 229.48438 64.08854L229.48438 60.510414L228.71875 60.510414L228.71875 59.697914L229.48438 59.697914L229.48438 58.15104L230.53125 57.52604L230.53125 59.697914L231.59375 59.697914L231.59375 60.510414L230.53125 60.510414L230.53125 64.15104Q230.53125 64.604164 230.57812 64.729164Q230.64062 64.854164 230.76562 64.93229Q230.89062 65.010414 231.125 65.010414Q231.3125 65.010414 231.59375 64.979164ZM236.35938 65.15104Q235.76562 65.65104 235.21875 65.854164Q234.6875 66.05729 234.0625 66.05729Q233.03125 66.05729 232.48438 65.55729Q231.9375 65.05729 231.9375 64.27604Q231.9375 63.822914 232.14062 63.447914Q232.34375 63.05729 232.6875 62.83854Q233.03125 62.604164 233.45312 62.49479Q233.75 62.40104 234.39062 62.322914Q235.65625 62.18229 236.26562 61.96354Q236.26562 61.74479 236.26562 61.697914Q236.26562 61.041664 235.96875 60.77604Q235.5625 60.43229 234.76562 60.43229Q234.03125 60.43229 233.67188 60.697914Q233.3125 60.947914 233.14062 61.604164L232.10938 61.46354Q232.25 60.80729 232.57812 60.40104Q232.90625 59.99479 233.51562 59.77604Q234.125 59.55729 234.92188 59.55729Q235.71875 59.55729 236.21875 59.74479Q236.71875 59.93229 236.95312 60.21354Q237.1875 60.49479 237.28125 60.93229Q237.32812 61.197914 237.32812 61.90104L237.32812 63.30729Q237.32812 64.77604 237.39062 65.166664Q237.46875 65.55729 237.67188 65.916664L236.5625 65.916664Q236.40625 65.58854 236.35938 65.15104ZM236.26562 62.791664Q235.6875 63.02604 234.54688 63.197914Q233.89062 63.291664 233.625 63.416664Q233.35938 63.52604 233.20312 63.74479Q233.0625 63.96354 233.0625 64.24479Q233.0625 64.666664 233.375 64.947914Q233.70312 65.229164 234.3125 65.229164Q234.92188 65.229164 235.39062 64.96354Q235.875 64.697914 236.09375 64.229164Q236.26562 63.86979 236.26562 63.18229L236.26562 62.791664ZM239.09375 66.43229L240.125 66.58854Q240.1875 67.05729 240.48438 67.27604Q240.875 67.572914 241.54688 67.572914Q242.28125 67.572914 242.67188 67.27604Q243.07812 66.979164 243.21875 66.46354Q243.3125 66.135414 243.29688 65.104164Q242.60938 65.916664 241.57812 65.916664Q240.29688 65.916664 239.59375 64.99479Q238.89062 64.05729 238.89062 62.77604Q238.89062 61.885414 239.20312 61.135414Q239.53125 60.36979 240.14062 59.96354Q240.75 59.55729 241.57812 59.55729Q242.6875 59.55729 243.40625 60.447914L243.40625 59.697914L244.375 59.697914L244.375 65.072914Q244.375 66.52604 244.07812 67.135414Q243.78125 67.74479 243.14062 68.08854Q242.5 68.447914 241.5625 68.447914Q240.45312 68.447914 239.76562 67.947914Q239.07812 67.447914 239.09375 66.43229ZM239.96875 62.697914Q239.96875 63.916664 240.45312 64.479164Q240.9375 65.041664 241.67188 65.041664Q242.40625 65.041664 242.89062 64.479164Q243.39062 63.916664 243.39062 62.729164Q243.39062 61.58854 242.875 61.010414Q242.375 60.43229 241.65625 60.43229Q240.95312 60.43229 240.45312 61.010414Q239.96875 61.572914 239.96875 62.697914ZM250.54688 63.916664L251.64062 64.041664Q251.39062 64.99479 250.6875 65.52604Q249.98438 66.05729 248.90625 66.05729Q247.54688 66.05729 246.73438 65.21354Q245.9375 64.36979 245.9375 62.854164Q245.9375 61.291664 246.75 60.43229Q247.5625 59.55729 248.84375 59.55729Q250.09375 59.55729 250.875 60.40104Q251.67188 61.24479 251.67188 62.791664Q251.67188 62.885414 251.67188 63.072914L247.03125 63.072914Q247.09375 64.104164 247.60938 64.65104Q248.125 65.18229 248.90625 65.18229Q249.48438 65.18229 249.89062 64.885414Q250.3125 64.572914 250.54688 63.916664ZM247.09375 62.21354L250.5625 62.21354Q250.5 61.416664 250.17188 61.02604Q249.65625 60.416664 248.85938 60.416664Q248.125 60.416664 247.625 60.90104Q247.14062 61.385414 247.09375 62.21354ZM258.3125 68.447914Q257.4375 67.33854 256.82812 65.86979Q256.23438 64.385414 256.23438 62.80729Q256.23438 61.416664 256.67188 60.135414Q257.20312 58.65104 258.3125 57.18229L259.0625 57.18229Q258.35938 58.40104 258.125 58.916664Q257.76562 59.729164 257.5625 60.604164Q257.3125 61.697914 257.3125 62.80729Q257.3125 65.635414 259.0625 68.447914L258.3125 68.447914ZM262.875 65.916664L259.54688 57.322914L260.78125 57.322914L263.01562 63.572914Q263.28125 64.322914 263.46875 64.979164Q263.67188 64.27604 263.9375 63.572914L266.25 57.322914L267.40625 57.322914L264.04688 65.916664L262.875 65.916664ZM268.98438 68.447914L268.23438 68.447914Q269.98438 65.635414 269.98438 62.80729Q269.98438 61.71354 269.73438 60.61979Q269.53125 59.74479 269.17188 58.93229Q268.9375 58.416664 268.23438 57.18229L268.98438 57.18229Q270.07812 58.65104 270.60938 60.135414Q271.0625 61.416664 271.0625 62.80729Q271.0625 64.385414 270.45312 65.86979Q269.84375 67.33854 268.98438 68.447914Z" fill-rule="nonzero"/><path stroke="#4285f4" stroke-width="4.0" stroke-linecap="butt" stroke-opacity="0.4" d="M287.5 61.916668L299.5 61.916668" fill-rule="nonzero"/><path fill="#1a1a1a" d="M308.0 63.666664L309.10938 63.572914Q309.23438 64.385414 309.67188 64.791664Q310.125 65.197914 310.76562 65.197914Q311.51562 65.197914 312.04688 64.61979Q312.57812 64.041664 312.57812 63.104164Q312.57812 62.197914 312.0625 61.68229Q311.5625 61.15104 310.73438 61.15104Q310.23438 61.15104 309.8125 61.385414Q309.40625 61.61979 309.17188 61.979164L308.1875 61.854164L309.01562 57.447914L313.29688 57.447914L313.29688 58.447914L309.85938 58.447914L309.40625 60.760414Q310.17188 60.21354 311.01562 60.21354Q312.14062 60.21354 312.90625 60.99479Q313.6875 61.77604 313.6875 63.010414Q313.6875 64.166664 313.01562 65.02604Q312.1875 66.05729 310.76562 66.05729Q309.59375 66.05729 308.84375 65.40104Q308.10938 64.74479 308.0 63.666664ZM320.54688 64.90104L320.54688 65.916664L314.85938 65.916664Q314.85938 65.541664 314.98438 65.18229Q315.20312 64.604164 315.67188 64.041664Q316.15625 63.479164 317.0625 62.74479Q318.46875 61.58854 318.95312 60.916664Q319.45312 60.24479 319.45312 59.65104Q319.45312 59.02604 319.0 58.604164Q318.54688 58.166664 317.82812 58.166664Q317.0625 58.166664 316.60938 58.61979Q316.15625 59.072914 316.14062 59.885414L315.0625 59.77604Q315.17188 58.55729 315.89062 57.93229Q316.625 57.291664 317.85938 57.291664Q319.09375 57.291664 319.8125 57.979164Q320.53125 58.666664 320.53125 59.68229Q320.53125 60.197914 320.3125 60.697914Q320.10938 61.18229 319.60938 61.74479Q319.125 62.291664 318.0 63.24479Q317.04688 64.041664 316.76562 64.33854Q316.5 64.61979 316.32812 64.90104L320.54688 64.90104ZM322.0 63.666664L323.10938 63.572914Q323.23438 64.385414 323.67188 64.791664Q324.125 65.197914 324.76562 65.197914Q325.51562 65.197914 326.04688 64.61979Q326.57812 64.041664 326.57812 63.104164Q326.57812 62.197914 326.0625 61.68229Q325.5625 61.15104 324.73438 61.15104Q324.23438 61.15104 323.8125 61.385414Q323.40625 61.61979 323.17188 61.979164L322.1875 61.854164L323.01562 57.447914L327.29688 57.447914L327.29688 58.447914L323.85938 58.447914L323.40625 60.760414Q324.17188 60.21354 325.01562 60.21354Q326.14062 60.21354 326.90625 60.99479Q327.6875 61.77604 327.6875 63.010414Q327.6875 64.166664 327.01562 65.02604Q326.1875 66.05729 324.76562 66.05729Q323.59375 66.05729 322.84375 65.40104Q322.10938 64.74479 322.0 63.666664ZM330.625 61.260414Q329.96875 61.010414 329.64062 60.572914Q329.32812 60.11979 329.32812 59.510414Q329.32812 58.572914 330.0 57.93229Q330.6875 57.291664 331.79688 57.291664Q332.92188 57.291664 333.60938 57.947914Q334.29688 58.604164 334.29688 59.541664Q334.29688 60.135414 333.98438 60.572914Q333.67188 61.010414 333.03125 61.260414Q333.82812 61.510414 334.23438 62.08854Q334.64062 62.666664 334.64062 63.46354Q334.64062 64.55729 333.85938 65.30729Q333.09375 66.05729 331.8125 66.05729Q330.54688 66.05729 329.76562 65.30729Q328.98438 64.55729 328.98438 63.43229Q328.98438 62.58854 329.40625 62.02604Q329.84375 61.46354 330.625 61.260414ZM330.40625 59.46354Q330.40625 60.072914 330.79688 60.46354Q331.20312 60.854164 331.82812 60.854164Q332.4375 60.854164 332.82812 60.479164Q333.21875 60.08854 333.21875 59.52604Q333.21875 58.947914 332.8125 58.55729Q332.40625 58.15104 331.8125 58.15104Q331.20312 58.15104 330.79688 58.541664Q330.40625 58.93229 330.40625 59.46354ZM330.07812 63.43229Q330.07812 63.885414 330.28125 64.30729Q330.5 64.729164 330.92188 64.96354Q331.34375 65.197914 331.82812 65.197914Q332.57812 65.197914 333.0625 64.71354Q333.5625 64.229164 333.5625 63.479164Q333.5625 62.71354 333.0625 62.21354Q332.5625 61.71354 331.79688 61.71354Q331.04688 61.71354 330.5625 62.21354Q330.07812 62.697914 330.07812 63.43229ZM335.875 58.90104L336.14062 58.072914Q337.07812 58.40104 337.5 58.635414Q337.39062 57.572914 337.375 57.18229L338.23438 57.18229Q338.21875 57.760414 338.09375 58.635414Q338.70312 58.322914 339.48438 58.072914L339.75 58.90104Q339.0 59.15104 338.29688 59.229164Q338.64062 59.541664 339.29688 60.33854L338.59375 60.83854Q338.25 60.36979 337.79688 59.572914Q337.35938 60.40104 337.03125 60.83854L336.34375 60.33854Q337.01562 59.49479 337.3125 59.229164Q336.5625 59.08854 335.875 58.90104ZM340.59375 65.916664L342.85938 62.68229L340.76562 59.697914L342.07812 59.697914L343.03125 61.15104Q343.29688 61.572914 343.46875 61.854164Q343.71875 61.46354 343.9375 61.166664L344.98438 59.697914L346.25 59.697914L344.09375 62.61979L346.40625 65.916664L345.125 65.916664L343.84375 63.979164L343.5 63.46354L341.85938 65.916664L340.59375 65.916664ZM352.5 64.52604L352.5 62.166664L350.17188 62.166664L350.17188 61.18229L352.5 61.18229L352.5 58.854164L353.5 58.854164L353.5 61.18229L355.84375 61.18229L355.84375 62.166664L353.5 62.166664L353.5 64.52604L352.5 64.52604ZM363.96875 65.916664L362.92188 65.916664L362.92188 59.197914Q362.53125 59.55729 361.90625 59.93229Q361.29688 60.291664 360.8125 60.46354L360.8125 59.447914Q361.6875 59.02604 362.34375 58.447914Q363.01562 57.854164 363.29688 57.291664L363.96875 57.291664L363.96875 65.916664ZM367.59375 65.916664L367.59375 64.71354L368.79688 64.71354L368.79688 65.916664L367.59375 65.916664ZM373.96875 65.916664L372.92188 65.916664L372.92188 59.197914Q372.53125 59.55729 371.90625 59.93229Q371.29688 60.291664 370.8125 60.46354L370.8125 59.447914Q371.6875 59.02604 372.34375 58.447914Q373.01562 57.854164 373.29688 57.291664L373.96875 57.291664L373.96875 65.916664ZM380.375 65.916664L380.375 63.854164L376.65625 63.854164L376.65625 62.885414L380.57812 57.322914L381.4375 57.322914L381.4375 62.885414L382.59375 62.885414L382.59375 63.854164L381.4375 63.854164L381.4375 65.916664L380.375 65.916664ZM380.375 62.885414L380.375 59.02604L377.6875 62.885414L380.375 62.885414ZM384.45312 65.916664L384.45312 57.322914L390.65625 57.322914L390.65625 58.33854L385.59375 58.33854L385.59375 60.96354L390.34375 60.96354L390.34375 61.979164L385.59375 61.979164L385.59375 64.90104L390.85938 64.90104L390.85938 65.916664L384.45312 65.916664ZM391.875 63.33854L391.875 62.27604L395.125 62.27604L395.125 63.33854L391.875 63.33854ZM396.0 61.68229Q396.0 60.15104 396.3125 59.229164Q396.625 58.291664 397.23438 57.791664Q397.85938 57.291664 398.79688 57.291664Q399.48438 57.291664 400.0 57.572914Q400.53125 57.854164 400.875 58.385414Q401.21875 58.90104 401.40625 59.65104Q401.59375 60.40104 401.59375 61.68229Q401.59375 63.197914 401.28125 64.11979Q400.98438 65.041664 400.35938 65.55729Q399.75 66.05729 398.79688 66.05729Q397.5625 66.05729 396.84375 65.166664Q396.0 64.104164 396.0 61.68229ZM397.07812 61.68229Q397.07812 63.791664 397.57812 64.49479Q398.07812 65.197914 398.79688 65.197914Q399.53125 65.197914 400.01562 64.49479Q400.51562 63.791664 400.51562 61.68229Q400.51562 59.55729 400.01562 58.86979Q399.53125 58.166664 398.78125 58.166664Q398.0625 58.166664 397.625 58.77604Q397.07812 59.55729 397.07812 61.68229ZM403.0 63.65104L404.0625 63.510414Q404.23438 64.40104 404.67188 64.80729Q405.10938 65.197914 405.73438 65.197914Q406.48438 65.197914 407.0 64.68229Q407.51562 64.166664 407.51562 63.40104Q407.51562 62.68229 407.03125 62.21354Q406.5625 61.729164 405.82812 61.729164Q405.53125 61.729164 405.07812 61.854164L405.20312 60.916664Q405.3125 60.93229 405.375 60.93229Q406.04688 60.93229 406.57812 60.58854Q407.125 60.229164 407.125 59.49479Q407.125 58.916664 406.73438 58.541664Q406.34375 58.15104 405.71875 58.15104Q405.10938 58.15104 404.6875 58.541664Q404.28125 58.93229 404.17188 59.697914L403.10938 59.510414Q403.29688 58.46354 403.98438 57.885414Q404.67188 57.291664 405.6875 57.291664Q406.39062 57.291664 406.98438 57.604164Q407.57812 57.90104 407.89062 58.416664Q408.20312 58.93229 408.20312 59.52604Q408.20312 60.072914 407.90625 60.541664Q407.60938 60.99479 407.03125 61.260414Q407.78125 61.43229 408.20312 61.99479Q408.625 62.541664 408.625 63.385414Q408.625 64.510414 407.79688 65.291664Q406.98438 66.072914 405.73438 66.072914Q404.60938 66.072914 403.85938 65.40104Q403.10938 64.71354 403.0 63.65104Z" fill-rule="nonzero"/><path fill="#757575" d="M24.190624 37.55L18.64375 23.2375L20.690624 23.2375L24.409374 33.628124Q24.8625 34.878124 25.159374 35.971874Q25.4875 34.8 25.940624 33.628124L29.8 23.2375L31.7375 23.2375L26.128124 37.55L24.190624 37.55ZM32.221874 32.3625Q32.221874 29.4875 33.815624 28.096874Q35.159374 26.940624 37.08125 26.940624Q39.221874 26.940624 40.565624 28.346874Q41.925 29.753124 41.925 32.221874Q41.925 34.221874 41.33125 35.378124Q40.7375 36.51875 39.58125 37.159374Q38.440624 37.784374 37.08125 37.784374Q34.89375 37.784374 33.55 36.39375Q32.221874 34.9875 32.221874 32.3625ZM34.01875 32.3625Q34.01875 34.3625 34.878124 35.346874Q35.753124 36.33125 37.08125 36.33125Q38.39375 36.33125 39.253124 35.346874Q40.128124 34.346874 40.128124 32.3Q40.128124 30.378124 39.253124 29.39375Q38.378124 28.39375 37.08125 28.39375Q35.753124 28.39375 34.878124 29.39375Q34.01875 30.378124 34.01875 32.3625ZM43.83125 37.55L43.83125 23.2375L45.58125 23.2375L45.58125 37.55L43.83125 37.55ZM51.70625 35.971874L51.95625 37.534374Q51.221874 37.690624 50.628124 37.690624Q49.675 37.690624 49.14375 37.39375Q48.628124 37.08125 48.409374 36.596874Q48.190624 36.096874 48.190624 34.51875L48.190624 28.55L46.909374 28.55L46.909374 27.175L48.190624 27.175L48.190624 24.6125L49.940624 23.55L49.940624 27.175L51.70625 27.175L51.70625 28.55L49.940624 28.55L49.940624 34.6125Q49.940624 35.3625 50.034374 35.58125Q50.128124 35.784374 50.33125 35.925Q50.55 36.05 50.940624 36.05Q51.221874 36.05 51.70625 35.971874ZM60.64375 36.26875Q59.659374 37.096874 58.753124 37.440624Q57.846874 37.784374 56.815624 37.784374Q55.1125 37.784374 54.190624 36.95625Q53.26875 36.1125 53.26875 34.815624Q53.26875 34.05 53.6125 33.425Q53.971874 32.8 54.534374 32.425Q55.096874 32.034374 55.8 31.83125Q56.315624 31.70625 57.3625 31.565624Q59.4875 31.315624 60.4875 30.971874Q60.503124 30.6125 60.503124 30.503124Q60.503124 29.440624 60.003124 28.9875Q59.33125 28.39375 58.003124 28.39375Q56.753124 28.39375 56.159374 28.83125Q55.58125 29.26875 55.3 30.378124L53.58125 30.14375Q53.815624 29.034374 54.346874 28.3625Q54.878124 27.675 55.89375 27.315624Q56.909374 26.940624 58.253124 26.940624Q59.58125 26.940624 60.409374 27.253124Q61.2375 27.565624 61.628124 28.05Q62.01875 28.51875 62.175 29.2375Q62.26875 29.690624 62.26875 30.8625L62.26875 33.20625Q62.26875 35.659374 62.378124 36.315624Q62.4875 36.95625 62.83125 37.55L60.9875 37.55Q60.721874 37.003124 60.64375 36.26875ZM60.4875 32.346874Q59.534374 32.7375 57.6125 33.003124Q56.534374 33.159374 56.08125 33.3625Q55.64375 33.55 55.39375 33.925Q55.14375 34.3 55.14375 34.76875Q55.14375 35.471874 55.675 35.940624Q56.20625 36.409374 57.2375 36.409374Q58.253124 36.409374 59.034374 35.971874Q59.83125 35.51875 60.20625 34.753124Q60.4875 34.14375 60.4875 32.9875L60.4875 32.346874ZM64.55 38.409374L66.25313 38.659374Q66.3625 39.45625 66.84688 39.815624Q67.50313 40.3 68.64375 40.3Q69.8625 40.3 70.51875 39.815624Q71.19063 39.33125 71.425 38.45625Q71.56563 37.909374 71.55 36.190624Q70.39375 37.55 68.675 37.55Q66.53438 37.55 65.3625 36.003124Q64.19063 34.45625 64.19063 32.3Q64.19063 30.815624 64.72188 29.565624Q65.26875 28.315624 66.28438 27.628124Q67.31563 26.940624 68.69063 26.940624Q70.51875 26.940624 71.72188 28.425L71.72188 27.175L73.33125 27.175L73.33125 36.14375Q73.33125 38.565624 72.83125 39.565624Q72.34688 40.58125 71.26875 41.159374Q70.20625 41.753124 68.64375 41.753124Q66.8 41.753124 65.64375 40.925Q64.50313 40.096874 64.55 38.409374ZM66.00313 32.175Q66.00313 34.221874 66.81563 35.159374Q67.62813 36.096874 68.84688 36.096874Q70.05 36.096874 70.8625 35.159374Q71.69063 34.221874 71.69063 32.2375Q71.69063 30.33125 70.84688 29.3625Q70.00313 28.39375 68.81563 28.39375Q67.64375 28.39375 66.81563 29.346874Q66.00313 30.3 66.00313 32.175ZM82.97188 34.20625L84.78438 34.440624Q84.3625 36.01875 83.19063 36.909374Q82.03438 37.784374 80.22188 37.784374Q77.95625 37.784374 76.6125 36.39375Q75.28438 34.9875 75.28438 32.45625Q75.28438 29.83125 76.62813 28.39375Q77.97188 26.940624 80.12813 26.940624Q82.20625 26.940624 83.51875 28.3625Q84.84688 29.76875 84.84688 32.346874Q84.84688 32.503124 84.83125 32.815624L77.09688 32.815624Q77.19063 34.51875 78.06563 35.425Q78.94063 36.33125 80.2375 36.33125Q81.20625 36.33125 81.87813 35.83125Q82.56563 35.315624 82.97188 34.20625ZM77.19063 31.3625L82.9875 31.3625Q82.87813 30.065624 82.33125 29.409374Q81.4875 28.39375 80.14375 28.39375Q78.94063 28.39375 78.1125 29.20625Q77.28438 30.003124 77.19063 31.3625ZM95.75313 37.55L91.8 27.175L93.65938 27.175L95.89375 33.39375Q96.25313 34.39375 96.55 35.471874Q96.78438 34.659374 97.20625 33.503124L99.50313 27.175L101.31563 27.175L97.39375 37.55L95.75313 37.55ZM102.15938 34.45625L103.90938 34.175Q104.05 35.221874 104.72188 35.784374Q105.39375 36.33125 106.59688 36.33125Q107.8 36.33125 108.37813 35.846874Q108.97188 35.346874 108.97188 34.690624Q108.97188 34.096874 108.45625 33.753124Q108.09688 33.51875 106.65938 33.159374Q104.72188 32.659374 103.97188 32.315624Q103.2375 31.95625 102.84688 31.33125Q102.45625 30.690624 102.45625 29.925Q102.45625 29.2375 102.76875 28.64375Q103.09688 28.05 103.64375 27.659374Q104.05 27.3625 104.75313 27.159374Q105.47188 26.940624 106.28438 26.940624Q107.50313 26.940624 108.425 27.3Q109.34688 27.64375 109.78438 28.253124Q110.22188 28.846874 110.39375 29.846874L108.675 30.08125Q108.55 29.284374 107.9875 28.846874Q107.425 28.39375 106.40938 28.39375Q105.19063 28.39375 104.675 28.8Q104.15938 29.190624 104.15938 29.721874Q104.15938 30.065624 104.37813 30.346874Q104.58125 30.628124 105.05 30.815624Q105.31563 30.909374 106.59688 31.253124Q108.47188 31.753124 109.20625 32.08125Q109.94063 32.39375 110.3625 33.003124Q110.78438 33.596874 110.78438 34.503124Q110.78438 35.378124 110.26875 36.159374Q109.75313 36.940624 108.78438 37.3625Q107.81563 37.784374 106.59688 37.784374Q104.58125 37.784374 103.51875 36.940624Q102.45625 36.096874 102.15938 34.45625ZM113.3625 37.55L113.3625 35.55L115.3625 35.55L115.3625 37.55L113.3625 37.55ZM135.31563 32.534374L137.20625 33.003124Q136.6125 35.346874 135.06563 36.58125Q133.51875 37.8 131.26875 37.8Q128.95625 37.8 127.50313 36.8625Q126.06563 35.909374 125.3 34.128124Q124.55 32.33125 124.55 30.284374Q124.55 28.05 125.39375 26.39375Q126.25313 24.721874 127.83125 23.8625Q129.40938 22.9875 131.3 22.9875Q133.45625 22.9875 134.90938 24.08125Q136.37813 25.175 136.95625 27.159374L135.09688 27.596874Q134.59688 26.034374 133.64375 25.33125Q132.70625 24.6125 131.26875 24.6125Q129.6125 24.6125 128.50313 25.409374Q127.39375 26.190624 126.94063 27.534374Q126.50313 28.8625 126.50313 30.26875Q126.50313 32.096874 127.03438 33.471874Q127.56563 34.83125 128.69063 35.503124Q129.81563 36.175 131.1125 36.175Q132.70625 36.175 133.81563 35.253124Q134.925 34.33125 135.31563 32.534374ZM145.65938 37.55L145.65938 36.01875Q144.45625 37.784374 142.37813 37.784374Q141.45625 37.784374 140.65938 37.440624Q139.8625 37.08125 139.47188 36.55Q139.09688 36.01875 138.94063 35.2375Q138.83125 34.721874 138.83125 33.596874L138.83125 27.175L140.58125 27.175L140.58125 32.925Q140.58125 34.3 140.69063 34.784374Q140.8625 35.471874 141.39375 35.878124Q141.94063 36.26875 142.72188 36.26875Q143.51875 36.26875 144.20625 35.8625Q144.90938 35.45625 145.19063 34.76875Q145.4875 34.065624 145.4875 32.7375L145.4875 27.175L147.2375 27.175L147.2375 37.55L145.65938 37.55ZM149.84688 37.55L149.84688 27.175L151.425 27.175L151.425 28.753124Q152.03438 27.64375 152.55 27.3Q153.06563 26.940624 153.675 26.940624Q154.56563 26.940624 155.4875 27.503124L154.87813 29.14375Q154.2375 28.753124 153.59688 28.753124Q153.01875 28.753124 152.55 29.1125Q152.09688 29.45625 151.89375 30.065624Q151.6125 31.003124 151.6125 32.1125L151.6125 37.55L149.84688 37.55ZM156.84688 37.55L156.84688 27.175L158.425 27.175L158.425 28.753124Q159.03438 27.64375 159.55 27.3Q160.06563 26.940624 160.675 26.940624Q161.56563 26.940624 162.4875 27.503124L161.87813 29.14375Q161.2375 28.753124 160.59688 28.753124Q160.01875 28.753124 159.55 29.1125Q159.09688 29.45625 158.89375 30.065624Q158.6125 31.003124 158.6125 32.1125L158.6125 37.55L156.84688 37.55ZM170.97188 34.20625L172.78438 34.440624Q172.3625 36.01875 171.19063 36.909374Q170.03438 37.784374 168.22188 37.784374Q165.95625 37.784374 164.6125 36.39375Q163.28438 34.9875 163.28438 32.45625Q163.28438 29.83125 164.62813 28.39375Q165.97188 26.940624 168.12813 26.940624Q170.20625 26.940624 171.51875 28.3625Q172.84688 29.76875 172.84688 32.346874Q172.84688 32.503124 172.83125 32.815624L165.09688 32.815624Q165.19063 34.51875 166.06563 35.425Q166.94063 36.33125 168.2375 36.33125Q169.20625 36.33125 169.87813 35.83125Q170.56563 35.315624 170.97188 34.20625ZM165.19063 31.3625L170.9875 31.3625Q170.87813 30.065624 170.33125 29.409374Q169.4875 28.39375 168.14375 28.39375Q166.94063 28.39375 166.1125 29.20625Q165.28438 30.003124 165.19063 31.3625ZM174.8625 37.55L174.8625 27.175L176.45625 27.175L176.45625 28.659374Q177.59688 26.940624 179.75313 26.940624Q180.69063 26.940624 181.47188 27.284374Q182.26875 27.6125 182.65938 28.159374Q183.05 28.70625 183.20625 29.45625Q183.3 29.95625 183.3 31.175L183.3 37.55L181.53438 37.55L181.53438 31.2375Q181.53438 30.159374 181.33125 29.628124Q181.12813 29.096874 180.59688 28.784374Q180.08125 28.471874 179.37813 28.471874Q178.25313 28.471874 177.44063 29.190624Q176.62813 29.89375 176.62813 31.878124L176.62813 37.55L174.8625 37.55ZM189.70625 35.971874L189.95625 37.534374Q189.22188 37.690624 188.62813 37.690624Q187.675 37.690624 187.14375 37.39375Q186.62813 37.08125 186.40938 36.596874Q186.19063 36.096874 186.19063 34.51875L186.19063 28.55L184.90938 28.55L184.90938 27.175L186.19063 27.175L186.19063 24.6125L187.94063 23.55L187.94063 27.175L189.70625 27.175L189.70625 28.55L187.94063 28.55L187.94063 34.6125Q187.94063 35.3625 188.03438 35.58125Q188.12813 35.784374 188.33125 35.925Q188.55 36.05 188.94063 36.05Q189.22188 36.05 189.70625 35.971874ZM201.22188 41.753124Q199.76875 39.925 198.76875 37.471874Q197.76875 35.003124 197.76875 32.3625Q197.76875 30.034374 198.51875 27.909374Q199.39375 25.440624 201.22188 22.9875L202.4875 22.9875Q201.3 25.01875 200.925 25.89375Q200.33125 27.2375 199.9875 28.70625Q199.56563 30.534374 199.56563 32.378124Q199.56563 37.065624 202.4875 41.753124L201.22188 41.753124ZM205.12813 37.55L205.12813 23.2375L211.47188 23.2375Q213.37813 23.2375 214.37813 23.628124Q215.37813 24.003124 215.97188 24.9875Q216.56563 25.95625 216.56563 27.14375Q216.56563 28.659374 215.58125 29.70625Q214.59688 30.753124 212.53438 31.034374Q213.28438 31.39375 213.675 31.753124Q214.50313 32.503124 215.25313 33.659374L217.7375 37.55L215.3625 37.55L213.45625 34.565624Q212.62813 33.284374 212.09688 32.596874Q211.56563 31.909374 211.12813 31.64375Q210.70625 31.3625 210.26875 31.253124Q209.94063 31.190624 209.22188 31.190624L207.01875 31.190624L207.01875 37.55L205.12813 37.55ZM207.01875 29.55L211.09688 29.55Q212.39375 29.55 213.1125 29.284374Q213.84688 29.01875 214.22188 28.425Q214.6125 27.83125 214.6125 27.14375Q214.6125 26.128124 213.87813 25.471874Q213.14375 24.815624 211.55 24.815624L207.01875 24.815624L207.01875 29.55ZM234.1125 29.128124L224.65938 29.128124L224.65938 27.4875L234.1125 27.4875L234.1125 29.128124ZM234.1125 33.471874L224.65938 33.471874L224.65938 31.83125L234.1125 31.83125L234.1125 33.471874ZM251.6125 35.8625L251.6125 37.55L242.15938 37.55Q242.14375 36.909374 242.3625 36.33125Q242.72188 35.3625 243.51875 34.425Q244.31563 33.4875 245.81563 32.253124Q248.15938 30.346874 248.97188 29.2375Q249.8 28.1125 249.8 27.1125Q249.8 26.065624 249.05 25.346874Q248.3 24.628124 247.09688 24.628124Q245.83125 24.628124 245.06563 25.39375Q244.3 26.159374 244.3 27.503124L242.4875 27.315624Q242.675 25.3 243.87813 24.2375Q245.09688 23.175 247.14375 23.175Q249.19063 23.175 250.39375 24.315624Q251.59688 25.45625 251.59688 27.14375Q251.59688 28.003124 251.2375 28.846874Q250.89375 29.675 250.08125 30.596874Q249.26875 31.503124 247.37813 33.1125Q245.78438 34.440624 245.33125 34.909374Q244.89375 35.378124 244.59688 35.8625L251.6125 35.8625ZM253.87813 37.55L253.87813 23.2375L255.64375 23.2375L255.64375 31.39375L259.8 27.175L262.0656 27.175L258.1125 31.01875L262.47186 37.55L260.3 37.55L256.8781 32.253124L255.64375 33.440624L255.64375 37.55L253.87813 37.55ZM263.5031 35.8625L266.6281 35.8625Q263.65936 33.378124 263.65936 29.8Q263.65936 27.8625 264.4406 26.315624Q265.22186 24.76875 266.64374 23.878124Q268.0656 22.9875 270.0656 22.9875Q272.05 22.9875 273.3781 23.815624Q274.70624 24.628124 275.55 26.159374Q276.40936 27.690624 276.40936 29.8Q276.40936 33.378124 273.4406 35.8625L276.5656 35.8625L276.5656 37.55L271.0031 37.55L271.0031 35.971874Q274.47186 34.346874 274.47186 30.096874Q274.47186 27.70625 273.2375 26.159374Q272.01874 24.6125 270.0656 24.6125Q268.03436 24.6125 266.8156 26.175Q265.6125 27.721874 265.6125 30.003124Q265.6125 34.3 269.08124 35.971874L269.08124 37.55L263.5031 37.55L263.5031 35.8625ZM280.01874 41.753124L278.76874 41.753124Q281.675 37.065624 281.675 32.378124Q281.675 30.534374 281.26874 28.7375Q280.925 27.26875 280.33124 25.925Q279.95624 25.034374 278.76874 22.9875L280.01874 22.9875Q281.8625 25.440624 282.7375 27.909374Q283.4875 30.034374 283.4875 32.3625Q283.4875 35.003124 282.47186 37.471874Q281.47186 39.925 280.01874 41.753124Z" fill-rule="nonzero"/></svg>