<svg version="1.1" viewBox="0.0 0.0 600.0 371.0" fill="none" stroke="none" stroke-linecap="square" stroke-miterlimit="10" width="600" height="371" xmlns:xlink="http://www.w3.org/1999/xlink" xmlns="http://www.w3.org/2000/svg"><path fill="#ffffff" d="M0 0L600.0 0L600.0 371.0L0 371.0L0 0Z" fill-rule="nonzero"/><path stroke="#333333" stroke-width="1.0" stroke-linecap="butt" d="M87.5 112.5L87.5 300.5" fill-rule="nonzero"/><path stroke="#cccccc" stroke-width="1.0" stroke-linecap="butt" d="M210.5 112.5L210.5 300.5" fill-rule="nonzero"/><path stroke="#cccccc" stroke-width="1.0" stroke-linecap="butt" d="M334.5 112.5L334.5 300.5" fill-rule="nonzero"/><path stroke="#cccccc" stroke-width="1.0" stroke-linecap="butt" d="M457.5 112.5L457.5 300.5" fill-rule="nonzero"/><path stroke="#cccccc" stroke-width="1.0" stroke-linecap="butt" d="M581.5 112.5L581.5 300.5" fill-rule="nonzero"/><path stroke="#333333" stroke-width="1.0" stroke-linecap="butt" d="M80.5 300.5L581.5 300.5" fill-rule="nonzero"/><path stroke="#cccccc" stroke-width="1.0" stroke-linecap="butt" d="M80.5 262.5L581.5 262.5" fill-rule="nonzero"/><path stroke="#cccccc" stroke-width="1.0" stroke-linecap="butt" d="M80.5 225.5L581.5 225.5" fill-rule="nonzero"/><path stroke="#cccccc" stroke-width="1.0" stroke-linecap="butt" d="M80.5 187.5L581.5 187.5" fill-rule="nonzero"/><path stroke="#cccccc" stroke-width="1.0" stroke-linecap="butt" d="M80.5 149.5L581.5 149.5" fill-rule="nonzero"/><path stroke="#cccccc" stroke-width="1.0" stroke-linecap="butt" d="M80.5 112.5L581.5 112.5" fill-rule="nonzero"/><clipPath id="id_0"><path d="M80.55 112.28333L581.45 112.28333L581.45 300.45L80.55 300.45L80.55 112.28333Z" clip-rule="nonzero"/></clipPath><path stroke="#4285f4" stroke-width="2.0" stroke-linecap="butt" stroke-opacity="0.4" clip-path="url(#id_0)" d="M0 206.5172L581.45 206.5172" fill-rule="nonzero"/><path fill="#4285f4" clip-path="url(#id_0)" d="M91.85967 206.5172C91.85967 209.00249 89.844955 211.0172 87.35967 211.0172C84.87439 211.0172 82.85967 209.00249 82.85967 206.5172C82.85967 204.03192 84.87439 202.0172 87.35967 202.0172C89.844955 202.0172 91.85967 204.03192 91.85967 206.5172Z" fill-rule="nonzero"/><path fill="#4285f4" clip-path="url(#id_0)" d="M213.80325 206.5172C213.80325 209.00249 211.78854 211.0172 209.30325 211.0172C206.81798 211.0172 204.80325 209.00249 204.80325 206.5172C204.80325 204.03192 206.81798 202.0172 209.30325 202.0172C211.78854 202.0172 213.80325 204.03192 213.80325 206.5172Z" fill-rule="nonzero"/><path fill="#4285f4" clip-path="url(#id_0)" d="M336.73425 206.5172C336.73425 209.00249 334.71954 211.0172 332.23425 211.0172C329.74896 211.0172 327.73425 209.00249 327.73425 206.5172C327.73425 204.03192 329.74896 202.0172 332.23425 202.0172C334.71954 202.0172 336.73425 204.03192 336.73425 206.5172Z" fill-rule="nonzero"/><path fill="#4285f4" clip-path="url(#id_0)" d="M464.10852 206.5172C464.10852 209.00249 462.0938 211.0172 459.60852 211.0172C457.12323 211.0172 455.10852 209.00249 455.10852 206.5172C455.10852 204.03192 457.12323 202.0172 459.60852 202.0172C462.0938 202.0172 464.10852 204.03192 464.10852 206.5172Z" fill-rule="nonzero"/><path fill="#4285f4" clip-path="url(#id_0)" d="M579.1403 206.5172C579.1403 209.00249 577.1256 211.0172 574.6403 211.0172C572.155 211.0172 570.1403 209.00249 570.1403 206.5172C570.1403 204.03192 572.155 202.0172 574.6403 202.0172C577.1256 202.0172 579.1403 204.03192 579.1403 206.5172Z" fill-rule="nonzero"/><path fill="#000000" d="M302.4375 349.45L302.4375 340.85626L306.25 340.85626Q307.40625 340.85626 308.0 341.09064Q308.59375 341.325 308.95312 341.91876Q309.3125 342.4969 309.3125 343.2Q309.3125 344.1219 308.71875 344.7469Q308.125 345.3719 306.89062 345.54376Q307.34375 345.7625 307.57812 345.96564Q308.07812 346.41876 308.51562 347.10626L310.01562 349.45L308.57812 349.45L307.45312 347.66876Q306.95312 346.8875 306.625 346.48126Q306.3125 346.075 306.04688 345.91876Q305.79688 345.7469 305.53125 345.66876Q305.34375 345.6375 304.90625 345.6375L303.57812 345.6375L303.57812 349.45L302.4375 349.45ZM303.57812 344.65314L306.03125 344.65314Q306.79688 344.65314 307.23438 344.4969Q307.6875 344.325 307.90625 343.98126Q308.14062 343.6219 308.14062 343.2Q308.14062 342.59064 307.6875 342.2Q307.25 341.8094 306.29688 341.8094L303.57812 341.8094L303.57812 344.65314ZM316.54688 348.4344L316.54688 349.45L310.85938 349.45Q310.85938 349.075 310.98438 348.71564Q311.20312 348.1375 311.67188 347.575Q312.15625 347.0125 313.0625 346.27814Q314.46875 345.1219 314.95312 344.45Q315.45312 343.77814 315.45312 343.1844Q315.45312 342.5594 315.0 342.1375Q314.54688 341.7 313.82812 341.7Q313.0625 341.7 312.60938 342.15314Q312.15625 342.60626 312.14062 343.41876L311.0625 343.3094Q311.17188 342.09064 311.89062 341.46564Q312.625 340.825 313.85938 340.825Q315.09375 340.825 315.8125 341.5125Q316.53125 342.2 316.53125 343.21564Q316.53125 343.73126 316.3125 344.23126Q316.10938 344.71564 315.60938 345.27814Q315.125 345.825 314.0 346.77814Q313.04688 347.575 312.76562 347.8719Q312.5 348.15314 312.32812 348.4344L316.54688 348.4344ZM323.3125 351.98126Q322.4375 350.8719 321.82812 349.40314Q321.23438 347.91876 321.23438 346.34064Q321.23438 344.95 321.67188 343.66876Q322.20312 342.1844 323.3125 340.71564L324.0625 340.71564Q323.35938 341.9344 323.125 342.45Q322.76562 343.2625 322.5625 344.1375Q322.3125 345.23126 322.3125 346.34064Q322.3125 349.16876 324.0625 351.98126L323.3125 351.98126ZM325.07812 345.2625Q325.07812 343.1219 326.21875 341.91876Q327.375 340.7 329.1875 340.7Q330.39062 340.7 331.34375 341.27814Q332.29688 341.84064 332.79688 342.85626Q333.29688 343.8719 333.29688 345.16876Q333.29688 346.46564 332.76562 347.4969Q332.23438 348.52814 331.26562 349.0594Q330.3125 349.59064 329.1875 349.59064Q327.96875 349.59064 327.01562 349.0125Q326.0625 348.41876 325.5625 347.41876Q325.07812 346.40314 325.07812 345.2625ZM326.25 345.27814Q326.25 346.84064 327.07812 347.73126Q327.92188 348.6219 329.1875 348.6219Q330.46875 348.6219 331.29688 347.73126Q332.125 346.825 332.125 345.15314Q332.125 344.10626 331.76562 343.325Q331.42188 342.54376 330.73438 342.1219Q330.04688 341.6844 329.20312 341.6844Q328.0 341.6844 327.125 342.5125Q326.25 343.34064 326.25 345.27814ZM334.29688 349.45L334.29688 340.85626L335.34375 340.85626L335.34375 343.9344Q336.07812 343.09064 337.20312 343.09064Q337.90625 343.09064 338.40625 343.3719Q338.92188 343.6375 339.14062 344.1219Q339.35938 344.59064 339.35938 345.5125L339.35938 349.45L338.3125 349.45L338.3125 345.5125Q338.3125 344.71564 337.96875 344.35626Q337.625 343.9969 337.0 343.9969Q336.53125 343.9969 336.10938 344.2469Q335.70312 344.48126 335.51562 344.90314Q335.34375 345.3094 335.34375 346.04376L335.34375 349.45L334.29688 349.45ZM341.29688 349.45L341.29688 343.23126L342.23438 343.23126L342.23438 344.10626Q342.53125 343.6375 343.01562 343.3719Q343.5 343.09064 344.125 343.09064Q344.8125 343.09064 345.25 343.3719Q345.70312 343.65314 345.875 344.16876Q346.625 343.09064 347.79688 343.09064Q348.73438 343.09064 349.21875 343.60626Q349.71875 344.10626 349.71875 345.1844L349.71875 349.45L348.67188 349.45L348.67188 345.52814Q348.67188 344.90314 348.5625 344.6219Q348.46875 344.34064 348.20312 344.16876Q347.9375 343.9969 347.5625 343.9969Q346.90625 343.9969 346.46875 344.4344Q346.04688 344.8719 346.04688 345.84064L346.04688 349.45L344.98438 349.45L344.98438 345.40314Q344.98438 344.7 344.71875 344.35626Q344.46875 343.9969 343.89062 343.9969Q343.4375 343.9969 343.0625 344.23126Q342.6875 344.46564 342.51562 344.91876Q342.34375 345.3719 342.34375 346.21564L342.34375 349.45L341.29688 349.45ZM350.875 347.59064L351.90625 347.4344Q352.0 348.0594 352.39062 348.3875Q352.79688 348.71564 353.53125 348.71564Q354.25 348.71564 354.59375 348.4344Q354.95312 348.1375 354.95312 347.73126Q354.95312 347.3719 354.64062 347.16876Q354.42188 347.02814 353.5625 346.8094Q352.40625 346.5125 351.95312 346.3094Q351.51562 346.09064 351.28125 345.71564Q351.04688 345.34064 351.04688 344.8719Q351.04688 344.46564 351.23438 344.10626Q351.42188 343.7469 351.75 343.5125Q352.0 343.34064 352.42188 343.21564Q352.84375 343.09064 353.34375 343.09064Q354.0625 343.09064 354.60938 343.3094Q355.17188 343.5125 355.4375 343.8719Q355.70312 344.23126 355.79688 344.825L354.76562 344.96564Q354.70312 344.4969 354.35938 344.23126Q354.03125 343.95 353.40625 343.95Q352.6875 343.95 352.375 344.2Q352.0625 344.4344 352.0625 344.7625Q352.0625 344.96564 352.1875 345.1219Q352.32812 345.29376 352.59375 345.40314Q352.75 345.46564 353.53125 345.66876Q354.65625 345.98126 355.09375 346.16876Q355.53125 346.35626 355.78125 346.71564Q356.03125 347.075 356.03125 347.6219Q356.03125 348.15314 355.71875 348.6219Q355.42188 349.075 354.84375 349.34064Q354.26562 349.59064 353.53125 349.59064Q352.3125 349.59064 351.67188 349.09064Q351.04688 348.575 350.875 347.59064ZM357.98438 351.98126L357.23438 351.98126Q358.98438 349.16876 358.98438 346.34064Q358.98438 345.2469 358.73438 344.15314Q358.53125 343.27814 358.17188 342.46564Q357.9375 341.95 357.23438 340.71564L357.98438 340.71564Q359.07812 342.1844 359.60938 343.66876Q360.0625 344.95 360.0625 346.34064Q360.0625 347.91876 359.45312 349.40314Q358.84375 350.8719 357.98438 351.98126Z" fill-rule="nonzero"/><path fill="#000000" d="M29.550013 227.74167L20.956263 227.74167L20.956263 226.61667L29.550013 226.61667L29.550013 227.74167ZM32.08126 220.05417Q30.971888 220.92917 29.503138 221.53854Q28.018763 222.1323 26.440638 222.1323Q25.050013 222.1323 23.768763 221.6948Q22.284388 221.16354 20.815638 220.05417L20.815638 219.30417Q22.034388 220.0073 22.550013 220.24167Q23.362513 220.60104 24.237513 220.80417Q25.331263 221.05417 26.440638 221.05417Q29.268763 221.05417 32.08126 219.30417L32.08126 220.05417ZM29.550013 218.0698L23.331263 218.0698L23.331263 217.1323L24.206263 217.1323Q23.737513 216.83542 23.471888 216.35104Q23.190638 215.86667 23.190638 215.24167Q23.190638 214.55417 23.471888 214.11667Q23.753138 213.66354 24.268763 213.49167Q23.190638 212.74167 23.190638 211.5698Q23.190638 210.6323 23.706263 210.14792Q24.206263 209.64792 25.284388 209.64792L29.550013 209.64792L29.550013 210.6948L25.628138 210.6948Q25.003138 210.6948 24.721888 210.80417Q24.440638 210.89792 24.268763 211.16354Q24.096888 211.42917 24.096888 211.80417Q24.096888 212.46042 24.534388 212.89792Q24.971888 213.3198 25.940638 213.3198L29.550013 213.3198L29.550013 214.3823L25.503138 214.3823Q24.800013 214.3823 24.456263 214.64792Q24.096888 214.89792 24.096888 215.47604Q24.096888 215.92917 24.331263 216.30417Q24.565638 216.67917 25.018763 216.85104Q25.471888 217.02292 26.315638 217.02292L29.550013 217.02292L29.550013 218.0698ZM29.550013 208.8823L20.956263 205.58542L20.956263 204.36667L29.550013 200.85104L29.550013 202.1323L26.940638 203.14792L26.940638 206.72604L29.550013 207.67917L29.550013 208.8823ZM26.018763 206.39792L26.018763 203.49167L23.643763 204.3823Q22.565638 204.80417 21.862513 204.99167Q22.690638 205.16354 23.503138 205.46042L26.018763 206.39792ZM32.08126 199.3823L32.08126 200.1323Q29.268763 198.3823 26.440638 198.3823Q25.346888 198.3823 24.253138 198.6323Q23.378138 198.83542 22.565638 199.1948Q22.050013 199.42917 20.815638 200.1323L20.815638 199.3823Q22.284388 198.28854 23.768763 197.7573Q25.050013 197.30417 26.440638 197.30417Q28.018763 197.30417 29.503138 197.91354Q30.971888 198.52292 32.08126 199.3823Z" fill-rule="nonzero"/><path fill="#000000" d="M68.05 300.21564Q68.05 298.6844 68.3625 297.7625Q68.675 296.825 69.28438 296.325Q69.90938 295.825 70.84688 295.825Q71.53438 295.825 72.05 296.10626Q72.58125 296.3875 72.925 296.91876Q73.26875 297.4344 73.45625 298.1844Q73.64375 298.9344 73.64375 300.21564Q73.64375 301.73126 73.33125 302.65314Q73.03438 303.575 72.40938 304.09064Q71.8 304.59064 70.84688 304.59064Q69.6125 304.59064 68.89375 303.7Q68.05 302.6375 68.05 300.21564ZM69.12813 300.21564Q69.12813 302.325 69.62813 303.02814Q70.12813 303.73126 70.84688 303.73126Q71.58125 303.73126 72.06563 303.02814Q72.56563 302.325 72.56563 300.21564Q72.56563 298.09064 72.06563 297.40314Q71.58125 296.7 70.83125 296.7Q70.1125 296.7 69.675 297.3094Q69.12813 298.09064 69.12813 300.21564Z" fill-rule="nonzero"/><path fill="#000000" d="M51.05 262.5823Q51.05 261.05106 51.3625 260.12918Q51.675 259.19168 52.284374 258.69168Q52.909374 258.19168 53.846874 258.19168Q54.534374 258.19168 55.05 258.47293Q55.58125 258.75418 55.925 259.28543Q56.26875 259.80106 56.45625 260.55106Q56.64375 261.30106 56.64375 262.5823Q56.64375 264.09793 56.33125 265.0198Q56.034374 265.94168 55.409374 266.4573Q54.8 266.9573 53.846874 266.9573Q52.6125 266.9573 51.89375 266.06668Q51.05 265.00418 51.05 262.5823ZM52.128124 262.5823Q52.128124 264.69168 52.628124 265.3948Q53.128124 266.09793 53.846874 266.09793Q54.58125 266.09793 55.065624 265.3948Q55.565624 264.69168 55.565624 262.5823Q55.565624 260.4573 55.065624 259.7698Q54.58125 259.06668 53.83125 259.06668Q53.1125 259.06668 52.675 259.67606Q52.128124 260.4573 52.128124 262.5823ZM58.64375 266.81668L58.64375 265.61356L59.846874 265.61356L59.846874 266.81668L58.64375 266.81668ZM66.59688 265.80106L66.59688 266.81668L60.909374 266.81668Q60.909374 266.44168 61.034374 266.0823Q61.253124 265.50418 61.721874 264.94168Q62.20625 264.37918 63.1125 263.6448Q64.51875 262.48856 65.00313 261.81668Q65.50313 261.1448 65.50313 260.55106Q65.50313 259.92606 65.05 259.50418Q64.59688 259.06668 63.878124 259.06668Q63.1125 259.06668 62.659374 259.5198Q62.20625 259.97293 62.190624 260.78543L61.1125 260.67606Q61.221874 259.4573 61.940624 258.8323Q62.675 258.19168 63.909374 258.19168Q65.14375 258.19168 65.8625 258.87918Q66.58125 259.56668 66.58125 260.5823Q66.58125 261.09793 66.3625 261.59793Q66.15938 262.0823 65.65938 262.6448Q65.175 263.19168 64.05 264.1448Q63.096874 264.94168 62.815624 265.23856Q62.55 265.5198 62.378124 265.80106L66.59688 265.80106ZM68.05 264.56668L69.15938 264.47293Q69.28438 265.28543 69.72188 265.69168Q70.175 266.09793 70.81563 266.09793Q71.56563 266.09793 72.09688 265.5198Q72.62813 264.94168 72.62813 264.00418Q72.62813 263.09793 72.1125 262.5823Q71.6125 262.05106 70.78438 262.05106Q70.28438 262.05106 69.8625 262.28543Q69.45625 262.5198 69.22188 262.87918L68.2375 262.75418L69.06563 258.34793L73.34688 258.34793L73.34688 259.34793L69.90938 259.34793L69.45625 261.66043Q70.22188 261.11356 71.06563 261.11356Q72.19063 261.11356 72.95625 261.8948Q73.7375 262.67606 73.7375 263.91043Q73.7375 265.06668 73.06563 265.92606Q72.2375 266.9573 70.81563 266.9573Q69.64375 266.9573 68.89375 266.30106Q68.15938 265.6448 68.05 264.56668Z" fill-rule="nonzero"/><path fill="#000000" d="M58.05 224.94896Q58.05 223.41771 58.3625 222.49583Q58.675 221.55833 59.284374 221.05833Q59.909374 220.55833 60.846874 220.55833Q61.534374 220.55833 62.05 220.83958Q62.58125 221.12083 62.925 221.65208Q63.26875 222.16771 63.45625 222.91771Q63.64375 223.66771 63.64375 224.94896Q63.64375 226.46458 63.33125 227.38646Q63.034374 228.30833 62.409374 228.82396Q61.8 229.32396 60.846874 229.32396Q59.6125 229.32396 58.89375 228.43333Q58.05 227.37083 58.05 224.94896ZM59.128124 224.94896Q59.128124 227.05833 59.628124 227.76146Q60.128124 228.46458 60.846874 228.46458Q61.58125 228.46458 62.065624 227.76146Q62.565624 227.05833 62.565624 224.94896Q62.565624 222.82396 62.065624 222.13646Q61.58125 221.43333 60.83125 221.43333Q60.1125 221.43333 59.675 222.04271Q59.128124 222.82396 59.128124 224.94896ZM65.64375 229.18333L65.64375 227.98021L66.84688 227.98021L66.84688 229.18333L65.64375 229.18333ZM68.05 226.93333L69.15938 226.83958Q69.28438 227.65208 69.72188 228.05833Q70.175 228.46458 70.81563 228.46458Q71.56563 228.46458 72.09688 227.88646Q72.62813 227.30833 72.62813 226.37083Q72.62813 225.46458 72.1125 224.94896Q71.6125 224.41771 70.78438 224.41771Q70.28438 224.41771 69.8625 224.65208Q69.45625 224.88646 69.22188 225.24583L68.2375 225.12083L69.06563 220.71458L73.34688 220.71458L73.34688 221.71458L69.90938 221.71458L69.45625 224.02708Q70.22188 223.48021 71.06563 223.48021Q72.19063 223.48021 72.95625 224.26146Q73.7375 225.04271 73.7375 226.27708Q73.7375 227.43333 73.06563 228.29271Q72.2375 229.32396 70.81563 229.32396Q69.64375 229.32396 68.89375 228.66771Q68.15938 228.01146 68.05 226.93333Z" fill-rule="nonzero"/><path fill="#000000" d="M51.05 187.31563Q51.05 185.78438 51.3625 184.8625Q51.675 183.925 52.284374 183.425Q52.909374 182.925 53.846874 182.925Q54.534374 182.925 55.05 183.20625Q55.58125 183.4875 55.925 184.01875Q56.26875 184.53438 56.45625 185.28438Q56.64375 186.03438 56.64375 187.31563Q56.64375 188.83125 56.33125 189.75313Q56.034374 190.675 55.409374 191.19063Q54.8 191.69063 53.846874 191.69063Q52.6125 191.69063 51.89375 190.8Q51.05 189.7375 51.05 187.31563ZM52.128124 187.31563Q52.128124 189.425 52.628124 190.12813Q53.128124 190.83125 53.846874 190.83125Q54.58125 190.83125 55.065624 190.12813Q55.565624 189.425 55.565624 187.31563Q55.565624 185.19063 55.065624 184.50313Q54.58125 183.8 53.83125 183.8Q53.1125 183.8 52.675 184.40938Q52.128124 185.19063 52.128124 187.31563ZM58.64375 191.55L58.64375 190.34688L59.846874 190.34688L59.846874 191.55L58.64375 191.55ZM61.1125 184.08125L61.1125 183.06563L66.675 183.06563L66.675 183.89375Q65.8625 184.76875 65.05 186.22188Q64.25313 187.65938 63.815624 189.19063Q63.4875 190.26875 63.409374 191.55L62.315624 191.55Q62.33125 190.53438 62.70625 189.09688Q63.096874 187.65938 63.8 186.33125Q64.51875 185.00313 65.33125 184.08125L61.1125 184.08125ZM68.05 189.3L69.15938 189.20625Q69.28438 190.01875 69.72188 190.425Q70.175 190.83125 70.81563 190.83125Q71.56563 190.83125 72.09688 190.25313Q72.62813 189.675 72.62813 188.7375Q72.62813 187.83125 72.1125 187.31563Q71.6125 186.78438 70.78438 186.78438Q70.28438 186.78438 69.8625 187.01875Q69.45625 187.25313 69.22188 187.6125L68.2375 187.4875L69.06563 183.08125L73.34688 183.08125L73.34688 184.08125L69.90938 184.08125L69.45625 186.39375Q70.22188 185.84688 71.06563 185.84688Q72.19063 185.84688 72.95625 186.62813Q73.7375 187.40938 73.7375 188.64375Q73.7375 189.8 73.06563 190.65938Q72.2375 191.69063 70.81563 191.69063Q69.64375 191.69063 68.89375 191.03438Q68.15938 190.37813 68.05 189.3Z" fill-rule="nonzero"/><path fill="#000000" d="M72.01875 153.91667L70.97188 153.91667L70.97188 147.19792Q70.58125 147.5573 69.95625 147.9323Q69.34688 148.29167 68.8625 148.46355L68.8625 147.44792Q69.7375 147.02605 70.39375 146.44792Q71.06563 145.85417 71.34688 145.29167L72.01875 145.29167L72.01875 153.91667Z" fill-rule="nonzero"/><path fill="#000000" d="M55.01875 116.28333L53.971874 116.28333L53.971874 109.56458Q53.58125 109.92396 52.95625 110.29896Q52.346874 110.65833 51.8625 110.83021L51.8625 109.81458Q52.7375 109.39271 53.39375 108.81458Q54.065624 108.22083 54.346874 107.65833L55.01875 107.65833L55.01875 116.28333ZM58.64375 116.28333L58.64375 115.08021L59.846874 115.08021L59.846874 116.28333L58.64375 116.28333ZM66.59688 115.26771L66.59688 116.28333L60.909374 116.28333Q60.909374 115.90833 61.034374 115.54896Q61.253124 114.97083 61.721874 114.40833Q62.20625 113.84583 63.1125 113.11146Q64.51875 111.95521 65.00313 111.28333Q65.50313 110.61146 65.50313 110.01771Q65.50313 109.39271 65.05 108.97083Q64.59688 108.53333 63.878124 108.53333Q63.1125 108.53333 62.659374 108.98646Q62.20625 109.43958 62.190624 110.25208L61.1125 110.14271Q61.221874 108.92396 61.940624 108.29896Q62.675 107.65833 63.909374 107.65833Q65.14375 107.65833 65.8625 108.34583Q66.58125 109.03333 66.58125 110.04896Q66.58125 110.56458 66.3625 111.06458Q66.15938 111.54896 65.65938 112.11146Q65.175 112.65833 64.05 113.61146Q63.096874 114.40833 62.815624 114.70521Q62.55 114.98646 62.378124 115.26771L66.59688 115.26771ZM68.05 114.03333L69.15938 113.93958Q69.28438 114.75208 69.72188 115.15833Q70.175 115.56458 70.81563 115.56458Q71.56563 115.56458 72.09688 114.98646Q72.62813 114.40833 72.62813 113.47083Q72.62813 112.56458 72.1125 112.04896Q71.6125 111.51771 70.78438 111.51771Q70.28438 111.51771 69.8625 111.75208Q69.45625 111.98646 69.22188 112.34583L68.2375 112.22083L69.06563 107.81458L73.34688 107.81458L73.34688 108.81458L69.90938 108.81458L69.45625 111.12708Q70.22188 110.58021 71.06563 110.58021Q72.19063 110.58021 72.95625 111.36146Q73.7375 112.14271 73.7375 113.37708Q73.7375 114.53333 73.06563 115.39271Q72.2375 116.42396 70.81563 116.42396Q69.64375 116.42396 68.89375 115.76771Q68.15938 115.11146 68.05 114.03333Z" fill-rule="nonzero"/><path fill="#000000" d="M84.35967 313.21564Q84.35967 311.6844 84.67217 310.7625Q84.98467 309.825 85.59405 309.325Q86.21905 308.825 87.15655 308.825Q87.84405 308.825 88.35967 309.10626Q88.89092 309.3875 89.23467 309.91876Q89.57842 310.4344 89.76592 311.1844Q89.95342 311.9344 89.95342 313.21564Q89.95342 314.73126 89.64092 315.65314Q89.34405 316.575 88.71905 317.09064Q88.10967 317.59064 87.15655 317.59064Q85.92217 317.59064 85.20342 316.7Q84.35967 315.6375 84.35967 313.21564ZM85.4378 313.21564Q85.4378 315.325 85.9378 316.02814Q86.4378 316.73126 87.15655 316.73126Q87.89092 316.73126 88.3753 316.02814Q88.8753 315.325 88.8753 313.21564Q88.8753 311.09064 88.3753 310.40314Q87.89092 309.7 87.14092 309.7Q86.42217 309.7 85.98467 310.3094Q85.4378 311.09064 85.4378 313.21564Z" fill-rule="nonzero"/><path fill="#000000" d="M202.83124 316.4344L202.83124 317.45L197.14374 317.45Q197.14374 317.075 197.26874 316.71564Q197.48749 316.1375 197.95624 315.575Q198.44061 315.0125 199.34686 314.27814Q200.75311 313.1219 201.23749 312.45Q201.73749 311.77814 201.73749 311.1844Q201.73749 310.5594 201.28436 310.1375Q200.83124 309.7 200.11249 309.7Q199.34686 309.7 198.89374 310.15314Q198.44061 310.60626 198.42499 311.41876L197.34686 311.3094Q197.45624 310.09064 198.17499 309.46564Q198.90936 308.825 200.14374 308.825Q201.37811 308.825 202.09686 309.5125Q202.81561 310.2 202.81561 311.21564Q202.81561 311.73126 202.59686 312.23126Q202.39374 312.71564 201.89374 313.27814Q201.40936 313.825 200.28436 314.77814Q199.33124 315.575 199.04999 315.8719Q198.78436 316.15314 198.61249 316.4344L202.83124 316.4344ZM204.28436 315.2L205.39374 315.10626Q205.51874 315.91876 205.95624 316.325Q206.40936 316.73126 207.04999 316.73126Q207.79999 316.73126 208.33124 316.15314Q208.86249 315.575 208.86249 314.6375Q208.86249 313.73126 208.34686 313.21564Q207.84686 312.6844 207.01874 312.6844Q206.51874 312.6844 206.09686 312.91876Q205.69061 313.15314 205.45624 313.5125L204.47186 313.3875L205.29999 308.98126L209.58124 308.98126L209.58124 309.98126L206.14374 309.98126L205.69061 312.29376Q206.45624 311.7469 207.29999 311.7469Q208.42499 311.7469 209.19061 312.52814Q209.97186 313.3094 209.97186 314.54376Q209.97186 315.7 209.29999 316.5594Q208.47186 317.59064 207.04999 317.59064Q205.87811 317.59064 205.12811 316.9344Q204.39374 316.27814 204.28436 315.2ZM211.28436 313.21564Q211.28436 311.6844 211.59686 310.7625Q211.90936 309.825 212.51874 309.325Q213.14374 308.825 214.08124 308.825Q214.76874 308.825 215.28436 309.10626Q215.81561 309.3875 216.15936 309.91876Q216.50311 310.4344 216.69061 311.1844Q216.87811 311.9344 216.87811 313.21564Q216.87811 314.73126 216.56561 315.65314Q216.26874 316.575 215.64374 317.09064Q215.03436 317.59064 214.08124 317.59064Q212.84686 317.59064 212.12811 316.7Q211.28436 315.6375 211.28436 313.21564ZM212.36249 313.21564Q212.36249 315.325 212.86249 316.02814Q213.36249 316.73126 214.08124 316.73126Q214.81561 316.73126 215.29999 316.02814Q215.79999 315.325 215.79999 313.21564Q215.79999 311.09064 215.29999 310.40314Q214.81561 309.7 214.06561 309.7Q213.34686 309.7 212.90936 310.3094Q212.36249 311.09064 212.36249 313.21564ZM218.28436 313.21564Q218.28436 311.6844 218.59686 310.7625Q218.90936 309.825 219.51874 309.325Q220.14374 308.825 221.08124 308.825Q221.76874 308.825 222.28436 309.10626Q222.81561 309.3875 223.15936 309.91876Q223.50311 310.4344 223.69061 311.1844Q223.87811 311.9344 223.87811 313.21564Q223.87811 314.73126 223.56561 315.65314Q223.26874 316.575 222.64374 317.09064Q222.03436 317.59064 221.08124 317.59064Q219.84686 317.59064 219.12811 316.7Q218.28436 315.6375 218.28436 313.21564ZM219.36249 313.21564Q219.36249 315.325 219.86249 316.02814Q220.36249 316.73126 221.08124 316.73126Q221.81561 316.73126 222.29999 316.02814Q222.79999 315.325 222.79999 313.21564Q222.79999 311.09064 222.29999 310.40314Q221.81561 309.7 221.06561 309.7Q220.34686 309.7 219.90936 310.3094Q219.36249 311.09064 219.36249 313.21564Z" fill-rule="nonzero"/><path fill="#000000" d="M320.70905 315.2L321.81842 315.10626Q321.94342 315.91876 322.38092 316.325Q322.83405 316.73126 323.47467 316.73126Q324.22467 316.73126 324.75592 316.15314Q325.28717 315.575 325.28717 314.6375Q325.28717 313.73126 324.77155 313.21564Q324.27155 312.6844 323.44342 312.6844Q322.94342 312.6844 322.52155 312.91876Q322.1153 313.15314 321.88092 313.5125L320.89655 313.3875L321.72467 308.98126L326.00592 308.98126L326.00592 309.98126L322.56842 309.98126L322.1153 312.29376Q322.88092 311.7469 323.72467 311.7469Q324.84967 311.7469 325.6153 312.52814Q326.39655 313.3094 326.39655 314.54376Q326.39655 315.7 325.72467 316.5594Q324.89655 317.59064 323.47467 317.59064Q322.3028 317.59064 321.5528 316.9344Q320.81842 316.27814 320.70905 315.2ZM327.70905 313.21564Q327.70905 311.6844 328.02155 310.7625Q328.33405 309.825 328.94342 309.325Q329.56842 308.825 330.50592 308.825Q331.19342 308.825 331.70905 309.10626Q332.2403 309.3875 332.58405 309.91876Q332.9278 310.4344 333.1153 311.1844Q333.3028 311.9344 333.3028 313.21564Q333.3028 314.73126 332.9903 315.65314Q332.69342 316.575 332.06842 317.09064Q331.45905 317.59064 330.50592 317.59064Q329.27155 317.59064 328.5528 316.7Q327.70905 315.6375 327.70905 313.21564ZM328.78717 313.21564Q328.78717 315.325 329.28717 316.02814Q329.78717 316.73126 330.50592 316.73126Q331.2403 316.73126 331.72467 316.02814Q332.22467 315.325 332.22467 313.21564Q332.22467 311.09064 331.72467 310.40314Q331.2403 309.7 330.4903 309.7Q329.77155 309.7 329.33405 310.3094Q328.78717 311.09064 328.78717 313.21564ZM334.70905 313.21564Q334.70905 311.6844 335.02155 310.7625Q335.33405 309.825 335.94342 309.325Q336.56842 308.825 337.50592 308.825Q338.19342 308.825 338.70905 309.10626Q339.2403 309.3875 339.58405 309.91876Q339.9278 310.4344 340.1153 311.1844Q340.3028 311.9344 340.3028 313.21564Q340.3028 314.73126 339.9903 315.65314Q339.69342 316.575 339.06842 317.09064Q338.45905 317.59064 337.50592 317.59064Q336.27155 317.59064 335.5528 316.7Q334.70905 315.6375 334.70905 313.21564ZM335.78717 313.21564Q335.78717 315.325 336.28717 316.02814Q336.78717 316.73126 337.50592 316.73126Q338.2403 316.73126 338.72467 316.02814Q339.22467 315.325 339.22467 313.21564Q339.22467 311.09064 338.72467 310.40314Q338.2403 309.7 337.4903 309.7Q336.77155 309.7 336.33405 310.3094Q335.78717 311.09064 335.78717 313.21564ZM341.70905 313.21564Q341.70905 311.6844 342.02155 310.7625Q342.33405 309.825 342.94342 309.325Q343.56842 308.825 344.50592 308.825Q345.19342 308.825 345.70905 309.10626Q346.2403 309.3875 346.58405 309.91876Q346.9278 310.4344 347.1153 311.1844Q347.3028 311.9344 347.3028 313.21564Q347.3028 314.73126 346.9903 315.65314Q346.69342 316.575 346.06842 317.09064Q345.45905 317.59064 344.50592 317.59064Q343.27155 317.59064 342.5528 316.7Q341.70905 315.6375 341.70905 313.21564ZM342.78717 313.21564Q342.78717 315.325 343.28717 316.02814Q343.78717 316.73126 344.50592 316.73126Q345.2403 316.73126 345.72467 316.02814Q346.22467 315.325 346.22467 313.21564Q346.22467 311.09064 345.72467 310.40314Q345.2403 309.7 344.4903 309.7Q343.77155 309.7 343.33405 310.3094Q342.78717 311.09064 342.78717 313.21564Z" fill-rule="nonzero"/><path fill="#000000" d="M444.19623 309.98126L444.19623 308.96564L449.75873 308.96564L449.75873 309.79376Q448.94623 310.66876 448.13373 312.1219Q447.33685 313.5594 446.89935 315.09064Q446.57123 316.16876 446.4931 317.45L445.39935 317.45Q445.41498 316.4344 445.78998 314.9969Q446.1806 313.5594 446.88373 312.23126Q447.60248 310.90314 448.41498 309.98126L444.19623 309.98126ZM451.13373 315.2L452.2431 315.10626Q452.3681 315.91876 452.8056 316.325Q453.25873 316.73126 453.89935 316.73126Q454.64935 316.73126 455.1806 316.15314Q455.71185 315.575 455.71185 314.6375Q455.71185 313.73126 455.19623 313.21564Q454.69623 312.6844 453.8681 312.6844Q453.3681 312.6844 452.94623 312.91876Q452.53998 313.15314 452.3056 313.5125L451.32123 313.3875L452.14935 308.98126L456.4306 308.98126L456.4306 309.98126L452.9931 309.98126L452.53998 312.29376Q453.3056 311.7469 454.14935 311.7469Q455.27435 311.7469 456.03998 312.52814Q456.82123 313.3094 456.82123 314.54376Q456.82123 315.7 456.14935 316.5594Q455.32123 317.59064 453.89935 317.59064Q452.72748 317.59064 451.97748 316.9344Q451.2431 316.27814 451.13373 315.2ZM458.13373 313.21564Q458.13373 311.6844 458.44623 310.7625Q458.75873 309.825 459.3681 309.325Q459.9931 308.825 460.9306 308.825Q461.6181 308.825 462.13373 309.10626Q462.66498 309.3875 463.00873 309.91876Q463.35248 310.4344 463.53998 311.1844Q463.72748 311.9344 463.72748 313.21564Q463.72748 314.73126 463.41498 315.65314Q463.1181 316.575 462.4931 317.09064Q461.88373 317.59064 460.9306 317.59064Q459.69623 317.59064 458.97748 316.7Q458.13373 315.6375 458.13373 313.21564ZM459.21185 313.21564Q459.21185 315.325 459.71185 316.02814Q460.21185 316.73126 460.9306 316.73126Q461.66498 316.73126 462.14935 316.02814Q462.64935 315.325 462.64935 313.21564Q462.64935 311.09064 462.14935 310.40314Q461.66498 309.7 460.91498 309.7Q460.19623 309.7 459.75873 310.3094Q459.21185 311.09064 459.21185 313.21564ZM465.13373 313.21564Q465.13373 311.6844 465.44623 310.7625Q465.75873 309.825 466.3681 309.325Q466.9931 308.825 467.9306 308.825Q468.6181 308.825 469.13373 309.10626Q469.66498 309.3875 470.00873 309.91876Q470.35248 310.4344 470.53998 311.1844Q470.72748 311.9344 470.72748 313.21564Q470.72748 314.73126 470.41498 315.65314Q470.1181 316.575 469.4931 317.09064Q468.88373 317.59064 467.9306 317.59064Q466.69623 317.59064 465.97748 316.7Q465.13373 315.6375 465.13373 313.21564ZM466.21185 313.21564Q466.21185 315.325 466.71185 316.02814Q467.21185 316.73126 467.9306 316.73126Q468.66498 316.73126 469.14935 316.02814Q469.64935 315.325 469.64935 313.21564Q469.64935 311.09064 469.14935 310.40314Q468.66498 309.7 467.91498 309.7Q467.19623 309.7 466.75873 310.3094Q466.21185 311.09064 466.21185 313.21564Z" fill-rule="nonzero"/><path fill="#000000" d="M568.02716 317.45L566.9803 317.45L566.9803 310.73126Q566.58966 311.09064 565.96466 311.46564Q565.3553 311.825 564.8709 311.9969L564.8709 310.98126Q565.7459 310.5594 566.40216 309.98126Q567.07404 309.3875 567.3553 308.825L568.02716 308.825L568.02716 317.45ZM571.0584 313.21564Q571.0584 311.6844 571.3709 310.7625Q571.6834 309.825 572.2928 309.325Q572.9178 308.825 573.8553 308.825Q574.5428 308.825 575.0584 309.10626Q575.58966 309.3875 575.9334 309.91876Q576.27716 310.4344 576.46466 311.1844Q576.65216 311.9344 576.65216 313.21564Q576.65216 314.73126 576.33966 315.65314Q576.0428 316.575 575.4178 317.09064Q574.8084 317.59064 573.8553 317.59064Q572.6209 317.59064 571.90216 316.7Q571.0584 315.6375 571.0584 313.21564ZM572.13654 313.21564Q572.13654 315.325 572.63654 316.02814Q573.13654 316.73126 573.8553 316.73126Q574.58966 316.73126 575.07404 316.02814Q575.57404 315.325 575.57404 313.21564Q575.57404 311.09064 575.07404 310.40314Q574.58966 309.7 573.83966 309.7Q573.1209 309.7 572.6834 310.3094Q572.13654 311.09064 572.13654 313.21564ZM578.0584 313.21564Q578.0584 311.6844 578.3709 310.7625Q578.6834 309.825 579.2928 309.325Q579.9178 308.825 580.8553 308.825Q581.5428 308.825 582.0584 309.10626Q582.58966 309.3875 582.9334 309.91876Q583.27716 310.4344 583.46466 311.1844Q583.65216 311.9344 583.65216 313.21564Q583.65216 314.73126 583.33966 315.65314Q583.0428 316.575 582.4178 317.09064Q581.8084 317.59064 580.8553 317.59064Q579.6209 317.59064 578.90216 316.7Q578.0584 315.6375 578.0584 313.21564ZM579.13654 313.21564Q579.13654 315.325 579.63654 316.02814Q580.13654 316.73126 580.8553 316.73126Q581.58966 316.73126 582.07404 316.02814Q582.57404 315.325 582.57404 313.21564Q582.57404 311.09064 582.07404 310.40314Q581.58966 309.7 580.83966 309.7Q580.1209 309.7 579.6834 310.3094Q579.13654 311.09064 579.13654 313.21564ZM585.0584 313.21564Q585.0584 311.6844 585.3709 310.7625Q585.6834 309.825 586.2928 309.325Q586.9178 308.825 587.8553 308.825Q588.5428 308.825 589.0584 309.10626Q589.58966 309.3875 589.9334 309.91876Q590.27716 310.4344 590.46466 311.1844Q590.65216 311.9344 590.65216 313.21564Q590.65216 314.73126 590.33966 315.65314Q590.0428 316.575 589.4178 317.09064Q588.8084 317.59064 587.8553 317.59064Q586.6209 317.59064 585.90216 316.7Q585.0584 315.6375 585.0584 313.21564ZM586.13654 313.21564Q586.13654 315.325 586.63654 316.02814Q587.13654 316.73126 587.8553 316.73126Q588.58966 316.73126 589.07404 316.02814Q589.57404 315.325 589.57404 313.21564Q589.57404 311.09064 589.07404 310.40314Q588.58966 309.7 587.83966 309.7Q587.1209 309.7 586.6834 310.3094Q586.13654 311.09064 586.13654 313.21564ZM592.0584 313.21564Q592.0584 311.6844 592.3709 310.7625Q592.6834 309.825 593.2928 309.325Q593.9178 308.825 594.8553 308.825Q595.5428 308.825 596.0584 309.10626Q596.58966 309.3875 596.9334 309.91876Q597.27716 310.4344 597.46466 311.1844Q597.65216 311.9344 597.65216 313.21564Q597.65216 314.73126 597.33966 315.65314Q597.0428 316.575 596.4178 317.09064Q595.8084 317.59064 594.8553 317.59064Q593.6209 317.59064 592.90216 316.7Q592.0584 315.6375 592.0584 313.21564ZM593.13654 313.21564Q593.13654 315.325 593.63654 316.02814Q594.13654 316.73126 594.8553 316.73126Q595.58966 316.73126 596.07404 316.02814Q596.57404 315.325 596.57404 313.21564Q596.57404 311.09064 596.07404 310.40314Q595.58966 309.7 594.83966 309.7Q594.1209 309.7 593.6834 310.3094Q593.13654 311.09064 593.13654 313.21564Z" fill-rule="nonzero"/><path fill="#4285f4" d="M237.0 85.916664C237.0 89.23038 234.3137 91.916664 231.0 91.916664C227.6863 91.916664 225.0 89.23038 225.0 85.916664C225.0 82.60296 227.6863 79.916664 231.0 79.916664C234.3137 79.916664 237.0 82.60296 237.0 85.916664Z" fill-rule="nonzero"/><path fill="#1a1a1a" d="M246.125 89.916664L246.125 81.322914L247.25 81.322914L247.25 89.916664L246.125 89.916664ZM253.8125 92.447914Q252.9375 91.33854 252.32812 89.86979Q251.73438 88.385414 251.73438 86.80729Q251.73438 85.416664 252.17188 84.135414Q252.70312 82.65104 253.8125 81.18229L254.5625 81.18229Q253.85938 82.40104 253.625 82.916664Q253.26562 83.729164 253.0625 84.604164Q252.8125 85.697914 252.8125 86.80729Q252.8125 89.635414 254.5625 92.447914L253.8125 92.447914ZM255.79688 89.916664L255.79688 83.697914L256.73438 83.697914L256.73438 84.572914Q257.03125 84.104164 257.51562 83.83854Q258.0 83.55729 258.625 83.55729Q259.3125 83.55729 259.75 83.83854Q260.20312 84.11979 260.375 84.635414Q261.125 83.55729 262.29688 83.55729Q263.23438 83.55729 263.71875 84.072914Q264.21875 84.572914 264.21875 85.65104L264.21875 89.916664L263.17188 89.916664L263.17188 85.99479Q263.17188 85.36979 263.0625 85.08854Q262.96875 84.80729 262.70312 84.635414Q262.4375 84.46354 262.0625 84.46354Q261.40625 84.46354 260.96875 84.90104Q260.54688 85.33854 260.54688 86.30729L260.54688 89.916664L259.48438 89.916664L259.48438 85.86979Q259.48438 85.166664 259.21875 84.822914Q258.96875 84.46354 258.39062 84.46354Q257.9375 84.46354 257.5625 84.697914Q257.1875 84.93229 257.01562 85.385414Q256.84375 85.83854 256.84375 86.68229L256.84375 89.916664L255.79688 89.916664ZM264.98438 89.916664L268.28125 81.322914L269.5 81.322914L273.01562 89.916664L271.73438 89.916664L270.71875 87.30729L267.14062 87.30729L266.1875 89.916664L264.98438 89.916664ZM267.46875 86.385414L270.375 86.385414L269.48438 84.010414Q269.0625 82.93229 268.875 82.229164Q268.70312 83.05729 268.40625 83.86979L267.46875 86.385414ZM274.48438 92.447914L273.73438 92.447914Q275.48438 89.635414 275.48438 86.80729Q275.48438 85.71354 275.23438 84.61979Q275.03125 83.74479 274.67188 82.93229Q274.4375 82.416664 273.73438 81.18229L274.48438 81.18229Q275.57812 82.65104 276.10938 84.135414Q276.5625 85.416664 276.5625 86.80729Q276.5625 88.385414 275.95312 89.86979Q275.34375 91.33854 274.48438 92.447914Z" fill-rule="nonzero"/><path stroke="#4285f4" stroke-width="4.0" stroke-linecap="butt" stroke-opacity="0.4" d="M293.0 85.916664L305.0 85.916664" fill-rule="nonzero"/><path fill="#1a1a1a" d="M313.5 85.68229Q313.5 84.15104 313.8125 83.229164Q314.125 82.291664 314.73438 81.791664Q315.35938 81.291664 316.29688 81.291664Q316.98438 81.291664 317.5 81.572914Q318.03125 81.854164 318.375 82.385414Q318.71875 82.90104 318.90625 83.65104Q319.09375 84.40104 319.09375 85.68229Q319.09375 87.197914 318.78125 88.11979Q318.48438 89.041664 317.85938 89.55729Q317.25 90.05729 316.29688 90.05729Q315.0625 90.05729 314.34375 89.166664Q313.5 88.104164 313.5 85.68229ZM314.57812 85.68229Q314.57812 87.791664 315.07812 88.49479Q315.57812 89.197914 316.29688 89.197914Q317.03125 89.197914 317.51562 88.49479Q318.01562 87.791664 318.01562 85.68229Q318.01562 83.55729 317.51562 82.86979Q317.03125 82.166664 316.28125 82.166664Q315.5625 82.166664 315.125 82.77604Q314.57812 83.55729 314.57812 85.68229ZM320.375 82.90104L320.64062 82.072914Q321.57812 82.40104 322.0 82.635414Q321.89062 81.572914 321.875 81.18229L322.73438 81.18229Q322.71875 81.760414 322.59375 82.635414Q323.20312 82.322914 323.98438 82.072914L324.25 82.90104Q323.5 83.15104 322.79688 83.229164Q323.14062 83.541664 323.79688 84.33854L323.09375 84.83854Q322.75 84.36979 322.29688 83.572914Q321.85938 84.40104 321.53125 84.83854L320.84375 84.33854Q321.51562 83.49479 321.8125 83.229164Q321.0625 83.08854 320.375 82.90104ZM325.09375 89.916664L327.35938 86.68229L325.26562 83.697914L326.57812 83.697914L327.53125 85.15104Q327.79688 85.572914 327.96875 85.854164Q328.21875 85.46354 328.4375 85.166664L329.48438 83.697914L330.75 83.697914L328.59375 86.61979L330.90625 89.916664L329.625 89.916664L328.34375 87.979164L328.0 87.46354L326.35938 89.916664L325.09375 89.916664ZM337.0 88.52604L337.0 86.166664L334.67188 86.166664L334.67188 85.18229L337.0 85.18229L337.0 82.854164L338.0 82.854164L338.0 85.18229L340.34375 85.18229L340.34375 86.166664L338.0 86.166664L338.0 88.52604L337.0 88.52604ZM344.5 85.68229Q344.5 84.15104 344.8125 83.229164Q345.125 82.291664 345.73438 81.791664Q346.35938 81.291664 347.29688 81.291664Q347.98438 81.291664 348.5 81.572914Q349.03125 81.854164 349.375 82.385414Q349.71875 82.90104 349.90625 83.65104Q350.09375 84.40104 350.09375 85.68229Q350.09375 87.197914 349.78125 88.11979Q349.48438 89.041664 348.85938 89.55729Q348.25 90.05729 347.29688 90.05729Q346.0625 90.05729 345.34375 89.166664Q344.5 88.104164 344.5 85.68229ZM345.57812 85.68229Q345.57812 87.791664 346.07812 88.49479Q346.57812 89.197914 347.29688 89.197914Q348.03125 89.197914 348.51562 88.49479Q349.01562 87.791664 349.01562 85.68229Q349.01562 83.55729 348.51562 82.86979Q348.03125 82.166664 347.28125 82.166664Q346.5625 82.166664 346.125 82.77604Q345.57812 83.55729 345.57812 85.68229ZM352.09375 89.916664L352.09375 88.71354L353.29688 88.71354L353.29688 89.916664L352.09375 89.916664ZM359.96875 83.43229L358.92188 83.510414Q358.78125 82.885414 358.53125 82.604164Q358.09375 82.15104 357.46875 82.15104Q356.96875 82.15104 356.57812 82.43229Q356.09375 82.80729 355.79688 83.510414Q355.51562 84.197914 355.5 85.479164Q355.875 84.90104 356.42188 84.61979Q356.98438 84.33854 357.59375 84.33854Q358.64062 84.33854 359.375 85.11979Q360.125 85.90104 360.125 87.11979Q360.125 87.93229 359.76562 88.635414Q359.42188 89.322914 358.8125 89.697914Q358.20312 90.05729 357.4375 90.05729Q356.10938 90.05729 355.28125 89.08854Q354.45312 88.11979 354.45312 85.90104Q354.45312 83.40104 355.375 82.27604Q356.17188 81.291664 357.53125 81.291664Q358.54688 81.291664 359.1875 81.86979Q359.84375 82.43229 359.96875 83.43229ZM355.67188 87.135414Q355.67188 87.68229 355.89062 88.18229Q356.125 88.666664 356.53125 88.93229Q356.95312 89.197914 357.42188 89.197914Q358.07812 89.197914 358.5625 88.666664Q359.04688 88.11979 359.04688 87.197914Q359.04688 86.30729 358.5625 85.791664Q358.09375 85.27604 357.375 85.27604Q356.65625 85.27604 356.15625 85.791664Q355.67188 86.30729 355.67188 87.135414ZM367.04688 88.90104L367.04688 89.916664L361.35938 89.916664Q361.35938 89.541664 361.48438 89.18229Q361.70312 88.604164 362.17188 88.041664Q362.65625 87.479164 363.5625 86.74479Q364.96875 85.58854 365.45312 84.916664Q365.95312 84.24479 365.95312 83.65104Q365.95312 83.02604 365.5 82.604164Q365.04688 82.166664 364.32812 82.166664Q363.5625 82.166664 363.10938 82.61979Q362.65625 83.072914 362.64062 83.885414L361.5625 83.77604Q361.67188 82.55729 362.39062 81.93229Q363.125 81.291664 364.35938 81.291664Q365.59375 81.291664 366.3125 81.979164Q367.03125 82.666664 367.03125 83.68229Q367.03125 84.197914 366.8125 84.697914Q366.60938 85.18229 366.10938 85.74479Q365.625 86.291664 364.5 87.24479Q363.54688 88.041664 363.26562 88.33854Q363.0 88.61979 362.82812 88.90104L367.04688 88.90104ZM371.875 89.916664L371.875 87.854164L368.15625 87.854164L368.15625 86.885414L372.07812 81.322914L372.9375 81.322914L372.9375 86.885414L374.09375 86.885414L374.09375 87.854164L372.9375 87.854164L372.9375 89.916664L371.875 89.916664ZM371.875 86.885414L371.875 83.02604L369.1875 86.885414L371.875 86.885414Z" fill-rule="nonzero"/><path fill="#757575" d="M20.409374 37.55L20.409374 23.2375L22.315624 23.2375L22.315624 37.55L20.409374 37.55ZM35.221874 41.753124Q33.76875 39.925 32.76875 37.471874Q31.76875 35.003124 31.76875 32.3625Q31.76875 30.034374 32.51875 27.909374Q33.39375 25.440624 35.221874 22.9875L36.4875 22.9875Q35.3 25.01875 34.925 25.89375Q34.33125 27.2375 33.9875 28.70625Q33.565624 30.534374 33.565624 32.378124Q33.565624 37.065624 36.4875 41.753124L35.221874 41.753124ZM38.8625 37.55L38.8625 27.175L40.440624 27.175L40.440624 28.628124Q40.925 27.878124 41.7375 27.409374Q42.55 26.940624 43.58125 26.940624Q44.7375 26.940624 45.471874 27.425Q46.20625 27.89375 46.51875 28.753124Q47.753124 26.940624 49.721874 26.940624Q51.26875 26.940624 52.096874 27.8Q52.925 28.659374 52.925 30.425L52.925 37.55L51.175 37.55L51.175 31.01875Q51.175 29.95625 51.003124 29.503124Q50.83125 29.034374 50.378124 28.753124Q49.940624 28.471874 49.33125 28.471874Q48.2375 28.471874 47.503124 29.20625Q46.784374 29.925 46.784374 31.51875L46.784374 37.55L45.034374 37.55L45.034374 30.815624Q45.034374 29.64375 44.596874 29.065624Q44.175 28.471874 43.190624 28.471874Q42.45625 28.471874 41.815624 28.8625Q41.190624 29.253124 40.909374 30.003124Q40.628124 30.753124 40.628124 32.175L40.628124 37.55L38.8625 37.55ZM54.51875 37.55L60.01875 23.2375L62.065624 23.2375L67.925 37.55L65.76875 37.55L64.09688 33.20625L58.1125 33.20625L56.534374 37.55L54.51875 37.55ZM58.659374 31.675L63.503124 31.675L62.01875 27.70625Q61.33125 25.89375 61.003124 24.7375Q60.721874 26.1125 60.221874 27.471874L58.659374 31.675ZM70.01875 41.753124L68.76875 41.753124Q71.675 37.065624 71.675 32.378124Q71.675 30.534374 71.26875 28.7375Q70.925 27.26875 70.33125 25.925Q69.95625 25.034374 68.76875 22.9875L70.01875 22.9875Q71.8625 25.440624 72.7375 27.909374Q73.4875 30.034374 73.4875 32.3625Q73.4875 35.003124 72.47188 37.471874Q71.47188 39.925 70.01875 41.753124ZM84.75313 37.55L80.8 27.175L82.65938 27.175L84.89375 33.39375Q85.25313 34.39375 85.55 35.471874Q85.78438 34.659374 86.20625 33.503124L88.50313 27.175L90.31563 27.175L86.39375 37.55L84.75313 37.55ZM91.15938 34.45625L92.90938 34.175Q93.05 35.221874 93.72188 35.784374Q94.39375 36.33125 95.59688 36.33125Q96.8 36.33125 97.37813 35.846874Q97.97188 35.346874 97.97188 34.690624Q97.97188 34.096874 97.45625 33.753124Q97.09688 33.51875 95.65938 33.159374Q93.72188 32.659374 92.97188 32.315624Q92.2375 31.95625 91.84688 31.33125Q91.45625 30.690624 91.45625 29.925Q91.45625 29.2375 91.76875 28.64375Q92.09688 28.05 92.64375 27.659374Q93.05 27.3625 93.75313 27.159374Q94.47188 26.940624 95.28438 26.940624Q96.50313 26.940624 97.425 27.3Q98.34688 27.64375 98.78438 28.253124Q99.22188 28.846874 99.39375 29.846874L97.675 30.08125Q97.55 29.284374 96.9875 28.846874Q96.425 28.39375 95.40938 28.39375Q94.19063 28.39375 93.675 28.8Q93.15938 29.190624 93.15938 29.721874Q93.15938 30.065624 93.37813 30.346874Q93.58125 30.628124 94.05 30.815624Q94.31563 30.909374 95.59688 31.253124Q97.47188 31.753124 98.20625 32.08125Q98.94063 32.39375 99.3625 33.003124Q99.78438 33.596874 99.78438 34.503124Q99.78438 35.378124 99.26875 36.159374Q98.75313 36.940624 97.78438 37.3625Q96.81563 37.784374 95.59688 37.784374Q93.58125 37.784374 92.51875 36.940624Q91.45625 36.096874 91.15938 34.45625ZM102.3625 37.55L102.3625 35.55L104.3625 35.55L104.3625 37.55L102.3625 37.55ZM114.12813 37.55L114.12813 23.2375L120.47188 23.2375Q122.37813 23.2375 123.37813 23.628124Q124.37813 24.003124 124.97188 24.9875Q125.56563 25.95625 125.56563 27.14375Q125.56563 28.659374 124.58125 29.70625Q123.59688 30.753124 121.53438 31.034374Q122.28438 31.39375 122.675 31.753124Q123.50313 32.503124 124.25313 33.659374L126.7375 37.55L124.3625 37.55L122.45625 34.565624Q121.62813 33.284374 121.09688 32.596874Q120.56563 31.909374 120.12813 31.64375Q119.70625 31.3625 119.26875 31.253124Q118.94063 31.190624 118.22188 31.190624L116.01875 31.190624L116.01875 37.55L114.12813 37.55ZM116.01875 29.55L120.09688 29.55Q121.39375 29.55 122.1125 29.284374Q122.84688 29.01875 123.22188 28.425Q123.6125 27.83125 123.6125 27.14375Q123.6125 26.128124 122.87813 25.471874Q122.14375 24.815624 120.55 24.815624L116.01875 24.815624L116.01875 29.55ZM136.6125 35.8625L136.6125 37.55L127.15938 37.55Q127.14375 36.909374 127.3625 36.33125Q127.72188 35.3625 128.51875 34.425Q129.31563 33.4875 130.81563 32.253124Q133.15938 30.346874 133.97188 29.2375Q134.8 28.1125 134.8 27.1125Q134.8 26.065624 134.05 25.346874Q133.3 24.628124 132.09688 24.628124Q130.83125 24.628124 130.06563 25.39375Q129.3 26.159374 129.3 27.503124L127.4875 27.315624Q127.675 25.3 128.87813 24.2375Q130.09688 23.175 132.14375 23.175Q134.19063 23.175 135.39375 24.315624Q136.59688 25.45625 136.59688 27.14375Q136.59688 28.003124 136.2375 28.846874Q135.89375 29.675 135.08125 30.596874Q134.26875 31.503124 132.37813 33.1125Q130.78438 34.440624 130.33125 34.909374Q129.89375 35.378124 129.59688 35.8625L136.6125 35.8625ZM148.22188 41.753124Q146.76875 39.925 145.76875 37.471874Q144.76875 35.003124 144.76875 32.3625Q144.76875 30.034374 145.51875 27.909374Q146.39375 25.440624 148.22188 22.9875L149.4875 22.9875Q148.3 25.01875 147.925 25.89375Q147.33125 27.2375 146.9875 28.70625Q146.56563 30.534374 146.56563 32.378124Q146.56563 37.065624 149.4875 41.753124L148.22188 41.753124ZM151.51875 30.58125Q151.51875 27.01875 153.425 25.003124Q155.34688 22.971874 158.37813 22.971874Q160.3625 22.971874 161.94063 23.925Q163.53438 24.878124 164.3625 26.58125Q165.20625 28.26875 165.20625 30.409374Q165.20625 32.58125 164.33125 34.3Q163.45625 36.01875 161.83125 36.909374Q160.22188 37.8 158.3625 37.8Q156.34688 37.8 154.75313 36.83125Q153.15938 35.846874 152.33125 34.159374Q151.51875 32.45625 151.51875 30.58125ZM153.47188 30.6125Q153.47188 33.190624 154.8625 34.690624Q156.25313 36.175 158.34688 36.175Q160.4875 36.175 161.8625 34.675Q163.25313 33.159374 163.25313 30.39375Q163.25313 28.659374 162.65938 27.3625Q162.08125 26.05 160.94063 25.33125Q159.8 24.6125 158.37813 24.6125Q156.37813 24.6125 154.925 26.003124Q153.47188 27.378124 153.47188 30.6125ZM167.8625 37.55L167.8625 23.2375L169.62813 23.2375L169.62813 28.3625Q170.8625 26.940624 172.7375 26.940624Q173.87813 26.940624 174.72188 27.39375Q175.58125 27.846874 175.94063 28.659374Q176.31563 29.45625 176.31563 30.971874L176.31563 37.55L174.56563 37.55L174.56563 30.971874Q174.56563 29.659374 173.9875 29.065624Q173.40938 28.45625 172.37813 28.45625Q171.59688 28.45625 170.89375 28.8625Q170.20625 29.26875 169.90938 29.971874Q169.62813 30.659374 169.62813 31.878124L169.62813 37.55L167.8625 37.55ZM178.8625 37.55L178.8625 27.175L180.44063 27.175L180.44063 28.628124Q180.925 27.878124 181.7375 27.409374Q182.55 26.940624 183.58125 26.940624Q184.7375 26.940624 185.47188 27.425Q186.20625 27.89375 186.51875 28.753124Q187.75313 26.940624 189.72188 26.940624Q191.26875 26.940624 192.09688 27.8Q192.925 28.659374 192.925 30.425L192.925 37.55L191.175 37.55L191.175 31.01875Q191.175 29.95625 191.00313 29.503124Q190.83125 29.034374 190.37813 28.753124Q189.94063 28.471874 189.33125 28.471874Q188.2375 28.471874 187.50313 29.20625Q186.78438 29.925 186.78438 31.51875L186.78438 37.55L185.03438 37.55L185.03438 30.815624Q185.03438 29.64375 184.59688 29.065624Q184.175 28.471874 183.19063 28.471874Q182.45625 28.471874 181.81563 28.8625Q181.19063 29.253124 180.90938 30.003124Q180.62813 30.753124 180.62813 32.175L180.62813 37.55L178.8625 37.55ZM195.15938 34.45625L196.90938 34.175Q197.05 35.221874 197.72188 35.784374Q198.39375 36.33125 199.59688 36.33125Q200.8 36.33125 201.37813 35.846874Q201.97188 35.346874 201.97188 34.690624Q201.97188 34.096874 201.45625 33.753124Q201.09688 33.51875 199.65938 33.159374Q197.72188 32.659374 196.97188 32.315624Q196.2375 31.95625 195.84688 31.33125Q195.45625 30.690624 195.45625 29.925Q195.45625 29.2375 195.76875 28.64375Q196.09688 28.05 196.64375 27.659374Q197.05 27.3625 197.75313 27.159374Q198.47188 26.940624 199.28438 26.940624Q200.50313 26.940624 201.425 27.3Q202.34688 27.64375 202.78438 28.253124Q203.22188 28.846874 203.39375 29.846874L201.675 30.08125Q201.55 29.284374 200.9875 28.846874Q200.425 28.39375 199.40938 28.39375Q198.19063 28.39375 197.675 28.8Q197.15938 29.190624 197.15938 29.721874Q197.15938 30.065624 197.37813 30.346874Q197.58125 30.628124 198.05 30.815624Q198.31563 30.909374 199.59688 31.253124Q201.47188 31.753124 202.20625 32.08125Q202.94063 32.39375 203.3625 33.003124Q203.78438 33.596874 203.78438 34.503124Q203.78438 35.378124 203.26875 36.159374Q202.75313 36.940624 201.78438 37.3625Q200.81563 37.784374 199.59688 37.784374Q197.58125 37.784374 196.51875 36.940624Q195.45625 36.096874 195.15938 34.45625ZM207.01875 41.753124L205.76875 41.753124Q208.675 37.065624 208.675 32.378124Q208.675 30.534374 208.26875 28.7375Q207.925 27.26875 207.33125 25.925Q206.95625 25.034374 205.76875 22.9875L207.01875 22.9875Q208.8625 25.440624 209.7375 27.909374Q210.4875 30.034374 210.4875 32.3625Q210.4875 35.003124 209.47188 37.471874Q208.47188 39.925 207.01875 41.753124Z" fill-rule="nonzero"/></svg>