<svg version="1.1" viewBox="0.0 0.0 600.0 371.0" fill="none" stroke="none" stroke-linecap="square" stroke-miterlimit="10" width="600" height="371" xmlns:xlink="http://www.w3.org/1999/xlink" xmlns="http://www.w3.org/2000/svg"><path fill="#ffffff" d="M0 0L600.0 0L600.0 371.0L0 371.0L0 0Z" fill-rule="nonzero"/><path stroke="#cccccc" stroke-width="1.0" stroke-linecap="butt" d="M84.5 112.5L84.5 300.5" fill-rule="nonzero"/><path stroke="#cccccc" stroke-width="1.0" stroke-linecap="butt" d="M184.5 112.5L184.5 300.5" fill-rule="nonzero"/><path stroke="#cccccc" stroke-width="1.0" stroke-linecap="butt" d="M283.5 112.5L283.5 300.5" fill-rule="nonzero"/><path stroke="#cccccc" stroke-width="1.0" stroke-linecap="butt" d="M383.5 112.5L383.5 300.5" fill-rule="nonzero"/><path stroke="#cccccc" stroke-width="1.0" stroke-linecap="butt" d="M482.5 112.5L482.5 300.5" fill-rule="nonzero"/><path stroke="#cccccc" stroke-width="1.0" stroke-linecap="butt" d="M77.5 300.5L581.5 300.5" fill-rule="nonzero"/><path stroke="#cccccc" stroke-width="1.0" stroke-linecap="butt" d="M77.5 262.5L581.5 262.5" fill-rule="nonzero"/><path stroke="#cccccc" stroke-width="1.0" stroke-linecap="butt" d="M77.5 225.5L581.5 225.5" fill-rule="nonzero"/><path stroke="#cccccc" stroke-width="1.0" stroke-linecap="butt" d="M77.5 187.5L581.5 187.5" fill-rule="nonzero"/><path stroke="#cccccc" stroke-width="1.0" stroke-linecap="butt" d="M77.5 149.5L581.5 149.5" fill-rule="nonzero"/><path stroke="#333333" stroke-width="1.0" stroke-linecap="butt" d="M77.5 112.5L581.5 112.5" fill-rule="nonzero"/><clipPath id="id_0"><path d="M77.55 112.28333L581.45 112.28333L581.45 300.45L77.55 300.45L77.55 112.28333Z" clip-rule="nonzero"/></clipPath><path stroke="#4285f4" stroke-width="2.0" stroke-linecap="butt" stroke-opacity="0.4" clip-path="url(#id_0)" d="M0 408.86694C0 408.86694 2.6666667 403.20807 4.0 400.43512C5.3333335 397.66217 6.6666665 394.92758 8.0 392.22922C9.333333 389.53085 10.666667 386.87012 12.0 384.2449C13.333333 381.6197 14.666667 379.0314 16.0 376.47794C17.333334 373.92447 18.666666 371.4072 20.0 368.9241C21.333334 366.44098 22.666666 363.99335 24.0 361.5792C25.333334 359.16504 26.666666 356.7857 28.0 354.43912C29.333334 352.09256 30.666666 349.78012 32.0 347.4998C33.333332 345.21945 34.666668 342.97256 36.0 340.75714C37.333332 338.5417 38.666668 336.359 40.0 334.20715C41.333332 332.05527 42.666668 329.9355 44.0 327.84586C45.333332 325.75623 46.666668 323.69806 48.0 321.66937C49.333332 319.6407 50.666668 317.6428 52.0 315.67377C53.333332 313.70474 54.666668 311.76587 56.0 309.85522C57.333332 307.94458 58.666668 306.06345 60.0 304.20993C61.333332 302.3564 62.666668 300.53177 64.0 298.73413C65.333336 296.93652 66.666664 295.1671 68.0 293.42413C69.333336 291.68115 70.666664 289.9658 72.0 288.27625C73.333336 286.5867 74.666664 284.92413 76.0 283.28683C77.333336 281.6495 78.666664 280.03857 80.0 278.45227C81.333336 276.866 82.666664 275.3055 84.0 273.76907C85.333336 272.23264 86.666664 270.72144 88.0 269.2337C89.333336 267.74597 90.666664 266.28287 92.0 264.84268C93.333336 263.4025 94.666664 261.98636 96.0 260.59256C97.333336 259.1988 98.666664 257.82852 100.0 256.48004C101.333336 255.13155 102.666664 253.80598 104.0 252.5017C105.333336 251.1974 106.666664 249.91547 108.0 248.65425C109.333336 247.39305 110.666664 246.15366 112.0 244.93446C113.333336 243.71529 114.666664 242.51735 116.0 241.33911C117.333336 240.16087 118.666664 239.00336 120.0 237.865C121.333336 236.72665 122.666664 235.60852 124.0 234.50902C125.333336 233.40953 126.666664 232.32973 128.0 231.26807C129.33333 230.2064 130.66667 229.16393 132.0 228.13908C133.33333 227.11426 134.66667 226.10808 136.0 225.11908C137.33333 224.13007 138.66667 223.15921 140.0 222.20506C141.33333 221.2509 142.66667 220.31439 144.0 219.39412C145.33333 218.47383 146.66667 217.57072 148.0 216.68336C149.33333 215.796 150.66667 214.92534 152.0 214.06996C153.33333 213.21458 154.66667 212.37541 156.0 211.55109C157.33333 210.72678 158.66667 209.9182 160.0 209.12401C161.33333 208.32983 162.66667 207.55095 164.0 206.78601C165.33333 206.02107 166.66667 205.27097 168.0 204.53438C169.33333 203.7978 170.66667 203.0756 172.0 202.36652C173.33333 201.65742 174.66667 200.96228 176.0 200.27982C177.33333 199.59735 178.66667 198.9284 180.0 198.27173C181.33333 197.61504 182.66667 196.97145 184.0 196.33974C185.33333 195.70801 186.66667 195.08896 188.0 194.48137C189.33333 193.87378 190.66667 193.27847 192.0 192.69421C193.33333 192.10997 194.66667 191.53758 196.0 190.97589C197.33333 190.41418 198.66667 189.86395 200.0 189.32402C201.33333 188.7841 202.66667 188.25525 204.0 187.73634C205.33333 187.21744 206.66667 186.70921 208.0 186.21057C209.33333 185.71193 210.66667 185.2236 212.0 184.7445C213.33333 184.2654 214.66667 183.79623 216.0 183.33595C217.33333 182.87566 218.66667 182.42496 220.0 181.98277C221.33333 181.5406 222.66667 181.10765 224.0 180.68289C225.33333 180.25813 226.66667 179.84225 228.0 179.43423C229.33333 179.02623 230.66667 178.62675 232.0 178.23482C233.33333 177.84288 234.66667 177.45915 236.0 177.08266C237.33333 176.70615 238.66667 176.33752 240.0 175.97581C241.33333 175.6141 242.66667 175.25995 244.0 174.91241C245.33333 174.56488 246.66667 174.2246 248.0 173.89062C249.33333 173.55666 250.66667 173.22961 252.0 172.90862C253.33333 172.58763 254.66667 172.27325 256.0 171.96465C257.33334 171.65605 258.66666 171.35378 260.0 171.05699C261.33334 170.76022 262.66666 170.46948 264.0 170.18398C265.33334 169.89848 266.66666 169.61874 268.0 169.34396C269.33334 169.0692 270.66666 168.79991 272.0 168.53535C273.33334 168.2708 274.66666 168.01146 276.0 167.7566C277.33334 167.50174 278.66666 167.25185 280.0 167.00618C281.33334 166.76053 282.66666 166.51958 284.0 166.28264C285.33334 166.0457 286.66666 165.81323 288.0 165.58453C289.33334 165.35585 290.66666 165.13138 292.0 164.91049C293.33334 164.68959 294.66666 164.4727 296.0 164.25916C297.33334 164.04561 298.66666 163.83585 300.0 163.62923C301.33334 163.4226 302.66666 163.21954 304.0 163.01944C305.33334 162.81934 306.66666 162.62257 308.0 162.42859C309.33334 162.23459 310.66666 162.04375 312.0 161.85547C313.33334 161.6672 314.66666 161.48189 316.0 161.29897C317.33334 161.11606 318.66666 160.9359 320.0 160.75798C321.33334 160.58006 322.66666 160.40472 324.0 160.23145C325.33334 160.05818 326.66666 159.88731 328.0 159.71837C329.33334 159.54942 330.66666 159.3827 332.0 159.21777C333.33334 159.05283 334.66666 158.88995 336.0 158.72871C337.33334 158.56747 338.66666 158.40814 340.0 158.25032C341.33334 158.09248 342.66666 157.93643 344.0 157.78174C345.33334 157.62704 346.66666 157.47398 348.0 157.32216C349.33334 157.17035 350.66666 157.02003 352.0 156.87083C353.33334 156.72165 354.66666 156.57384 356.0 156.42705C357.33334 156.28026 358.66666 156.1347 360.0 155.9901C361.33334 155.84547 362.66666 155.702 364.0 155.55936C365.33334 155.4167 366.66666 155.27509 368.0 155.13423C369.33334 154.99336 370.66666 154.85342 372.0 154.71416C373.33334 154.57489 374.66666 154.43646 376.0 154.29863C377.33334 154.1608 378.66666 154.02373 380.0 153.88718C381.33334 153.75064 382.66666 153.61476 384.0 153.47937C385.33334 153.34398 386.66666 153.20918 388.0 153.07483C389.33334 152.94046 390.66666 152.80663 392.0 152.67319C393.33334 152.53973 394.66666 152.40677 396.0 152.27414C397.33334 152.14153 398.66666 152.00932 400.0 151.87744C401.33334 151.74556 402.66666 151.61407 404.0 151.48286C405.33334 151.35167 406.66666 151.22081 408.0 151.09023C409.33334 150.95964 410.66666 150.82938 412.0 150.69939C413.33334 150.5694 414.66666 150.43968 416.0 150.31024C417.33334 150.18082 418.66666 150.05165 420.0 149.92276C421.33334 149.79387 422.66666 149.66525 424.0 149.53691C425.33334 149.40857 426.66666 149.28049 428.0 149.15271C429.33334 149.02493 430.66666 148.89743 432.0 148.77025C433.33334 148.64307 434.66666 148.51616 436.0 148.38962C437.33334 148.26308 438.66666 148.13684 440.0 148.011C441.33334 147.88515 442.66666 147.75964 444.0 147.63457C445.33334 147.50949 446.66666 147.38477 448.0 147.26054C449.33334 147.13632 450.66666 147.0125 452.0 146.88924C453.33334 146.76598 454.66666 146.64314 456.0 146.52095C457.33334 146.39874 458.66666 146.27704 460.0 146.15604C461.33334 146.03503 462.66666 145.91458 464.0 145.7949C465.33334 145.67525 466.66666 145.5562 468.0 145.43802C469.33334 145.31984 470.66666 145.20236 472.0 145.08583C473.33334 144.96931 474.66666 144.85358 476.0 144.73889C477.33334 144.6242 478.66666 144.5104 480.0 144.39775C481.33334 144.28511 482.66666 144.17343 484.0 144.06305C485.33334 143.95265 486.66666 143.84332 488.0 143.7354C489.33334 143.62747 490.66666 143.52074 492.0 143.41553C493.33334 143.31032 494.66666 143.20639 496.0 143.10414C497.33334 143.00189 498.66666 142.90106 500.0 142.80203C501.33334 142.70302 502.66666 142.60555 504.0 142.51003C505.33334 142.41452 506.66666 142.32068 508.0 142.22897C509.33334 142.13727 510.66666 142.04738 512.0 141.95978C513.3333 141.87218 514.6667 141.78654 516.0 141.70338C517.3333 141.62021 518.6667 141.53917 520.0 141.46077C521.3333 141.38235 522.6667 141.30624 524.0 141.23296C525.3333 141.15967 526.6667 141.08884 528.0 141.02103C529.3333 140.95322 530.6667 140.88805 532.0 140.8261C533.3333 140.76413 534.6667 140.705 536.0 140.64929C537.3333 140.59358 538.6667 140.54088 540.0 140.49182C541.3333 140.44276 542.6667 140.39691 544.0 140.35492C545.3333 140.31293 546.6667 140.27435 548.0 140.23985C549.3333 140.20537 550.6667 140.1745 552.0 140.14795C553.3333 140.1214 554.6667 140.09871 556.0 140.08057C557.3333 140.06242 558.6667 140.04836 560.0 140.0391C561.3333 140.02985 562.6667 140.02489 564.0 140.025C565.3333 140.0251 566.6667 140.02975 568.0 140.03973C569.3333 140.04971 570.6667 140.06448 572.0 140.08484C573.3333 140.10521 574.6667 140.13062 576.0 140.1619C577.3333 140.19318 580.0 140.27249 580.0 140.27249" fill-rule="nonzero"/><path fill="#4285f4" clip-path="url(#id_0)" d="M88.86077 273.354C88.86077 275.8393 86.846054 277.854 84.36077 277.854C81.875496 277.854 79.86077 275.8393 79.86077 273.354C79.86077 270.8687 81.875496 268.854 84.36077 268.854C86.846054 268.854 88.86077 270.8687 88.86077 273.354Z" fill-rule="nonzero"/><path fill="#4285f4" clip-path="url(#id_0)" d="M214.98744 185.292C214.98744 187.77728 212.97273 189.792 210.48744 189.792C208.00217 189.792 205.98744 187.77728 205.98744 185.292C205.98744 182.80672 208.00217 180.792 210.48744 180.792C212.97273 180.792 214.98744 182.80672 214.98744 185.292Z" fill-rule="nonzero"/><path fill="#4285f4" clip-path="url(#id_0)" d="M338.68976 158.94867C338.68976 161.43394 336.67505 163.44867 334.18976 163.44867C331.70447 163.44867 329.68976 161.43394 329.68976 158.94867C329.68976 156.46338 331.70447 154.44867 334.18976 154.44867C336.67505 154.44867 338.68976 156.46338 338.68976 158.94867Z" fill-rule="nonzero"/><path fill="#4285f4" clip-path="url(#id_0)" d="M460.40488 146.52966C460.40488 149.01495 458.39017 151.02966 455.90488 151.02966C453.4196 151.02966 451.40488 149.01495 451.40488 146.52966C451.40488 144.04439 453.4196 142.02966 455.90488 142.02966C458.39017 142.02966 460.40488 144.04439 460.40488 146.52966Z" fill-rule="nonzero"/><path fill="#4285f4" clip-path="url(#id_0)" d="M579.1392 140.132C579.1392 142.61728 577.1245 144.632 574.6392 144.632C572.15393 144.632 570.1392 142.61728 570.1392 140.132C570.1392 137.64671 572.15393 135.632 574.6392 135.632C577.1245 135.632 579.1392 137.64671 579.1392 140.132Z" fill-rule="nonzero"/><path fill="#000000" d="M300.9375 349.45L300.9375 340.85626L304.75 340.85626Q305.90625 340.85626 306.5 341.09064Q307.09375 341.325 307.45312 341.91876Q307.8125 342.4969 307.8125 343.2Q307.8125 344.1219 307.21875 344.7469Q306.625 345.3719 305.39062 345.54376Q305.84375 345.7625 306.07812 345.96564Q306.57812 346.41876 307.01562 347.10626L308.51562 349.45L307.07812 349.45L305.95312 347.66876Q305.45312 346.8875 305.125 346.48126Q304.8125 346.075 304.54688 345.91876Q304.29688 345.7469 304.03125 345.66876Q303.84375 345.6375 303.40625 345.6375L302.07812 345.6375L302.07812 349.45L300.9375 349.45ZM302.07812 344.65314L304.53125 344.65314Q305.29688 344.65314 305.73438 344.4969Q306.1875 344.325 306.40625 343.98126Q306.64062 343.6219 306.64062 343.2Q306.64062 342.59064 306.1875 342.2Q305.75 341.8094 304.79688 341.8094L302.07812 341.8094L302.07812 344.65314ZM313.46875 349.45L312.42188 349.45L312.42188 342.73126Q312.03125 343.09064 311.40625 343.46564Q310.79688 343.825 310.3125 343.9969L310.3125 342.98126Q311.1875 342.5594 311.84375 341.98126Q312.51562 341.3875 312.79688 340.825L313.46875 340.825L313.46875 349.45ZM321.8125 351.98126Q320.9375 350.8719 320.32812 349.40314Q319.73438 347.91876 319.73438 346.34064Q319.73438 344.95 320.17188 343.66876Q320.70312 342.1844 321.8125 340.71564L322.5625 340.71564Q321.85938 341.9344 321.625 342.45Q321.26562 343.2625 321.0625 344.1375Q320.8125 345.23126 320.8125 346.34064Q320.8125 349.16876 322.5625 351.98126L321.8125 351.98126ZM323.57812 345.2625Q323.57812 343.1219 324.71875 341.91876Q325.875 340.7 327.6875 340.7Q328.89062 340.7 329.84375 341.27814Q330.79688 341.84064 331.29688 342.85626Q331.79688 343.8719 331.79688 345.16876Q331.79688 346.46564 331.26562 347.4969Q330.73438 348.52814 329.76562 349.0594Q328.8125 349.59064 327.6875 349.59064Q326.46875 349.59064 325.51562 349.0125Q324.5625 348.41876 324.0625 347.41876Q323.57812 346.40314 323.57812 345.2625ZM324.75 345.27814Q324.75 346.84064 325.57812 347.73126Q326.42188 348.6219 327.6875 348.6219Q328.96875 348.6219 329.79688 347.73126Q330.625 346.825 330.625 345.15314Q330.625 344.10626 330.26562 343.325Q329.92188 342.54376 329.23438 342.1219Q328.54688 341.6844 327.70312 341.6844Q326.5 341.6844 325.625 342.5125Q324.75 343.34064 324.75 345.27814ZM332.79688 349.45L332.79688 340.85626L333.84375 340.85626L333.84375 343.9344Q334.57812 343.09064 335.70312 343.09064Q336.40625 343.09064 336.90625 343.3719Q337.42188 343.6375 337.64062 344.1219Q337.85938 344.59064 337.85938 345.5125L337.85938 349.45L336.8125 349.45L336.8125 345.5125Q336.8125 344.71564 336.46875 344.35626Q336.125 343.9969 335.5 343.9969Q335.03125 343.9969 334.60938 344.2469Q334.20312 344.48126 334.01562 344.90314Q333.84375 345.3094 333.84375 346.04376L333.84375 349.45L332.79688 349.45ZM339.79688 349.45L339.79688 343.23126L340.73438 343.23126L340.73438 344.10626Q341.03125 343.6375 341.51562 343.3719Q342.0 343.09064 342.625 343.09064Q343.3125 343.09064 343.75 343.3719Q344.20312 343.65314 344.375 344.16876Q345.125 343.09064 346.29688 343.09064Q347.23438 343.09064 347.71875 343.60626Q348.21875 344.10626 348.21875 345.1844L348.21875 349.45L347.17188 349.45L347.17188 345.52814Q347.17188 344.90314 347.0625 344.6219Q346.96875 344.34064 346.70312 344.16876Q346.4375 343.9969 346.0625 343.9969Q345.40625 343.9969 344.96875 344.4344Q344.54688 344.8719 344.54688 345.84064L344.54688 349.45L343.48438 349.45L343.48438 345.40314Q343.48438 344.7 343.21875 344.35626Q342.96875 343.9969 342.39062 343.9969Q341.9375 343.9969 341.5625 344.23126Q341.1875 344.46564 341.01562 344.91876Q340.84375 345.3719 340.84375 346.21564L340.84375 349.45L339.79688 349.45ZM349.375 347.59064L350.40625 347.4344Q350.5 348.0594 350.89062 348.3875Q351.29688 348.71564 352.03125 348.71564Q352.75 348.71564 353.09375 348.4344Q353.45312 348.1375 353.45312 347.73126Q353.45312 347.3719 353.14062 347.16876Q352.92188 347.02814 352.0625 346.8094Q350.90625 346.5125 350.45312 346.3094Q350.01562 346.09064 349.78125 345.71564Q349.54688 345.34064 349.54688 344.8719Q349.54688 344.46564 349.73438 344.10626Q349.92188 343.7469 350.25 343.5125Q350.5 343.34064 350.92188 343.21564Q351.34375 343.09064 351.84375 343.09064Q352.5625 343.09064 353.10938 343.3094Q353.67188 343.5125 353.9375 343.8719Q354.20312 344.23126 354.29688 344.825L353.26562 344.96564Q353.20312 344.4969 352.85938 344.23126Q352.53125 343.95 351.90625 343.95Q351.1875 343.95 350.875 344.2Q350.5625 344.4344 350.5625 344.7625Q350.5625 344.96564 350.6875 345.1219Q350.82812 345.29376 351.09375 345.40314Q351.25 345.46564 352.03125 345.66876Q353.15625 345.98126 353.59375 346.16876Q354.03125 346.35626 354.28125 346.71564Q354.53125 347.075 354.53125 347.6219Q354.53125 348.15314 354.21875 348.6219Q353.92188 349.075 353.34375 349.34064Q352.76562 349.59064 352.03125 349.59064Q350.8125 349.59064 350.17188 349.09064Q349.54688 348.575 349.375 347.59064ZM356.48438 351.98126L355.73438 351.98126Q357.48438 349.16876 357.48438 346.34064Q357.48438 345.2469 357.23438 344.15314Q357.03125 343.27814 356.67188 342.46564Q356.4375 341.95 355.73438 340.71564L356.48438 340.71564Q357.57812 342.1844 358.10938 343.66876Q358.5625 344.95 358.5625 346.34064Q358.5625 347.91876 357.95312 349.40314Q357.34375 350.8719 356.48438 351.98126Z" fill-rule="nonzero"/><path fill="#000000" d="M29.550013 226.49167L20.956263 229.8198L20.956263 228.58542L27.206263 226.35104Q27.956263 226.08542 28.612513 225.89792Q27.909388 225.6948 27.206263 225.42917L20.956263 223.11667L20.956263 221.96042L29.550013 225.3198L29.550013 226.49167ZM26.440638 221.46042Q24.706263 221.46042 23.878138 220.5073Q23.190638 219.71042 23.190638 218.55417Q23.190638 217.27292 24.034388 216.46042Q24.862513 215.6323 26.346888 215.6323Q27.550013 215.6323 28.237513 215.99167Q28.925013 216.35104 29.315638 217.05417Q29.690638 217.74167 29.690638 218.55417Q29.690638 219.85104 28.862513 220.66354Q28.018763 221.46042 26.440638 221.46042ZM26.440638 220.3823Q27.628138 220.3823 28.221888 219.86667Q28.815638 219.33542 28.815638 218.55417Q28.815638 217.7573 28.221888 217.24167Q27.628138 216.72604 26.409388 216.72604Q25.253138 216.72604 24.659388 217.2573Q24.065638 217.77292 24.065638 218.55417Q24.065638 219.33542 24.659388 219.86667Q25.237513 220.3823 26.440638 220.3823ZM32.08126 209.05417Q30.971888 209.92917 29.503138 210.53854Q28.018763 211.1323 26.440638 211.1323Q25.050013 211.1323 23.768763 210.6948Q22.284388 210.16354 20.815638 209.05417L20.815638 208.30417Q22.034388 209.0073 22.550013 209.24167Q23.362513 209.60104 24.237513 209.80417Q25.331263 210.05417 26.440638 210.05417Q29.268763 210.05417 32.08126 208.30417L32.08126 209.05417ZM29.550013 204.49167L20.956263 207.8198L20.956263 206.58542L27.206263 204.35104Q27.956263 204.08542 28.612513 203.89792Q27.909388 203.6948 27.206263 203.42917L20.956263 201.11667L20.956263 199.96042L29.550013 203.3198L29.550013 204.49167ZM32.08126 198.3823L32.08126 199.1323Q29.268763 197.3823 26.440638 197.3823Q25.346888 197.3823 24.253138 197.6323Q23.378138 197.83542 22.565638 198.1948Q22.050013 198.42917 20.815638 199.1323L20.815638 198.3823Q22.284388 197.28854 23.768763 196.7573Q25.050013 196.30417 26.440638 196.30417Q28.018763 196.30417 29.503138 196.91354Q30.971888 197.52292 32.08126 198.3823Z" fill-rule="nonzero"/><path fill="#000000" d="M60.925 301.8719L60.925 300.8094L64.175 300.8094L64.175 301.8719L60.925 301.8719ZM65.05 302.2L66.15938 302.10626Q66.28438 302.91876 66.72188 303.325Q67.175 303.73126 67.81563 303.73126Q68.56563 303.73126 69.09688 303.15314Q69.62813 302.575 69.62813 301.6375Q69.62813 300.73126 69.1125 300.21564Q68.6125 299.6844 67.78438 299.6844Q67.28438 299.6844 66.8625 299.91876Q66.45625 300.15314 66.22188 300.5125L65.2375 300.3875L66.06563 295.98126L70.34688 295.98126L70.34688 296.98126L66.90938 296.98126L66.45625 299.29376Q67.22188 298.7469 68.06563 298.7469Q69.19063 298.7469 69.95625 299.52814Q70.7375 300.3094 70.7375 301.54376Q70.7375 302.7 70.06563 303.5594Q69.2375 304.59064 67.81563 304.59064Q66.64375 304.59064 65.89375 303.9344Q65.15938 303.27814 65.05 302.2Z" fill-rule="nonzero"/><path fill="#000000" d="M60.925 264.23856L60.925 263.17606L64.175 263.17606L64.175 264.23856L60.925 264.23856ZM68.425 266.81668L68.425 264.75418L64.70625 264.75418L64.70625 263.78543L68.62813 258.22293L69.4875 258.22293L69.4875 263.78543L70.64375 263.78543L70.64375 264.75418L69.4875 264.75418L69.4875 266.81668L68.425 266.81668ZM68.425 263.78543L68.425 259.92606L65.7375 263.78543L68.425 263.78543Z" fill-rule="nonzero"/><path fill="#000000" d="M60.925 226.60521L60.925 225.54271L64.175 225.54271L64.175 226.60521L60.925 226.60521ZM65.05 226.91771L66.1125 226.77708Q66.28438 227.66771 66.72188 228.07396Q67.15938 228.46458 67.78438 228.46458Q68.53438 228.46458 69.05 227.94896Q69.56563 227.43333 69.56563 226.66771Q69.56563 225.94896 69.08125 225.48021Q68.6125 224.99583 67.87813 224.99583Q67.58125 224.99583 67.12813 225.12083L67.25313 224.18333Q67.3625 224.19896 67.425 224.19896Q68.09688 224.19896 68.62813 223.85521Q69.175 223.49583 69.175 222.76146Q69.175 222.18333 68.78438 221.80833Q68.39375 221.41771 67.76875 221.41771Q67.15938 221.41771 66.7375 221.80833Q66.33125 222.19896 66.22188 222.96458L65.15938 222.77708Q65.34688 221.73021 66.03438 221.15208Q66.72188 220.55833 67.7375 220.55833Q68.44063 220.55833 69.03438 220.87083Q69.62813 221.16771 69.94063 221.68333Q70.25313 222.19896 70.25313 222.79271Q70.25313 223.33958 69.95625 223.80833Q69.65938 224.26146 69.08125 224.52708Q69.83125 224.69896 70.25313 225.26146Q70.675 225.80833 70.675 226.65208Q70.675 227.77708 69.84688 228.55833Q69.03438 229.33958 67.78438 229.33958Q66.65938 229.33958 65.90938 228.66771Q65.15938 227.98021 65.05 226.91771Z" fill-rule="nonzero"/><path fill="#000000" d="M60.925 188.97188L60.925 187.90938L64.175 187.90938L64.175 188.97188L60.925 188.97188ZM70.59688 190.53438L70.59688 191.55L64.90938 191.55Q64.90938 191.175 65.03438 190.81563Q65.25313 190.2375 65.72188 189.675Q66.20625 189.1125 67.1125 188.37813Q68.51875 187.22188 69.00313 186.55Q69.50313 185.87813 69.50313 185.28438Q69.50313 184.65938 69.05 184.2375Q68.59688 183.8 67.87813 183.8Q67.1125 183.8 66.65938 184.25313Q66.20625 184.70625 66.19063 185.51875L65.1125 185.40938Q65.22188 184.19063 65.94063 183.56563Q66.675 182.925 67.90938 182.925Q69.14375 182.925 69.8625 183.6125Q70.58125 184.3 70.58125 185.31563Q70.58125 185.83125 70.3625 186.33125Q70.15938 186.81563 69.65938 187.37813Q69.175 187.925 68.05 188.87813Q67.09688 189.675 66.81563 189.97188Q66.55 190.25313 66.37813 190.53438L70.59688 190.53438Z" fill-rule="nonzero"/><path fill="#000000" d="M60.925 151.33855L60.925 150.27605L64.175 150.27605L64.175 151.33855L60.925 151.33855ZM69.01875 153.91667L67.97188 153.91667L67.97188 147.19792Q67.58125 147.5573 66.95625 147.9323Q66.34688 148.29167 65.8625 148.46355L65.8625 147.44792Q66.7375 147.02605 67.39375 146.44792Q68.06563 145.85417 68.34688 145.29167L69.01875 145.29167L69.01875 153.91667Z" fill-rule="nonzero"/><path fill="#000000" d="M65.05 112.04896Q65.05 110.51771 65.3625 109.59583Q65.675 108.65833 66.28438 108.15833Q66.90938 107.65833 67.84688 107.65833Q68.53438 107.65833 69.05 107.93958Q69.58125 108.22083 69.925 108.75208Q70.26875 109.26771 70.45625 110.01771Q70.64375 110.76771 70.64375 112.04896Q70.64375 113.56458 70.33125 114.48646Q70.03438 115.40833 69.40938 115.92396Q68.8 116.42396 67.84688 116.42396Q66.6125 116.42396 65.89375 115.53333Q65.05 114.47083 65.05 112.04896ZM66.12813 112.04896Q66.12813 114.15833 66.62813 114.86146Q67.12813 115.56458 67.84688 115.56458Q68.58125 115.56458 69.06563 114.86146Q69.56563 114.15833 69.56563 112.04896Q69.56563 109.92396 69.06563 109.23646Q68.58125 108.53333 67.83125 108.53333Q67.1125 108.53333 66.675 109.14271Q66.12813 109.92396 66.12813 112.04896Z" fill-rule="nonzero"/><path fill="#000000" d="M76.993866 316.4344L76.993866 317.45L71.306366 317.45Q71.306366 317.075 71.431366 316.71564Q71.650116 316.1375 72.118866 315.575Q72.60324 315.0125 73.50949 314.27814Q74.91574 313.1219 75.400116 312.45Q75.900116 311.77814 75.900116 311.1844Q75.900116 310.5594 75.44699 310.1375Q74.993866 309.7 74.275116 309.7Q73.50949 309.7 73.056366 310.15314Q72.60324 310.60626 72.587616 311.41876L71.50949 311.3094Q71.618866 310.09064 72.337616 309.46564Q73.07199 308.825 74.306366 308.825Q75.54074 308.825 76.25949 309.5125Q76.97824 310.2 76.97824 311.21564Q76.97824 311.73126 76.75949 312.23126Q76.556366 312.71564 76.056366 313.27814Q75.57199 313.825 74.44699 314.77814Q73.493866 315.575 73.212616 315.8719Q72.94699 316.15314 72.775116 316.4344L76.993866 316.4344ZM78.44699 313.21564Q78.44699 311.6844 78.75949 310.7625Q79.07199 309.825 79.681366 309.325Q80.306366 308.825 81.243866 308.825Q81.931366 308.825 82.44699 309.10626Q82.97824 309.3875 83.32199 309.91876Q83.66574 310.4344 83.85324 311.1844Q84.04074 311.9344 84.04074 313.21564Q84.04074 314.73126 83.72824 315.65314Q83.431366 316.575 82.806366 317.09064Q82.19699 317.59064 81.243866 317.59064Q80.00949 317.59064 79.29074 316.7Q78.44699 315.6375 78.44699 313.21564ZM79.525116 313.21564Q79.525116 315.325 80.025116 316.02814Q80.525116 316.73126 81.243866 316.73126Q81.97824 316.73126 82.462616 316.02814Q82.962616 315.325 82.962616 313.21564Q82.962616 311.09064 82.462616 310.40314Q81.97824 309.7 81.22824 309.7Q80.50949 309.7 80.07199 310.3094Q79.525116 311.09064 79.525116 313.21564ZM85.44699 313.21564Q85.44699 311.6844 85.75949 310.7625Q86.07199 309.825 86.681366 309.325Q87.306366 308.825 88.243866 308.825Q88.931366 308.825 89.44699 309.10626Q89.97824 309.3875 90.32199 309.91876Q90.66574 310.4344 90.85324 311.1844Q91.04074 311.9344 91.04074 313.21564Q91.04074 314.73126 90.72824 315.65314Q90.431366 316.575 89.806366 317.09064Q89.19699 317.59064 88.243866 317.59064Q87.00949 317.59064 86.29074 316.7Q85.44699 315.6375 85.44699 313.21564ZM86.525116 313.21564Q86.525116 315.325 87.025116 316.02814Q87.525116 316.73126 88.243866 316.73126Q88.97824 316.73126 89.462616 316.02814Q89.962616 315.325 89.962616 313.21564Q89.962616 311.09064 89.462616 310.40314Q88.97824 309.7 88.22824 309.7Q87.50949 309.7 87.07199 310.3094Q86.525116 311.09064 86.525116 313.21564ZM92.44699 313.21564Q92.44699 311.6844 92.75949 310.7625Q93.07199 309.825 93.681366 309.325Q94.306366 308.825 95.243866 308.825Q95.931366 308.825 96.44699 309.10626Q96.97824 309.3875 97.32199 309.91876Q97.66574 310.4344 97.85324 311.1844Q98.04074 311.9344 98.04074 313.21564Q98.04074 314.73126 97.72824 315.65314Q97.431366 316.575 96.806366 317.09064Q96.19699 317.59064 95.243866 317.59064Q94.00949 317.59064 93.29074 316.7Q92.44699 315.6375 92.44699 313.21564ZM93.525116 313.21564Q93.525116 315.325 94.025116 316.02814Q94.525116 316.73126 95.243866 316.73126Q95.97824 316.73126 96.462616 316.02814Q96.962616 315.325 96.962616 313.21564Q96.962616 311.09064 96.462616 310.40314Q95.97824 309.7 95.22824 309.7Q94.50949 309.7 94.07199 310.3094Q93.525116 311.09064 93.525116 313.21564Z" fill-rule="nonzero"/><path fill="#000000" d="M174.18127 317.45L174.18127 315.3875L170.46252 315.3875L170.46252 314.41876L174.3844 308.85626L175.24377 308.85626L175.24377 314.41876L176.40002 314.41876L176.40002 315.3875L175.24377 315.3875L175.24377 317.45L174.18127 317.45ZM174.18127 314.41876L174.18127 310.5594L171.49377 314.41876L174.18127 314.41876ZM177.80627 313.21564Q177.80627 311.6844 178.11877 310.7625Q178.43127 309.825 179.04065 309.325Q179.66565 308.825 180.60315 308.825Q181.29065 308.825 181.80627 309.10626Q182.33752 309.3875 182.68127 309.91876Q183.02502 310.4344 183.21252 311.1844Q183.40002 311.9344 183.40002 313.21564Q183.40002 314.73126 183.08752 315.65314Q182.79065 316.575 182.16565 317.09064Q181.55627 317.59064 180.60315 317.59064Q179.36877 317.59064 178.65002 316.7Q177.80627 315.6375 177.80627 313.21564ZM178.8844 313.21564Q178.8844 315.325 179.3844 316.02814Q179.8844 316.73126 180.60315 316.73126Q181.33752 316.73126 181.8219 316.02814Q182.3219 315.325 182.3219 313.21564Q182.3219 311.09064 181.8219 310.40314Q181.33752 309.7 180.58752 309.7Q179.86877 309.7 179.43127 310.3094Q178.8844 311.09064 178.8844 313.21564ZM184.80627 313.21564Q184.80627 311.6844 185.11877 310.7625Q185.43127 309.825 186.04065 309.325Q186.66565 308.825 187.60315 308.825Q188.29065 308.825 188.80627 309.10626Q189.33752 309.3875 189.68127 309.91876Q190.02502 310.4344 190.21252 311.1844Q190.40002 311.9344 190.40002 313.21564Q190.40002 314.73126 190.08752 315.65314Q189.79065 316.575 189.16565 317.09064Q188.55627 317.59064 187.60315 317.59064Q186.36877 317.59064 185.65002 316.7Q184.80627 315.6375 184.80627 313.21564ZM185.8844 313.21564Q185.8844 315.325 186.3844 316.02814Q186.8844 316.73126 187.60315 316.73126Q188.33752 316.73126 188.8219 316.02814Q189.3219 315.325 189.3219 313.21564Q189.3219 311.09064 188.8219 310.40314Q188.33752 309.7 187.58752 309.7Q186.86877 309.7 186.43127 310.3094Q185.8844 311.09064 185.8844 313.21564ZM191.80627 313.21564Q191.80627 311.6844 192.11877 310.7625Q192.43127 309.825 193.04065 309.325Q193.66565 308.825 194.60315 308.825Q195.29065 308.825 195.80627 309.10626Q196.33752 309.3875 196.68127 309.91876Q197.02502 310.4344 197.21252 311.1844Q197.40002 311.9344 197.40002 313.21564Q197.40002 314.73126 197.08752 315.65314Q196.79065 316.575 196.16565 317.09064Q195.55627 317.59064 194.60315 317.59064Q193.36877 317.59064 192.65002 316.7Q191.80627 315.6375 191.80627 313.21564ZM192.8844 313.21564Q192.8844 315.325 193.3844 316.02814Q193.8844 316.73126 194.60315 316.73126Q195.33752 316.73126 195.8219 316.02814Q196.3219 315.325 196.3219 313.21564Q196.3219 311.09064 195.8219 310.40314Q195.33752 309.7 194.58752 309.7Q193.86877 309.7 193.43127 310.3094Q192.8844 311.09064 192.8844 313.21564Z" fill-rule="nonzero"/><path fill="#000000" d="M275.6343 310.96564L274.58743 311.04376Q274.4468 310.41876 274.1968 310.1375Q273.7593 309.6844 273.1343 309.6844Q272.6343 309.6844 272.24368 309.96564Q271.7593 310.34064 271.46243 311.04376Q271.18118 311.73126 271.16556 313.0125Q271.54056 312.4344 272.08743 312.15314Q272.64993 311.8719 273.2593 311.8719Q274.30618 311.8719 275.04056 312.65314Q275.79056 313.4344 275.79056 314.65314Q275.79056 315.46564 275.43118 316.16876Q275.08743 316.85626 274.47806 317.23126Q273.86868 317.59064 273.10306 317.59064Q271.77493 317.59064 270.9468 316.6219Q270.11868 315.65314 270.11868 313.4344Q270.11868 310.9344 271.04056 309.8094Q271.83743 308.825 273.1968 308.825Q274.21243 308.825 274.85306 309.40314Q275.5093 309.96564 275.6343 310.96564ZM271.33743 314.66876Q271.33743 315.21564 271.55618 315.71564Q271.79056 316.2 272.1968 316.46564Q272.61868 316.73126 273.08743 316.73126Q273.74368 316.73126 274.22806 316.2Q274.71243 315.65314 274.71243 314.73126Q274.71243 313.84064 274.22806 313.325Q273.7593 312.8094 273.04056 312.8094Q272.3218 312.8094 271.8218 313.325Q271.33743 313.84064 271.33743 314.66876ZM277.16556 313.21564Q277.16556 311.6844 277.47806 310.7625Q277.79056 309.825 278.39993 309.325Q279.02493 308.825 279.96243 308.825Q280.64993 308.825 281.16556 309.10626Q281.6968 309.3875 282.04056 309.91876Q282.3843 310.4344 282.5718 311.1844Q282.7593 311.9344 282.7593 313.21564Q282.7593 314.73126 282.4468 315.65314Q282.14993 316.575 281.52493 317.09064Q280.91556 317.59064 279.96243 317.59064Q278.72806 317.59064 278.0093 316.7Q277.16556 315.6375 277.16556 313.21564ZM278.24368 313.21564Q278.24368 315.325 278.74368 316.02814Q279.24368 316.73126 279.96243 316.73126Q280.6968 316.73126 281.18118 316.02814Q281.68118 315.325 281.68118 313.21564Q281.68118 311.09064 281.18118 310.40314Q280.6968 309.7 279.9468 309.7Q279.22806 309.7 278.79056 310.3094Q278.24368 311.09064 278.24368 313.21564ZM284.16556 313.21564Q284.16556 311.6844 284.47806 310.7625Q284.79056 309.825 285.39993 309.325Q286.02493 308.825 286.96243 308.825Q287.64993 308.825 288.16556 309.10626Q288.6968 309.3875 289.04056 309.91876Q289.3843 310.4344 289.5718 311.1844Q289.7593 311.9344 289.7593 313.21564Q289.7593 314.73126 289.4468 315.65314Q289.14993 316.575 288.52493 317.09064Q287.91556 317.59064 286.96243 317.59064Q285.72806 317.59064 285.0093 316.7Q284.16556 315.6375 284.16556 313.21564ZM285.24368 313.21564Q285.24368 315.325 285.74368 316.02814Q286.24368 316.73126 286.96243 316.73126Q287.6968 316.73126 288.18118 316.02814Q288.68118 315.325 288.68118 313.21564Q288.68118 311.09064 288.18118 310.40314Q287.6968 309.7 286.9468 309.7Q286.22806 309.7 285.79056 310.3094Q285.24368 311.09064 285.24368 313.21564ZM291.16556 313.21564Q291.16556 311.6844 291.47806 310.7625Q291.79056 309.825 292.39993 309.325Q293.02493 308.825 293.96243 308.825Q294.64993 308.825 295.16556 309.10626Q295.6968 309.3875 296.04056 309.91876Q296.3843 310.4344 296.5718 311.1844Q296.7593 311.9344 296.7593 313.21564Q296.7593 314.73126 296.4468 315.65314Q296.14993 316.575 295.52493 317.09064Q294.91556 317.59064 293.96243 317.59064Q292.72806 317.59064 292.0093 316.7Q291.16556 315.6375 291.16556 313.21564ZM292.24368 313.21564Q292.24368 315.325 292.74368 316.02814Q293.24368 316.73126 293.96243 316.73126Q294.6968 316.73126 295.18118 316.02814Q295.68118 315.325 295.68118 313.21564Q295.68118 311.09064 295.18118 310.40314Q294.6968 309.7 293.9468 309.7Q293.22806 309.7 292.79056 310.3094Q292.24368 311.09064 292.24368 313.21564Z" fill-rule="nonzero"/><path fill="#000000" d="M371.14984 312.79376Q370.4936 312.54376 370.16547 312.10626Q369.85297 311.65314 369.85297 311.04376Q369.85297 310.10626 370.52484 309.46564Q371.21234 308.825 372.32172 308.825Q373.44672 308.825 374.13422 309.48126Q374.82172 310.1375 374.82172 311.075Q374.82172 311.66876 374.50922 312.10626Q374.19672 312.54376 373.5561 312.79376Q374.35297 313.04376 374.75922 313.6219Q375.16547 314.2 375.16547 314.9969Q375.16547 316.09064 374.38422 316.84064Q373.6186 317.59064 372.33734 317.59064Q371.07172 317.59064 370.29047 316.84064Q369.50922 316.09064 369.50922 314.96564Q369.50922 314.1219 369.9311 313.5594Q370.3686 312.9969 371.14984 312.79376ZM370.9311 310.9969Q370.9311 311.60626 371.32172 311.9969Q371.72797 312.3875 372.35297 312.3875Q372.96234 312.3875 373.35297 312.0125Q373.7436 311.6219 373.7436 311.0594Q373.7436 310.48126 373.33734 310.09064Q372.9311 309.6844 372.33734 309.6844Q371.72797 309.6844 371.32172 310.075Q370.9311 310.46564 370.9311 310.9969ZM370.60297 314.96564Q370.60297 315.41876 370.8061 315.84064Q371.02484 316.2625 371.44672 316.4969Q371.8686 316.73126 372.35297 316.73126Q373.10297 316.73126 373.58734 316.2469Q374.08734 315.7625 374.08734 315.0125Q374.08734 314.2469 373.58734 313.7469Q373.08734 313.2469 372.32172 313.2469Q371.57172 313.2469 371.08734 313.7469Q370.60297 314.23126 370.60297 314.96564ZM376.52484 313.21564Q376.52484 311.6844 376.83734 310.7625Q377.14984 309.825 377.75922 309.325Q378.38422 308.825 379.32172 308.825Q380.00922 308.825 380.52484 309.10626Q381.0561 309.3875 381.39984 309.91876Q381.7436 310.4344 381.9311 311.1844Q382.1186 311.9344 382.1186 313.21564Q382.1186 314.73126 381.8061 315.65314Q381.50922 316.575 380.88422 317.09064Q380.27484 317.59064 379.32172 317.59064Q378.08734 317.59064 377.3686 316.7Q376.52484 315.6375 376.52484 313.21564ZM377.60297 313.21564Q377.60297 315.325 378.10297 316.02814Q378.60297 316.73126 379.32172 316.73126Q380.0561 316.73126 380.54047 316.02814Q381.04047 315.325 381.04047 313.21564Q381.04047 311.09064 380.54047 310.40314Q380.0561 309.7 379.3061 309.7Q378.58734 309.7 378.14984 310.3094Q377.60297 311.09064 377.60297 313.21564ZM383.52484 313.21564Q383.52484 311.6844 383.83734 310.7625Q384.14984 309.825 384.75922 309.325Q385.38422 308.825 386.32172 308.825Q387.00922 308.825 387.52484 309.10626Q388.0561 309.3875 388.39984 309.91876Q388.7436 310.4344 388.9311 311.1844Q389.1186 311.9344 389.1186 313.21564Q389.1186 314.73126 388.8061 315.65314Q388.50922 316.575 387.88422 317.09064Q387.27484 317.59064 386.32172 317.59064Q385.08734 317.59064 384.3686 316.7Q383.52484 315.6375 383.52484 313.21564ZM384.60297 313.21564Q384.60297 315.325 385.10297 316.02814Q385.60297 316.73126 386.32172 316.73126Q387.0561 316.73126 387.54047 316.02814Q388.04047 315.325 388.04047 313.21564Q388.04047 311.09064 387.54047 310.40314Q387.0561 309.7 386.3061 309.7Q385.58734 309.7 385.14984 310.3094Q384.60297 311.09064 384.60297 313.21564ZM390.52484 313.21564Q390.52484 311.6844 390.83734 310.7625Q391.14984 309.825 391.75922 309.325Q392.38422 308.825 393.32172 308.825Q394.00922 308.825 394.52484 309.10626Q395.0561 309.3875 395.39984 309.91876Q395.7436 310.4344 395.9311 311.1844Q396.1186 311.9344 396.1186 313.21564Q396.1186 314.73126 395.8061 315.65314Q395.50922 316.575 394.88422 317.09064Q394.27484 317.59064 393.32172 317.59064Q392.08734 317.59064 391.3686 316.7Q390.52484 315.6375 390.52484 313.21564ZM391.60297 313.21564Q391.60297 315.325 392.10297 316.02814Q392.60297 316.73126 393.32172 316.73126Q394.0561 316.73126 394.54047 316.02814Q395.04047 315.325 395.04047 313.21564Q395.04047 311.09064 394.54047 310.40314Q394.0561 309.7 393.3061 309.7Q392.58734 309.7 392.14984 310.3094Q391.60297 311.09064 391.60297 313.21564Z" fill-rule="nonzero"/><path fill="#000000" d="M469.35287 317.45L468.306 317.45L468.306 310.73126Q467.91537 311.09064 467.29037 311.46564Q466.681 311.825 466.19662 311.9969L466.19662 310.98126Q467.07162 310.5594 467.72787 309.98126Q468.39975 309.3875 468.681 308.825L469.35287 308.825L469.35287 317.45ZM472.38412 313.21564Q472.38412 311.6844 472.69662 310.7625Q473.00912 309.825 473.6185 309.325Q474.2435 308.825 475.181 308.825Q475.8685 308.825 476.38412 309.10626Q476.91537 309.3875 477.25912 309.91876Q477.60287 310.4344 477.79037 311.1844Q477.97787 311.9344 477.97787 313.21564Q477.97787 314.73126 477.66537 315.65314Q477.3685 316.575 476.7435 317.09064Q476.13412 317.59064 475.181 317.59064Q473.94662 317.59064 473.22787 316.7Q472.38412 315.6375 472.38412 313.21564ZM473.46225 313.21564Q473.46225 315.325 473.96225 316.02814Q474.46225 316.73126 475.181 316.73126Q475.91537 316.73126 476.39975 316.02814Q476.89975 315.325 476.89975 313.21564Q476.89975 311.09064 476.39975 310.40314Q475.91537 309.7 475.16537 309.7Q474.44662 309.7 474.00912 310.3094Q473.46225 311.09064 473.46225 313.21564ZM479.38412 313.21564Q479.38412 311.6844 479.69662 310.7625Q480.00912 309.825 480.6185 309.325Q481.2435 308.825 482.181 308.825Q482.8685 308.825 483.38412 309.10626Q483.91537 309.3875 484.25912 309.91876Q484.60287 310.4344 484.79037 311.1844Q484.97787 311.9344 484.97787 313.21564Q484.97787 314.73126 484.66537 315.65314Q484.3685 316.575 483.7435 317.09064Q483.13412 317.59064 482.181 317.59064Q480.94662 317.59064 480.22787 316.7Q479.38412 315.6375 479.38412 313.21564ZM480.46225 313.21564Q480.46225 315.325 480.96225 316.02814Q481.46225 316.73126 482.181 316.73126Q482.91537 316.73126 483.39975 316.02814Q483.89975 315.325 483.89975 313.21564Q483.89975 311.09064 483.39975 310.40314Q482.91537 309.7 482.16537 309.7Q481.44662 309.7 481.00912 310.3094Q480.46225 311.09064 480.46225 313.21564ZM486.38412 313.21564Q486.38412 311.6844 486.69662 310.7625Q487.00912 309.825 487.6185 309.325Q488.2435 308.825 489.181 308.825Q489.8685 308.825 490.38412 309.10626Q490.91537 309.3875 491.25912 309.91876Q491.60287 310.4344 491.79037 311.1844Q491.97787 311.9344 491.97787 313.21564Q491.97787 314.73126 491.66537 315.65314Q491.3685 316.575 490.7435 317.09064Q490.13412 317.59064 489.181 317.59064Q487.94662 317.59064 487.22787 316.7Q486.38412 315.6375 486.38412 313.21564ZM487.46225 313.21564Q487.46225 315.325 487.96225 316.02814Q488.46225 316.73126 489.181 316.73126Q489.91537 316.73126 490.39975 316.02814Q490.89975 315.325 490.89975 313.21564Q490.89975 311.09064 490.39975 310.40314Q489.91537 309.7 489.16537 309.7Q488.44662 309.7 488.00912 310.3094Q487.46225 311.09064 487.46225 313.21564ZM493.38412 313.21564Q493.38412 311.6844 493.69662 310.7625Q494.00912 309.825 494.6185 309.325Q495.2435 308.825 496.181 308.825Q496.8685 308.825 497.38412 309.10626Q497.91537 309.3875 498.25912 309.91876Q498.60287 310.4344 498.79037 311.1844Q498.97787 311.9344 498.97787 313.21564Q498.97787 314.73126 498.66537 315.65314Q498.3685 316.575 497.7435 317.09064Q497.13412 317.59064 496.181 317.59064Q494.94662 317.59064 494.22787 316.7Q493.38412 315.6375 493.38412 313.21564ZM494.46225 313.21564Q494.46225 315.325 494.96225 316.02814Q495.46225 316.73126 496.181 316.73126Q496.91537 316.73126 497.39975 316.02814Q497.89975 315.325 497.89975 313.21564Q497.89975 311.09064 497.39975 310.40314Q496.91537 309.7 496.16537 309.7Q495.44662 309.7 495.00912 310.3094Q494.46225 311.09064 494.46225 313.21564Z" fill-rule="nonzero"/><path fill="#4285f4" d="M30.55 85.916664C30.55 89.23038 27.863708 91.916664 24.55 91.916664C21.236292 91.916664 18.55 89.23038 18.55 85.916664C18.55 82.60296 21.236292 79.916664 24.55 79.916664C27.863708 79.916664 30.55 82.60296 30.55 85.916664Z" fill-rule="nonzero"/><path fill="#1a1a1a" d="M41.925 89.916664L38.596874 81.322914L39.83125 81.322914L42.065624 87.572914Q42.33125 88.322914 42.51875 88.979164Q42.721874 88.27604 42.9875 87.572914L45.3 81.322914L46.45625 81.322914L43.096874 89.916664L41.925 89.916664ZM46.95625 86.80729Q46.95625 85.072914 47.909374 84.24479Q48.70625 83.55729 49.8625 83.55729Q51.14375 83.55729 51.95625 84.40104Q52.784374 85.229164 52.784374 86.71354Q52.784374 87.916664 52.425 88.604164Q52.065624 89.291664 51.3625 89.68229Q50.675 90.05729 49.8625 90.05729Q48.565624 90.05729 47.753124 89.229164Q46.95625 88.385414 46.95625 86.80729ZM48.034374 86.80729Q48.034374 87.99479 48.55 88.58854Q49.08125 89.18229 49.8625 89.18229Q50.659374 89.18229 51.175 88.58854Q51.690624 87.99479 51.690624 86.77604Q51.690624 85.61979 51.159374 85.02604Q50.64375 84.43229 49.8625 84.43229Q49.08125 84.43229 48.55 85.02604Q48.034374 85.604164 48.034374 86.80729ZM59.3625 92.447914Q58.4875 91.33854 57.878124 89.86979Q57.284374 88.385414 57.284374 86.80729Q57.284374 85.416664 57.721874 84.135414Q58.253124 82.65104 59.3625 81.18229L60.1125 81.18229Q59.409374 82.40104 59.175 82.916664Q58.815624 83.729164 58.6125 84.604164Q58.3625 85.697914 58.3625 86.80729Q58.3625 89.635414 60.1125 92.447914L59.3625 92.447914ZM63.925 89.916664L60.596874 81.322914L61.83125 81.322914L64.06563 87.572914Q64.33125 88.322914 64.51875 88.979164Q64.72188 88.27604 64.9875 87.572914L67.3 81.322914L68.45625 81.322914L65.09688 89.916664L63.925 89.916664ZM70.03438 92.447914L69.28438 92.447914Q71.03438 89.635414 71.03438 86.80729Q71.03438 85.71354 70.78438 84.61979Q70.58125 83.74479 70.22188 82.93229Q69.9875 82.416664 69.28438 81.18229L70.03438 81.18229Q71.12813 82.65104 71.65938 84.135414Q72.1125 85.416664 72.1125 86.80729Q72.1125 88.385414 71.50313 89.86979Q70.89375 91.33854 70.03438 92.447914Z" fill-rule="nonzero"/><path stroke="#4285f4" stroke-width="4.0" stroke-linecap="butt" stroke-opacity="0.4" d="M88.55 85.916664L100.55 85.916664" fill-rule="nonzero"/><path fill="#1a1a1a" d="M108.925 87.33854L108.925 86.27604L112.175 86.27604L112.175 87.33854L108.925 87.33854ZM114.675 85.260414Q114.01875 85.010414 113.69063 84.572914Q113.37813 84.11979 113.37813 83.510414Q113.37813 82.572914 114.05 81.93229Q114.7375 81.291664 115.84688 81.291664Q116.97188 81.291664 117.65938 81.947914Q118.34688 82.604164 118.34688 83.541664Q118.34688 84.135414 118.03438 84.572914Q117.72188 85.010414 117.08125 85.260414Q117.87813 85.510414 118.28438 86.08854Q118.69063 86.666664 118.69063 87.46354Q118.69063 88.55729 117.90938 89.30729Q117.14375 90.05729 115.8625 90.05729Q114.59688 90.05729 113.81563 89.30729Q113.03438 88.55729 113.03438 87.43229Q113.03438 86.58854 113.45625 86.02604Q113.89375 85.46354 114.675 85.260414ZM114.45625 83.46354Q114.45625 84.072914 114.84688 84.46354Q115.25313 84.854164 115.87813 84.854164Q116.4875 84.854164 116.87813 84.479164Q117.26875 84.08854 117.26875 83.52604Q117.26875 82.947914 116.8625 82.55729Q116.45625 82.15104 115.8625 82.15104Q115.25313 82.15104 114.84688 82.541664Q114.45625 82.93229 114.45625 83.46354ZM114.12813 87.43229Q114.12813 87.885414 114.33125 88.30729Q114.55 88.729164 114.97188 88.96354Q115.39375 89.197914 115.87813 89.197914Q116.62813 89.197914 117.1125 88.71354Q117.6125 88.229164 117.6125 87.479164Q117.6125 86.71354 117.1125 86.21354Q116.6125 85.71354 115.84688 85.71354Q115.09688 85.71354 114.6125 86.21354Q114.12813 86.697914 114.12813 87.43229ZM120.64375 89.916664L120.64375 88.71354L121.84688 88.71354L121.84688 89.916664L120.64375 89.916664ZM123.1125 82.447914L123.1125 81.43229L128.675 81.43229L128.675 82.260414Q127.8625 83.135414 127.05 84.58854Q126.25313 86.02604 125.81563 87.55729Q125.4875 88.635414 125.40938 89.916664L124.31563 89.916664Q124.33125 88.90104 124.70625 87.46354Q125.09688 86.02604 125.8 84.697914Q126.51875 83.36979 127.33125 82.447914L123.1125 82.447914ZM133.425 89.916664L133.425 87.854164L129.70625 87.854164L129.70625 86.885414L133.62813 81.322914L134.4875 81.322914L134.4875 86.885414L135.64375 86.885414L135.64375 87.854164L134.4875 87.854164L134.4875 89.916664L133.425 89.916664ZM133.425 86.885414L133.425 83.02604L130.7375 86.885414L133.425 86.885414ZM142.55 88.52604L142.55 86.166664L140.22188 86.166664L140.22188 85.18229L142.55 85.18229L142.55 82.854164L143.55 82.854164L143.55 85.18229L145.89375 85.18229L145.89375 86.166664L143.55 86.166664L143.55 88.52604L142.55 88.52604ZM150.05 87.65104L151.1125 87.510414Q151.28438 88.40104 151.72188 88.80729Q152.15938 89.197914 152.78438 89.197914Q153.53438 89.197914 154.05 88.68229Q154.56563 88.166664 154.56563 87.40104Q154.56563 86.68229 154.08125 86.21354Q153.6125 85.729164 152.87813 85.729164Q152.58125 85.729164 152.12813 85.854164L152.25313 84.916664Q152.3625 84.93229 152.425 84.93229Q153.09688 84.93229 153.62813 84.58854Q154.175 84.229164 154.175 83.49479Q154.175 82.916664 153.78438 82.541664Q153.39375 82.15104 152.76875 82.15104Q152.15938 82.15104 151.7375 82.541664Q151.33125 82.93229 151.22188 83.697914L150.15938 83.510414Q150.34688 82.46354 151.03438 81.885414Q151.72188 81.291664 152.7375 81.291664Q153.44063 81.291664 154.03438 81.604164Q154.62813 81.90104 154.94063 82.416664Q155.25313 82.93229 155.25313 83.52604Q155.25313 84.072914 154.95625 84.541664Q154.65938 84.99479 154.08125 85.260414Q154.83125 85.43229 155.25313 85.99479Q155.675 86.541664 155.675 87.385414Q155.675 88.510414 154.84688 89.291664Q154.03438 90.072914 152.78438 90.072914Q151.65938 90.072914 150.90938 89.40104Q150.15938 88.71354 150.05 87.65104ZM157.64375 89.916664L157.64375 88.71354L158.84688 88.71354L158.84688 89.916664L157.64375 89.916664ZM164.01875 89.916664L162.97188 89.916664L162.97188 83.197914Q162.58125 83.55729 161.95625 83.93229Q161.34688 84.291664 160.8625 84.46354L160.8625 83.447914Q161.7375 83.02604 162.39375 82.447914Q163.06563 81.854164 163.34688 81.291664L164.01875 81.291664L164.01875 89.916664ZM167.50313 89.916664L167.50313 81.322914L173.70625 81.322914L173.70625 82.33854L168.64375 82.33854L168.64375 84.96354L173.39375 84.96354L173.39375 85.979164L168.64375 85.979164L168.64375 88.90104L173.90938 88.90104L173.90938 89.916664L167.50313 89.916664ZM174.925 87.33854L174.925 86.27604L178.175 86.27604L178.175 87.33854L174.925 87.33854ZM179.05 85.68229Q179.05 84.15104 179.3625 83.229164Q179.675 82.291664 180.28438 81.791664Q180.90938 81.291664 181.84688 81.291664Q182.53438 81.291664 183.05 81.572914Q183.58125 81.854164 183.925 82.385414Q184.26875 82.90104 184.45625 83.65104Q184.64375 84.40104 184.64375 85.68229Q184.64375 87.197914 184.33125 88.11979Q184.03438 89.041664 183.40938 89.55729Q182.8 90.05729 181.84688 90.05729Q180.6125 90.05729 179.89375 89.166664Q179.05 88.104164 179.05 85.68229ZM180.12813 85.68229Q180.12813 87.791664 180.62813 88.49479Q181.12813 89.197914 181.84688 89.197914Q182.58125 89.197914 183.06563 88.49479Q183.56563 87.791664 183.56563 85.68229Q183.56563 83.55729 183.06563 82.86979Q182.58125 82.166664 181.83125 82.166664Q181.1125 82.166664 180.675 82.77604Q180.12813 83.55729 180.12813 85.68229ZM186.05 87.65104L187.1125 87.510414Q187.28438 88.40104 187.72188 88.80729Q188.15938 89.197914 188.78438 89.197914Q189.53438 89.197914 190.05 88.68229Q190.56563 88.166664 190.56563 87.40104Q190.56563 86.68229 190.08125 86.21354Q189.6125 85.729164 188.87813 85.729164Q188.58125 85.729164 188.12813 85.854164L188.25313 84.916664Q188.3625 84.93229 188.425 84.93229Q189.09688 84.93229 189.62813 84.58854Q190.175 84.229164 190.175 83.49479Q190.175 82.916664 189.78438 82.541664Q189.39375 82.15104 188.76875 82.15104Q188.15938 82.15104 187.7375 82.541664Q187.33125 82.93229 187.22188 83.697914L186.15938 83.510414Q186.34688 82.46354 187.03438 81.885414Q187.72188 81.291664 188.7375 81.291664Q189.44063 81.291664 190.03438 81.604164Q190.62813 81.90104 190.94063 82.416664Q191.25313 82.93229 191.25313 83.52604Q191.25313 84.072914 190.95625 84.541664Q190.65938 84.99479 190.08125 85.260414Q190.83125 85.43229 191.25313 85.99479Q191.675 86.541664 191.675 87.385414Q191.675 88.510414 190.84688 89.291664Q190.03438 90.072914 188.78438 90.072914Q187.65938 90.072914 186.90938 89.40104Q186.15938 88.71354 186.05 87.65104ZM192.64375 89.916664L194.90938 86.68229L192.81563 83.697914L194.12813 83.697914L195.08125 85.15104Q195.34688 85.572914 195.51875 85.854164Q195.76875 85.46354 195.9875 85.166664L197.03438 83.697914L198.3 83.697914L196.14375 86.61979L198.45625 89.916664L197.175 89.916664L195.89375 87.979164L195.55 87.46354L193.90938 89.916664L192.64375 89.916664ZM204.55 88.52604L204.55 86.166664L202.22188 86.166664L202.22188 85.18229L204.55 85.18229L204.55 82.854164L205.55 82.854164L205.55 85.18229L207.89375 85.18229L207.89375 86.166664L205.55 86.166664L205.55 88.52604L204.55 88.52604ZM211.925 87.33854L211.925 86.27604L215.175 86.27604L215.175 87.33854L211.925 87.33854ZM216.05 87.666664L217.15938 87.572914Q217.28438 88.385414 217.72188 88.791664Q218.175 89.197914 218.81563 89.197914Q219.56563 89.197914 220.09688 88.61979Q220.62813 88.041664 220.62813 87.104164Q220.62813 86.197914 220.1125 85.68229Q219.6125 85.15104 218.78438 85.15104Q218.28438 85.15104 217.8625 85.385414Q217.45625 85.61979 217.22188 85.979164L216.2375 85.854164L217.06563 81.447914L221.34688 81.447914L221.34688 82.447914L217.90938 82.447914L217.45625 84.760414Q218.22188 84.21354 219.06563 84.21354Q220.19063 84.21354 220.95625 84.99479Q221.7375 85.77604 221.7375 87.010414Q221.7375 88.166664 221.06563 89.02604Q220.2375 90.05729 218.81563 90.05729Q217.64375 90.05729 216.89375 89.40104Q216.15938 88.74479 216.05 87.666664ZM223.64375 89.916664L223.64375 88.71354L224.84688 88.71354L224.84688 89.916664L223.64375 89.916664ZM226.05 85.68229Q226.05 84.15104 226.3625 83.229164Q226.675 82.291664 227.28438 81.791664Q227.90938 81.291664 228.84688 81.291664Q229.53438 81.291664 230.05 81.572914Q230.58125 81.854164 230.925 82.385414Q231.26875 82.90104 231.45625 83.65104Q231.64375 84.40104 231.64375 85.68229Q231.64375 87.197914 231.33125 88.11979Q231.03438 89.041664 230.40938 89.55729Q229.8 90.05729 228.84688 90.05729Q227.6125 90.05729 226.89375 89.166664Q226.05 88.104164 226.05 85.68229ZM227.12813 85.68229Q227.12813 87.791664 227.62813 88.49479Q228.12813 89.197914 228.84688 89.197914Q229.58125 89.197914 230.06563 88.49479Q230.56563 87.791664 230.56563 85.68229Q230.56563 83.55729 230.06563 82.86979Q229.58125 82.166664 228.83125 82.166664Q228.1125 82.166664 227.675 82.77604Q227.12813 83.55729 227.12813 85.68229ZM233.05 87.666664L234.15938 87.572914Q234.28438 88.385414 234.72188 88.791664Q235.175 89.197914 235.81563 89.197914Q236.56563 89.197914 237.09688 88.61979Q237.62813 88.041664 237.62813 87.104164Q237.62813 86.197914 237.1125 85.68229Q236.6125 85.15104 235.78438 85.15104Q235.28438 85.15104 234.8625 85.385414Q234.45625 85.61979 234.22188 85.979164L233.2375 85.854164L234.06563 81.447914L238.34688 81.447914L238.34688 82.447914L234.90938 82.447914L234.45625 84.760414Q235.22188 84.21354 236.06563 84.21354Q237.19063 84.21354 237.95625 84.99479Q238.7375 85.77604 238.7375 87.010414Q238.7375 88.166664 238.06563 89.02604Q237.2375 90.05729 235.81563 90.05729Q234.64375 90.05729 233.89375 89.40104Q233.15938 88.74479 233.05 87.666664ZM240.50313 89.916664L240.50313 81.322914L246.70625 81.322914L246.70625 82.33854L241.64375 82.33854L241.64375 84.96354L246.39375 84.96354L246.39375 85.979164L241.64375 85.979164L241.64375 88.90104L246.90938 88.90104L246.90938 89.916664L240.50313 89.916664ZM247.925 87.33854L247.925 86.27604L251.175 86.27604L251.175 87.33854L247.925 87.33854ZM252.05 85.68229Q252.05 84.15104 252.3625 83.229164Q252.675 82.291664 253.28438 81.791664Q253.90938 81.291664 254.84688 81.291664Q255.53438 81.291664 256.05 81.572914Q256.58124 81.854164 256.925 82.385414Q257.26874 82.90104 257.45624 83.65104Q257.64374 84.40104 257.64374 85.68229Q257.64374 87.197914 257.33124 88.11979Q257.03436 89.041664 256.40936 89.55729Q255.8 90.05729 254.84688 90.05729Q253.6125 90.05729 252.89375 89.166664Q252.05 88.104164 252.05 85.68229ZM253.12813 85.68229Q253.12813 87.791664 253.62813 88.49479Q254.12813 89.197914 254.84688 89.197914Q255.58125 89.197914 256.0656 88.49479Q256.5656 87.791664 256.5656 85.68229Q256.5656 83.55729 256.0656 82.86979Q255.58125 82.166664 254.83125 82.166664Q254.1125 82.166664 253.675 82.77604Q253.12813 83.55729 253.12813 85.68229ZM259.1125 82.447914L259.1125 81.43229L264.675 81.43229L264.675 82.260414Q263.8625 83.135414 263.05 84.58854Q262.2531 86.02604 261.8156 87.55729Q261.4875 88.635414 261.40936 89.916664L260.3156 89.916664Q260.33124 88.90104 260.70624 87.46354Q261.09686 86.02604 261.8 84.697914Q262.51874 83.36979 263.33124 82.447914L259.1125 82.447914ZM265.64374 89.916664L267.90936 86.68229L265.8156 83.697914L267.1281 83.697914L268.08124 85.15104Q268.34686 85.572914 268.51874 85.854164Q268.76874 85.46354 268.9875 85.166664L270.03436 83.697914L271.3 83.697914L269.14374 86.61979L271.45624 89.916664L270.175 89.916664L268.89374 87.979164L268.55 87.46354L266.90936 89.916664L265.64374 89.916664ZM272.95624 85.86979L271.8625 85.86979L273.9406 81.18229L274.78436 81.18229L276.8625 85.86979L275.8 85.86979L274.3625 82.36979L272.95624 85.86979ZM283.59686 88.90104L283.59686 89.916664L277.90936 89.916664Q277.90936 89.541664 278.03436 89.18229Q278.2531 88.604164 278.72186 88.041664Q279.20624 87.479164 280.1125 86.74479Q281.51874 85.58854 282.0031 84.916664Q282.5031 84.24479 282.5031 83.65104Q282.5031 83.02604 282.05 82.604164Q281.59686 82.166664 280.8781 82.166664Q280.1125 82.166664 279.65936 82.61979Q279.20624 83.072914 279.1906 83.885414L278.1125 83.77604Q278.22186 82.55729 278.9406 81.93229Q279.675 81.291664 280.90936 81.291664Q282.14374 81.291664 282.8625 81.979164Q283.58124 82.666664 283.58124 83.68229Q283.58124 84.197914 283.3625 84.697914Q283.15936 85.18229 282.65936 85.74479Q282.175 86.291664 281.05 87.24479Q280.09686 88.041664 279.8156 88.33854Q279.55 88.61979 279.3781 88.90104L283.59686 88.90104ZM290.55 88.52604L290.55 86.166664L288.22186 86.166664L288.22186 85.18229L290.55 85.18229L290.55 82.854164L291.55 82.854164L291.55 85.18229L293.89374 85.18229L293.89374 86.166664L291.55 86.166664L291.55 88.52604L290.55 88.52604ZM298.05 87.65104L299.1125 87.510414Q299.28436 88.40104 299.72186 88.80729Q300.15936 89.197914 300.78436 89.197914Q301.53436 89.197914 302.05 88.68229Q302.5656 88.166664 302.5656 87.40104Q302.5656 86.68229 302.08124 86.21354Q301.6125 85.729164 300.8781 85.729164Q300.58124 85.729164 300.1281 85.854164L300.2531 84.916664Q300.3625 84.93229 300.425 84.93229Q301.09686 84.93229 301.6281 84.58854Q302.175 84.229164 302.175 83.49479Q302.175 82.916664 301.78436 82.541664Q301.39374 82.15104 300.76874 82.15104Q300.15936 82.15104 299.7375 82.541664Q299.33124 82.93229 299.22186 83.697914L298.15936 83.510414Q298.34686 82.46354 299.03436 81.885414Q299.72186 81.291664 300.7375 81.291664Q301.4406 81.291664 302.03436 81.604164Q302.6281 81.90104 302.9406 82.416664Q303.2531 82.93229 303.2531 83.52604Q303.2531 84.072914 302.95624 84.541664Q302.65936 84.99479 302.08124 85.260414Q302.83124 85.43229 303.2531 85.99479Q303.675 86.541664 303.675 87.385414Q303.675 88.510414 302.84686 89.291664Q302.03436 90.072914 300.78436 90.072914Q299.65936 90.072914 298.90936 89.40104Q298.15936 88.71354 298.05 87.65104ZM305.64374 89.916664L305.64374 88.71354L306.84686 88.71354L306.84686 89.916664L305.64374 89.916664ZM309.675 85.260414Q309.01874 85.010414 308.6906 84.572914Q308.3781 84.11979 308.3781 83.510414Q308.3781 82.572914 309.05 81.93229Q309.7375 81.291664 310.84686 81.291664Q311.97186 81.291664 312.65936 81.947914Q313.34686 82.604164 313.34686 83.541664Q313.34686 84.135414 313.03436 84.572914Q312.72186 85.010414 312.08124 85.260414Q312.8781 85.510414 313.28436 86.08854Q313.6906 86.666664 313.6906 87.46354Q313.6906 88.55729 312.90936 89.30729Q312.14374 90.05729 310.8625 90.05729Q309.59686 90.05729 308.8156 89.30729Q308.03436 88.55729 308.03436 87.43229Q308.03436 86.58854 308.45624 86.02604Q308.89374 85.46354 309.675 85.260414ZM309.45624 83.46354Q309.45624 84.072914 309.84686 84.46354Q310.2531 84.854164 310.8781 84.854164Q311.4875 84.854164 311.8781 84.479164Q312.26874 84.08854 312.26874 83.52604Q312.26874 82.947914 311.8625 82.55729Q311.45624 82.15104 310.8625 82.15104Q310.2531 82.15104 309.84686 82.541664Q309.45624 82.93229 309.45624 83.46354ZM309.1281 87.43229Q309.1281 87.885414 309.33124 88.30729Q309.55 88.729164 309.97186 88.96354Q310.39374 89.197914 310.8781 89.197914Q311.6281 89.197914 312.1125 88.71354Q312.6125 88.229164 312.6125 87.479164Q312.6125 86.71354 312.1125 86.21354Q311.6125 85.71354 310.84686 85.71354Q310.09686 85.71354 309.6125 86.21354Q309.1281 86.697914 309.1281 87.43229ZM315.05 87.65104L316.1125 87.510414Q316.28436 88.40104 316.72186 88.80729Q317.15936 89.197914 317.78436 89.197914Q318.53436 89.197914 319.05 88.68229Q319.5656 88.166664 319.5656 87.40104Q319.5656 86.68229 319.08124 86.21354Q318.6125 85.729164 317.8781 85.729164Q317.58124 85.729164 317.1281 85.854164L317.2531 84.916664Q317.3625 84.93229 317.425 84.93229Q318.09686 84.93229 318.6281 84.58854Q319.175 84.229164 319.175 83.49479Q319.175 82.916664 318.78436 82.541664Q318.39374 82.15104 317.76874 82.15104Q317.15936 82.15104 316.7375 82.541664Q316.33124 82.93229 316.22186 83.697914L315.15936 83.510414Q315.34686 82.46354 316.03436 81.885414Q316.72186 81.291664 317.7375 81.291664Q318.4406 81.291664 319.03436 81.604164Q319.6281 81.90104 319.9406 82.416664Q320.2531 82.93229 320.2531 83.52604Q320.2531 84.072914 319.95624 84.541664Q319.65936 84.99479 319.08124 85.260414Q319.83124 85.43229 320.2531 85.99479Q320.675 86.541664 320.675 87.385414Q320.675 88.510414 319.84686 89.291664Q319.03436 90.072914 317.78436 90.072914Q316.65936 90.072914 315.90936 89.40104Q315.15936 88.71354 315.05 87.65104ZM322.5031 89.916664L322.5031 81.322914L328.70624 81.322914L328.70624 82.33854L323.64374 82.33854L323.64374 84.96354L328.39374 84.96354L328.39374 85.979164L323.64374 85.979164L323.64374 88.90104L328.90936 88.90104L328.90936 89.916664L322.5031 89.916664ZM329.925 87.33854L329.925 86.27604L333.175 86.27604L333.175 87.33854L329.925 87.33854ZM338.01874 89.916664L336.97186 89.916664L336.97186 83.197914Q336.58124 83.55729 335.95624 83.93229Q335.34686 84.291664 334.8625 84.46354L334.8625 83.447914Q335.7375 83.02604 336.39374 82.447914Q337.0656 81.854164 337.34686 81.291664L338.01874 81.291664L338.01874 89.916664ZM345.01874 89.916664L343.97186 89.916664L343.97186 83.197914Q343.58124 83.55729 342.95624 83.93229Q342.34686 84.291664 341.8625 84.46354L341.8625 83.447914Q342.7375 83.02604 343.39374 82.447914Q344.0656 81.854164 344.34686 81.291664L345.01874 81.291664L345.01874 89.916664ZM347.64374 89.916664L349.90936 86.68229L347.8156 83.697914L349.1281 83.697914L350.08124 85.15104Q350.34686 85.572914 350.51874 85.854164Q350.76874 85.46354 350.9875 85.166664L352.03436 83.697914L353.3 83.697914L351.14374 86.61979L353.45624 89.916664L352.175 89.916664L350.89374 87.979164L350.55 87.46354L348.90936 89.916664L347.64374 89.916664ZM354.95624 85.86979L353.8625 85.86979L355.9406 81.18229L356.78436 81.18229L358.8625 85.86979L357.8 85.86979L356.3625 82.36979L354.95624 85.86979ZM360.05 87.65104L361.1125 87.510414Q361.28436 88.40104 361.72186 88.80729Q362.15936 89.197914 362.78436 89.197914Q363.53436 89.197914 364.05 88.68229Q364.5656 88.166664 364.5656 87.40104Q364.5656 86.68229 364.08124 86.21354Q363.6125 85.729164 362.8781 85.729164Q362.58124 85.729164 362.1281 85.854164L362.2531 84.916664Q362.3625 84.93229 362.425 84.93229Q363.09686 84.93229 363.6281 84.58854Q364.175 84.229164 364.175 83.49479Q364.175 82.916664 363.78436 82.541664Q363.39374 82.15104 362.76874 82.15104Q362.15936 82.15104 361.7375 82.541664Q361.33124 82.93229 361.22186 83.697914L360.15936 83.510414Q360.34686 82.46354 361.03436 81.885414Q361.72186 81.291664 362.7375 81.291664Q363.4406 81.291664 364.03436 81.604164Q364.6281 81.90104 364.9406 82.416664Q365.2531 82.93229 365.2531 83.52604Q365.2531 84.072914 364.95624 84.541664Q364.65936 84.99479 364.08124 85.260414Q364.83124 85.43229 365.2531 85.99479Q365.675 86.541664 365.675 87.385414Q365.675 88.510414 364.84686 89.291664Q364.03436 90.072914 362.78436 90.072914Q361.65936 90.072914 360.90936 89.40104Q360.15936 88.71354 360.05 87.65104ZM372.55 88.52604L372.55 86.166664L370.22186 86.166664L370.22186 85.18229L372.55 85.18229L372.55 82.854164L373.55 82.854164L373.55 85.18229L375.89374 85.18229L375.89374 86.166664L373.55 86.166664L373.55 88.52604L372.55 88.52604ZM379.925 87.33854L379.925 86.27604L383.175 86.27604L383.175 87.33854L379.925 87.33854ZM388.01874 89.916664L386.97186 89.916664L386.97186 83.197914Q386.58124 83.55729 385.95624 83.93229Q385.34686 84.291664 384.8625 84.46354L384.8625 83.447914Q385.7375 83.02604 386.39374 82.447914Q387.0656 81.854164 387.34686 81.291664L388.01874 81.291664L388.01874 89.916664ZM391.64374 89.916664L391.64374 88.71354L392.84686 88.71354L392.84686 89.916664L391.64374 89.916664ZM398.01874 89.916664L396.97186 89.916664L396.97186 83.197914Q396.58124 83.55729 395.95624 83.93229Q395.34686 84.291664 394.8625 84.46354L394.8625 83.447914Q395.7375 83.02604 396.39374 82.447914Q397.0656 81.854164 397.34686 81.291664L398.01874 81.291664L398.01874 89.916664ZM401.5031 89.916664L401.5031 81.322914L407.70624 81.322914L407.70624 82.33854L402.64374 82.33854L402.64374 84.96354L407.39374 84.96354L407.39374 85.979164L402.64374 85.979164L402.64374 88.90104L407.90936 88.90104L407.90936 89.916664L401.5031 89.916664ZM408.925 87.33854L408.925 86.27604L412.175 86.27604L412.175 87.33854L408.925 87.33854ZM417.01874 89.916664L415.97186 89.916664L415.97186 83.197914Q415.58124 83.55729 414.95624 83.93229Q414.34686 84.291664 413.8625 84.46354L413.8625 83.447914Q414.7375 83.02604 415.39374 82.447914Q416.0656 81.854164 416.34686 81.291664L417.01874 81.291664L417.01874 89.916664ZM420.05 87.666664L421.15936 87.572914Q421.28436 88.385414 421.72186 88.791664Q422.175 89.197914 422.8156 89.197914Q423.5656 89.197914 424.09686 88.61979Q424.6281 88.041664 424.6281 87.104164Q424.6281 86.197914 424.1125 85.68229Q423.6125 85.15104 422.78436 85.15104Q422.28436 85.15104 421.8625 85.385414Q421.45624 85.61979 421.22186 85.979164L420.2375 85.854164L421.0656 81.447914L425.34686 81.447914L425.34686 82.447914L421.90936 82.447914L421.45624 84.760414Q422.22186 84.21354 423.0656 84.21354Q424.1906 84.21354 424.95624 84.99479Q425.7375 85.77604 425.7375 87.010414Q425.7375 88.166664 425.0656 89.02604Q424.2375 90.05729 422.8156 90.05729Q421.64374 90.05729 420.89374 89.40104Q420.15936 88.74479 420.05 87.666664ZM426.64374 89.916664L428.90936 86.68229L426.8156 83.697914L428.1281 83.697914L429.08124 85.15104Q429.34686 85.572914 429.51874 85.854164Q429.76874 85.46354 429.9875 85.166664L431.03436 83.697914L432.3 83.697914L430.14374 86.61979L432.45624 89.916664L431.175 89.916664L429.89374 87.979164L429.55 87.46354L427.90936 89.916664L426.64374 89.916664ZM433.95624 85.86979L432.8625 85.86979L434.9406 81.18229L435.78436 81.18229L437.8625 85.86979L436.8 85.86979L435.3625 82.36979L433.95624 85.86979ZM442.425 89.916664L442.425 87.854164L438.70624 87.854164L438.70624 86.885414L442.6281 81.322914L443.4875 81.322914L443.4875 86.885414L444.64374 86.885414L444.64374 87.854164L443.4875 87.854164L443.4875 89.916664L442.425 89.916664ZM442.425 86.885414L442.425 83.02604L439.7375 86.885414L442.425 86.885414Z" fill-rule="nonzero"/><path fill="#757575" d="M24.190624 37.55L18.64375 23.2375L20.690624 23.2375L24.409374 33.628124Q24.8625 34.878124 25.159374 35.971874Q25.4875 34.8 25.940624 33.628124L29.8 23.2375L31.7375 23.2375L26.128124 37.55L24.190624 37.55ZM32.221874 32.3625Q32.221874 29.4875 33.815624 28.096874Q35.159374 26.940624 37.08125 26.940624Q39.221874 26.940624 40.565624 28.346874Q41.925 29.753124 41.925 32.221874Q41.925 34.221874 41.33125 35.378124Q40.7375 36.51875 39.58125 37.159374Q38.440624 37.784374 37.08125 37.784374Q34.89375 37.784374 33.55 36.39375Q32.221874 34.9875 32.221874 32.3625ZM34.01875 32.3625Q34.01875 34.3625 34.878124 35.346874Q35.753124 36.33125 37.08125 36.33125Q38.39375 36.33125 39.253124 35.346874Q40.128124 34.346874 40.128124 32.3Q40.128124 30.378124 39.253124 29.39375Q38.378124 28.39375 37.08125 28.39375Q35.753124 28.39375 34.878124 29.39375Q34.01875 30.378124 34.01875 32.3625ZM53.221874 41.753124Q51.76875 39.925 50.76875 37.471874Q49.76875 35.003124 49.76875 32.3625Q49.76875 30.034374 50.51875 27.909374Q51.39375 25.440624 53.221874 22.9875L54.4875 22.9875Q53.3 25.01875 52.925 25.89375Q52.33125 27.2375 51.9875 28.70625Q51.565624 30.534374 51.565624 32.378124Q51.565624 37.065624 54.4875 41.753124L53.221874 41.753124ZM61.190624 37.55L55.64375 23.2375L57.690624 23.2375L61.409374 33.628124Q61.8625 34.878124 62.159374 35.971874Q62.4875 34.8 62.940624 33.628124L66.8 23.2375L68.7375 23.2375L63.128124 37.55L61.190624 37.55ZM71.01875 41.753124L69.76875 41.753124Q72.675 37.065624 72.675 32.378124Q72.675 30.534374 72.26875 28.7375Q71.925 27.26875 71.33125 25.925Q70.95625 25.034374 69.76875 22.9875L71.01875 22.9875Q72.8625 25.440624 73.7375 27.909374Q74.4875 30.034374 74.4875 32.3625Q74.4875 35.003124 73.47188 37.471874Q72.47188 39.925 71.01875 41.753124ZM85.75313 37.55L81.8 27.175L83.65938 27.175L85.89375 33.39375Q86.25313 34.39375 86.55 35.471874Q86.78438 34.659374 87.20625 33.503124L89.50313 27.175L91.31563 27.175L87.39375 37.55L85.75313 37.55ZM92.15938 34.45625L93.90938 34.175Q94.05 35.221874 94.72188 35.784374Q95.39375 36.33125 96.59688 36.33125Q97.8 36.33125 98.37813 35.846874Q98.97188 35.346874 98.97188 34.690624Q98.97188 34.096874 98.45625 33.753124Q98.09688 33.51875 96.65938 33.159374Q94.72188 32.659374 93.97188 32.315624Q93.2375 31.95625 92.84688 31.33125Q92.45625 30.690624 92.45625 29.925Q92.45625 29.2375 92.76875 28.64375Q93.09688 28.05 93.64375 27.659374Q94.05 27.3625 94.75313 27.159374Q95.47188 26.940624 96.28438 26.940624Q97.50313 26.940624 98.425 27.3Q99.34688 27.64375 99.78438 28.253124Q100.22188 28.846874 100.39375 29.846874L98.675 30.08125Q98.55 29.284374 97.9875 28.846874Q97.425 28.39375 96.40938 28.39375Q95.19063 28.39375 94.675 28.8Q94.15938 29.190624 94.15938 29.721874Q94.15938 30.065624 94.37813 30.346874Q94.58125 30.628124 95.05 30.815624Q95.31563 30.909374 96.59688 31.253124Q98.47188 31.753124 99.20625 32.08125Q99.94063 32.39375 100.3625 33.003124Q100.78438 33.596874 100.78438 34.503124Q100.78438 35.378124 100.26875 36.159374Q99.75313 36.940624 98.78438 37.3625Q97.81563 37.784374 96.59688 37.784374Q94.58125 37.784374 93.51875 36.940624Q92.45625 36.096874 92.15938 34.45625ZM103.3625 37.55L103.3625 35.55L105.3625 35.55L105.3625 37.55L103.3625 37.55ZM115.12813 37.55L115.12813 23.2375L121.47188 23.2375Q123.37813 23.2375 124.37813 23.628124Q125.37813 24.003124 125.97188 24.9875Q126.56563 25.95625 126.56563 27.14375Q126.56563 28.659374 125.58125 29.70625Q124.59688 30.753124 122.53438 31.034374Q123.28438 31.39375 123.675 31.753124Q124.50313 32.503124 125.25313 33.659374L127.7375 37.55L125.3625 37.55L123.45625 34.565624Q122.62813 33.284374 122.09688 32.596874Q121.56563 31.909374 121.12813 31.64375Q120.70625 31.3625 120.26875 31.253124Q119.94063 31.190624 119.22188 31.190624L117.01875 31.190624L117.01875 37.55L115.12813 37.55ZM117.01875 29.55L121.09688 29.55Q122.39375 29.55 123.1125 29.284374Q123.84688 29.01875 124.22188 28.425Q124.6125 27.83125 124.6125 27.14375Q124.6125 26.128124 123.87813 25.471874Q123.14375 24.815624 121.55 24.815624L117.01875 24.815624L117.01875 29.55ZM135.00313 37.55L133.2375 37.55L133.2375 26.346874Q132.6125 26.95625 131.58125 27.565624Q130.55 28.159374 129.72188 28.471874L129.72188 26.76875Q131.20625 26.08125 132.3 25.096874Q133.40938 24.096874 133.8625 23.175L135.00313 23.175L135.00313 37.55ZM149.22188 41.753124Q147.76875 39.925 146.76875 37.471874Q145.76875 35.003124 145.76875 32.3625Q145.76875 30.034374 146.51875 27.909374Q147.39375 25.440624 149.22188 22.9875L150.4875 22.9875Q149.3 25.01875 148.925 25.89375Q148.33125 27.2375 147.9875 28.70625Q147.56563 30.534374 147.56563 32.378124Q147.56563 37.065624 150.4875 41.753124L149.22188 41.753124ZM152.51875 30.58125Q152.51875 27.01875 154.425 25.003124Q156.34688 22.971874 159.37813 22.971874Q161.3625 22.971874 162.94063 23.925Q164.53438 24.878124 165.3625 26.58125Q166.20625 28.26875 166.20625 30.409374Q166.20625 32.58125 165.33125 34.3Q164.45625 36.01875 162.83125 36.909374Q161.22188 37.8 159.3625 37.8Q157.34688 37.8 155.75313 36.83125Q154.15938 35.846874 153.33125 34.159374Q152.51875 32.45625 152.51875 30.58125ZM154.47188 30.6125Q154.47188 33.190624 155.8625 34.690624Q157.25313 36.175 159.34688 36.175Q161.4875 36.175 162.8625 34.675Q164.25313 33.159374 164.25313 30.39375Q164.25313 28.659374 163.65938 27.3625Q163.08125 26.05 161.94063 25.33125Q160.8 24.6125 159.37813 24.6125Q157.37813 24.6125 155.925 26.003124Q154.47188 27.378124 154.47188 30.6125ZM168.8625 37.55L168.8625 23.2375L170.62813 23.2375L170.62813 28.3625Q171.8625 26.940624 173.7375 26.940624Q174.87813 26.940624 175.72188 27.39375Q176.58125 27.846874 176.94063 28.659374Q177.31563 29.45625 177.31563 30.971874L177.31563 37.55L175.56563 37.55L175.56563 30.971874Q175.56563 29.659374 174.9875 29.065624Q174.40938 28.45625 173.37813 28.45625Q172.59688 28.45625 171.89375 28.8625Q171.20625 29.26875 170.90938 29.971874Q170.62813 30.659374 170.62813 31.878124L170.62813 37.55L168.8625 37.55ZM179.8625 37.55L179.8625 27.175L181.44063 27.175L181.44063 28.628124Q181.925 27.878124 182.7375 27.409374Q183.55 26.940624 184.58125 26.940624Q185.7375 26.940624 186.47188 27.425Q187.20625 27.89375 187.51875 28.753124Q188.75313 26.940624 190.72188 26.940624Q192.26875 26.940624 193.09688 27.8Q193.925 28.659374 193.925 30.425L193.925 37.55L192.175 37.55L192.175 31.01875Q192.175 29.95625 192.00313 29.503124Q191.83125 29.034374 191.37813 28.753124Q190.94063 28.471874 190.33125 28.471874Q189.2375 28.471874 188.50313 29.20625Q187.78438 29.925 187.78438 31.51875L187.78438 37.55L186.03438 37.55L186.03438 30.815624Q186.03438 29.64375 185.59688 29.065624Q185.175 28.471874 184.19063 28.471874Q183.45625 28.471874 182.81563 28.8625Q182.19063 29.253124 181.90938 30.003124Q181.62813 30.753124 181.62813 32.175L181.62813 37.55L179.8625 37.55ZM196.15938 34.45625L197.90938 34.175Q198.05 35.221874 198.72188 35.784374Q199.39375 36.33125 200.59688 36.33125Q201.8 36.33125 202.37813 35.846874Q202.97188 35.346874 202.97188 34.690624Q202.97188 34.096874 202.45625 33.753124Q202.09688 33.51875 200.65938 33.159374Q198.72188 32.659374 197.97188 32.315624Q197.2375 31.95625 196.84688 31.33125Q196.45625 30.690624 196.45625 29.925Q196.45625 29.2375 196.76875 28.64375Q197.09688 28.05 197.64375 27.659374Q198.05 27.3625 198.75313 27.159374Q199.47188 26.940624 200.28438 26.940624Q201.50313 26.940624 202.425 27.3Q203.34688 27.64375 203.78438 28.253124Q204.22188 28.846874 204.39375 29.846874L202.675 30.08125Q202.55 29.284374 201.9875 28.846874Q201.425 28.39375 200.40938 28.39375Q199.19063 28.39375 198.675 28.8Q198.15938 29.190624 198.15938 29.721874Q198.15938 30.065624 198.37813 30.346874Q198.58125 30.628124 199.05 30.815624Q199.31563 30.909374 200.59688 31.253124Q202.47188 31.753124 203.20625 32.08125Q203.94063 32.39375 204.3625 33.003124Q204.78438 33.596874 204.78438 34.503124Q204.78438 35.378124 204.26875 36.159374Q203.75313 36.940624 202.78438 37.3625Q201.81563 37.784374 200.59688 37.784374Q198.58125 37.784374 197.51875 36.940624Q196.45625 36.096874 196.15938 34.45625ZM208.01875 41.753124L206.76875 41.753124Q209.675 37.065624 209.675 32.378124Q209.675 30.534374 209.26875 28.7375Q208.925 27.26875 208.33125 25.925Q207.95625 25.034374 206.76875 22.9875L208.01875 22.9875Q209.8625 25.440624 210.7375 27.909374Q211.4875 30.034374 211.4875 32.3625Q211.4875 35.003124 210.47188 37.471874Q209.47188 39.925 208.01875 41.753124Z" fill-rule="nonzero"/></svg>