<svg version="1.1" viewBox="0.0 0.0 600.0 371.0" fill="none" stroke="none" stroke-linecap="square" stroke-miterlimit="10" width="600" height="371" xmlns:xlink="http://www.w3.org/1999/xlink" xmlns="http://www.w3.org/2000/svg"><path fill="#ffffff" d="M0 0L600.0 0L600.0 371.0L0 371.0L0 0Z" fill-rule="nonzero"/><path stroke="#cccccc" stroke-width="1.0" stroke-linecap="butt" d="M87.5 112.5L87.5 300.5" fill-rule="nonzero"/><path stroke="#cccccc" stroke-width="1.0" stroke-linecap="butt" d="M186.5 112.5L186.5 300.5" fill-rule="nonzero"/><path stroke="#cccccc" stroke-width="1.0" stroke-linecap="butt" d="M285.5 112.5L285.5 300.5" fill-rule="nonzero"/><path stroke="#cccccc" stroke-width="1.0" stroke-linecap="butt" d="M384.5 112.5L384.5 300.5" fill-rule="nonzero"/><path stroke="#cccccc" stroke-width="1.0" stroke-linecap="butt" d="M482.5 112.5L482.5 300.5" fill-rule="nonzero"/><path stroke="#333333" stroke-width="1.0" stroke-linecap="butt" d="M80.5 300.5L581.5 300.5" fill-rule="nonzero"/><path stroke="#cccccc" stroke-width="1.0" stroke-linecap="butt" d="M80.5 253.5L581.5 253.5" fill-rule="nonzero"/><path stroke="#cccccc" stroke-width="1.0" stroke-linecap="butt" d="M80.5 206.5L581.5 206.5" fill-rule="nonzero"/><path stroke="#cccccc" stroke-width="1.0" stroke-linecap="butt" d="M80.5 159.5L581.5 159.5" fill-rule="nonzero"/><path stroke="#cccccc" stroke-width="1.0" stroke-linecap="butt" d="M80.5 112.5L581.5 112.5" fill-rule="nonzero"/><clipPath id="id_0"><path d="M80.55 112.28333L581.45 112.28333L581.45 300.45L80.55 300.45L80.55 112.28333Z" clip-rule="nonzero"/></clipPath><path stroke="#4285f4" stroke-width="2.0" stroke-linecap="butt" stroke-opacity="0.4" clip-path="url(#id_0)" d="M0 -31.71712C0 -31.71712 2.6666667 -25.325241 4.0 -22.193462C5.3333335 -19.061684 6.6666665 -15.973492 8.0 -12.926446C9.333333 -9.8794 10.666667 -6.8751197 12.0 -3.9111872C13.333333 -0.9472545 14.666667 1.9747263 16.0 4.85715C17.333334 7.7395735 18.666666 10.580852 20.0 13.383354C21.333334 16.185858 22.666666 18.948013 24.0 21.672169C25.333334 24.396324 26.666666 27.080921 28.0 29.728287C29.333334 32.375652 30.666666 34.98424 32.0 37.55636C33.333332 40.12847 34.666668 42.66259 36.0 45.16098C37.333332 47.659374 38.666668 50.120533 40.0 52.546715C41.333332 54.972893 42.666668 57.3626 44.0 59.71806C45.333332 62.07352 46.666668 64.39326 48.0 66.67948C49.333332 68.9657 50.666668 71.21694 52.0 73.43539C53.333332 75.65383 54.666668 77.83803 56.0 79.99014C57.333332 82.142265 58.666668 84.260864 60.0 86.348076C61.333332 88.435295 62.666668 90.489716 64.0 92.51346C65.333336 94.53719 66.666664 96.52885 68.0 98.4905C69.333336 100.452156 70.666664 102.38243 72.0 104.283394C73.333336 106.18435 74.666664 108.05463 76.0 109.896255C77.333336 111.73789 78.666664 113.54953 80.0 115.33319C81.333336 117.11685 82.666664 118.87119 84.0 120.59821C85.333336 122.32524 86.666664 124.02362 88.0 125.69533C89.333336 127.36704 90.666664 129.01077 92.0 130.62848C93.333336 132.24619 94.666664 133.83656 96.0 135.40155C97.333336 136.96654 98.666664 138.50485 100.0 140.0184C101.333336 141.53194 102.666664 143.01945 104.0 144.48282C105.333336 145.94618 106.666664 147.38416 108.0 148.79857C109.333336 150.213 110.666664 151.60266 112.0 152.96938C113.333336 154.33609 114.666664 155.67865 116.0 156.99887C117.333336 158.31908 118.666664 159.61575 120.0 160.89067C121.333336 162.16559 122.666664 163.41756 124.0 164.64836C125.333336 165.87915 126.666664 167.0876 128.0 168.27545C129.33333 169.46329 130.66667 170.62936 132.0 171.7754C133.33333 172.92145 134.66667 174.0463 136.0 175.15166C137.33333 176.25703 138.66667 177.34178 140.0 178.4076C141.33333 179.4734 142.66667 180.51918 144.0 181.54654C145.33333 182.5739 146.66667 183.58177 148.0 184.57178C149.33333 185.56178 150.66667 186.53284 152.0 187.48654C153.33333 188.44025 154.66667 189.37555 156.0 190.29402C157.33333 191.2125 158.66667 192.1131 160.0 192.99738C161.33333 193.88165 162.66667 194.74858 164.0 195.59969C165.33333 196.45079 166.66667 197.28506 168.0 198.104C169.33333 198.92296 170.66667 199.72557 172.0 200.51335C173.33333 201.30112 174.66667 202.07307 176.0 202.83064C177.33333 203.58823 178.66667 204.33047 180.0 205.05882C181.33333 205.78717 182.66667 206.50069 184.0 207.20074C185.33333 207.9008 186.66667 208.5865 188.0 209.25922C189.33333 209.93193 190.66667 210.59073 192.0 211.237C193.33333 211.88327 194.66667 212.5161 196.0 213.13684C197.33333 213.75757 198.66667 214.36531 200.0 214.96138C201.33333 215.55745 202.66667 216.14098 204.0 216.71326C205.33333 217.28554 206.66667 217.84572 208.0 218.39507C209.33333 218.94441 210.66667 219.48207 212.0 220.00932C213.33333 220.53656 214.66667 221.05255 216.0 221.55852C217.33333 222.06447 218.66667 222.5596 220.0 223.04507C221.33333 223.53056 222.66667 224.00562 224.0 224.4714C225.33333 224.93721 226.66667 225.39297 228.0 225.83986C229.33333 226.28674 230.66667 226.72398 232.0 227.15271C233.33333 227.58144 234.66667 228.0009 236.0 228.41222C237.33333 228.82353 238.66667 229.22597 240.0 229.62059C241.33333 230.01521 242.66667 230.40134 244.0 230.77998C245.33333 231.15863 246.66667 231.52913 248.0 231.8925C249.33333 232.25587 250.66667 232.61143 252.0 232.9602C253.33333 233.30898 254.66667 233.65028 256.0 233.9851C257.33334 234.31995 258.66666 234.64766 260.0 234.9692C261.33334 235.29074 262.66666 235.60548 264.0 235.91437C265.33334 236.22327 266.66666 236.52567 268.0 236.82253C269.33334 237.11937 270.66666 237.41005 272.0 237.69545C273.33334 237.98087 274.66666 238.2604 276.0 238.53497C277.33334 238.80952 278.66666 239.07852 280.0 239.34279C281.33334 239.60707 282.66666 239.86606 284.0 240.1206C285.33334 240.37515 286.66666 240.6247 288.0 240.87006C289.33334 241.1154 290.66666 241.35605 292.0 241.59273C293.33334 241.82942 294.66666 242.06165 296.0 242.29018C297.33334 242.51869 298.66666 242.74303 300.0 242.96388C301.33334 243.18474 302.66666 243.40166 304.0 243.61531C305.33334 243.82898 306.66666 244.03894 308.0 244.24586C309.33334 244.4528 310.66666 244.65627 312.0 244.8569C313.33334 245.05754 314.66666 245.25494 316.0 245.44972C317.33334 245.64452 318.66666 245.83627 320.0 246.0256C321.33334 246.21494 322.66666 246.40146 324.0 246.58575C325.33334 246.77003 326.66666 246.9517 328.0 247.13133C329.33334 247.31096 330.66666 247.48816 332.0 247.66348C333.33334 247.83879 334.66666 248.01189 336.0 248.18326C337.33334 248.35463 338.66666 248.52394 340.0 248.6917C341.33334 248.85945 342.66666 249.02531 344.0 249.18977C345.33334 249.35423 346.66666 249.51697 348.0 249.67844C349.33334 249.8399 350.66666 249.9998 352.0 250.15855C353.33334 250.31732 354.66666 250.47466 356.0 250.63098C357.33334 250.78731 358.66666 250.94237 360.0 251.09651C361.33334 251.25066 362.66666 251.40366 364.0 251.55588C365.33334 251.70808 366.66666 251.85928 368.0 252.00978C369.33334 252.16028 370.66666 252.30988 372.0 252.45888C373.33334 252.60788 374.66666 252.75609 376.0 252.90378C377.33334 253.05147 378.66666 253.19846 380.0 253.34503C381.33334 253.4916 382.66666 253.63754 384.0 253.78314C385.33334 253.92874 386.66666 254.0738 388.0 254.21858C389.33334 254.36336 390.66666 254.50769 392.0 254.65178C393.33334 254.79587 394.66666 254.93958 396.0 255.08308C397.33334 255.2266 398.66666 255.3698 400.0 255.51283C401.33334 255.65587 402.66666 255.79865 404.0 255.94128C405.33334 256.08392 406.66666 256.22638 408.0 256.36868C409.33334 256.51102 410.66666 256.65317 412.0 256.79523C413.33334 256.9373 414.66666 257.0792 416.0 257.221C417.33334 257.36282 418.66666 257.50452 420.0 257.64615C421.33334 257.78775 422.66666 257.92926 424.0 258.07065C425.33334 258.21207 426.66666 258.35336 428.0 258.49454C429.33334 258.63574 430.66666 258.77682 432.0 258.9178C433.33334 259.05872 434.66666 259.19955 436.0 259.34024C437.33334 259.4809 438.66666 259.62143 440.0 259.76175C441.33334 259.90207 442.66666 260.04227 444.0 260.18216C445.33334 260.32208 446.66666 260.46182 448.0 260.60123C449.33334 260.74063 450.66666 260.87982 452.0 261.01865C453.33334 261.15744 454.66666 261.296 456.0 261.43408C457.33334 261.57214 458.66666 261.7099 460.0 261.84714C461.33334 261.98434 462.66666 262.1212 464.0 262.25742C465.33334 262.39362 466.66666 262.5294 468.0 262.6644C469.33334 262.79944 470.66666 262.93393 472.0 263.06763C473.33334 263.2013 474.66666 263.33435 476.0 263.46646C477.33334 263.59857 478.66666 263.72998 480.0 263.86032C481.33334 263.99066 482.66666 264.12018 484.0 264.24854C485.33334 264.3769 486.66666 264.5043 488.0 264.6304C489.33334 264.7565 490.66666 264.88153 492.0 265.00513C493.33334 265.12872 494.66666 265.25113 496.0 265.37195C497.33334 265.49277 498.66666 265.61224 500.0 265.72998C501.33334 265.84772 502.66666 265.964 504.0 266.07834C505.33334 266.1927 506.66666 266.30545 508.0 266.41608C509.33334 266.52673 510.66666 266.63562 512.0 266.74222C513.3333 266.84882 514.6667 266.9535 516.0 267.0557C517.3333 267.15787 518.6667 267.25797 520.0 267.3554C521.3333 267.45285 522.6667 267.54797 524.0 267.64026C525.3333 267.7325 526.6667 267.82233 528.0 267.90903C529.3333 267.99576 530.6667 268.0798 532.0 268.16052C533.3333 268.24127 534.6667 268.31912 536.0 268.39346C537.3333 268.46777 538.6667 268.53903 540.0 268.6065C541.3333 268.67395 542.6667 268.73813 544.0 268.79828C545.3333 268.85843 546.6667 268.91504 548.0 268.96738C549.3333 269.0197 550.6667 269.0683 552.0 269.11234C553.3333 269.15637 554.6667 269.1964 556.0 269.23166C557.3333 269.26688 558.6667 269.29785 560.0 269.32376C561.3333 269.34967 562.6667 269.37103 564.0 269.38705C565.3333 269.40308 566.6667 269.4143 568.0 269.41986C569.3333 269.42545 570.6667 269.42596 572.0 269.42053C573.3333 269.4151 574.6667 269.40433 576.0 269.38727C577.3333 269.37024 580.0 269.31833 580.0 269.31833" fill-rule="nonzero"/><path fill="#4285f4" clip-path="url(#id_0)" d="M91.85967 124.8905C91.85967 127.37578 89.844955 129.3905 87.35967 129.3905C84.87439 129.3905 82.85967 127.37578 82.85967 124.8905C82.85967 122.40522 84.87439 120.3905 87.35967 120.3905C89.844955 120.3905 91.85967 122.40522 91.85967 124.8905Z" fill-rule="nonzero"/><path fill="#4285f4" clip-path="url(#id_0)" d="M217.21515 220.291C217.21515 222.77628 215.20042 224.791 212.71515 224.791C210.22987 224.791 208.21515 222.77628 208.21515 220.291C208.21515 217.80573 210.22987 215.791 212.71515 215.791C215.20042 215.791 217.21515 217.80573 217.21515 220.291Z" fill-rule="nonzero"/><path fill="#4285f4" clip-path="url(#id_0)" d="M340.16107 248.13966C340.16107 250.62495 338.14636 252.63966 335.66107 252.63966C333.1758 252.63966 331.16107 250.62495 331.16107 248.13966C331.16107 245.65439 333.1758 243.63966 335.66107 243.63966C338.14636 243.63966 340.16107 245.65439 340.16107 248.13966Z" fill-rule="nonzero"/><path fill="#4285f4" clip-path="url(#id_0)" d="M461.132 261.4995C461.132 263.98477 459.11725 265.9995 456.632 265.9995C454.1467 265.9995 452.132 263.98477 452.132 261.4995C452.132 259.01422 454.1467 256.9995 456.632 256.9995C459.11725 256.9995 461.132 259.01422 461.132 261.4995Z" fill-rule="nonzero"/><path fill="#4285f4" clip-path="url(#id_0)" d="M579.1403 269.4025C579.1403 271.8878 577.1256 273.9025 574.6403 273.9025C572.155 273.9025 570.1403 271.8878 570.1403 269.4025C570.1403 266.9172 572.155 264.9025 574.6403 264.9025C577.1256 264.9025 579.1403 266.9172 579.1403 269.4025Z" fill-rule="nonzero"/><path fill="#000000" d="M302.4375 349.45L302.4375 340.85626L306.25 340.85626Q307.40625 340.85626 308.0 341.09064Q308.59375 341.325 308.95312 341.91876Q309.3125 342.4969 309.3125 343.2Q309.3125 344.1219 308.71875 344.7469Q308.125 345.3719 306.89062 345.54376Q307.34375 345.7625 307.57812 345.96564Q308.07812 346.41876 308.51562 347.10626L310.01562 349.45L308.57812 349.45L307.45312 347.66876Q306.95312 346.8875 306.625 346.48126Q306.3125 346.075 306.04688 345.91876Q305.79688 345.7469 305.53125 345.66876Q305.34375 345.6375 304.90625 345.6375L303.57812 345.6375L303.57812 349.45L302.4375 349.45ZM303.57812 344.65314L306.03125 344.65314Q306.79688 344.65314 307.23438 344.4969Q307.6875 344.325 307.90625 343.98126Q308.14062 343.6219 308.14062 343.2Q308.14062 342.59064 307.6875 342.2Q307.25 341.8094 306.29688 341.8094L303.57812 341.8094L303.57812 344.65314ZM314.96875 349.45L313.92188 349.45L313.92188 342.73126Q313.53125 343.09064 312.90625 343.46564Q312.29688 343.825 311.8125 343.9969L311.8125 342.98126Q312.6875 342.5594 313.34375 341.98126Q314.01562 341.3875 314.29688 340.825L314.96875 340.825L314.96875 349.45ZM323.3125 351.98126Q322.4375 350.8719 321.82812 349.40314Q321.23438 347.91876 321.23438 346.34064Q321.23438 344.95 321.67188 343.66876Q322.20312 342.1844 323.3125 340.71564L324.0625 340.71564Q323.35938 341.9344 323.125 342.45Q322.76562 343.2625 322.5625 344.1375Q322.3125 345.23126 322.3125 346.34064Q322.3125 349.16876 324.0625 351.98126L323.3125 351.98126ZM325.07812 345.2625Q325.07812 343.1219 326.21875 341.91876Q327.375 340.7 329.1875 340.7Q330.39062 340.7 331.34375 341.27814Q332.29688 341.84064 332.79688 342.85626Q333.29688 343.8719 333.29688 345.16876Q333.29688 346.46564 332.76562 347.4969Q332.23438 348.52814 331.26562 349.0594Q330.3125 349.59064 329.1875 349.59064Q327.96875 349.59064 327.01562 349.0125Q326.0625 348.41876 325.5625 347.41876Q325.07812 346.40314 325.07812 345.2625ZM326.25 345.27814Q326.25 346.84064 327.07812 347.73126Q327.92188 348.6219 329.1875 348.6219Q330.46875 348.6219 331.29688 347.73126Q332.125 346.825 332.125 345.15314Q332.125 344.10626 331.76562 343.325Q331.42188 342.54376 330.73438 342.1219Q330.04688 341.6844 329.20312 341.6844Q328.0 341.6844 327.125 342.5125Q326.25 343.34064 326.25 345.27814ZM334.29688 349.45L334.29688 340.85626L335.34375 340.85626L335.34375 343.9344Q336.07812 343.09064 337.20312 343.09064Q337.90625 343.09064 338.40625 343.3719Q338.92188 343.6375 339.14062 344.1219Q339.35938 344.59064 339.35938 345.5125L339.35938 349.45L338.3125 349.45L338.3125 345.5125Q338.3125 344.71564 337.96875 344.35626Q337.625 343.9969 337.0 343.9969Q336.53125 343.9969 336.10938 344.2469Q335.70312 344.48126 335.51562 344.90314Q335.34375 345.3094 335.34375 346.04376L335.34375 349.45L334.29688 349.45ZM341.29688 349.45L341.29688 343.23126L342.23438 343.23126L342.23438 344.10626Q342.53125 343.6375 343.01562 343.3719Q343.5 343.09064 344.125 343.09064Q344.8125 343.09064 345.25 343.3719Q345.70312 343.65314 345.875 344.16876Q346.625 343.09064 347.79688 343.09064Q348.73438 343.09064 349.21875 343.60626Q349.71875 344.10626 349.71875 345.1844L349.71875 349.45L348.67188 349.45L348.67188 345.52814Q348.67188 344.90314 348.5625 344.6219Q348.46875 344.34064 348.20312 344.16876Q347.9375 343.9969 347.5625 343.9969Q346.90625 343.9969 346.46875 344.4344Q346.04688 344.8719 346.04688 345.84064L346.04688 349.45L344.98438 349.45L344.98438 345.40314Q344.98438 344.7 344.71875 344.35626Q344.46875 343.9969 343.89062 343.9969Q343.4375 343.9969 343.0625 344.23126Q342.6875 344.46564 342.51562 344.91876Q342.34375 345.3719 342.34375 346.21564L342.34375 349.45L341.29688 349.45ZM350.875 347.59064L351.90625 347.4344Q352.0 348.0594 352.39062 348.3875Q352.79688 348.71564 353.53125 348.71564Q354.25 348.71564 354.59375 348.4344Q354.95312 348.1375 354.95312 347.73126Q354.95312 347.3719 354.64062 347.16876Q354.42188 347.02814 353.5625 346.8094Q352.40625 346.5125 351.95312 346.3094Q351.51562 346.09064 351.28125 345.71564Q351.04688 345.34064 351.04688 344.8719Q351.04688 344.46564 351.23438 344.10626Q351.42188 343.7469 351.75 343.5125Q352.0 343.34064 352.42188 343.21564Q352.84375 343.09064 353.34375 343.09064Q354.0625 343.09064 354.60938 343.3094Q355.17188 343.5125 355.4375 343.8719Q355.70312 344.23126 355.79688 344.825L354.76562 344.96564Q354.70312 344.4969 354.35938 344.23126Q354.03125 343.95 353.40625 343.95Q352.6875 343.95 352.375 344.2Q352.0625 344.4344 352.0625 344.7625Q352.0625 344.96564 352.1875 345.1219Q352.32812 345.29376 352.59375 345.40314Q352.75 345.46564 353.53125 345.66876Q354.65625 345.98126 355.09375 346.16876Q355.53125 346.35626 355.78125 346.71564Q356.03125 347.075 356.03125 347.6219Q356.03125 348.15314 355.71875 348.6219Q355.42188 349.075 354.84375 349.34064Q354.26562 349.59064 353.53125 349.59064Q352.3125 349.59064 351.67188 349.09064Q351.04688 348.575 350.875 347.59064ZM357.98438 351.98126L357.23438 351.98126Q358.98438 349.16876 358.98438 346.34064Q358.98438 345.2469 358.73438 344.15314Q358.53125 343.27814 358.17188 342.46564Q357.9375 341.95 357.23438 340.71564L357.98438 340.71564Q359.07812 342.1844 359.60938 343.66876Q360.0625 344.95 360.0625 346.34064Q360.0625 347.91876 359.45312 349.40314Q358.84375 350.8719 357.98438 351.98126Z" fill-rule="nonzero"/><path fill="#000000" d="M29.550013 227.74167L20.956263 227.74167L20.956263 226.61667L29.550013 226.61667L29.550013 227.74167ZM32.08126 220.05417Q30.971888 220.92917 29.503138 221.53854Q28.018763 222.1323 26.440638 222.1323Q25.050013 222.1323 23.768763 221.6948Q22.284388 221.16354 20.815638 220.05417L20.815638 219.30417Q22.034388 220.0073 22.550013 220.24167Q23.362513 220.60104 24.237513 220.80417Q25.331263 221.05417 26.440638 221.05417Q29.268763 221.05417 32.08126 219.30417L32.08126 220.05417ZM29.550013 218.0698L23.331263 218.0698L23.331263 217.1323L24.206263 217.1323Q23.737513 216.83542 23.471888 216.35104Q23.190638 215.86667 23.190638 215.24167Q23.190638 214.55417 23.471888 214.11667Q23.753138 213.66354 24.268763 213.49167Q23.190638 212.74167 23.190638 211.5698Q23.190638 210.6323 23.706263 210.14792Q24.206263 209.64792 25.284388 209.64792L29.550013 209.64792L29.550013 210.6948L25.628138 210.6948Q25.003138 210.6948 24.721888 210.80417Q24.440638 210.89792 24.268763 211.16354Q24.096888 211.42917 24.096888 211.80417Q24.096888 212.46042 24.534388 212.89792Q24.971888 213.3198 25.940638 213.3198L29.550013 213.3198L29.550013 214.3823L25.503138 214.3823Q24.800013 214.3823 24.456263 214.64792Q24.096888 214.89792 24.096888 215.47604Q24.096888 215.92917 24.331263 216.30417Q24.565638 216.67917 25.018763 216.85104Q25.471888 217.02292 26.315638 217.02292L29.550013 217.02292L29.550013 218.0698ZM29.550013 208.8823L20.956263 205.58542L20.956263 204.36667L29.550013 200.85104L29.550013 202.1323L26.940638 203.14792L26.940638 206.72604L29.550013 207.67917L29.550013 208.8823ZM26.018763 206.39792L26.018763 203.49167L23.643763 204.3823Q22.565638 204.80417 21.862513 204.99167Q22.690638 205.16354 23.503138 205.46042L26.018763 206.39792ZM32.08126 199.3823L32.08126 200.1323Q29.268763 198.3823 26.440638 198.3823Q25.346888 198.3823 24.253138 198.6323Q23.378138 198.83542 22.565638 199.1948Q22.050013 199.42917 20.815638 200.1323L20.815638 199.3823Q22.284388 198.28854 23.768763 197.7573Q25.050013 197.30417 26.440638 197.30417Q28.018763 197.30417 29.503138 197.91354Q30.971888 198.52292 32.08126 199.3823Z" fill-rule="nonzero"/><path fill="#000000" d="M68.05 300.21564Q68.05 298.6844 68.3625 297.7625Q68.675 296.825 69.28438 296.325Q69.90938 295.825 70.84688 295.825Q71.53438 295.825 72.05 296.10626Q72.58125 296.3875 72.925 296.91876Q73.26875 297.4344 73.45625 298.1844Q73.64375 298.9344 73.64375 300.21564Q73.64375 301.73126 73.33125 302.65314Q73.03438 303.575 72.40938 304.09064Q71.8 304.59064 70.84688 304.59064Q69.6125 304.59064 68.89375 303.7Q68.05 302.6375 68.05 300.21564ZM69.12813 300.21564Q69.12813 302.325 69.62813 303.02814Q70.12813 303.73126 70.84688 303.73126Q71.58125 303.73126 72.06563 303.02814Q72.56563 302.325 72.56563 300.21564Q72.56563 298.09064 72.06563 297.40314Q71.58125 296.7 70.83125 296.7Q70.1125 296.7 69.675 297.3094Q69.12813 298.09064 69.12813 300.21564Z" fill-rule="nonzero"/><path fill="#000000" d="M51.05 253.17395Q51.05 251.6427 51.3625 250.72083Q51.675 249.78333 52.284374 249.28333Q52.909374 248.78333 53.846874 248.78333Q54.534374 248.78333 55.05 249.06458Q55.58125 249.34583 55.925 249.87708Q56.26875 250.3927 56.45625 251.1427Q56.64375 251.8927 56.64375 253.17395Q56.64375 254.68958 56.33125 255.61145Q56.034374 256.53333 55.409374 257.04895Q54.8 257.54895 53.846874 257.54895Q52.6125 257.54895 51.89375 256.65833Q51.05 255.59583 51.05 253.17395ZM52.128124 253.17395Q52.128124 255.28333 52.628124 255.98645Q53.128124 256.68958 53.846874 256.68958Q54.58125 256.68958 55.065624 255.98645Q55.565624 255.28333 55.565624 253.17395Q55.565624 251.04895 55.065624 250.36145Q54.58125 249.65833 53.83125 249.65833Q53.1125 249.65833 52.675 250.2677Q52.128124 251.04895 52.128124 253.17395ZM58.64375 257.40833L58.64375 256.2052L59.846874 256.2052L59.846874 257.40833L58.64375 257.40833ZM66.59688 256.3927L66.59688 257.40833L60.909374 257.40833Q60.909374 257.03333 61.034374 256.67395Q61.253124 256.09583 61.721874 255.53333Q62.20625 254.97083 63.1125 254.23645Q64.51875 253.0802 65.00313 252.40833Q65.50313 251.73645 65.50313 251.1427Q65.50313 250.5177 65.05 250.09583Q64.59688 249.65833 63.878124 249.65833Q63.1125 249.65833 62.659374 250.11145Q62.20625 250.56458 62.190624 251.37708L61.1125 251.2677Q61.221874 250.04895 61.940624 249.42395Q62.675 248.78333 63.909374 248.78333Q65.14375 248.78333 65.8625 249.47083Q66.58125 250.15833 66.58125 251.17395Q66.58125 251.68958 66.3625 252.18958Q66.15938 252.67395 65.65938 253.23645Q65.175 253.78333 64.05 254.73645Q63.096874 255.53333 62.815624 255.8302Q62.55 256.11145 62.378124 256.3927L66.59688 256.3927ZM68.05 255.15833L69.15938 255.06458Q69.28438 255.87708 69.72188 256.28333Q70.175 256.68958 70.81563 256.68958Q71.56563 256.68958 72.09688 256.11145Q72.62813 255.53333 72.62813 254.59583Q72.62813 253.68958 72.1125 253.17395Q71.6125 252.6427 70.78438 252.6427Q70.28438 252.6427 69.8625 252.87708Q69.45625 253.11145 69.22188 253.47083L68.2375 253.34583L69.06563 248.93958L73.34688 248.93958L73.34688 249.93958L69.90938 249.93958L69.45625 252.25208Q70.22188 251.7052 71.06563 251.7052Q72.19063 251.7052 72.95625 252.48645Q73.7375 253.2677 73.7375 254.50208Q73.7375 255.65833 73.06563 256.5177Q72.2375 257.54895 70.81563 257.54895Q69.64375 257.54895 68.89375 256.8927Q68.15938 256.23645 68.05 255.15833Z" fill-rule="nonzero"/><path fill="#000000" d="M58.05 206.1323Q58.05 204.60104 58.3625 203.67917Q58.675 202.74167 59.284374 202.24167Q59.909374 201.74167 60.846874 201.74167Q61.534374 201.74167 62.05 202.02292Q62.58125 202.30417 62.925 202.83542Q63.26875 203.35104 63.45625 204.10104Q63.64375 204.85104 63.64375 206.1323Q63.64375 207.64792 63.33125 208.5698Q63.034374 209.49167 62.409374 210.0073Q61.8 210.5073 60.846874 210.5073Q59.6125 210.5073 58.89375 209.61667Q58.05 208.55417 58.05 206.1323ZM59.128124 206.1323Q59.128124 208.24167 59.628124 208.9448Q60.128124 209.64792 60.846874 209.64792Q61.58125 209.64792 62.065624 208.9448Q62.565624 208.24167 62.565624 206.1323Q62.565624 204.0073 62.065624 203.3198Q61.58125 202.61667 60.83125 202.61667Q60.1125 202.61667 59.675 203.22604Q59.128124 204.0073 59.128124 206.1323ZM65.64375 210.36667L65.64375 209.16354L66.84688 209.16354L66.84688 210.36667L65.64375 210.36667ZM68.05 208.11667L69.15938 208.02292Q69.28438 208.83542 69.72188 209.24167Q70.175 209.64792 70.81563 209.64792Q71.56563 209.64792 72.09688 209.0698Q72.62813 208.49167 72.62813 207.55417Q72.62813 206.64792 72.1125 206.1323Q71.6125 205.60104 70.78438 205.60104Q70.28438 205.60104 69.8625 205.83542Q69.45625 206.0698 69.22188 206.42917L68.2375 206.30417L69.06563 201.89792L73.34688 201.89792L73.34688 202.89792L69.90938 202.89792L69.45625 205.21042Q70.22188 204.66354 71.06563 204.66354Q72.19063 204.66354 72.95625 205.4448Q73.7375 206.22604 73.7375 207.46042Q73.7375 208.61667 73.06563 209.47604Q72.2375 210.5073 70.81563 210.5073Q69.64375 210.5073 68.89375 209.85104Q68.15938 209.1948 68.05 208.11667Z" fill-rule="nonzero"/><path fill="#000000" d="M51.05 159.09062Q51.05 157.55937 51.3625 156.6375Q51.675 155.7 52.284374 155.2Q52.909374 154.7 53.846874 154.7Q54.534374 154.7 55.05 154.98125Q55.58125 155.2625 55.925 155.79375Q56.26875 156.30937 56.45625 157.05937Q56.64375 157.80937 56.64375 159.09062Q56.64375 160.60625 56.33125 161.52812Q56.034374 162.45 55.409374 162.96562Q54.8 163.46562 53.846874 163.46562Q52.6125 163.46562 51.89375 162.575Q51.05 161.5125 51.05 159.09062ZM52.128124 159.09062Q52.128124 161.2 52.628124 161.90312Q53.128124 162.60625 53.846874 162.60625Q54.58125 162.60625 55.065624 161.90312Q55.565624 161.2 55.565624 159.09062Q55.565624 156.96562 55.065624 156.27812Q54.58125 155.575 53.83125 155.575Q53.1125 155.575 52.675 156.18437Q52.128124 156.96562 52.128124 159.09062ZM58.64375 163.325L58.64375 162.12187L59.846874 162.12187L59.846874 163.325L58.64375 163.325ZM61.1125 155.85625L61.1125 154.84062L66.675 154.84062L66.675 155.66875Q65.8625 156.54375 65.05 157.99687Q64.25313 159.43437 63.815624 160.96562Q63.4875 162.04375 63.409374 163.325L62.315624 163.325Q62.33125 162.30937 62.70625 160.87187Q63.096874 159.43437 63.8 158.10625Q64.51875 156.77812 65.33125 155.85625L61.1125 155.85625ZM68.05 161.075L69.15938 160.98125Q69.28438 161.79375 69.72188 162.2Q70.175 162.60625 70.81563 162.60625Q71.56563 162.60625 72.09688 162.02812Q72.62813 161.45 72.62813 160.5125Q72.62813 159.60625 72.1125 159.09062Q71.6125 158.55937 70.78438 158.55937Q70.28438 158.55937 69.8625 158.79375Q69.45625 159.02812 69.22188 159.3875L68.2375 159.2625L69.06563 154.85625L73.34688 154.85625L73.34688 155.85625L69.90938 155.85625L69.45625 158.16875Q70.22188 157.62187 71.06563 157.62187Q72.19063 157.62187 72.95625 158.40312Q73.7375 159.18437 73.7375 160.41875Q73.7375 161.575 73.06563 162.43437Q72.2375 163.46562 70.81563 163.46562Q69.64375 163.46562 68.89375 162.80937Q68.15938 162.15312 68.05 161.075Z" fill-rule="nonzero"/><path fill="#000000" d="M72.01875 116.28333L70.97188 116.28333L70.97188 109.56458Q70.58125 109.92396 69.95625 110.29896Q69.34688 110.65833 68.8625 110.83021L68.8625 109.81458Q69.7375 109.39271 70.39375 108.81458Q71.06563 108.22083 71.34688 107.65833L72.01875 107.65833L72.01875 116.28333Z" fill-rule="nonzero"/><path fill="#000000" d="M79.98918 316.4344L79.98918 317.45L74.30168 317.45Q74.30168 317.075 74.42668 316.71564Q74.64543 316.1375 75.11418 315.575Q75.59856 315.0125 76.50481 314.27814Q77.91106 313.1219 78.39543 312.45Q78.89543 311.77814 78.89543 311.1844Q78.89543 310.5594 78.44231 310.1375Q77.98918 309.7 77.27043 309.7Q76.50481 309.7 76.05168 310.15314Q75.59856 310.60626 75.58293 311.41876L74.50481 311.3094Q74.61418 310.09064 75.33293 309.46564Q76.06731 308.825 77.30168 308.825Q78.53606 308.825 79.25481 309.5125Q79.97356 310.2 79.97356 311.21564Q79.97356 311.73126 79.75481 312.23126Q79.55168 312.71564 79.05168 313.27814Q78.56731 313.825 77.44231 314.77814Q76.48918 315.575 76.20793 315.8719Q75.94231 316.15314 75.77043 316.4344L79.98918 316.4344ZM81.44231 313.21564Q81.44231 311.6844 81.75481 310.7625Q82.06731 309.825 82.67668 309.325Q83.30168 308.825 84.23918 308.825Q84.92668 308.825 85.44231 309.10626Q85.97356 309.3875 86.31731 309.91876Q86.66106 310.4344 86.84856 311.1844Q87.03606 311.9344 87.03606 313.21564Q87.03606 314.73126 86.72356 315.65314Q86.42668 316.575 85.80168 317.09064Q85.19231 317.59064 84.23918 317.59064Q83.00481 317.59064 82.28606 316.7Q81.44231 315.6375 81.44231 313.21564ZM82.52043 313.21564Q82.52043 315.325 83.02043 316.02814Q83.52043 316.73126 84.23918 316.73126Q84.97356 316.73126 85.45793 316.02814Q85.95793 315.325 85.95793 313.21564Q85.95793 311.09064 85.45793 310.40314Q84.97356 309.7 84.22356 309.7Q83.50481 309.7 83.06731 310.3094Q82.52043 311.09064 82.52043 313.21564ZM88.44231 313.21564Q88.44231 311.6844 88.75481 310.7625Q89.06731 309.825 89.67668 309.325Q90.30168 308.825 91.23918 308.825Q91.92668 308.825 92.44231 309.10626Q92.97356 309.3875 93.31731 309.91876Q93.66106 310.4344 93.84856 311.1844Q94.03606 311.9344 94.03606 313.21564Q94.03606 314.73126 93.72356 315.65314Q93.42668 316.575 92.80168 317.09064Q92.19231 317.59064 91.23918 317.59064Q90.00481 317.59064 89.28606 316.7Q88.44231 315.6375 88.44231 313.21564ZM89.52043 313.21564Q89.52043 315.325 90.02043 316.02814Q90.52043 316.73126 91.23918 316.73126Q91.97356 316.73126 92.45793 316.02814Q92.95793 315.325 92.95793 313.21564Q92.95793 311.09064 92.45793 310.40314Q91.97356 309.7 91.22356 309.7Q90.50481 309.7 90.06731 310.3094Q89.52043 311.09064 89.52043 313.21564ZM95.44231 313.21564Q95.44231 311.6844 95.75481 310.7625Q96.06731 309.825 96.67668 309.325Q97.30168 308.825 98.23918 308.825Q98.92668 308.825 99.44231 309.10626Q99.97356 309.3875 100.31731 309.91876Q100.66106 310.4344 100.84856 311.1844Q101.03606 311.9344 101.03606 313.21564Q101.03606 314.73126 100.72356 315.65314Q100.42668 316.575 99.80168 317.09064Q99.19231 317.59064 98.23918 317.59064Q97.00481 317.59064 96.28606 316.7Q95.44231 315.6375 95.44231 313.21564ZM96.52043 313.21564Q96.52043 315.325 97.02043 316.02814Q97.52043 316.73126 98.23918 316.73126Q98.97356 316.73126 99.45793 316.02814Q99.95793 315.325 99.95793 313.21564Q99.95793 311.09064 99.45793 310.40314Q98.97356 309.7 98.22356 309.7Q97.50481 309.7 97.06731 310.3094Q96.52043 311.09064 96.52043 313.21564Z" fill-rule="nonzero"/><path fill="#000000" d="M176.56906 317.45L176.56906 315.3875L172.85031 315.3875L172.85031 314.41876L176.77219 308.85626L177.63156 308.85626L177.63156 314.41876L178.78781 314.41876L178.78781 315.3875L177.63156 315.3875L177.63156 317.45L176.56906 317.45ZM176.56906 314.41876L176.56906 310.5594L173.88156 314.41876L176.56906 314.41876ZM180.19406 313.21564Q180.19406 311.6844 180.50656 310.7625Q180.81906 309.825 181.42844 309.325Q182.05344 308.825 182.99094 308.825Q183.67844 308.825 184.19406 309.10626Q184.72531 309.3875 185.06906 309.91876Q185.41281 310.4344 185.60031 311.1844Q185.78781 311.9344 185.78781 313.21564Q185.78781 314.73126 185.47531 315.65314Q185.17844 316.575 184.55344 317.09064Q183.94406 317.59064 182.99094 317.59064Q181.75656 317.59064 181.03781 316.7Q180.19406 315.6375 180.19406 313.21564ZM181.27219 313.21564Q181.27219 315.325 181.77219 316.02814Q182.27219 316.73126 182.99094 316.73126Q183.72531 316.73126 184.20969 316.02814Q184.70969 315.325 184.70969 313.21564Q184.70969 311.09064 184.20969 310.40314Q183.72531 309.7 182.97531 309.7Q182.25656 309.7 181.81906 310.3094Q181.27219 311.09064 181.27219 313.21564ZM187.19406 313.21564Q187.19406 311.6844 187.50656 310.7625Q187.81906 309.825 188.42844 309.325Q189.05344 308.825 189.99094 308.825Q190.67844 308.825 191.19406 309.10626Q191.72531 309.3875 192.06906 309.91876Q192.41281 310.4344 192.60031 311.1844Q192.78781 311.9344 192.78781 313.21564Q192.78781 314.73126 192.47531 315.65314Q192.17844 316.575 191.55344 317.09064Q190.94406 317.59064 189.99094 317.59064Q188.75656 317.59064 188.03781 316.7Q187.19406 315.6375 187.19406 313.21564ZM188.27219 313.21564Q188.27219 315.325 188.77219 316.02814Q189.27219 316.73126 189.99094 316.73126Q190.72531 316.73126 191.20969 316.02814Q191.70969 315.325 191.70969 313.21564Q191.70969 311.09064 191.20969 310.40314Q190.72531 309.7 189.97531 309.7Q189.25656 309.7 188.81906 310.3094Q188.27219 311.09064 188.27219 313.21564ZM194.19406 313.21564Q194.19406 311.6844 194.50656 310.7625Q194.81906 309.825 195.42844 309.325Q196.05344 308.825 196.99094 308.825Q197.67844 308.825 198.19406 309.10626Q198.72531 309.3875 199.06906 309.91876Q199.41281 310.4344 199.60031 311.1844Q199.78781 311.9344 199.78781 313.21564Q199.78781 314.73126 199.47531 315.65314Q199.17844 316.575 198.55344 317.09064Q197.94406 317.59064 196.99094 317.59064Q195.75656 317.59064 195.03781 316.7Q194.19406 315.6375 194.19406 313.21564ZM195.27219 313.21564Q195.27219 315.325 195.77219 316.02814Q196.27219 316.73126 196.99094 316.73126Q197.72531 316.73126 198.20969 316.02814Q198.70969 315.325 198.70969 313.21564Q198.70969 311.09064 198.20969 310.40314Q197.72531 309.7 196.97531 309.7Q196.25656 309.7 195.81906 310.3094Q195.27219 311.09064 195.27219 313.21564Z" fill-rule="nonzero"/><path fill="#000000" d="M277.41455 310.96564L276.36768 311.04376Q276.22705 310.41876 275.97705 310.1375Q275.53955 309.6844 274.91455 309.6844Q274.41455 309.6844 274.02393 309.96564Q273.53955 310.34064 273.24268 311.04376Q272.96143 311.73126 272.9458 313.0125Q273.3208 312.4344 273.86768 312.15314Q274.43018 311.8719 275.03955 311.8719Q276.08643 311.8719 276.8208 312.65314Q277.5708 313.4344 277.5708 314.65314Q277.5708 315.46564 277.21143 316.16876Q276.86768 316.85626 276.2583 317.23126Q275.64893 317.59064 274.8833 317.59064Q273.55518 317.59064 272.72705 316.6219Q271.89893 315.65314 271.89893 313.4344Q271.89893 310.9344 272.8208 309.8094Q273.61768 308.825 274.97705 308.825Q275.99268 308.825 276.6333 309.40314Q277.28955 309.96564 277.41455 310.96564ZM273.11768 314.66876Q273.11768 315.21564 273.33643 315.71564Q273.5708 316.2 273.97705 316.46564Q274.39893 316.73126 274.86768 316.73126Q275.52393 316.73126 276.0083 316.2Q276.49268 315.65314 276.49268 314.73126Q276.49268 313.84064 276.0083 313.325Q275.53955 312.8094 274.8208 312.8094Q274.10205 312.8094 273.60205 313.325Q273.11768 313.84064 273.11768 314.66876ZM278.9458 313.21564Q278.9458 311.6844 279.2583 310.7625Q279.5708 309.825 280.18018 309.325Q280.80518 308.825 281.74268 308.825Q282.43018 308.825 282.9458 309.10626Q283.47705 309.3875 283.8208 309.91876Q284.16455 310.4344 284.35205 311.1844Q284.53955 311.9344 284.53955 313.21564Q284.53955 314.73126 284.22705 315.65314Q283.93018 316.575 283.30518 317.09064Q282.6958 317.59064 281.74268 317.59064Q280.5083 317.59064 279.78955 316.7Q278.9458 315.6375 278.9458 313.21564ZM280.02393 313.21564Q280.02393 315.325 280.52393 316.02814Q281.02393 316.73126 281.74268 316.73126Q282.47705 316.73126 282.96143 316.02814Q283.46143 315.325 283.46143 313.21564Q283.46143 311.09064 282.96143 310.40314Q282.47705 309.7 281.72705 309.7Q281.0083 309.7 280.5708 310.3094Q280.02393 311.09064 280.02393 313.21564ZM285.9458 313.21564Q285.9458 311.6844 286.2583 310.7625Q286.5708 309.825 287.18018 309.325Q287.80518 308.825 288.74268 308.825Q289.43018 308.825 289.9458 309.10626Q290.47705 309.3875 290.8208 309.91876Q291.16455 310.4344 291.35205 311.1844Q291.53955 311.9344 291.53955 313.21564Q291.53955 314.73126 291.22705 315.65314Q290.93018 316.575 290.30518 317.09064Q289.6958 317.59064 288.74268 317.59064Q287.5083 317.59064 286.78955 316.7Q285.9458 315.6375 285.9458 313.21564ZM287.02393 313.21564Q287.02393 315.325 287.52393 316.02814Q288.02393 316.73126 288.74268 316.73126Q289.47705 316.73126 289.96143 316.02814Q290.46143 315.325 290.46143 313.21564Q290.46143 311.09064 289.96143 310.40314Q289.47705 309.7 288.72705 309.7Q288.0083 309.7 287.5708 310.3094Q287.02393 311.09064 287.02393 313.21564ZM292.9458 313.21564Q292.9458 311.6844 293.2583 310.7625Q293.5708 309.825 294.18018 309.325Q294.80518 308.825 295.74268 308.825Q296.43018 308.825 296.9458 309.10626Q297.47705 309.3875 297.8208 309.91876Q298.16455 310.4344 298.35205 311.1844Q298.53955 311.9344 298.53955 313.21564Q298.53955 314.73126 298.22705 315.65314Q297.93018 316.575 297.30518 317.09064Q296.6958 317.59064 295.74268 317.59064Q294.5083 317.59064 293.78955 316.7Q292.9458 315.6375 292.9458 313.21564ZM294.02393 313.21564Q294.02393 315.325 294.52393 316.02814Q295.02393 316.73126 295.74268 316.73126Q296.47705 316.73126 296.96143 316.02814Q297.46143 315.325 297.46143 313.21564Q297.46143 311.09064 296.96143 310.40314Q296.47705 309.7 295.72705 309.7Q295.0083 309.7 294.5708 310.3094Q294.02393 311.09064 294.02393 313.21564Z" fill-rule="nonzero"/><path fill="#000000" d="M372.32257 312.79376Q371.66632 312.54376 371.3382 312.10626Q371.0257 311.65314 371.0257 311.04376Q371.0257 310.10626 371.69757 309.46564Q372.38507 308.825 373.49445 308.825Q374.61945 308.825 375.30695 309.48126Q375.99445 310.1375 375.99445 311.075Q375.99445 311.66876 375.68195 312.10626Q375.36945 312.54376 374.72882 312.79376Q375.5257 313.04376 375.93195 313.6219Q376.3382 314.2 376.3382 314.9969Q376.3382 316.09064 375.55695 316.84064Q374.79132 317.59064 373.51007 317.59064Q372.24445 317.59064 371.4632 316.84064Q370.68195 316.09064 370.68195 314.96564Q370.68195 314.1219 371.10382 313.5594Q371.54132 312.9969 372.32257 312.79376ZM372.10382 310.9969Q372.10382 311.60626 372.49445 311.9969Q372.9007 312.3875 373.5257 312.3875Q374.13507 312.3875 374.5257 312.0125Q374.91632 311.6219 374.91632 311.0594Q374.91632 310.48126 374.51007 310.09064Q374.10382 309.6844 373.51007 309.6844Q372.9007 309.6844 372.49445 310.075Q372.10382 310.46564 372.10382 310.9969ZM371.7757 314.96564Q371.7757 315.41876 371.97882 315.84064Q372.19757 316.2625 372.61945 316.4969Q373.04132 316.73126 373.5257 316.73126Q374.2757 316.73126 374.76007 316.2469Q375.26007 315.7625 375.26007 315.0125Q375.26007 314.2469 374.76007 313.7469Q374.26007 313.2469 373.49445 313.2469Q372.74445 313.2469 372.26007 313.7469Q371.7757 314.23126 371.7757 314.96564ZM377.69757 313.21564Q377.69757 311.6844 378.01007 310.7625Q378.32257 309.825 378.93195 309.325Q379.55695 308.825 380.49445 308.825Q381.18195 308.825 381.69757 309.10626Q382.22882 309.3875 382.57257 309.91876Q382.91632 310.4344 383.10382 311.1844Q383.29132 311.9344 383.29132 313.21564Q383.29132 314.73126 382.97882 315.65314Q382.68195 316.575 382.05695 317.09064Q381.44757 317.59064 380.49445 317.59064Q379.26007 317.59064 378.54132 316.7Q377.69757 315.6375 377.69757 313.21564ZM378.7757 313.21564Q378.7757 315.325 379.2757 316.02814Q379.7757 316.73126 380.49445 316.73126Q381.22882 316.73126 381.7132 316.02814Q382.2132 315.325 382.2132 313.21564Q382.2132 311.09064 381.7132 310.40314Q381.22882 309.7 380.47882 309.7Q379.76007 309.7 379.32257 310.3094Q378.7757 311.09064 378.7757 313.21564ZM384.69757 313.21564Q384.69757 311.6844 385.01007 310.7625Q385.32257 309.825 385.93195 309.325Q386.55695 308.825 387.49445 308.825Q388.18195 308.825 388.69757 309.10626Q389.22882 309.3875 389.57257 309.91876Q389.91632 310.4344 390.10382 311.1844Q390.29132 311.9344 390.29132 313.21564Q390.29132 314.73126 389.97882 315.65314Q389.68195 316.575 389.05695 317.09064Q388.44757 317.59064 387.49445 317.59064Q386.26007 317.59064 385.54132 316.7Q384.69757 315.6375 384.69757 313.21564ZM385.7757 313.21564Q385.7757 315.325 386.2757 316.02814Q386.7757 316.73126 387.49445 316.73126Q388.22882 316.73126 388.7132 316.02814Q389.2132 315.325 389.2132 313.21564Q389.2132 311.09064 388.7132 310.40314Q388.22882 309.7 387.47882 309.7Q386.76007 309.7 386.32257 310.3094Q385.7757 311.09064 385.7757 313.21564ZM391.69757 313.21564Q391.69757 311.6844 392.01007 310.7625Q392.32257 309.825 392.93195 309.325Q393.55695 308.825 394.49445 308.825Q395.18195 308.825 395.69757 309.10626Q396.22882 309.3875 396.57257 309.91876Q396.91632 310.4344 397.10382 311.1844Q397.29132 311.9344 397.29132 313.21564Q397.29132 314.73126 396.97882 315.65314Q396.68195 316.575 396.05695 317.09064Q395.44757 317.59064 394.49445 317.59064Q393.26007 317.59064 392.54132 316.7Q391.69757 315.6375 391.69757 313.21564ZM392.7757 313.21564Q392.7757 315.325 393.2757 316.02814Q393.7757 316.73126 394.49445 316.73126Q395.22882 316.73126 395.7132 316.02814Q396.2132 315.325 396.2132 313.21564Q396.2132 311.09064 395.7132 310.40314Q395.22882 309.7 394.47882 309.7Q393.76007 309.7 393.32257 310.3094Q392.7757 311.09064 392.7757 313.21564Z" fill-rule="nonzero"/><path fill="#000000" d="M469.91806 317.45L468.8712 317.45L468.8712 310.73126Q468.48056 311.09064 467.85556 311.46564Q467.2462 311.825 466.7618 311.9969L466.7618 310.98126Q467.6368 310.5594 468.29306 309.98126Q468.96494 309.3875 469.2462 308.825L469.91806 308.825L469.91806 317.45ZM472.9493 313.21564Q472.9493 311.6844 473.2618 310.7625Q473.5743 309.825 474.1837 309.325Q474.8087 308.825 475.7462 308.825Q476.4337 308.825 476.9493 309.10626Q477.48056 309.3875 477.8243 309.91876Q478.16806 310.4344 478.35556 311.1844Q478.54306 311.9344 478.54306 313.21564Q478.54306 314.73126 478.23056 315.65314Q477.9337 316.575 477.3087 317.09064Q476.6993 317.59064 475.7462 317.59064Q474.5118 317.59064 473.79306 316.7Q472.9493 315.6375 472.9493 313.21564ZM474.02744 313.21564Q474.02744 315.325 474.52744 316.02814Q475.02744 316.73126 475.7462 316.73126Q476.48056 316.73126 476.96494 316.02814Q477.46494 315.325 477.46494 313.21564Q477.46494 311.09064 476.96494 310.40314Q476.48056 309.7 475.73056 309.7Q475.0118 309.7 474.5743 310.3094Q474.02744 311.09064 474.02744 313.21564ZM479.9493 313.21564Q479.9493 311.6844 480.2618 310.7625Q480.5743 309.825 481.1837 309.325Q481.8087 308.825 482.7462 308.825Q483.4337 308.825 483.9493 309.10626Q484.48056 309.3875 484.8243 309.91876Q485.16806 310.4344 485.35556 311.1844Q485.54306 311.9344 485.54306 313.21564Q485.54306 314.73126 485.23056 315.65314Q484.9337 316.575 484.3087 317.09064Q483.6993 317.59064 482.7462 317.59064Q481.5118 317.59064 480.79306 316.7Q479.9493 315.6375 479.9493 313.21564ZM481.02744 313.21564Q481.02744 315.325 481.52744 316.02814Q482.02744 316.73126 482.7462 316.73126Q483.48056 316.73126 483.96494 316.02814Q484.46494 315.325 484.46494 313.21564Q484.46494 311.09064 483.96494 310.40314Q483.48056 309.7 482.73056 309.7Q482.0118 309.7 481.5743 310.3094Q481.02744 311.09064 481.02744 313.21564ZM486.9493 313.21564Q486.9493 311.6844 487.2618 310.7625Q487.5743 309.825 488.1837 309.325Q488.8087 308.825 489.7462 308.825Q490.4337 308.825 490.9493 309.10626Q491.48056 309.3875 491.8243 309.91876Q492.16806 310.4344 492.35556 311.1844Q492.54306 311.9344 492.54306 313.21564Q492.54306 314.73126 492.23056 315.65314Q491.9337 316.575 491.3087 317.09064Q490.6993 317.59064 489.7462 317.59064Q488.5118 317.59064 487.79306 316.7Q486.9493 315.6375 486.9493 313.21564ZM488.02744 313.21564Q488.02744 315.325 488.52744 316.02814Q489.02744 316.73126 489.7462 316.73126Q490.48056 316.73126 490.96494 316.02814Q491.46494 315.325 491.46494 313.21564Q491.46494 311.09064 490.96494 310.40314Q490.48056 309.7 489.73056 309.7Q489.0118 309.7 488.5743 310.3094Q488.02744 311.09064 488.02744 313.21564ZM493.9493 313.21564Q493.9493 311.6844 494.2618 310.7625Q494.5743 309.825 495.1837 309.325Q495.8087 308.825 496.7462 308.825Q497.4337 308.825 497.9493 309.10626Q498.48056 309.3875 498.8243 309.91876Q499.16806 310.4344 499.35556 311.1844Q499.54306 311.9344 499.54306 313.21564Q499.54306 314.73126 499.23056 315.65314Q498.9337 316.575 498.3087 317.09064Q497.6993 317.59064 496.7462 317.59064Q495.5118 317.59064 494.79306 316.7Q493.9493 315.6375 493.9493 313.21564ZM495.02744 313.21564Q495.02744 315.325 495.52744 316.02814Q496.02744 316.73126 496.7462 316.73126Q497.48056 316.73126 497.96494 316.02814Q498.46494 315.325 498.46494 313.21564Q498.46494 311.09064 497.96494 310.40314Q497.48056 309.7 496.73056 309.7Q496.0118 309.7 495.5743 310.3094Q495.02744 311.09064 495.02744 313.21564Z" fill-rule="nonzero"/><path fill="#4285f4" d="M30.55 85.916664C30.55 89.23038 27.863708 91.916664 24.55 91.916664C21.236292 91.916664 18.55 89.23038 18.55 85.916664C18.55 82.60296 21.236292 79.916664 24.55 79.916664C27.863708 79.916664 30.55 82.60296 30.55 85.916664Z" fill-rule="nonzero"/><path fill="#1a1a1a" d="M39.675 89.916664L39.675 81.322914L40.8 81.322914L40.8 89.916664L39.675 89.916664ZM47.3625 92.447914Q46.4875 91.33854 45.878124 89.86979Q45.284374 88.385414 45.284374 86.80729Q45.284374 85.416664 45.721874 84.135414Q46.253124 82.65104 47.3625 81.18229L48.1125 81.18229Q47.409374 82.40104 47.175 82.916664Q46.815624 83.729164 46.6125 84.604164Q46.3625 85.697914 46.3625 86.80729Q46.3625 89.635414 48.1125 92.447914L47.3625 92.447914ZM49.346874 89.916664L49.346874 83.697914L50.284374 83.697914L50.284374 84.572914Q50.58125 84.104164 51.065624 83.83854Q51.55 83.55729 52.175 83.55729Q52.8625 83.55729 53.3 83.83854Q53.753124 84.11979 53.925 84.635414Q54.675 83.55729 55.846874 83.55729Q56.784374 83.55729 57.26875 84.072914Q57.76875 84.572914 57.76875 85.65104L57.76875 89.916664L56.721874 89.916664L56.721874 85.99479Q56.721874 85.36979 56.6125 85.08854Q56.51875 84.80729 56.253124 84.635414Q55.9875 84.46354 55.6125 84.46354Q54.95625 84.46354 54.51875 84.90104Q54.096874 85.33854 54.096874 86.30729L54.096874 89.916664L53.034374 89.916664L53.034374 85.86979Q53.034374 85.166664 52.76875 84.822914Q52.51875 84.46354 51.940624 84.46354Q51.4875 84.46354 51.1125 84.697914Q50.7375 84.93229 50.565624 85.385414Q50.39375 85.83854 50.39375 86.68229L50.39375 89.916664L49.346874 89.916664ZM58.534374 89.916664L61.83125 81.322914L63.05 81.322914L66.56563 89.916664L65.28438 89.916664L64.26875 87.30729L60.690624 87.30729L59.7375 89.916664L58.534374 89.916664ZM61.01875 86.385414L63.925 86.385414L63.034374 84.010414Q62.6125 82.93229 62.425 82.229164Q62.253124 83.05729 61.95625 83.86979L61.01875 86.385414ZM68.03438 92.447914L67.28438 92.447914Q69.03438 89.635414 69.03438 86.80729Q69.03438 85.71354 68.78438 84.61979Q68.58125 83.74479 68.22188 82.93229Q67.9875 82.416664 67.28438 81.18229L68.03438 81.18229Q69.12813 82.65104 69.65938 84.135414Q70.1125 85.416664 70.1125 86.80729Q70.1125 88.385414 69.50313 89.86979Q68.89375 91.33854 68.03438 92.447914Z" fill-rule="nonzero"/><path stroke="#4285f4" stroke-width="4.0" stroke-linecap="butt" stroke-opacity="0.4" d="M86.55 85.916664L98.55 85.916664" fill-rule="nonzero"/><path fill="#1a1a1a" d="M111.01875 89.916664L109.97188 89.916664L109.97188 83.197914Q109.58125 83.55729 108.95625 83.93229Q108.34688 84.291664 107.8625 84.46354L107.8625 83.447914Q108.7375 83.02604 109.39375 82.447914Q110.06563 81.854164 110.34688 81.291664L111.01875 81.291664L111.01875 89.916664ZM114.64375 89.916664L114.64375 88.71354L115.84688 88.71354L115.84688 89.916664L114.64375 89.916664ZM117.20625 87.93229L118.22188 87.83854Q118.34688 88.55729 118.70625 88.885414Q119.08125 89.197914 119.64375 89.197914Q120.12813 89.197914 120.4875 88.979164Q120.8625 88.74479 121.09688 88.385414Q121.33125 88.010414 121.4875 87.385414Q121.64375 86.74479 121.64375 86.08854Q121.64375 86.010414 121.64375 85.86979Q121.33125 86.36979 120.78438 86.697914Q120.2375 87.010414 119.59688 87.010414Q118.51875 87.010414 117.78438 86.24479Q117.05 85.46354 117.05 84.197914Q117.05 82.885414 117.81563 82.08854Q118.59688 81.291664 119.75313 81.291664Q120.58125 81.291664 121.26875 81.74479Q121.97188 82.197914 122.33125 83.041664Q122.69063 83.86979 122.69063 85.447914Q122.69063 87.08854 122.33125 88.072914Q121.9875 89.041664 121.26875 89.55729Q120.56563 90.05729 119.62813 90.05729Q118.6125 90.05729 117.97188 89.510414Q117.33125 88.947914 117.20625 87.93229ZM121.51875 84.135414Q121.51875 83.229164 121.03438 82.697914Q120.56563 82.166664 119.87813 82.166664Q119.175 82.166664 118.64375 82.74479Q118.12813 83.30729 118.12813 84.229164Q118.12813 85.041664 118.62813 85.55729Q119.12813 86.072914 119.84688 86.072914Q120.58125 86.072914 121.05 85.55729Q121.51875 85.041664 121.51875 84.135414ZM128.01875 89.916664L126.97188 89.916664L126.97188 83.197914Q126.58125 83.55729 125.95625 83.93229Q125.34688 84.291664 124.8625 84.46354L124.8625 83.447914Q125.7375 83.02604 126.39375 82.447914Q127.06563 81.854164 127.34688 81.291664L128.01875 81.291664L128.01875 89.916664ZM136.55 88.52604L136.55 86.166664L134.22188 86.166664L134.22188 85.18229L136.55 85.18229L136.55 82.854164L137.55 82.854164L137.55 85.18229L139.89375 85.18229L139.89375 86.166664L137.55 86.166664L137.55 88.52604L136.55 88.52604ZM143.925 87.33854L143.925 86.27604L147.175 86.27604L147.175 87.33854L143.925 87.33854ZM153.51875 83.43229L152.47188 83.510414Q152.33125 82.885414 152.08125 82.604164Q151.64375 82.15104 151.01875 82.15104Q150.51875 82.15104 150.12813 82.43229Q149.64375 82.80729 149.34688 83.510414Q149.06563 84.197914 149.05 85.479164Q149.425 84.90104 149.97188 84.61979Q150.53438 84.33854 151.14375 84.33854Q152.19063 84.33854 152.925 85.11979Q153.675 85.90104 153.675 87.11979Q153.675 87.93229 153.31563 88.635414Q152.97188 89.322914 152.3625 89.697914Q151.75313 90.05729 150.9875 90.05729Q149.65938 90.05729 148.83125 89.08854Q148.00313 88.11979 148.00313 85.90104Q148.00313 83.40104 148.925 82.27604Q149.72188 81.291664 151.08125 81.291664Q152.09688 81.291664 152.7375 81.86979Q153.39375 82.43229 153.51875 83.43229ZM149.22188 87.135414Q149.22188 87.68229 149.44063 88.18229Q149.675 88.666664 150.08125 88.93229Q150.50313 89.197914 150.97188 89.197914Q151.62813 89.197914 152.1125 88.666664Q152.59688 88.11979 152.59688 87.197914Q152.59688 86.30729 152.1125 85.791664Q151.64375 85.27604 150.925 85.27604Q150.20625 85.27604 149.70625 85.791664Q149.22188 86.30729 149.22188 87.135414ZM155.64375 89.916664L155.64375 88.71354L156.84688 88.71354L156.84688 89.916664L155.64375 89.916664ZM159.675 85.260414Q159.01875 85.010414 158.69063 84.572914Q158.37813 84.11979 158.37813 83.510414Q158.37813 82.572914 159.05 81.93229Q159.7375 81.291664 160.84688 81.291664Q161.97188 81.291664 162.65938 81.947914Q163.34688 82.604164 163.34688 83.541664Q163.34688 84.135414 163.03438 84.572914Q162.72188 85.010414 162.08125 85.260414Q162.87813 85.510414 163.28438 86.08854Q163.69063 86.666664 163.69063 87.46354Q163.69063 88.55729 162.90938 89.30729Q162.14375 90.05729 160.8625 90.05729Q159.59688 90.05729 158.81563 89.30729Q158.03438 88.55729 158.03438 87.43229Q158.03438 86.58854 158.45625 86.02604Q158.89375 85.46354 159.675 85.260414ZM159.45625 83.46354Q159.45625 84.072914 159.84688 84.46354Q160.25313 84.854164 160.87813 84.854164Q161.4875 84.854164 161.87813 84.479164Q162.26875 84.08854 162.26875 83.52604Q162.26875 82.947914 161.8625 82.55729Q161.45625 82.15104 160.8625 82.15104Q160.25313 82.15104 159.84688 82.541664Q159.45625 82.93229 159.45625 83.46354ZM159.12813 87.43229Q159.12813 87.885414 159.33125 88.30729Q159.55 88.729164 159.97188 88.96354Q160.39375 89.197914 160.87813 89.197914Q161.62813 89.197914 162.1125 88.71354Q162.6125 88.229164 162.6125 87.479164Q162.6125 86.71354 162.1125 86.21354Q161.6125 85.71354 160.84688 85.71354Q160.09688 85.71354 159.6125 86.21354Q159.12813 86.697914 159.12813 87.43229ZM169.01875 89.916664L167.97188 89.916664L167.97188 83.197914Q167.58125 83.55729 166.95625 83.93229Q166.34688 84.291664 165.8625 84.46354L165.8625 83.447914Q166.7375 83.02604 167.39375 82.447914Q168.06563 81.854164 168.34688 81.291664L169.01875 81.291664L169.01875 89.916664ZM172.50313 89.916664L172.50313 81.322914L178.70625 81.322914L178.70625 82.33854L173.64375 82.33854L173.64375 84.96354L178.39375 84.96354L178.39375 85.979164L173.64375 85.979164L173.64375 88.90104L178.90938 88.90104L178.90938 89.916664L172.50313 89.916664ZM179.925 87.33854L179.925 86.27604L183.175 86.27604L183.175 87.33854L179.925 87.33854ZM184.05 85.68229Q184.05 84.15104 184.3625 83.229164Q184.675 82.291664 185.28438 81.791664Q185.90938 81.291664 186.84688 81.291664Q187.53438 81.291664 188.05 81.572914Q188.58125 81.854164 188.925 82.385414Q189.26875 82.90104 189.45625 83.65104Q189.64375 84.40104 189.64375 85.68229Q189.64375 87.197914 189.33125 88.11979Q189.03438 89.041664 188.40938 89.55729Q187.8 90.05729 186.84688 90.05729Q185.6125 90.05729 184.89375 89.166664Q184.05 88.104164 184.05 85.68229ZM185.12813 85.68229Q185.12813 87.791664 185.62813 88.49479Q186.12813 89.197914 186.84688 89.197914Q187.58125 89.197914 188.06563 88.49479Q188.56563 87.791664 188.56563 85.68229Q188.56563 83.55729 188.06563 82.86979Q187.58125 82.166664 186.83125 82.166664Q186.1125 82.166664 185.675 82.77604Q185.12813 83.55729 185.12813 85.68229ZM194.425 89.916664L194.425 87.854164L190.70625 87.854164L190.70625 86.885414L194.62813 81.322914L195.4875 81.322914L195.4875 86.885414L196.64375 86.885414L196.64375 87.854164L195.4875 87.854164L195.4875 89.916664L194.425 89.916664ZM194.425 86.885414L194.425 83.02604L191.7375 86.885414L194.425 86.885414ZM197.64375 89.916664L199.90938 86.68229L197.81563 83.697914L199.12813 83.697914L200.08125 85.15104Q200.34688 85.572914 200.51875 85.854164Q200.76875 85.46354 200.9875 85.166664L202.03438 83.697914L203.3 83.697914L201.14375 86.61979L203.45625 89.916664L202.175 89.916664L200.89375 87.979164L200.55 87.46354L198.90938 89.916664L197.64375 89.916664ZM209.55 88.52604L209.55 86.166664L207.22188 86.166664L207.22188 85.18229L209.55 85.18229L209.55 82.854164L210.55 82.854164L210.55 85.18229L212.89375 85.18229L212.89375 86.166664L210.55 86.166664L210.55 88.52604L209.55 88.52604ZM221.01875 89.916664L219.97188 89.916664L219.97188 83.197914Q219.58125 83.55729 218.95625 83.93229Q218.34688 84.291664 217.8625 84.46354L217.8625 83.447914Q218.7375 83.02604 219.39375 82.447914Q220.06563 81.854164 220.34688 81.291664L221.01875 81.291664L221.01875 89.916664ZM224.64375 89.916664L224.64375 88.71354L225.84688 88.71354L225.84688 89.916664L224.64375 89.916664ZM231.01875 89.916664L229.97188 89.916664L229.97188 83.197914Q229.58125 83.55729 228.95625 83.93229Q228.34688 84.291664 227.8625 84.46354L227.8625 83.447914Q228.7375 83.02604 229.39375 82.447914Q230.06563 81.854164 230.34688 81.291664L231.01875 81.291664L231.01875 89.916664ZM238.01875 89.916664L236.97188 89.916664L236.97188 83.197914Q236.58125 83.55729 235.95625 83.93229Q235.34688 84.291664 234.8625 84.46354L234.8625 83.447914Q235.7375 83.02604 236.39375 82.447914Q237.06563 81.854164 237.34688 81.291664L238.01875 81.291664L238.01875 89.916664ZM241.50313 89.916664L241.50313 81.322914L247.70625 81.322914L247.70625 82.33854L242.64375 82.33854L242.64375 84.96354L247.39375 84.96354L247.39375 85.979164L242.64375 85.979164L242.64375 88.90104L247.90938 88.90104L247.90938 89.916664L241.50313 89.916664ZM248.925 87.33854L248.925 86.27604L252.175 86.27604L252.175 87.33854L248.925 87.33854ZM253.05 85.68229Q253.05 84.15104 253.3625 83.229164Q253.675 82.291664 254.28438 81.791664Q254.90938 81.291664 255.84688 81.291664Q256.53436 81.291664 257.05 81.572914Q257.58124 81.854164 257.925 82.385414Q258.26874 82.90104 258.45624 83.65104Q258.64374 84.40104 258.64374 85.68229Q258.64374 87.197914 258.33124 88.11979Q258.03436 89.041664 257.40936 89.55729Q256.8 90.05729 255.84688 90.05729Q254.6125 90.05729 253.89375 89.166664Q253.05 88.104164 253.05 85.68229ZM254.12813 85.68229Q254.12813 87.791664 254.62813 88.49479Q255.12813 89.197914 255.84688 89.197914Q256.58124 89.197914 257.0656 88.49479Q257.5656 87.791664 257.5656 85.68229Q257.5656 83.55729 257.0656 82.86979Q256.58124 82.166664 255.83125 82.166664Q255.1125 82.166664 254.675 82.77604Q254.12813 83.55729 254.12813 85.68229ZM260.1125 82.447914L260.1125 81.43229L265.675 81.43229L265.675 82.260414Q264.8625 83.135414 264.05 84.58854Q263.2531 86.02604 262.8156 87.55729Q262.4875 88.635414 262.40936 89.916664L261.3156 89.916664Q261.33124 88.90104 261.70624 87.46354Q262.09686 86.02604 262.8 84.697914Q263.51874 83.36979 264.33124 82.447914L260.1125 82.447914ZM266.64374 89.916664L268.90936 86.68229L266.8156 83.697914L268.1281 83.697914L269.08124 85.15104Q269.34686 85.572914 269.51874 85.854164Q269.76874 85.46354 269.9875 85.166664L271.03436 83.697914L272.3 83.697914L270.14374 86.61979L272.45624 89.916664L271.175 89.916664L269.89374 87.979164L269.55 87.46354L267.90936 89.916664L266.64374 89.916664ZM273.95624 85.86979L272.8625 85.86979L274.9406 81.18229L275.78436 81.18229L277.8625 85.86979L276.8 85.86979L275.3625 82.36979L273.95624 85.86979ZM284.59686 88.90104L284.59686 89.916664L278.90936 89.916664Q278.90936 89.541664 279.03436 89.18229Q279.2531 88.604164 279.72186 88.041664Q280.20624 87.479164 281.1125 86.74479Q282.51874 85.58854 283.0031 84.916664Q283.5031 84.24479 283.5031 83.65104Q283.5031 83.02604 283.05 82.604164Q282.59686 82.166664 281.8781 82.166664Q281.1125 82.166664 280.65936 82.61979Q280.20624 83.072914 280.1906 83.885414L279.1125 83.77604Q279.22186 82.55729 279.9406 81.93229Q280.675 81.291664 281.90936 81.291664Q283.14374 81.291664 283.8625 81.979164Q284.58124 82.666664 284.58124 83.68229Q284.58124 84.197914 284.3625 84.697914Q284.15936 85.18229 283.65936 85.74479Q283.175 86.291664 282.05 87.24479Q281.09686 88.041664 280.8156 88.33854Q280.55 88.61979 280.3781 88.90104L284.59686 88.90104ZM291.55 88.52604L291.55 86.166664L289.22186 86.166664L289.22186 85.18229L291.55 85.18229L291.55 82.854164L292.55 82.854164L292.55 85.18229L294.89374 85.18229L294.89374 86.166664L292.55 86.166664L292.55 88.52604L291.55 88.52604ZM298.925 87.33854L298.925 86.27604L302.175 86.27604L302.175 87.33854L298.925 87.33854ZM304.675 85.260414Q304.01874 85.010414 303.6906 84.572914Q303.3781 84.11979 303.3781 83.510414Q303.3781 82.572914 304.05 81.93229Q304.7375 81.291664 305.84686 81.291664Q306.97186 81.291664 307.65936 81.947914Q308.34686 82.604164 308.34686 83.541664Q308.34686 84.135414 308.03436 84.572914Q307.72186 85.010414 307.08124 85.260414Q307.8781 85.510414 308.28436 86.08854Q308.6906 86.666664 308.6906 87.46354Q308.6906 88.55729 307.90936 89.30729Q307.14374 90.05729 305.8625 90.05729Q304.59686 90.05729 303.8156 89.30729Q303.03436 88.55729 303.03436 87.43229Q303.03436 86.58854 303.45624 86.02604Q303.89374 85.46354 304.675 85.260414ZM304.45624 83.46354Q304.45624 84.072914 304.84686 84.46354Q305.2531 84.854164 305.8781 84.854164Q306.4875 84.854164 306.8781 84.479164Q307.26874 84.08854 307.26874 83.52604Q307.26874 82.947914 306.8625 82.55729Q306.45624 82.15104 305.8625 82.15104Q305.2531 82.15104 304.84686 82.541664Q304.45624 82.93229 304.45624 83.46354ZM304.1281 87.43229Q304.1281 87.885414 304.33124 88.30729Q304.55 88.729164 304.97186 88.96354Q305.39374 89.197914 305.8781 89.197914Q306.6281 89.197914 307.1125 88.71354Q307.6125 88.229164 307.6125 87.479164Q307.6125 86.71354 307.1125 86.21354Q306.6125 85.71354 305.84686 85.71354Q305.09686 85.71354 304.6125 86.21354Q304.1281 86.697914 304.1281 87.43229ZM310.64374 89.916664L310.64374 88.71354L311.84686 88.71354L311.84686 89.916664L310.64374 89.916664ZM316.425 89.916664L316.425 87.854164L312.70624 87.854164L312.70624 86.885414L316.6281 81.322914L317.4875 81.322914L317.4875 86.885414L318.64374 86.885414L318.64374 87.854164L317.4875 87.854164L317.4875 89.916664L316.425 89.916664ZM316.425 86.885414L316.425 83.02604L313.7375 86.885414L316.425 86.885414ZM325.51874 83.43229L324.47186 83.510414Q324.33124 82.885414 324.08124 82.604164Q323.64374 82.15104 323.01874 82.15104Q322.51874 82.15104 322.1281 82.43229Q321.64374 82.80729 321.34686 83.510414Q321.0656 84.197914 321.05 85.479164Q321.425 84.90104 321.97186 84.61979Q322.53436 84.33854 323.14374 84.33854Q324.1906 84.33854 324.925 85.11979Q325.675 85.90104 325.675 87.11979Q325.675 87.93229 325.3156 88.635414Q324.97186 89.322914 324.3625 89.697914Q323.7531 90.05729 322.9875 90.05729Q321.65936 90.05729 320.83124 89.08854Q320.0031 88.11979 320.0031 85.90104Q320.0031 83.40104 320.925 82.27604Q321.72186 81.291664 323.08124 81.291664Q324.09686 81.291664 324.7375 81.86979Q325.39374 82.43229 325.51874 83.43229ZM321.22186 87.135414Q321.22186 87.68229 321.4406 88.18229Q321.675 88.666664 322.08124 88.93229Q322.5031 89.197914 322.97186 89.197914Q323.6281 89.197914 324.1125 88.666664Q324.59686 88.11979 324.59686 87.197914Q324.59686 86.30729 324.1125 85.791664Q323.64374 85.27604 322.925 85.27604Q322.20624 85.27604 321.70624 85.791664Q321.22186 86.30729 321.22186 87.135414ZM327.5031 89.916664L327.5031 81.322914L333.70624 81.322914L333.70624 82.33854L328.64374 82.33854L328.64374 84.96354L333.39374 84.96354L333.39374 85.979164L328.64374 85.979164L328.64374 88.90104L333.90936 88.90104L333.90936 89.916664L327.5031 89.916664ZM334.925 87.33854L334.925 86.27604L338.175 86.27604L338.175 87.33854L334.925 87.33854ZM343.01874 89.916664L341.97186 89.916664L341.97186 83.197914Q341.58124 83.55729 340.95624 83.93229Q340.34686 84.291664 339.8625 84.46354L339.8625 83.447914Q340.7375 83.02604 341.39374 82.447914Q342.0656 81.854164 342.34686 81.291664L343.01874 81.291664L343.01874 89.916664ZM351.59686 88.90104L351.59686 89.916664L345.90936 89.916664Q345.90936 89.541664 346.03436 89.18229Q346.2531 88.604164 346.72186 88.041664Q347.20624 87.479164 348.1125 86.74479Q349.51874 85.58854 350.0031 84.916664Q350.5031 84.24479 350.5031 83.65104Q350.5031 83.02604 350.05 82.604164Q349.59686 82.166664 348.8781 82.166664Q348.1125 82.166664 347.65936 82.61979Q347.20624 83.072914 347.1906 83.885414L346.1125 83.77604Q346.22186 82.55729 346.9406 81.93229Q347.675 81.291664 348.90936 81.291664Q350.14374 81.291664 350.8625 81.979164Q351.58124 82.666664 351.58124 83.68229Q351.58124 84.197914 351.3625 84.697914Q351.15936 85.18229 350.65936 85.74479Q350.175 86.291664 349.05 87.24479Q348.09686 88.041664 347.8156 88.33854Q347.55 88.61979 347.3781 88.90104L351.59686 88.90104ZM352.64374 89.916664L354.90936 86.68229L352.8156 83.697914L354.1281 83.697914L355.08124 85.15104Q355.34686 85.572914 355.51874 85.854164Q355.76874 85.46354 355.9875 85.166664L357.03436 83.697914L358.3 83.697914L356.14374 86.61979L358.45624 89.916664L357.175 89.916664L355.89374 87.979164L355.55 87.46354L353.90936 89.916664L352.64374 89.916664ZM359.95624 85.86979L358.8625 85.86979L360.9406 81.18229L361.78436 81.18229L363.8625 85.86979L362.8 85.86979L361.3625 82.36979L359.95624 85.86979ZM365.05 87.65104L366.1125 87.510414Q366.28436 88.40104 366.72186 88.80729Q367.15936 89.197914 367.78436 89.197914Q368.53436 89.197914 369.05 88.68229Q369.5656 88.166664 369.5656 87.40104Q369.5656 86.68229 369.08124 86.21354Q368.6125 85.729164 367.8781 85.729164Q367.58124 85.729164 367.1281 85.854164L367.2531 84.916664Q367.3625 84.93229 367.425 84.93229Q368.09686 84.93229 368.6281 84.58854Q369.175 84.229164 369.175 83.49479Q369.175 82.916664 368.78436 82.541664Q368.39374 82.15104 367.76874 82.15104Q367.15936 82.15104 366.7375 82.541664Q366.33124 82.93229 366.22186 83.697914L365.15936 83.510414Q365.34686 82.46354 366.03436 81.885414Q366.72186 81.291664 367.7375 81.291664Q368.4406 81.291664 369.03436 81.604164Q369.6281 81.90104 369.9406 82.416664Q370.2531 82.93229 370.2531 83.52604Q370.2531 84.072914 369.95624 84.541664Q369.65936 84.99479 369.08124 85.260414Q369.83124 85.43229 370.2531 85.99479Q370.675 86.541664 370.675 87.385414Q370.675 88.510414 369.84686 89.291664Q369.03436 90.072914 367.78436 90.072914Q366.65936 90.072914 365.90936 89.40104Q365.15936 88.71354 365.05 87.65104ZM377.55 88.52604L377.55 86.166664L375.22186 86.166664L375.22186 85.18229L377.55 85.18229L377.55 82.854164L378.55 82.854164L378.55 85.18229L380.89374 85.18229L380.89374 86.166664L378.55 86.166664L378.55 88.52604L377.55 88.52604ZM390.59686 88.90104L390.59686 89.916664L384.90936 89.916664Q384.90936 89.541664 385.03436 89.18229Q385.2531 88.604164 385.72186 88.041664Q386.20624 87.479164 387.1125 86.74479Q388.51874 85.58854 389.0031 84.916664Q389.5031 84.24479 389.5031 83.65104Q389.5031 83.02604 389.05 82.604164Q388.59686 82.166664 387.8781 82.166664Q387.1125 82.166664 386.65936 82.61979Q386.20624 83.072914 386.1906 83.885414L385.1125 83.77604Q385.22186 82.55729 385.9406 81.93229Q386.675 81.291664 387.90936 81.291664Q389.14374 81.291664 389.8625 81.979164Q390.58124 82.666664 390.58124 83.68229Q390.58124 84.197914 390.3625 84.697914Q390.15936 85.18229 389.65936 85.74479Q389.175 86.291664 388.05 87.24479Q387.09686 88.041664 386.8156 88.33854Q386.55 88.61979 386.3781 88.90104L390.59686 88.90104ZM392.64374 89.916664L392.64374 88.71354L393.84686 88.71354L393.84686 89.916664L392.64374 89.916664ZM398.425 89.916664L398.425 87.854164L394.70624 87.854164L394.70624 86.885414L398.6281 81.322914L399.4875 81.322914L399.4875 86.885414L400.64374 86.885414L400.64374 87.854164L399.4875 87.854164L399.4875 89.916664L398.425 89.916664ZM398.425 86.885414L398.425 83.02604L395.7375 86.885414L398.425 86.885414ZM407.59686 88.90104L407.59686 89.916664L401.90936 89.916664Q401.90936 89.541664 402.03436 89.18229Q402.2531 88.604164 402.72186 88.041664Q403.20624 87.479164 404.1125 86.74479Q405.51874 85.58854 406.0031 84.916664Q406.5031 84.24479 406.5031 83.65104Q406.5031 83.02604 406.05 82.604164Q405.59686 82.166664 404.8781 82.166664Q404.1125 82.166664 403.65936 82.61979Q403.20624 83.072914 403.1906 83.885414L402.1125 83.77604Q402.22186 82.55729 402.9406 81.93229Q403.675 81.291664 404.90936 81.291664Q406.14374 81.291664 406.8625 81.979164Q407.58124 82.666664 407.58124 83.68229Q407.58124 84.197914 407.3625 84.697914Q407.15936 85.18229 406.65936 85.74479Q406.175 86.291664 405.05 87.24479Q404.09686 88.041664 403.8156 88.33854Q403.55 88.61979 403.3781 88.90104L407.59686 88.90104ZM409.5031 89.916664L409.5031 81.322914L415.70624 81.322914L415.70624 82.33854L410.64374 82.33854L410.64374 84.96354L415.39374 84.96354L415.39374 85.979164L410.64374 85.979164L410.64374 88.90104L415.90936 88.90104L415.90936 89.916664L409.5031 89.916664ZM416.925 87.33854L416.925 86.27604L420.175 86.27604L420.175 87.33854L416.925 87.33854ZM425.01874 89.916664L423.97186 89.916664L423.97186 83.197914Q423.58124 83.55729 422.95624 83.93229Q422.34686 84.291664 421.8625 84.46354L421.8625 83.447914Q422.7375 83.02604 423.39374 82.447914Q424.0656 81.854164 424.34686 81.291664L425.01874 81.291664L425.01874 89.916664ZM433.51874 83.43229L432.47186 83.510414Q432.33124 82.885414 432.08124 82.604164Q431.64374 82.15104 431.01874 82.15104Q430.51874 82.15104 430.1281 82.43229Q429.64374 82.80729 429.34686 83.510414Q429.0656 84.197914 429.05 85.479164Q429.425 84.90104 429.97186 84.61979Q430.53436 84.33854 431.14374 84.33854Q432.1906 84.33854 432.925 85.11979Q433.675 85.90104 433.675 87.11979Q433.675 87.93229 433.3156 88.635414Q432.97186 89.322914 432.3625 89.697914Q431.7531 90.05729 430.9875 90.05729Q429.65936 90.05729 428.83124 89.08854Q428.0031 88.11979 428.0031 85.90104Q428.0031 83.40104 428.925 82.27604Q429.72186 81.291664 431.08124 81.291664Q432.09686 81.291664 432.7375 81.86979Q433.39374 82.43229 433.51874 83.43229ZM429.22186 87.135414Q429.22186 87.68229 429.4406 88.18229Q429.675 88.666664 430.08124 88.93229Q430.5031 89.197914 430.97186 89.197914Q431.6281 89.197914 432.1125 88.666664Q432.59686 88.11979 432.59686 87.197914Q432.59686 86.30729 432.1125 85.791664Q431.64374 85.27604 430.925 85.27604Q430.20624 85.27604 429.70624 85.791664Q429.22186 86.30729 429.22186 87.135414ZM434.64374 89.916664L436.90936 86.68229L434.8156 83.697914L436.1281 83.697914L437.08124 85.15104Q437.34686 85.572914 437.51874 85.854164Q437.76874 85.46354 437.9875 85.166664L439.03436 83.697914L440.3 83.697914L438.14374 86.61979L440.45624 89.916664L439.175 89.916664L437.89374 87.979164L437.55 87.46354L435.90936 89.916664L434.64374 89.916664ZM441.95624 85.86979L440.8625 85.86979L442.9406 81.18229L443.78436 81.18229L445.8625 85.86979L444.8 85.86979L443.3625 82.36979L441.95624 85.86979ZM450.425 89.916664L450.425 87.854164L446.70624 87.854164L446.70624 86.885414L450.6281 81.322914L451.4875 81.322914L451.4875 86.885414L452.64374 86.885414L452.64374 87.854164L451.4875 87.854164L451.4875 89.916664L450.425 89.916664ZM450.425 86.885414L450.425 83.02604L447.7375 86.885414L450.425 86.885414Z" fill-rule="nonzero"/><path fill="#757575" d="M20.409374 37.55L20.409374 23.2375L22.315624 23.2375L22.315624 37.55L20.409374 37.55ZM35.221874 41.753124Q33.76875 39.925 32.76875 37.471874Q31.76875 35.003124 31.76875 32.3625Q31.76875 30.034374 32.51875 27.909374Q33.39375 25.440624 35.221874 22.9875L36.4875 22.9875Q35.3 25.01875 34.925 25.89375Q34.33125 27.2375 33.9875 28.70625Q33.565624 30.534374 33.565624 32.378124Q33.565624 37.065624 36.4875 41.753124L35.221874 41.753124ZM38.8625 37.55L38.8625 27.175L40.440624 27.175L40.440624 28.628124Q40.925 27.878124 41.7375 27.409374Q42.55 26.940624 43.58125 26.940624Q44.7375 26.940624 45.471874 27.425Q46.20625 27.89375 46.51875 28.753124Q47.753124 26.940624 49.721874 26.940624Q51.26875 26.940624 52.096874 27.8Q52.925 28.659374 52.925 30.425L52.925 37.55L51.175 37.55L51.175 31.01875Q51.175 29.95625 51.003124 29.503124Q50.83125 29.034374 50.378124 28.753124Q49.940624 28.471874 49.33125 28.471874Q48.2375 28.471874 47.503124 29.20625Q46.784374 29.925 46.784374 31.51875L46.784374 37.55L45.034374 37.55L45.034374 30.815624Q45.034374 29.64375 44.596874 29.065624Q44.175 28.471874 43.190624 28.471874Q42.45625 28.471874 41.815624 28.8625Q41.190624 29.253124 40.909374 30.003124Q40.628124 30.753124 40.628124 32.175L40.628124 37.55L38.8625 37.55ZM54.51875 37.55L60.01875 23.2375L62.065624 23.2375L67.925 37.55L65.76875 37.55L64.09688 33.20625L58.1125 33.20625L56.534374 37.55L54.51875 37.55ZM58.659374 31.675L63.503124 31.675L62.01875 27.70625Q61.33125 25.89375 61.003124 24.7375Q60.721874 26.1125 60.221874 27.471874L58.659374 31.675ZM70.01875 41.753124L68.76875 41.753124Q71.675 37.065624 71.675 32.378124Q71.675 30.534374 71.26875 28.7375Q70.925 27.26875 70.33125 25.925Q69.95625 25.034374 68.76875 22.9875L70.01875 22.9875Q71.8625 25.440624 72.7375 27.909374Q73.4875 30.034374 73.4875 32.3625Q73.4875 35.003124 72.47188 37.471874Q71.47188 39.925 70.01875 41.753124ZM84.75313 37.55L80.8 27.175L82.65938 27.175L84.89375 33.39375Q85.25313 34.39375 85.55 35.471874Q85.78438 34.659374 86.20625 33.503124L88.50313 27.175L90.31563 27.175L86.39375 37.55L84.75313 37.55ZM91.15938 34.45625L92.90938 34.175Q93.05 35.221874 93.72188 35.784374Q94.39375 36.33125 95.59688 36.33125Q96.8 36.33125 97.37813 35.846874Q97.97188 35.346874 97.97188 34.690624Q97.97188 34.096874 97.45625 33.753124Q97.09688 33.51875 95.65938 33.159374Q93.72188 32.659374 92.97188 32.315624Q92.2375 31.95625 91.84688 31.33125Q91.45625 30.690624 91.45625 29.925Q91.45625 29.2375 91.76875 28.64375Q92.09688 28.05 92.64375 27.659374Q93.05 27.3625 93.75313 27.159374Q94.47188 26.940624 95.28438 26.940624Q96.50313 26.940624 97.425 27.3Q98.34688 27.64375 98.78438 28.253124Q99.22188 28.846874 99.39375 29.846874L97.675 30.08125Q97.55 29.284374 96.9875 28.846874Q96.425 28.39375 95.40938 28.39375Q94.19063 28.39375 93.675 28.8Q93.15938 29.190624 93.15938 29.721874Q93.15938 30.065624 93.37813 30.346874Q93.58125 30.628124 94.05 30.815624Q94.31563 30.909374 95.59688 31.253124Q97.47188 31.753124 98.20625 32.08125Q98.94063 32.39375 99.3625 33.003124Q99.78438 33.596874 99.78438 34.503124Q99.78438 35.378124 99.26875 36.159374Q98.75313 36.940624 97.78438 37.3625Q96.81563 37.784374 95.59688 37.784374Q93.58125 37.784374 92.51875 36.940624Q91.45625 36.096874 91.15938 34.45625ZM102.3625 37.55L102.3625 35.55L104.3625 35.55L104.3625 37.55L102.3625 37.55ZM114.12813 37.55L114.12813 23.2375L120.47188 23.2375Q122.37813 23.2375 123.37813 23.628124Q124.37813 24.003124 124.97188 24.9875Q125.56563 25.95625 125.56563 27.14375Q125.56563 28.659374 124.58125 29.70625Q123.59688 30.753124 121.53438 31.034374Q122.28438 31.39375 122.675 31.753124Q123.50313 32.503124 124.25313 33.659374L126.7375 37.55L124.3625 37.55L122.45625 34.565624Q121.62813 33.284374 121.09688 32.596874Q120.56563 31.909374 120.12813 31.64375Q119.70625 31.3625 119.26875 31.253124Q118.94063 31.190624 118.22188 31.190624L116.01875 31.190624L116.01875 37.55L114.12813 37.55ZM116.01875 29.55L120.09688 29.55Q121.39375 29.55 122.1125 29.284374Q122.84688 29.01875 123.22188 28.425Q123.6125 27.83125 123.6125 27.14375Q123.6125 26.128124 122.87813 25.471874Q122.14375 24.815624 120.55 24.815624L116.01875 24.815624L116.01875 29.55ZM134.00313 37.55L132.2375 37.55L132.2375 26.346874Q131.6125 26.95625 130.58125 27.565624Q129.55 28.159374 128.72188 28.471874L128.72188 26.76875Q130.20625 26.08125 131.3 25.096874Q132.40938 24.096874 132.8625 23.175L134.00313 23.175L134.00313 37.55ZM148.22188 41.753124Q146.76875 39.925 145.76875 37.471874Q144.76875 35.003124 144.76875 32.3625Q144.76875 30.034374 145.51875 27.909374Q146.39375 25.440624 148.22188 22.9875L149.4875 22.9875Q148.3 25.01875 147.925 25.89375Q147.33125 27.2375 146.9875 28.70625Q146.56563 30.534374 146.56563 32.378124Q146.56563 37.065624 149.4875 41.753124L148.22188 41.753124ZM151.51875 30.58125Q151.51875 27.01875 153.425 25.003124Q155.34688 22.971874 158.37813 22.971874Q160.3625 22.971874 161.94063 23.925Q163.53438 24.878124 164.3625 26.58125Q165.20625 28.26875 165.20625 30.409374Q165.20625 32.58125 164.33125 34.3Q163.45625 36.01875 161.83125 36.909374Q160.22188 37.8 158.3625 37.8Q156.34688 37.8 154.75313 36.83125Q153.15938 35.846874 152.33125 34.159374Q151.51875 32.45625 151.51875 30.58125ZM153.47188 30.6125Q153.47188 33.190624 154.8625 34.690624Q156.25313 36.175 158.34688 36.175Q160.4875 36.175 161.8625 34.675Q163.25313 33.159374 163.25313 30.39375Q163.25313 28.659374 162.65938 27.3625Q162.08125 26.05 160.94063 25.33125Q159.8 24.6125 158.37813 24.6125Q156.37813 24.6125 154.925 26.003124Q153.47188 27.378124 153.47188 30.6125ZM167.8625 37.55L167.8625 23.2375L169.62813 23.2375L169.62813 28.3625Q170.8625 26.940624 172.7375 26.940624Q173.87813 26.940624 174.72188 27.39375Q175.58125 27.846874 175.94063 28.659374Q176.31563 29.45625 176.31563 30.971874L176.31563 37.55L174.56563 37.55L174.56563 30.971874Q174.56563 29.659374 173.9875 29.065624Q173.40938 28.45625 172.37813 28.45625Q171.59688 28.45625 170.89375 28.8625Q170.20625 29.26875 169.90938 29.971874Q169.62813 30.659374 169.62813 31.878124L169.62813 37.55L167.8625 37.55ZM178.8625 37.55L178.8625 27.175L180.44063 27.175L180.44063 28.628124Q180.925 27.878124 181.7375 27.409374Q182.55 26.940624 183.58125 26.940624Q184.7375 26.940624 185.47188 27.425Q186.20625 27.89375 186.51875 28.753124Q187.75313 26.940624 189.72188 26.940624Q191.26875 26.940624 192.09688 27.8Q192.925 28.659374 192.925 30.425L192.925 37.55L191.175 37.55L191.175 31.01875Q191.175 29.95625 191.00313 29.503124Q190.83125 29.034374 190.37813 28.753124Q189.94063 28.471874 189.33125 28.471874Q188.2375 28.471874 187.50313 29.20625Q186.78438 29.925 186.78438 31.51875L186.78438 37.55L185.03438 37.55L185.03438 30.815624Q185.03438 29.64375 184.59688 29.065624Q184.175 28.471874 183.19063 28.471874Q182.45625 28.471874 181.81563 28.8625Q181.19063 29.253124 180.90938 30.003124Q180.62813 30.753124 180.62813 32.175L180.62813 37.55L178.8625 37.55ZM195.15938 34.45625L196.90938 34.175Q197.05 35.221874 197.72188 35.784374Q198.39375 36.33125 199.59688 36.33125Q200.8 36.33125 201.37813 35.846874Q201.97188 35.346874 201.97188 34.690624Q201.97188 34.096874 201.45625 33.753124Q201.09688 33.51875 199.65938 33.159374Q197.72188 32.659374 196.97188 32.315624Q196.2375 31.95625 195.84688 31.33125Q195.45625 30.690624 195.45625 29.925Q195.45625 29.2375 195.76875 28.64375Q196.09688 28.05 196.64375 27.659374Q197.05 27.3625 197.75313 27.159374Q198.47188 26.940624 199.28438 26.940624Q200.50313 26.940624 201.425 27.3Q202.34688 27.64375 202.78438 28.253124Q203.22188 28.846874 203.39375 29.846874L201.675 30.08125Q201.55 29.284374 200.9875 28.846874Q200.425 28.39375 199.40938 28.39375Q198.19063 28.39375 197.675 28.8Q197.15938 29.190624 197.15938 29.721874Q197.15938 30.065624 197.37813 30.346874Q197.58125 30.628124 198.05 30.815624Q198.31563 30.909374 199.59688 31.253124Q201.47188 31.753124 202.20625 32.08125Q202.94063 32.39375 203.3625 33.003124Q203.78438 33.596874 203.78438 34.503124Q203.78438 35.378124 203.26875 36.159374Q202.75313 36.940624 201.78438 37.3625Q200.81563 37.784374 199.59688 37.784374Q197.58125 37.784374 196.51875 36.940624Q195.45625 36.096874 195.15938 34.45625ZM207.01875 41.753124L205.76875 41.753124Q208.675 37.065624 208.675 32.378124Q208.675 30.534374 208.26875 28.7375Q207.925 27.26875 207.33125 25.925Q206.95625 25.034374 205.76875 22.9875L207.01875 22.9875Q208.8625 25.440624 209.7375 27.909374Q210.4875 30.034374 210.4875 32.3625Q210.4875 35.003124 209.47188 37.471874Q208.47188 39.925 207.01875 41.753124Z" fill-rule="nonzero"/></svg>