<svg version="1.1" viewBox="0.0 0.0 600.0 371.0" fill="none" stroke="none" stroke-linecap="square" stroke-miterlimit="10" width="600" height="371" xmlns:xlink="http://www.w3.org/1999/xlink" xmlns="http://www.w3.org/2000/svg"><path fill="#ffffff" d="M0 0L600.0 0L600.0 371.0L0 371.0L0 0Z" fill-rule="nonzero"/><path stroke="#333333" stroke-width="1.0" stroke-linecap="butt" d="M84.5 112.5L84.5 300.5" fill-rule="nonzero"/><path stroke="#cccccc" stroke-width="1.0" stroke-linecap="butt" d="M208.5 112.5L208.5 300.5" fill-rule="nonzero"/><path stroke="#cccccc" stroke-width="1.0" stroke-linecap="butt" d="M332.5 112.5L332.5 300.5" fill-rule="nonzero"/><path stroke="#cccccc" stroke-width="1.0" stroke-linecap="butt" d="M456.5 112.5L456.5 300.5" fill-rule="nonzero"/><path stroke="#cccccc" stroke-width="1.0" stroke-linecap="butt" d="M581.5 112.5L581.5 300.5" fill-rule="nonzero"/><path stroke="#cccccc" stroke-width="1.0" stroke-linecap="butt" d="M77.5 300.5L581.5 300.5" fill-rule="nonzero"/><path stroke="#cccccc" stroke-width="1.0" stroke-linecap="butt" d="M77.5 262.5L581.5 262.5" fill-rule="nonzero"/><path stroke="#cccccc" stroke-width="1.0" stroke-linecap="butt" d="M77.5 225.5L581.5 225.5" fill-rule="nonzero"/><path stroke="#cccccc" stroke-width="1.0" stroke-linecap="butt" d="M77.5 187.5L581.5 187.5" fill-rule="nonzero"/><path stroke="#333333" stroke-width="1.0" stroke-linecap="butt" d="M77.5 149.5L581.5 149.5" fill-rule="nonzero"/><path stroke="#cccccc" stroke-width="1.0" stroke-linecap="butt" d="M77.5 112.5L581.5 112.5" fill-rule="nonzero"/><clipPath id="id_0"><path d="M77.55 112.28333L581.45 112.28333L581.45 300.45L77.55 300.45L77.55 112.28333Z" clip-rule="nonzero"/></clipPath><path stroke="#4285f4" stroke-width="2.0" stroke-linecap="butt" stroke-opacity="0.4" clip-path="url(#id_0)" d="M0 129.67471L581.45 266.5326" fill-rule="nonzero"/><path fill="#4285f4" clip-path="url(#id_0)" d="M88.86077 149.3898C88.86077 151.87508 86.846054 153.8898 84.36077 153.8898C81.875496 153.8898 79.86077 151.87508 79.86077 149.3898C79.86077 146.90453 81.875496 144.8898 84.36077 144.8898C86.846054 144.8898 88.86077 146.90453 88.86077 149.3898Z" fill-rule="nonzero"/><path fill="#4285f4" clip-path="url(#id_0)" d="M211.55457 178.518C211.55457 181.00328 209.53986 183.018 207.05457 183.018C204.56929 183.018 202.55457 181.00328 202.55457 178.518C202.55457 176.03271 204.56929 174.018 207.05457 174.018C209.53986 174.018 211.55457 176.03271 211.55457 178.518Z" fill-rule="nonzero"/><path fill="#4285f4" clip-path="url(#id_0)" d="M335.24185 207.68384C335.24185 210.16911 333.2271 212.18384 330.74185 212.18384C328.25656 212.18384 326.24185 210.16911 326.24185 207.68384C326.24185 205.19855 328.25656 203.18384 330.74185 203.18384C333.2271 203.18384 335.24185 205.19855 335.24185 207.68384Z" fill-rule="nonzero"/><path fill="#4285f4" clip-path="url(#id_0)" d="M463.39972 237.60234C463.39972 240.08762 461.385 242.10234 458.89972 242.10234C456.41446 242.10234 454.39972 240.08762 454.39972 237.60234C454.39972 235.11705 456.41446 233.10234 458.89972 233.10234C461.385 233.10234 463.39972 235.11705 463.39972 237.60234Z" fill-rule="nonzero"/><path fill="#4285f4" clip-path="url(#id_0)" d="M579.1392 264.8865C579.1392 267.3718 577.1245 269.3865 574.6392 269.3865C572.15393 269.3865 570.1392 267.3718 570.1392 264.8865C570.1392 262.4012 572.15393 260.3865 574.6392 260.3865C577.1245 260.3865 579.1392 262.4012 579.1392 264.8865Z" fill-rule="nonzero"/><path fill="#000000" d="M300.9375 349.45L300.9375 340.85626L304.75 340.85626Q305.90625 340.85626 306.5 341.09064Q307.09375 341.325 307.45312 341.91876Q307.8125 342.4969 307.8125 343.2Q307.8125 344.1219 307.21875 344.7469Q306.625 345.3719 305.39062 345.54376Q305.84375 345.7625 306.07812 345.96564Q306.57812 346.41876 307.01562 347.10626L308.51562 349.45L307.07812 349.45L305.95312 347.66876Q305.45312 346.8875 305.125 346.48126Q304.8125 346.075 304.54688 345.91876Q304.29688 345.7469 304.03125 345.66876Q303.84375 345.6375 303.40625 345.6375L302.07812 345.6375L302.07812 349.45L300.9375 349.45ZM302.07812 344.65314L304.53125 344.65314Q305.29688 344.65314 305.73438 344.4969Q306.1875 344.325 306.40625 343.98126Q306.64062 343.6219 306.64062 343.2Q306.64062 342.59064 306.1875 342.2Q305.75 341.8094 304.79688 341.8094L302.07812 341.8094L302.07812 344.65314ZM315.04688 348.4344L315.04688 349.45L309.35938 349.45Q309.35938 349.075 309.48438 348.71564Q309.70312 348.1375 310.17188 347.575Q310.65625 347.0125 311.5625 346.27814Q312.96875 345.1219 313.45312 344.45Q313.95312 343.77814 313.95312 343.1844Q313.95312 342.5594 313.5 342.1375Q313.04688 341.7 312.32812 341.7Q311.5625 341.7 311.10938 342.15314Q310.65625 342.60626 310.64062 343.41876L309.5625 343.3094Q309.67188 342.09064 310.39062 341.46564Q311.125 340.825 312.35938 340.825Q313.59375 340.825 314.3125 341.5125Q315.03125 342.2 315.03125 343.21564Q315.03125 343.73126 314.8125 344.23126Q314.60938 344.71564 314.10938 345.27814Q313.625 345.825 312.5 346.77814Q311.54688 347.575 311.26562 347.8719Q311.0 348.15314 310.82812 348.4344L315.04688 348.4344ZM321.8125 351.98126Q320.9375 350.8719 320.32812 349.40314Q319.73438 347.91876 319.73438 346.34064Q319.73438 344.95 320.17188 343.66876Q320.70312 342.1844 321.8125 340.71564L322.5625 340.71564Q321.85938 341.9344 321.625 342.45Q321.26562 343.2625 321.0625 344.1375Q320.8125 345.23126 320.8125 346.34064Q320.8125 349.16876 322.5625 351.98126L321.8125 351.98126ZM323.57812 345.2625Q323.57812 343.1219 324.71875 341.91876Q325.875 340.7 327.6875 340.7Q328.89062 340.7 329.84375 341.27814Q330.79688 341.84064 331.29688 342.85626Q331.79688 343.8719 331.79688 345.16876Q331.79688 346.46564 331.26562 347.4969Q330.73438 348.52814 329.76562 349.0594Q328.8125 349.59064 327.6875 349.59064Q326.46875 349.59064 325.51562 349.0125Q324.5625 348.41876 324.0625 347.41876Q323.57812 346.40314 323.57812 345.2625ZM324.75 345.27814Q324.75 346.84064 325.57812 347.73126Q326.42188 348.6219 327.6875 348.6219Q328.96875 348.6219 329.79688 347.73126Q330.625 346.825 330.625 345.15314Q330.625 344.10626 330.26562 343.325Q329.92188 342.54376 329.23438 342.1219Q328.54688 341.6844 327.70312 341.6844Q326.5 341.6844 325.625 342.5125Q324.75 343.34064 324.75 345.27814ZM332.79688 349.45L332.79688 340.85626L333.84375 340.85626L333.84375 343.9344Q334.57812 343.09064 335.70312 343.09064Q336.40625 343.09064 336.90625 343.3719Q337.42188 343.6375 337.64062 344.1219Q337.85938 344.59064 337.85938 345.5125L337.85938 349.45L336.8125 349.45L336.8125 345.5125Q336.8125 344.71564 336.46875 344.35626Q336.125 343.9969 335.5 343.9969Q335.03125 343.9969 334.60938 344.2469Q334.20312 344.48126 334.01562 344.90314Q333.84375 345.3094 333.84375 346.04376L333.84375 349.45L332.79688 349.45ZM339.79688 349.45L339.79688 343.23126L340.73438 343.23126L340.73438 344.10626Q341.03125 343.6375 341.51562 343.3719Q342.0 343.09064 342.625 343.09064Q343.3125 343.09064 343.75 343.3719Q344.20312 343.65314 344.375 344.16876Q345.125 343.09064 346.29688 343.09064Q347.23438 343.09064 347.71875 343.60626Q348.21875 344.10626 348.21875 345.1844L348.21875 349.45L347.17188 349.45L347.17188 345.52814Q347.17188 344.90314 347.0625 344.6219Q346.96875 344.34064 346.70312 344.16876Q346.4375 343.9969 346.0625 343.9969Q345.40625 343.9969 344.96875 344.4344Q344.54688 344.8719 344.54688 345.84064L344.54688 349.45L343.48438 349.45L343.48438 345.40314Q343.48438 344.7 343.21875 344.35626Q342.96875 343.9969 342.39062 343.9969Q341.9375 343.9969 341.5625 344.23126Q341.1875 344.46564 341.01562 344.91876Q340.84375 345.3719 340.84375 346.21564L340.84375 349.45L339.79688 349.45ZM349.375 347.59064L350.40625 347.4344Q350.5 348.0594 350.89062 348.3875Q351.29688 348.71564 352.03125 348.71564Q352.75 348.71564 353.09375 348.4344Q353.45312 348.1375 353.45312 347.73126Q353.45312 347.3719 353.14062 347.16876Q352.92188 347.02814 352.0625 346.8094Q350.90625 346.5125 350.45312 346.3094Q350.01562 346.09064 349.78125 345.71564Q349.54688 345.34064 349.54688 344.8719Q349.54688 344.46564 349.73438 344.10626Q349.92188 343.7469 350.25 343.5125Q350.5 343.34064 350.92188 343.21564Q351.34375 343.09064 351.84375 343.09064Q352.5625 343.09064 353.10938 343.3094Q353.67188 343.5125 353.9375 343.8719Q354.20312 344.23126 354.29688 344.825L353.26562 344.96564Q353.20312 344.4969 352.85938 344.23126Q352.53125 343.95 351.90625 343.95Q351.1875 343.95 350.875 344.2Q350.5625 344.4344 350.5625 344.7625Q350.5625 344.96564 350.6875 345.1219Q350.82812 345.29376 351.09375 345.40314Q351.25 345.46564 352.03125 345.66876Q353.15625 345.98126 353.59375 346.16876Q354.03125 346.35626 354.28125 346.71564Q354.53125 347.075 354.53125 347.6219Q354.53125 348.15314 354.21875 348.6219Q353.92188 349.075 353.34375 349.34064Q352.76562 349.59064 352.03125 349.59064Q350.8125 349.59064 350.17188 349.09064Q349.54688 348.575 349.375 347.59064ZM356.48438 351.98126L355.73438 351.98126Q357.48438 349.16876 357.48438 346.34064Q357.48438 345.2469 357.23438 344.15314Q357.03125 343.27814 356.67188 342.46564Q356.4375 341.95 355.73438 340.71564L356.48438 340.71564Q357.57812 342.1844 358.10938 343.66876Q358.5625 344.95 358.5625 346.34064Q358.5625 347.91876 357.95312 349.40314Q357.34375 350.8719 356.48438 351.98126Z" fill-rule="nonzero"/><path fill="#000000" d="M29.550013 226.49167L20.956263 229.8198L20.956263 228.58542L27.206263 226.35104Q27.956263 226.08542 28.612513 225.89792Q27.909388 225.6948 27.206263 225.42917L20.956263 223.11667L20.956263 221.96042L29.550013 225.3198L29.550013 226.49167ZM26.440638 221.46042Q24.706263 221.46042 23.878138 220.5073Q23.190638 219.71042 23.190638 218.55417Q23.190638 217.27292 24.034388 216.46042Q24.862513 215.6323 26.346888 215.6323Q27.550013 215.6323 28.237513 215.99167Q28.925013 216.35104 29.315638 217.05417Q29.690638 217.74167 29.690638 218.55417Q29.690638 219.85104 28.862513 220.66354Q28.018763 221.46042 26.440638 221.46042ZM26.440638 220.3823Q27.628138 220.3823 28.221888 219.86667Q28.815638 219.33542 28.815638 218.55417Q28.815638 217.7573 28.221888 217.24167Q27.628138 216.72604 26.409388 216.72604Q25.253138 216.72604 24.659388 217.2573Q24.065638 217.77292 24.065638 218.55417Q24.065638 219.33542 24.659388 219.86667Q25.237513 220.3823 26.440638 220.3823ZM32.08126 209.05417Q30.971888 209.92917 29.503138 210.53854Q28.018763 211.1323 26.440638 211.1323Q25.050013 211.1323 23.768763 210.6948Q22.284388 210.16354 20.815638 209.05417L20.815638 208.30417Q22.034388 209.0073 22.550013 209.24167Q23.362513 209.60104 24.237513 209.80417Q25.331263 210.05417 26.440638 210.05417Q29.268763 210.05417 32.08126 208.30417L32.08126 209.05417ZM29.550013 204.49167L20.956263 207.8198L20.956263 206.58542L27.206263 204.35104Q27.956263 204.08542 28.612513 203.89792Q27.909388 203.6948 27.206263 203.42917L20.956263 201.11667L20.956263 199.96042L29.550013 203.3198L29.550013 204.49167ZM32.08126 198.3823L32.08126 199.1323Q29.268763 197.3823 26.440638 197.3823Q25.346888 197.3823 24.253138 197.6323Q23.378138 197.83542 22.565638 198.1948Q22.050013 198.42917 20.815638 199.1323L20.815638 198.3823Q22.284388 197.28854 23.768763 196.7573Q25.050013 196.30417 26.440638 196.30417Q28.018763 196.30417 29.503138 196.91354Q30.971888 197.52292 32.08126 198.3823Z" fill-rule="nonzero"/><path fill="#000000" d="M60.925 301.8719L60.925 300.8094L64.175 300.8094L64.175 301.8719L60.925 301.8719ZM66.675 299.79376Q66.01875 299.54376 65.69063 299.10626Q65.37813 298.65314 65.37813 298.04376Q65.37813 297.10626 66.05 296.46564Q66.7375 295.825 67.84688 295.825Q68.97188 295.825 69.65938 296.48126Q70.34688 297.1375 70.34688 298.075Q70.34688 298.66876 70.03438 299.10626Q69.72188 299.54376 69.08125 299.79376Q69.87813 300.04376 70.28438 300.6219Q70.69063 301.2 70.69063 301.9969Q70.69063 303.09064 69.90938 303.84064Q69.14375 304.59064 67.8625 304.59064Q66.59688 304.59064 65.81563 303.84064Q65.03438 303.09064 65.03438 301.96564Q65.03438 301.1219 65.45625 300.5594Q65.89375 299.9969 66.675 299.79376ZM66.45625 297.9969Q66.45625 298.60626 66.84688 298.9969Q67.25313 299.3875 67.87813 299.3875Q68.4875 299.3875 68.87813 299.0125Q69.26875 298.6219 69.26875 298.0594Q69.26875 297.48126 68.8625 297.09064Q68.45625 296.6844 67.8625 296.6844Q67.25313 296.6844 66.84688 297.075Q66.45625 297.46564 66.45625 297.9969ZM66.12813 301.96564Q66.12813 302.41876 66.33125 302.84064Q66.55 303.2625 66.97188 303.4969Q67.39375 303.73126 67.87813 303.73126Q68.62813 303.73126 69.1125 303.2469Q69.6125 302.7625 69.6125 302.0125Q69.6125 301.2469 69.1125 300.7469Q68.6125 300.2469 67.84688 300.2469Q67.09688 300.2469 66.6125 300.7469Q66.12813 301.23126 66.12813 301.96564Z" fill-rule="nonzero"/><path fill="#000000" d="M60.925 264.23856L60.925 263.17606L64.175 263.17606L64.175 264.23856L60.925 264.23856ZM70.51875 260.3323L69.47188 260.41043Q69.33125 259.78543 69.08125 259.50418Q68.64375 259.05106 68.01875 259.05106Q67.51875 259.05106 67.12813 259.3323Q66.64375 259.7073 66.34688 260.41043Q66.06563 261.09793 66.05 262.37918Q66.425 261.80106 66.97188 261.5198Q67.53438 261.23856 68.14375 261.23856Q69.19063 261.23856 69.925 262.0198Q70.675 262.80106 70.675 264.0198Q70.675 264.8323 70.31563 265.53543Q69.97188 266.22293 69.3625 266.59793Q68.75313 266.9573 67.9875 266.9573Q66.65938 266.9573 65.83125 265.98856Q65.00313 265.0198 65.00313 262.80106Q65.00313 260.30106 65.925 259.17606Q66.72188 258.19168 68.08125 258.19168Q69.09688 258.19168 69.7375 258.7698Q70.39375 259.3323 70.51875 260.3323ZM66.22188 264.03543Q66.22188 264.5823 66.44063 265.0823Q66.675 265.56668 67.08125 265.8323Q67.50313 266.09793 67.97188 266.09793Q68.62813 266.09793 69.1125 265.56668Q69.59688 265.0198 69.59688 264.09793Q69.59688 263.2073 69.1125 262.69168Q68.64375 262.17606 67.925 262.17606Q67.20625 262.17606 66.70625 262.69168Q66.22188 263.2073 66.22188 264.03543Z" fill-rule="nonzero"/><path fill="#000000" d="M60.925 226.60521L60.925 225.54271L64.175 225.54271L64.175 226.60521L60.925 226.60521ZM68.425 229.18333L68.425 227.12083L64.70625 227.12083L64.70625 226.15208L68.62813 220.58958L69.4875 220.58958L69.4875 226.15208L70.64375 226.15208L70.64375 227.12083L69.4875 227.12083L69.4875 229.18333L68.425 229.18333ZM68.425 226.15208L68.425 222.29271L65.7375 226.15208L68.425 226.15208Z" fill-rule="nonzero"/><path fill="#000000" d="M60.925 188.97188L60.925 187.90938L64.175 187.90938L64.175 188.97188L60.925 188.97188ZM70.59688 190.53438L70.59688 191.55L64.90938 191.55Q64.90938 191.175 65.03438 190.81563Q65.25313 190.2375 65.72188 189.675Q66.20625 189.1125 67.1125 188.37813Q68.51875 187.22188 69.00313 186.55Q69.50313 185.87813 69.50313 185.28438Q69.50313 184.65938 69.05 184.2375Q68.59688 183.8 67.87813 183.8Q67.1125 183.8 66.65938 184.25313Q66.20625 184.70625 66.19063 185.51875L65.1125 185.40938Q65.22188 184.19063 65.94063 183.56563Q66.675 182.925 67.90938 182.925Q69.14375 182.925 69.8625 183.6125Q70.58125 184.3 70.58125 185.31563Q70.58125 185.83125 70.3625 186.33125Q70.15938 186.81563 69.65938 187.37813Q69.175 187.925 68.05 188.87813Q67.09688 189.675 66.81563 189.97188Q66.55 190.25313 66.37813 190.53438L70.59688 190.53438Z" fill-rule="nonzero"/><path fill="#000000" d="M65.05 149.6823Q65.05 148.15105 65.3625 147.22917Q65.675 146.29167 66.28438 145.79167Q66.90938 145.29167 67.84688 145.29167Q68.53438 145.29167 69.05 145.57292Q69.58125 145.85417 69.925 146.38542Q70.26875 146.90105 70.45625 147.65105Q70.64375 148.40105 70.64375 149.6823Q70.64375 151.19792 70.33125 152.1198Q70.03438 153.04167 69.40938 153.5573Q68.8 154.0573 67.84688 154.0573Q66.6125 154.0573 65.89375 153.16667Q65.05 152.10417 65.05 149.6823ZM66.12813 149.6823Q66.12813 151.79167 66.62813 152.4948Q67.12813 153.19792 67.84688 153.19792Q68.58125 153.19792 69.06563 152.4948Q69.56563 151.79167 69.56563 149.6823Q69.56563 147.5573 69.06563 146.8698Q68.58125 146.16667 67.83125 146.16667Q67.1125 146.16667 66.675 146.77605Q66.12813 147.5573 66.12813 149.6823Z" fill-rule="nonzero"/><path fill="#000000" d="M70.59688 115.26771L70.59688 116.28333L64.90938 116.28333Q64.90938 115.90833 65.03438 115.54896Q65.25313 114.97083 65.72188 114.40833Q66.20625 113.84583 67.1125 113.11146Q68.51875 111.95521 69.00313 111.28333Q69.50313 110.61146 69.50313 110.01771Q69.50313 109.39271 69.05 108.97083Q68.59688 108.53333 67.87813 108.53333Q67.1125 108.53333 66.65938 108.98646Q66.20625 109.43958 66.19063 110.25208L65.1125 110.14271Q65.22188 108.92396 65.94063 108.29896Q66.675 107.65833 67.90938 107.65833Q69.14375 107.65833 69.8625 108.34583Q70.58125 109.03333 70.58125 110.04896Q70.58125 110.56458 70.3625 111.06458Q70.15938 111.54896 69.65938 112.11146Q69.175 112.65833 68.05 113.61146Q67.09688 114.40833 66.81563 114.70521Q66.55 114.98646 66.37813 115.26771L70.59688 115.26771Z" fill-rule="nonzero"/><path fill="#000000" d="M81.36077 313.21564Q81.36077 311.6844 81.67327 310.7625Q81.98577 309.825 82.595146 309.325Q83.220146 308.825 84.157646 308.825Q84.845146 308.825 85.36077 309.10626Q85.89202 309.3875 86.23577 309.91876Q86.57952 310.4344 86.76702 311.1844Q86.95452 311.9344 86.95452 313.21564Q86.95452 314.73126 86.64202 315.65314Q86.345146 316.575 85.720146 317.09064Q85.11077 317.59064 84.157646 317.59064Q82.92327 317.59064 82.20452 316.7Q81.36077 315.6375 81.36077 313.21564ZM82.438896 313.21564Q82.438896 315.325 82.938896 316.02814Q83.438896 316.73126 84.157646 316.73126Q84.89202 316.73126 85.376396 316.02814Q85.876396 315.325 85.876396 313.21564Q85.876396 311.09064 85.376396 310.40314Q84.89202 309.7 84.14202 309.7Q83.42327 309.7 82.98577 310.3094Q82.438896 311.09064 82.438896 313.21564Z" fill-rule="nonzero"/><path fill="#000000" d="M200.59166 316.4344L200.59166 317.45L194.90416 317.45Q194.90416 317.075 195.02916 316.71564Q195.24791 316.1375 195.71666 315.575Q196.20103 315.0125 197.10728 314.27814Q198.51353 313.1219 198.99791 312.45Q199.49791 311.77814 199.49791 311.1844Q199.49791 310.5594 199.04478 310.1375Q198.59166 309.7 197.87291 309.7Q197.10728 309.7 196.65416 310.15314Q196.20103 310.60626 196.18541 311.41876L195.10728 311.3094Q195.21666 310.09064 195.93541 309.46564Q196.66978 308.825 197.90416 308.825Q199.13853 308.825 199.85728 309.5125Q200.57603 310.2 200.57603 311.21564Q200.57603 311.73126 200.35728 312.23126Q200.15416 312.71564 199.65416 313.27814Q199.16978 313.825 198.04478 314.77814Q197.09166 315.575 196.81041 315.8719Q196.54478 316.15314 196.37291 316.4344L200.59166 316.4344ZM202.04478 315.2L203.15416 315.10626Q203.27916 315.91876 203.71666 316.325Q204.16978 316.73126 204.81041 316.73126Q205.56041 316.73126 206.09166 316.15314Q206.62291 315.575 206.62291 314.6375Q206.62291 313.73126 206.10728 313.21564Q205.60728 312.6844 204.77916 312.6844Q204.27916 312.6844 203.85728 312.91876Q203.45103 313.15314 203.21666 313.5125L202.23228 313.3875L203.06041 308.98126L207.34166 308.98126L207.34166 309.98126L203.90416 309.98126L203.45103 312.29376Q204.21666 311.7469 205.06041 311.7469Q206.18541 311.7469 206.95103 312.52814Q207.73228 313.3094 207.73228 314.54376Q207.73228 315.7 207.06041 316.5594Q206.23228 317.59064 204.81041 317.59064Q203.63853 317.59064 202.88853 316.9344Q202.15416 316.27814 202.04478 315.2ZM209.04478 313.21564Q209.04478 311.6844 209.35728 310.7625Q209.66978 309.825 210.27916 309.325Q210.90416 308.825 211.84166 308.825Q212.52916 308.825 213.04478 309.10626Q213.57603 309.3875 213.91978 309.91876Q214.26353 310.4344 214.45103 311.1844Q214.63853 311.9344 214.63853 313.21564Q214.63853 314.73126 214.32603 315.65314Q214.02916 316.575 213.40416 317.09064Q212.79478 317.59064 211.84166 317.59064Q210.60728 317.59064 209.88853 316.7Q209.04478 315.6375 209.04478 313.21564ZM210.12291 313.21564Q210.12291 315.325 210.62291 316.02814Q211.12291 316.73126 211.84166 316.73126Q212.57603 316.73126 213.06041 316.02814Q213.56041 315.325 213.56041 313.21564Q213.56041 311.09064 213.06041 310.40314Q212.57603 309.7 211.82603 309.7Q211.10728 309.7 210.66978 310.3094Q210.12291 311.09064 210.12291 313.21564ZM216.04478 313.21564Q216.04478 311.6844 216.35728 310.7625Q216.66978 309.825 217.27916 309.325Q217.90416 308.825 218.84166 308.825Q219.52916 308.825 220.04478 309.10626Q220.57603 309.3875 220.91978 309.91876Q221.26353 310.4344 221.45103 311.1844Q221.63853 311.9344 221.63853 313.21564Q221.63853 314.73126 221.32603 315.65314Q221.02916 316.575 220.40416 317.09064Q219.79478 317.59064 218.84166 317.59064Q217.60728 317.59064 216.88853 316.7Q216.04478 315.6375 216.04478 313.21564ZM217.12291 313.21564Q217.12291 315.325 217.62291 316.02814Q218.12291 316.73126 218.84166 316.73126Q219.57603 316.73126 220.06041 316.02814Q220.56041 315.325 220.56041 313.21564Q220.56041 311.09064 220.06041 310.40314Q219.57603 309.7 218.82603 309.7Q218.10728 309.7 217.66978 310.3094Q217.12291 311.09064 217.12291 313.21564Z" fill-rule="nonzero"/><path fill="#000000" d="M319.2288 315.2L320.33817 315.10626Q320.46317 315.91876 320.90067 316.325Q321.3538 316.73126 321.99442 316.73126Q322.74442 316.73126 323.27567 316.15314Q323.80692 315.575 323.80692 314.6375Q323.80692 313.73126 323.2913 313.21564Q322.7913 312.6844 321.96317 312.6844Q321.46317 312.6844 321.0413 312.91876Q320.63504 313.15314 320.40067 313.5125L319.4163 313.3875L320.24442 308.98126L324.52567 308.98126L324.52567 309.98126L321.08817 309.98126L320.63504 312.29376Q321.40067 311.7469 322.24442 311.7469Q323.36942 311.7469 324.13504 312.52814Q324.9163 313.3094 324.9163 314.54376Q324.9163 315.7 324.24442 316.5594Q323.4163 317.59064 321.99442 317.59064Q320.82254 317.59064 320.07254 316.9344Q319.33817 316.27814 319.2288 315.2ZM326.2288 313.21564Q326.2288 311.6844 326.5413 310.7625Q326.8538 309.825 327.46317 309.325Q328.08817 308.825 329.02567 308.825Q329.71317 308.825 330.2288 309.10626Q330.76004 309.3875 331.1038 309.91876Q331.44754 310.4344 331.63504 311.1844Q331.82254 311.9344 331.82254 313.21564Q331.82254 314.73126 331.51004 315.65314Q331.21317 316.575 330.58817 317.09064Q329.9788 317.59064 329.02567 317.59064Q327.7913 317.59064 327.07254 316.7Q326.2288 315.6375 326.2288 313.21564ZM327.30692 313.21564Q327.30692 315.325 327.80692 316.02814Q328.30692 316.73126 329.02567 316.73126Q329.76004 316.73126 330.24442 316.02814Q330.74442 315.325 330.74442 313.21564Q330.74442 311.09064 330.24442 310.40314Q329.76004 309.7 329.01004 309.7Q328.2913 309.7 327.8538 310.3094Q327.30692 311.09064 327.30692 313.21564ZM333.2288 313.21564Q333.2288 311.6844 333.5413 310.7625Q333.8538 309.825 334.46317 309.325Q335.08817 308.825 336.02567 308.825Q336.71317 308.825 337.2288 309.10626Q337.76004 309.3875 338.1038 309.91876Q338.44754 310.4344 338.63504 311.1844Q338.82254 311.9344 338.82254 313.21564Q338.82254 314.73126 338.51004 315.65314Q338.21317 316.575 337.58817 317.09064Q336.9788 317.59064 336.02567 317.59064Q334.7913 317.59064 334.07254 316.7Q333.2288 315.6375 333.2288 313.21564ZM334.30692 313.21564Q334.30692 315.325 334.80692 316.02814Q335.30692 316.73126 336.02567 316.73126Q336.76004 316.73126 337.24442 316.02814Q337.74442 315.325 337.74442 313.21564Q337.74442 311.09064 337.24442 310.40314Q336.76004 309.7 336.01004 309.7Q335.2913 309.7 334.8538 310.3094Q334.30692 311.09064 334.30692 313.21564ZM340.2288 313.21564Q340.2288 311.6844 340.5413 310.7625Q340.8538 309.825 341.46317 309.325Q342.08817 308.825 343.02567 308.825Q343.71317 308.825 344.2288 309.10626Q344.76004 309.3875 345.1038 309.91876Q345.44754 310.4344 345.63504 311.1844Q345.82254 311.9344 345.82254 313.21564Q345.82254 314.73126 345.51004 315.65314Q345.21317 316.575 344.58817 317.09064Q343.9788 317.59064 343.02567 317.59064Q341.7913 317.59064 341.07254 316.7Q340.2288 315.6375 340.2288 313.21564ZM341.30692 313.21564Q341.30692 315.325 341.80692 316.02814Q342.30692 316.73126 343.02567 316.73126Q343.76004 316.73126 344.24442 316.02814Q344.74442 315.325 344.74442 313.21564Q344.74442 311.09064 344.24442 310.40314Q343.76004 309.7 343.01004 309.7Q342.2913 309.7 341.8538 310.3094Q341.30692 311.09064 341.30692 313.21564Z" fill-rule="nonzero"/><path fill="#000000" d="M443.47528 309.98126L443.47528 308.96564L449.03778 308.96564L449.03778 309.79376Q448.22528 310.66876 447.41278 312.1219Q446.6159 313.5594 446.1784 315.09064Q445.85028 316.16876 445.77216 317.45L444.6784 317.45Q444.69403 316.4344 445.06903 314.9969Q445.45966 313.5594 446.16278 312.23126Q446.88153 310.90314 447.69403 309.98126L443.47528 309.98126ZM450.41278 315.2L451.52216 315.10626Q451.64716 315.91876 452.08466 316.325Q452.53778 316.73126 453.1784 316.73126Q453.9284 316.73126 454.45966 316.15314Q454.9909 315.575 454.9909 314.6375Q454.9909 313.73126 454.47528 313.21564Q453.97528 312.6844 453.14716 312.6844Q452.64716 312.6844 452.22528 312.91876Q451.81903 313.15314 451.58466 313.5125L450.60028 313.3875L451.4284 308.98126L455.70966 308.98126L455.70966 309.98126L452.27216 309.98126L451.81903 312.29376Q452.58466 311.7469 453.4284 311.7469Q454.5534 311.7469 455.31903 312.52814Q456.10028 313.3094 456.10028 314.54376Q456.10028 315.7 455.4284 316.5594Q454.60028 317.59064 453.1784 317.59064Q452.00653 317.59064 451.25653 316.9344Q450.52216 316.27814 450.41278 315.2ZM457.41278 313.21564Q457.41278 311.6844 457.72528 310.7625Q458.03778 309.825 458.64716 309.325Q459.27216 308.825 460.20966 308.825Q460.89716 308.825 461.41278 309.10626Q461.94403 309.3875 462.28778 309.91876Q462.63153 310.4344 462.81903 311.1844Q463.00653 311.9344 463.00653 313.21564Q463.00653 314.73126 462.69403 315.65314Q462.39716 316.575 461.77216 317.09064Q461.16278 317.59064 460.20966 317.59064Q458.97528 317.59064 458.25653 316.7Q457.41278 315.6375 457.41278 313.21564ZM458.4909 313.21564Q458.4909 315.325 458.9909 316.02814Q459.4909 316.73126 460.20966 316.73126Q460.94403 316.73126 461.4284 316.02814Q461.9284 315.325 461.9284 313.21564Q461.9284 311.09064 461.4284 310.40314Q460.94403 309.7 460.19403 309.7Q459.47528 309.7 459.03778 310.3094Q458.4909 311.09064 458.4909 313.21564ZM464.41278 313.21564Q464.41278 311.6844 464.72528 310.7625Q465.03778 309.825 465.64716 309.325Q466.27216 308.825 467.20966 308.825Q467.89716 308.825 468.41278 309.10626Q468.94403 309.3875 469.28778 309.91876Q469.63153 310.4344 469.81903 311.1844Q470.00653 311.9344 470.00653 313.21564Q470.00653 314.73126 469.69403 315.65314Q469.39716 316.575 468.77216 317.09064Q468.16278 317.59064 467.20966 317.59064Q465.97528 317.59064 465.25653 316.7Q464.41278 315.6375 464.41278 313.21564ZM465.4909 313.21564Q465.4909 315.325 465.9909 316.02814Q466.4909 316.73126 467.20966 316.73126Q467.94403 316.73126 468.4284 316.02814Q468.9284 315.325 468.9284 313.21564Q468.9284 311.09064 468.4284 310.40314Q467.94403 309.7 467.19403 309.7Q466.47528 309.7 466.03778 310.3094Q465.4909 311.09064 465.4909 313.21564Z" fill-rule="nonzero"/><path fill="#000000" d="M568.06555 317.45L567.0187 317.45L567.0187 310.73126Q566.62805 311.09064 566.00305 311.46564Q565.3937 311.825 564.9093 311.9969L564.9093 310.98126Q565.7843 310.5594 566.44055 309.98126Q567.1124 309.3875 567.3937 308.825L568.06555 308.825L568.06555 317.45ZM571.0968 313.21564Q571.0968 311.6844 571.4093 310.7625Q571.7218 309.825 572.3312 309.325Q572.9562 308.825 573.8937 308.825Q574.5812 308.825 575.0968 309.10626Q575.62805 309.3875 575.9718 309.91876Q576.31555 310.4344 576.50305 311.1844Q576.69055 311.9344 576.69055 313.21564Q576.69055 314.73126 576.37805 315.65314Q576.0812 316.575 575.4562 317.09064Q574.8468 317.59064 573.8937 317.59064Q572.6593 317.59064 571.94055 316.7Q571.0968 315.6375 571.0968 313.21564ZM572.1749 313.21564Q572.1749 315.325 572.6749 316.02814Q573.1749 316.73126 573.8937 316.73126Q574.62805 316.73126 575.1124 316.02814Q575.6124 315.325 575.6124 313.21564Q575.6124 311.09064 575.1124 310.40314Q574.62805 309.7 573.87805 309.7Q573.1593 309.7 572.7218 310.3094Q572.1749 311.09064 572.1749 313.21564ZM578.0968 313.21564Q578.0968 311.6844 578.4093 310.7625Q578.7218 309.825 579.3312 309.325Q579.9562 308.825 580.8937 308.825Q581.5812 308.825 582.0968 309.10626Q582.62805 309.3875 582.9718 309.91876Q583.31555 310.4344 583.50305 311.1844Q583.69055 311.9344 583.69055 313.21564Q583.69055 314.73126 583.37805 315.65314Q583.0812 316.575 582.4562 317.09064Q581.8468 317.59064 580.8937 317.59064Q579.6593 317.59064 578.94055 316.7Q578.0968 315.6375 578.0968 313.21564ZM579.1749 313.21564Q579.1749 315.325 579.6749 316.02814Q580.1749 316.73126 580.8937 316.73126Q581.62805 316.73126 582.1124 316.02814Q582.6124 315.325 582.6124 313.21564Q582.6124 311.09064 582.1124 310.40314Q581.62805 309.7 580.87805 309.7Q580.1593 309.7 579.7218 310.3094Q579.1749 311.09064 579.1749 313.21564ZM585.0968 313.21564Q585.0968 311.6844 585.4093 310.7625Q585.7218 309.825 586.3312 309.325Q586.9562 308.825 587.8937 308.825Q588.5812 308.825 589.0968 309.10626Q589.62805 309.3875 589.9718 309.91876Q590.31555 310.4344 590.50305 311.1844Q590.69055 311.9344 590.69055 313.21564Q590.69055 314.73126 590.37805 315.65314Q590.0812 316.575 589.4562 317.09064Q588.8468 317.59064 587.8937 317.59064Q586.6593 317.59064 585.94055 316.7Q585.0968 315.6375 585.0968 313.21564ZM586.1749 313.21564Q586.1749 315.325 586.6749 316.02814Q587.1749 316.73126 587.8937 316.73126Q588.62805 316.73126 589.1124 316.02814Q589.6124 315.325 589.6124 313.21564Q589.6124 311.09064 589.1124 310.40314Q588.62805 309.7 587.87805 309.7Q587.1593 309.7 586.7218 310.3094Q586.1749 311.09064 586.1749 313.21564ZM592.0968 313.21564Q592.0968 311.6844 592.4093 310.7625Q592.7218 309.825 593.3312 309.325Q593.9562 308.825 594.8937 308.825Q595.5812 308.825 596.0968 309.10626Q596.62805 309.3875 596.9718 309.91876Q597.31555 310.4344 597.50305 311.1844Q597.69055 311.9344 597.69055 313.21564Q597.69055 314.73126 597.37805 315.65314Q597.0812 316.575 596.4562 317.09064Q595.8468 317.59064 594.8937 317.59064Q593.6593 317.59064 592.94055 316.7Q592.0968 315.6375 592.0968 313.21564ZM593.1749 313.21564Q593.1749 315.325 593.6749 316.02814Q594.1749 316.73126 594.8937 316.73126Q595.62805 316.73126 596.1124 316.02814Q596.6124 315.325 596.6124 313.21564Q596.6124 311.09064 596.1124 310.40314Q595.62805 309.7 594.87805 309.7Q594.1593 309.7 593.7218 310.3094Q593.1749 311.09064 593.1749 313.21564Z" fill-rule="nonzero"/><path fill="#4285f4" d="M209.0 85.916664C209.0 89.23038 206.3137 91.916664 203.0 91.916664C199.6863 91.916664 197.0 89.23038 197.0 85.916664C197.0 82.60296 199.6863 79.916664 203.0 79.916664C206.3137 79.916664 209.0 82.60296 209.0 85.916664Z" fill-rule="nonzero"/><path fill="#1a1a1a" d="M220.375 89.916664L217.04688 81.322914L218.28125 81.322914L220.51562 87.572914Q220.78125 88.322914 220.96875 88.979164Q221.17188 88.27604 221.4375 87.572914L223.75 81.322914L224.90625 81.322914L221.54688 89.916664L220.375 89.916664ZM225.40625 86.80729Q225.40625 85.072914 226.35938 84.24479Q227.15625 83.55729 228.3125 83.55729Q229.59375 83.55729 230.40625 84.40104Q231.23438 85.229164 231.23438 86.71354Q231.23438 87.916664 230.875 88.604164Q230.51562 89.291664 229.8125 89.68229Q229.125 90.05729 228.3125 90.05729Q227.01562 90.05729 226.20312 89.229164Q225.40625 88.385414 225.40625 86.80729ZM226.48438 86.80729Q226.48438 87.99479 227.0 88.58854Q227.53125 89.18229 228.3125 89.18229Q229.10938 89.18229 229.625 88.58854Q230.14062 87.99479 230.14062 86.77604Q230.14062 85.61979 229.60938 85.02604Q229.09375 84.43229 228.3125 84.43229Q227.53125 84.43229 227.0 85.02604Q226.48438 85.604164 226.48438 86.80729ZM237.8125 92.447914Q236.9375 91.33854 236.32812 89.86979Q235.73438 88.385414 235.73438 86.80729Q235.73438 85.416664 236.17188 84.135414Q236.70312 82.65104 237.8125 81.18229L238.5625 81.18229Q237.85938 82.40104 237.625 82.916664Q237.26562 83.729164 237.0625 84.604164Q236.8125 85.697914 236.8125 86.80729Q236.8125 89.635414 238.5625 92.447914L237.8125 92.447914ZM242.375 89.916664L239.04688 81.322914L240.28125 81.322914L242.51562 87.572914Q242.78125 88.322914 242.96875 88.979164Q243.17188 88.27604 243.4375 87.572914L245.75 81.322914L246.90625 81.322914L243.54688 89.916664L242.375 89.916664ZM248.48438 92.447914L247.73438 92.447914Q249.48438 89.635414 249.48438 86.80729Q249.48438 85.71354 249.23438 84.61979Q249.03125 83.74479 248.67188 82.93229Q248.4375 82.416664 247.73438 81.18229L248.48438 81.18229Q249.57812 82.65104 250.10938 84.135414Q250.5625 85.416664 250.5625 86.80729Q250.5625 88.385414 249.95312 89.86979Q249.34375 91.33854 248.48438 92.447914Z" fill-rule="nonzero"/><path stroke="#4285f4" stroke-width="4.0" stroke-linecap="butt" stroke-opacity="0.4" d="M267.0 85.916664L279.0 85.916664" fill-rule="nonzero"/><path fill="#1a1a1a" d="M287.375 87.33854L287.375 86.27604L290.625 86.27604L290.625 87.33854L287.375 87.33854ZM296.96875 83.43229L295.92188 83.510414Q295.78125 82.885414 295.53125 82.604164Q295.09375 82.15104 294.46875 82.15104Q293.96875 82.15104 293.57812 82.43229Q293.09375 82.80729 292.79688 83.510414Q292.51562 84.197914 292.5 85.479164Q292.875 84.90104 293.42188 84.61979Q293.98438 84.33854 294.59375 84.33854Q295.64062 84.33854 296.375 85.11979Q297.125 85.90104 297.125 87.11979Q297.125 87.93229 296.76562 88.635414Q296.42188 89.322914 295.8125 89.697914Q295.20312 90.05729 294.4375 90.05729Q293.10938 90.05729 292.28125 89.08854Q291.45312 88.11979 291.45312 85.90104Q291.45312 83.40104 292.375 82.27604Q293.17188 81.291664 294.53125 81.291664Q295.54688 81.291664 296.1875 81.86979Q296.84375 82.43229 296.96875 83.43229ZM292.67188 87.135414Q292.67188 87.68229 292.89062 88.18229Q293.125 88.666664 293.53125 88.93229Q293.95312 89.197914 294.42188 89.197914Q295.07812 89.197914 295.5625 88.666664Q296.04688 88.11979 296.04688 87.197914Q296.04688 86.30729 295.5625 85.791664Q295.09375 85.27604 294.375 85.27604Q293.65625 85.27604 293.15625 85.791664Q292.67188 86.30729 292.67188 87.135414ZM299.09375 89.916664L299.09375 88.71354L300.29688 88.71354L300.29688 89.916664L299.09375 89.916664ZM307.04688 88.90104L307.04688 89.916664L301.35938 89.916664Q301.35938 89.541664 301.48438 89.18229Q301.70312 88.604164 302.17188 88.041664Q302.65625 87.479164 303.5625 86.74479Q304.96875 85.58854 305.45312 84.916664Q305.95312 84.24479 305.95312 83.65104Q305.95312 83.02604 305.5 82.604164Q305.04688 82.166664 304.32812 82.166664Q303.5625 82.166664 303.10938 82.61979Q302.65625 83.072914 302.64062 83.885414L301.5625 83.77604Q301.67188 82.55729 302.39062 81.93229Q303.125 81.291664 304.35938 81.291664Q305.59375 81.291664 306.3125 81.979164Q307.03125 82.666664 307.03125 83.68229Q307.03125 84.197914 306.8125 84.697914Q306.60938 85.18229 306.10938 85.74479Q305.625 86.291664 304.5 87.24479Q303.54688 88.041664 303.26562 88.33854Q303.0 88.61979 302.82812 88.90104L307.04688 88.90104ZM312.46875 89.916664L311.42188 89.916664L311.42188 83.197914Q311.03125 83.55729 310.40625 83.93229Q309.79688 84.291664 309.3125 84.46354L309.3125 83.447914Q310.1875 83.02604 310.84375 82.447914Q311.51562 81.854164 311.79688 81.291664L312.46875 81.291664L312.46875 89.916664ZM315.95312 89.916664L315.95312 81.322914L322.15625 81.322914L322.15625 82.33854L317.09375 82.33854L317.09375 84.96354L321.84375 84.96354L321.84375 85.979164L317.09375 85.979164L317.09375 88.90104L322.35938 88.90104L322.35938 89.916664L315.95312 89.916664ZM323.375 87.33854L323.375 86.27604L326.625 86.27604L326.625 87.33854L323.375 87.33854ZM327.5 85.68229Q327.5 84.15104 327.8125 83.229164Q328.125 82.291664 328.73438 81.791664Q329.35938 81.291664 330.29688 81.291664Q330.98438 81.291664 331.5 81.572914Q332.03125 81.854164 332.375 82.385414Q332.71875 82.90104 332.90625 83.65104Q333.09375 84.40104 333.09375 85.68229Q333.09375 87.197914 332.78125 88.11979Q332.48438 89.041664 331.85938 89.55729Q331.25 90.05729 330.29688 90.05729Q329.0625 90.05729 328.34375 89.166664Q327.5 88.104164 327.5 85.68229ZM328.57812 85.68229Q328.57812 87.791664 329.07812 88.49479Q329.57812 89.197914 330.29688 89.197914Q331.03125 89.197914 331.51562 88.49479Q332.01562 87.791664 332.01562 85.68229Q332.01562 83.55729 331.51562 82.86979Q331.03125 82.166664 330.28125 82.166664Q329.5625 82.166664 329.125 82.77604Q328.57812 83.55729 328.57812 85.68229ZM337.875 89.916664L337.875 87.854164L334.15625 87.854164L334.15625 86.885414L338.07812 81.322914L338.9375 81.322914L338.9375 86.885414L340.09375 86.885414L340.09375 87.854164L338.9375 87.854164L338.9375 89.916664L337.875 89.916664ZM337.875 86.885414L337.875 83.02604L335.1875 86.885414L337.875 86.885414ZM341.375 82.90104L341.64062 82.072914Q342.57812 82.40104 343.0 82.635414Q342.89062 81.572914 342.875 81.18229L343.73438 81.18229Q343.71875 81.760414 343.59375 82.635414Q344.20312 82.322914 344.98438 82.072914L345.25 82.90104Q344.5 83.15104 343.79688 83.229164Q344.14062 83.541664 344.79688 84.33854L344.09375 84.83854Q343.75 84.36979 343.29688 83.572914Q342.85938 84.40104 342.53125 84.83854L341.84375 84.33854Q342.51562 83.49479 342.8125 83.229164Q342.0625 83.08854 341.375 82.90104ZM346.09375 89.916664L348.35938 86.68229L346.26562 83.697914L347.57812 83.697914L348.53125 85.15104Q348.79688 85.572914 348.96875 85.854164Q349.21875 85.46354 349.4375 85.166664L350.48438 83.697914L351.75 83.697914L349.59375 86.61979L351.90625 89.916664L350.625 89.916664L349.34375 87.979164L349.0 87.46354L347.35938 89.916664L346.09375 89.916664ZM358.0 88.52604L358.0 86.166664L355.67188 86.166664L355.67188 85.18229L358.0 85.18229L358.0 82.854164L359.0 82.854164L359.0 85.18229L361.34375 85.18229L361.34375 86.166664L359.0 86.166664L359.0 88.52604L358.0 88.52604ZM365.5 85.68229Q365.5 84.15104 365.8125 83.229164Q366.125 82.291664 366.73438 81.791664Q367.35938 81.291664 368.29688 81.291664Q368.98438 81.291664 369.5 81.572914Q370.03125 81.854164 370.375 82.385414Q370.71875 82.90104 370.90625 83.65104Q371.09375 84.40104 371.09375 85.68229Q371.09375 87.197914 370.78125 88.11979Q370.48438 89.041664 369.85938 89.55729Q369.25 90.05729 368.29688 90.05729Q367.0625 90.05729 366.34375 89.166664Q365.5 88.104164 365.5 85.68229ZM366.57812 85.68229Q366.57812 87.791664 367.07812 88.49479Q367.57812 89.197914 368.29688 89.197914Q369.03125 89.197914 369.51562 88.49479Q370.01562 87.791664 370.01562 85.68229Q370.01562 83.55729 369.51562 82.86979Q369.03125 82.166664 368.28125 82.166664Q367.5625 82.166664 367.125 82.77604Q366.57812 83.55729 366.57812 85.68229ZM373.09375 89.916664L373.09375 88.71354L374.29688 88.71354L374.29688 89.916664L373.09375 89.916664ZM375.5 85.68229Q375.5 84.15104 375.8125 83.229164Q376.125 82.291664 376.73438 81.791664Q377.35938 81.291664 378.29688 81.291664Q378.98438 81.291664 379.5 81.572914Q380.03125 81.854164 380.375 82.385414Q380.71875 82.90104 380.90625 83.65104Q381.09375 84.40104 381.09375 85.68229Q381.09375 87.197914 380.78125 88.11979Q380.48438 89.041664 379.85938 89.55729Q379.25 90.05729 378.29688 90.05729Q377.0625 90.05729 376.34375 89.166664Q375.5 88.104164 375.5 85.68229ZM376.57812 85.68229Q376.57812 87.791664 377.07812 88.49479Q377.57812 89.197914 378.29688 89.197914Q379.03125 89.197914 379.51562 88.49479Q380.01562 87.791664 380.01562 85.68229Q380.01562 83.55729 379.51562 82.86979Q379.03125 82.166664 378.28125 82.166664Q377.5625 82.166664 377.125 82.77604Q376.57812 83.55729 376.57812 85.68229ZM388.04688 88.90104L388.04688 89.916664L382.35938 89.916664Q382.35938 89.541664 382.48438 89.18229Q382.70312 88.604164 383.17188 88.041664Q383.65625 87.479164 384.5625 86.74479Q385.96875 85.58854 386.45312 84.916664Q386.95312 84.24479 386.95312 83.65104Q386.95312 83.02604 386.5 82.604164Q386.04688 82.166664 385.32812 82.166664Q384.5625 82.166664 384.10938 82.61979Q383.65625 83.072914 383.64062 83.885414L382.5625 83.77604Q382.67188 82.55729 383.39062 81.93229Q384.125 81.291664 385.35938 81.291664Q386.59375 81.291664 387.3125 81.979164Q388.03125 82.666664 388.03125 83.68229Q388.03125 84.197914 387.8125 84.697914Q387.60938 85.18229 387.10938 85.74479Q386.625 86.291664 385.5 87.24479Q384.54688 88.041664 384.26562 88.33854Q384.0 88.61979 383.82812 88.90104L388.04688 88.90104ZM389.5 85.68229Q389.5 84.15104 389.8125 83.229164Q390.125 82.291664 390.73438 81.791664Q391.35938 81.291664 392.29688 81.291664Q392.98438 81.291664 393.5 81.572914Q394.03125 81.854164 394.375 82.385414Q394.71875 82.90104 394.90625 83.65104Q395.09375 84.40104 395.09375 85.68229Q395.09375 87.197914 394.78125 88.11979Q394.48438 89.041664 393.85938 89.55729Q393.25 90.05729 392.29688 90.05729Q391.0625 90.05729 390.34375 89.166664Q389.5 88.104164 389.5 85.68229ZM390.57812 85.68229Q390.57812 87.791664 391.07812 88.49479Q391.57812 89.197914 392.29688 89.197914Q393.03125 89.197914 393.51562 88.49479Q394.01562 87.791664 394.01562 85.68229Q394.01562 83.55729 393.51562 82.86979Q393.03125 82.166664 392.28125 82.166664Q391.5625 82.166664 391.125 82.77604Q390.57812 83.55729 390.57812 85.68229ZM396.5 87.666664L397.60938 87.572914Q397.73438 88.385414 398.17188 88.791664Q398.625 89.197914 399.26562 89.197914Q400.01562 89.197914 400.54688 88.61979Q401.07812 88.041664 401.07812 87.104164Q401.07812 86.197914 400.5625 85.68229Q400.0625 85.15104 399.23438 85.15104Q398.73438 85.15104 398.3125 85.385414Q397.90625 85.61979 397.67188 85.979164L396.6875 85.854164L397.51562 81.447914L401.79688 81.447914L401.79688 82.447914L398.35938 82.447914L397.90625 84.760414Q398.67188 84.21354 399.51562 84.21354Q400.64062 84.21354 401.40625 84.99479Q402.1875 85.77604 402.1875 87.010414Q402.1875 88.166664 401.51562 89.02604Q400.6875 90.05729 399.26562 90.05729Q398.09375 90.05729 397.34375 89.40104Q396.60938 88.74479 396.5 87.666664Z" fill-rule="nonzero"/><path fill="#757575" d="M24.190624 37.55L18.64375 23.2375L20.690624 23.2375L24.409374 33.628124Q24.8625 34.878124 25.159374 35.971874Q25.4875 34.8 25.940624 33.628124L29.8 23.2375L31.7375 23.2375L26.128124 37.55L24.190624 37.55ZM32.221874 32.3625Q32.221874 29.4875 33.815624 28.096874Q35.159374 26.940624 37.08125 26.940624Q39.221874 26.940624 40.565624 28.346874Q41.925 29.753124 41.925 32.221874Q41.925 34.221874 41.33125 35.378124Q40.7375 36.51875 39.58125 37.159374Q38.440624 37.784374 37.08125 37.784374Q34.89375 37.784374 33.55 36.39375Q32.221874 34.9875 32.221874 32.3625ZM34.01875 32.3625Q34.01875 34.3625 34.878124 35.346874Q35.753124 36.33125 37.08125 36.33125Q38.39375 36.33125 39.253124 35.346874Q40.128124 34.346874 40.128124 32.3Q40.128124 30.378124 39.253124 29.39375Q38.378124 28.39375 37.08125 28.39375Q35.753124 28.39375 34.878124 29.39375Q34.01875 30.378124 34.01875 32.3625ZM53.221874 41.753124Q51.76875 39.925 50.76875 37.471874Q49.76875 35.003124 49.76875 32.3625Q49.76875 30.034374 50.51875 27.909374Q51.39375 25.440624 53.221874 22.9875L54.4875 22.9875Q53.3 25.01875 52.925 25.89375Q52.33125 27.2375 51.9875 28.70625Q51.565624 30.534374 51.565624 32.378124Q51.565624 37.065624 54.4875 41.753124L53.221874 41.753124ZM61.190624 37.55L55.64375 23.2375L57.690624 23.2375L61.409374 33.628124Q61.8625 34.878124 62.159374 35.971874Q62.4875 34.8 62.940624 33.628124L66.8 23.2375L68.7375 23.2375L63.128124 37.55L61.190624 37.55ZM71.01875 41.753124L69.76875 41.753124Q72.675 37.065624 72.675 32.378124Q72.675 30.534374 72.26875 28.7375Q71.925 27.26875 71.33125 25.925Q70.95625 25.034374 69.76875 22.9875L71.01875 22.9875Q72.8625 25.440624 73.7375 27.909374Q74.4875 30.034374 74.4875 32.3625Q74.4875 35.003124 73.47188 37.471874Q72.47188 39.925 71.01875 41.753124ZM85.75313 37.55L81.8 27.175L83.65938 27.175L85.89375 33.39375Q86.25313 34.39375 86.55 35.471874Q86.78438 34.659374 87.20625 33.503124L89.50313 27.175L91.31563 27.175L87.39375 37.55L85.75313 37.55ZM92.15938 34.45625L93.90938 34.175Q94.05 35.221874 94.72188 35.784374Q95.39375 36.33125 96.59688 36.33125Q97.8 36.33125 98.37813 35.846874Q98.97188 35.346874 98.97188 34.690624Q98.97188 34.096874 98.45625 33.753124Q98.09688 33.51875 96.65938 33.159374Q94.72188 32.659374 93.97188 32.315624Q93.2375 31.95625 92.84688 31.33125Q92.45625 30.690624 92.45625 29.925Q92.45625 29.2375 92.76875 28.64375Q93.09688 28.05 93.64375 27.659374Q94.05 27.3625 94.75313 27.159374Q95.47188 26.940624 96.28438 26.940624Q97.50313 26.940624 98.425 27.3Q99.34688 27.64375 99.78438 28.253124Q100.22188 28.846874 100.39375 29.846874L98.675 30.08125Q98.55 29.284374 97.9875 28.846874Q97.425 28.39375 96.40938 28.39375Q95.19063 28.39375 94.675 28.8Q94.15938 29.190624 94.15938 29.721874Q94.15938 30.065624 94.37813 30.346874Q94.58125 30.628124 95.05 30.815624Q95.31563 30.909374 96.59688 31.253124Q98.47188 31.753124 99.20625 32.08125Q99.94063 32.39375 100.3625 33.003124Q100.78438 33.596874 100.78438 34.503124Q100.78438 35.378124 100.26875 36.159374Q99.75313 36.940624 98.78438 37.3625Q97.81563 37.784374 96.59688 37.784374Q94.58125 37.784374 93.51875 36.940624Q92.45625 36.096874 92.15938 34.45625ZM103.3625 37.55L103.3625 35.55L105.3625 35.55L105.3625 37.55L103.3625 37.55ZM115.12813 37.55L115.12813 23.2375L121.47188 23.2375Q123.37813 23.2375 124.37813 23.628124Q125.37813 24.003124 125.97188 24.9875Q126.56563 25.95625 126.56563 27.14375Q126.56563 28.659374 125.58125 29.70625Q124.59688 30.753124 122.53438 31.034374Q123.28438 31.39375 123.675 31.753124Q124.50313 32.503124 125.25313 33.659374L127.7375 37.55L125.3625 37.55L123.45625 34.565624Q122.62813 33.284374 122.09688 32.596874Q121.56563 31.909374 121.12813 31.64375Q120.70625 31.3625 120.26875 31.253124Q119.94063 31.190624 119.22188 31.190624L117.01875 31.190624L117.01875 37.55L115.12813 37.55ZM117.01875 29.55L121.09688 29.55Q122.39375 29.55 123.1125 29.284374Q123.84688 29.01875 124.22188 28.425Q124.6125 27.83125 124.6125 27.14375Q124.6125 26.128124 123.87813 25.471874Q123.14375 24.815624 121.55 24.815624L117.01875 24.815624L117.01875 29.55ZM137.6125 35.8625L137.6125 37.55L128.15938 37.55Q128.14375 36.909374 128.3625 36.33125Q128.72188 35.3625 129.51875 34.425Q130.31563 33.4875 131.81563 32.253124Q134.15938 30.346874 134.97188 29.2375Q135.8 28.1125 135.8 27.1125Q135.8 26.065624 135.05 25.346874Q134.3 24.628124 133.09688 24.628124Q131.83125 24.628124 131.06563 25.39375Q130.3 26.159374 130.3 27.503124L128.4875 27.315624Q128.675 25.3 129.87813 24.2375Q131.09688 23.175 133.14375 23.175Q135.19063 23.175 136.39375 24.315624Q137.59688 25.45625 137.59688 27.14375Q137.59688 28.003124 137.2375 28.846874Q136.89375 29.675 136.08125 30.596874Q135.26875 31.503124 133.37813 33.1125Q131.78438 34.440624 131.33125 34.909374Q130.89375 35.378124 130.59688 35.8625L137.6125 35.8625ZM149.22188 41.753124Q147.76875 39.925 146.76875 37.471874Q145.76875 35.003124 145.76875 32.3625Q145.76875 30.034374 146.51875 27.909374Q147.39375 25.440624 149.22188 22.9875L150.4875 22.9875Q149.3 25.01875 148.925 25.89375Q148.33125 27.2375 147.9875 28.70625Q147.56563 30.534374 147.56563 32.378124Q147.56563 37.065624 150.4875 41.753124L149.22188 41.753124ZM152.51875 30.58125Q152.51875 27.01875 154.425 25.003124Q156.34688 22.971874 159.37813 22.971874Q161.3625 22.971874 162.94063 23.925Q164.53438 24.878124 165.3625 26.58125Q166.20625 28.26875 166.20625 30.409374Q166.20625 32.58125 165.33125 34.3Q164.45625 36.01875 162.83125 36.909374Q161.22188 37.8 159.3625 37.8Q157.34688 37.8 155.75313 36.83125Q154.15938 35.846874 153.33125 34.159374Q152.51875 32.45625 152.51875 30.58125ZM154.47188 30.6125Q154.47188 33.190624 155.8625 34.690624Q157.25313 36.175 159.34688 36.175Q161.4875 36.175 162.8625 34.675Q164.25313 33.159374 164.25313 30.39375Q164.25313 28.659374 163.65938 27.3625Q163.08125 26.05 161.94063 25.33125Q160.8 24.6125 159.37813 24.6125Q157.37813 24.6125 155.925 26.003124Q154.47188 27.378124 154.47188 30.6125ZM168.8625 37.55L168.8625 23.2375L170.62813 23.2375L170.62813 28.3625Q171.8625 26.940624 173.7375 26.940624Q174.87813 26.940624 175.72188 27.39375Q176.58125 27.846874 176.94063 28.659374Q177.31563 29.45625 177.31563 30.971874L177.31563 37.55L175.56563 37.55L175.56563 30.971874Q175.56563 29.659374 174.9875 29.065624Q174.40938 28.45625 173.37813 28.45625Q172.59688 28.45625 171.89375 28.8625Q171.20625 29.26875 170.90938 29.971874Q170.62813 30.659374 170.62813 31.878124L170.62813 37.55L168.8625 37.55ZM179.8625 37.55L179.8625 27.175L181.44063 27.175L181.44063 28.628124Q181.925 27.878124 182.7375 27.409374Q183.55 26.940624 184.58125 26.940624Q185.7375 26.940624 186.47188 27.425Q187.20625 27.89375 187.51875 28.753124Q188.75313 26.940624 190.72188 26.940624Q192.26875 26.940624 193.09688 27.8Q193.925 28.659374 193.925 30.425L193.925 37.55L192.175 37.55L192.175 31.01875Q192.175 29.95625 192.00313 29.503124Q191.83125 29.034374 191.37813 28.753124Q190.94063 28.471874 190.33125 28.471874Q189.2375 28.471874 188.50313 29.20625Q187.78438 29.925 187.78438 31.51875L187.78438 37.55L186.03438 37.55L186.03438 30.815624Q186.03438 29.64375 185.59688 29.065624Q185.175 28.471874 184.19063 28.471874Q183.45625 28.471874 182.81563 28.8625Q182.19063 29.253124 181.90938 30.003124Q181.62813 30.753124 181.62813 32.175L181.62813 37.55L179.8625 37.55ZM196.15938 34.45625L197.90938 34.175Q198.05 35.221874 198.72188 35.784374Q199.39375 36.33125 200.59688 36.33125Q201.8 36.33125 202.37813 35.846874Q202.97188 35.346874 202.97188 34.690624Q202.97188 34.096874 202.45625 33.753124Q202.09688 33.51875 200.65938 33.159374Q198.72188 32.659374 197.97188 32.315624Q197.2375 31.95625 196.84688 31.33125Q196.45625 30.690624 196.45625 29.925Q196.45625 29.2375 196.76875 28.64375Q197.09688 28.05 197.64375 27.659374Q198.05 27.3625 198.75313 27.159374Q199.47188 26.940624 200.28438 26.940624Q201.50313 26.940624 202.425 27.3Q203.34688 27.64375 203.78438 28.253124Q204.22188 28.846874 204.39375 29.846874L202.675 30.08125Q202.55 29.284374 201.9875 28.846874Q201.425 28.39375 200.40938 28.39375Q199.19063 28.39375 198.675 28.8Q198.15938 29.190624 198.15938 29.721874Q198.15938 30.065624 198.37813 30.346874Q198.58125 30.628124 199.05 30.815624Q199.31563 30.909374 200.59688 31.253124Q202.47188 31.753124 203.20625 32.08125Q203.94063 32.39375 204.3625 33.003124Q204.78438 33.596874 204.78438 34.503124Q204.78438 35.378124 204.26875 36.159374Q203.75313 36.940624 202.78438 37.3625Q201.81563 37.784374 200.59688 37.784374Q198.58125 37.784374 197.51875 36.940624Q196.45625 36.096874 196.15938 34.45625ZM208.01875 41.753124L206.76875 41.753124Q209.675 37.065624 209.675 32.378124Q209.675 30.534374 209.26875 28.7375Q208.925 27.26875 208.33125 25.925Q207.95625 25.034374 206.76875 22.9875L208.01875 22.9875Q209.8625 25.440624 210.7375 27.909374Q211.4875 30.034374 211.4875 32.3625Q211.4875 35.003124 210.47188 37.471874Q209.47188 39.925 208.01875 41.753124Z" fill-rule="nonzero"/></svg>